%TF.GenerationSoftware,KiCad,Pcbnew,9.0.0*%
%TF.CreationDate,2025-06-08T21:09:37+02:00*%
%TF.ProjectId,LDC_BNC_interface,4c44435f-424e-4435-9f69-6e7465726661,rev?*%
%TF.SameCoordinates,Original*%
%TF.FileFunction,Copper,L1,Top*%
%TF.FilePolarity,Positive*%
%FSLAX46Y46*%
G04 Gerber Fmt 4.6, Leading zero omitted, Abs format (unit mm)*
G04 Created by KiCad (PCBNEW 9.0.0) date 2025-06-08 21:09:37*
%MOMM*%
%LPD*%
G01*
G04 APERTURE LIST*
%TA.AperFunction,ComponentPad*%
%ADD10C,4.191000*%
%TD*%
%TA.AperFunction,ComponentPad*%
%ADD11R,1.562100X1.562100*%
%TD*%
%TA.AperFunction,ComponentPad*%
%ADD12C,1.562100*%
%TD*%
%TA.AperFunction,ComponentPad*%
%ADD13O,1.600000X2.500000*%
%TD*%
%TA.AperFunction,ComponentPad*%
%ADD14O,3.500000X7.000000*%
%TD*%
%TA.AperFunction,ComponentPad*%
%ADD15C,5.600000*%
%TD*%
%TA.AperFunction,ViaPad*%
%ADD16C,0.600000*%
%TD*%
%TA.AperFunction,Conductor*%
%ADD17C,0.200000*%
%TD*%
G04 APERTURE END LIST*
D10*
%TO.P,J4,0,PAD*%
%TO.N,GND*%
X230242000Y-94460400D03*
X230242000Y-47419600D03*
D11*
%TO.P,J4,1,1*%
%TO.N,/IN3A*%
X228819600Y-87500000D03*
D12*
%TO.P,J4,2,2*%
%TO.N,unconnected-(J4-Pad2)*%
X228819600Y-84740000D03*
%TO.P,J4,3,3*%
%TO.N,/IN2B*%
X228819600Y-81980000D03*
%TO.P,J4,4,4*%
%TO.N,/IN1A*%
X228819600Y-79220000D03*
%TO.P,J4,5,5*%
%TO.N,unconnected-(J4-Pad5)*%
X228819600Y-76460000D03*
%TO.P,J4,6,6*%
%TO.N,/IN0A*%
X228819600Y-73700000D03*
%TO.P,J4,7,7*%
%TO.N,unconnected-(J4-Pad7)*%
X228819600Y-70940000D03*
%TO.P,J4,8,8*%
%TO.N,/IN4A*%
X228819600Y-68180000D03*
%TO.P,J4,9,9*%
%TO.N,unconnected-(J4-Pad9)*%
X228819600Y-65420000D03*
%TO.P,J4,10,10*%
%TO.N,/IN5B*%
X228819600Y-62660000D03*
%TO.P,J4,11,11*%
%TO.N,/IN6A*%
X228819600Y-59900000D03*
%TO.P,J4,12,12*%
%TO.N,unconnected-(J4-Pad12)*%
X228819600Y-57140000D03*
%TO.P,J4,13,13*%
%TO.N,/IN7B*%
X228819600Y-54380000D03*
%TO.P,J4,14,P14*%
%TO.N,/IN3B*%
X231664400Y-86120000D03*
%TO.P,J4,15,P15*%
%TO.N,/IN2A*%
X231664400Y-83360000D03*
%TO.P,J4,16,P16*%
%TO.N,unconnected-(J4-P16-Pad16)*%
X231664400Y-80600000D03*
%TO.P,J4,17,P17*%
%TO.N,/IN1B*%
X231664400Y-77840000D03*
%TO.P,J4,18,P18*%
%TO.N,unconnected-(J4-P18-Pad18)*%
X231664400Y-75080000D03*
%TO.P,J4,19,P19*%
%TO.N,/IN0B*%
X231664400Y-72320000D03*
%TO.P,J4,20,P20*%
%TO.N,unconnected-(J4-P20-Pad20)*%
X231664400Y-69560000D03*
%TO.P,J4,21,P21*%
%TO.N,/IN4B*%
X231664400Y-66800000D03*
%TO.P,J4,22,P22*%
%TO.N,/IN5A*%
X231664400Y-64040000D03*
%TO.P,J4,23,P23*%
%TO.N,unconnected-(J4-P23-Pad23)*%
X231664400Y-61280000D03*
%TO.P,J4,24,P24*%
%TO.N,/IN6B*%
X231664400Y-58520000D03*
%TO.P,J4,25,P25*%
%TO.N,/IN7A*%
X231664400Y-55760000D03*
%TD*%
D13*
%TO.P,J5,1,In*%
%TO.N,/IN1A*%
X107440000Y-56450000D03*
D14*
%TO.P,J5,2,Ext*%
%TO.N,/IN1B*%
X102360000Y-51370000D03*
D13*
X104900000Y-56450000D03*
D14*
X112520000Y-51370000D03*
%TD*%
D13*
%TO.P,J9,1,In*%
%TO.N,/IN6A*%
X190288000Y-56450000D03*
D14*
%TO.P,J9,2,Ext*%
%TO.N,/IN6B*%
X185208000Y-51370000D03*
D13*
X187748000Y-56450000D03*
D14*
X195368000Y-51370000D03*
%TD*%
D15*
%TO.P,H2,1,1*%
%TO.N,GND*%
X222700000Y-94000000D03*
%TD*%
%TO.P,H4,1,1*%
%TO.N,GND*%
X53000000Y-48000000D03*
%TD*%
D13*
%TO.P,J1,1,In*%
%TO.N,/IN3A*%
X66016000Y-56450000D03*
D14*
%TO.P,J1,2,Ext*%
%TO.N,/IN3B*%
X60936000Y-51370000D03*
D13*
X63476000Y-56450000D03*
D14*
X71096000Y-51370000D03*
%TD*%
D13*
%TO.P,J2,1,In*%
%TO.N,/IN2A*%
X86728000Y-56450000D03*
D14*
%TO.P,J2,2,Ext*%
%TO.N,/IN2B*%
X81648000Y-51370000D03*
D13*
X84188000Y-56450000D03*
D14*
X91808000Y-51370000D03*
%TD*%
D13*
%TO.P,J7,1,In*%
%TO.N,/IN4A*%
X148864000Y-56450000D03*
D14*
%TO.P,J7,2,Ext*%
%TO.N,/IN4B*%
X143784000Y-51370000D03*
D13*
X146324000Y-56450000D03*
D14*
X153944000Y-51370000D03*
%TD*%
D15*
%TO.P,H1,1,1*%
%TO.N,GND*%
X222700000Y-48000000D03*
%TD*%
D13*
%TO.P,J8,1,In*%
%TO.N,/IN7A*%
X211000000Y-56450000D03*
D14*
%TO.P,J8,2,Ext*%
%TO.N,/IN7B*%
X205920000Y-51370000D03*
D13*
X208460000Y-56450000D03*
D14*
X216080000Y-51370000D03*
%TD*%
D13*
%TO.P,J3,1,In*%
%TO.N,/IN0A*%
X128152000Y-56450000D03*
D14*
%TO.P,J3,2,Ext*%
%TO.N,/IN0B*%
X123072000Y-51370000D03*
D13*
X125612000Y-56450000D03*
D14*
X133232000Y-51370000D03*
%TD*%
D15*
%TO.P,H3,1,1*%
%TO.N,GND*%
X53000000Y-94000000D03*
%TD*%
D13*
%TO.P,J6,1,In*%
%TO.N,/IN5A*%
X169576000Y-56450000D03*
D14*
%TO.P,J6,2,Ext*%
%TO.N,/IN5B*%
X164496000Y-51370000D03*
D13*
X167036000Y-56450000D03*
D14*
X174656000Y-51370000D03*
%TD*%
D16*
%TO.N,GND*%
X153777778Y-81000000D03*
X109000000Y-91000000D03*
X86714286Y-49000000D03*
X208000000Y-66000000D03*
X169571429Y-49000000D03*
X126666667Y-86000000D03*
X180888889Y-81000000D03*
X128142857Y-49000000D03*
X107428571Y-49000000D03*
X126666667Y-91000000D03*
X88000000Y-91000000D03*
X208000000Y-81000000D03*
X208000000Y-86000000D03*
X109000000Y-76000000D03*
X180888889Y-91000000D03*
X181000000Y-61000000D03*
X190285714Y-49000000D03*
X180888889Y-76000000D03*
X221000000Y-58000000D03*
X126666667Y-81000000D03*
X109000000Y-86000000D03*
X148857143Y-49000000D03*
X211000000Y-49000000D03*
X126666667Y-76000000D03*
X180888889Y-86000000D03*
X181000000Y-71000000D03*
X66000000Y-49000000D03*
X153777778Y-76000000D03*
X208000000Y-62000000D03*
X153777778Y-71000000D03*
X181000000Y-66000000D03*
X153777778Y-91000000D03*
X208000000Y-76000000D03*
X208000000Y-91000000D03*
X208000000Y-71000000D03*
X153777778Y-86000000D03*
X88000000Y-86000000D03*
%TD*%
D17*
%TO.N,/IN2A*%
X90050000Y-56450000D02*
X86728000Y-56450000D01*
X91407000Y-66574800D02*
X91407000Y-57807000D01*
X91407000Y-66907000D02*
X91407000Y-66574800D01*
X91407000Y-57807000D02*
X90050000Y-56450000D01*
X91641900Y-67141900D02*
X91407000Y-66907000D01*
X107860000Y-83360000D02*
X107625100Y-83125100D01*
X108192200Y-83360000D02*
X107860000Y-83360000D01*
X116960000Y-83360000D02*
X108192200Y-83360000D01*
X227674500Y-83360000D02*
X116960000Y-83360000D01*
X107625100Y-83125100D02*
X91641900Y-67141900D01*
X228006700Y-83360000D02*
X227674500Y-83360000D01*
X231664400Y-83360000D02*
X228006700Y-83360000D01*
%TO.N,/IN2B*%
X91808000Y-66740900D02*
X91808000Y-51370000D01*
X108026100Y-82959000D02*
X91808000Y-66740900D01*
X227840600Y-82959000D02*
X108026100Y-82959000D01*
X228819600Y-81980000D02*
X227840600Y-82959000D01*
%TO.N,/IN4B*%
X143784000Y-51370000D02*
X153944000Y-51370000D01*
X143784000Y-53384000D02*
X143784000Y-51370000D01*
X146324000Y-56450000D02*
X146324000Y-55924000D01*
X146324000Y-55924000D02*
X143784000Y-53384000D01*
%TO.N,/IN0B*%
X123072000Y-51370000D02*
X133232000Y-51370000D01*
X125612000Y-55812000D02*
X123072000Y-53272000D01*
X125612000Y-56450000D02*
X125612000Y-55812000D01*
X123072000Y-53272000D02*
X123072000Y-51370000D01*
%TO.N,/IN1B*%
X102360000Y-51370000D02*
X112520000Y-51370000D01*
X102360000Y-53360000D02*
X102360000Y-51370000D01*
X104900000Y-55900000D02*
X102360000Y-53360000D01*
X104900000Y-56450000D02*
X104900000Y-55900000D01*
%TO.N,/IN1A*%
X111150000Y-56450000D02*
X107440000Y-56450000D01*
X112099000Y-57399000D02*
X111150000Y-56450000D01*
X112099000Y-69999000D02*
X112099000Y-57399000D01*
X228819600Y-79220000D02*
X121320000Y-79220000D01*
X121320000Y-79220000D02*
X112099000Y-69999000D01*
%TO.N,/IN1B*%
X112500000Y-51390000D02*
X112520000Y-51370000D01*
X112500000Y-69832900D02*
X112500000Y-51390000D01*
X227700000Y-78809350D02*
X121476450Y-78809350D01*
X228669350Y-77840000D02*
X227700000Y-78809350D01*
X231664400Y-77840000D02*
X228669350Y-77840000D01*
X121476450Y-78809350D02*
X112500000Y-69832900D01*
%TO.N,/IN0A*%
X131950000Y-56450000D02*
X128152000Y-56450000D01*
X132831000Y-57331000D02*
X131950000Y-56450000D01*
X132831000Y-63498800D02*
X132831000Y-57331000D01*
X132831000Y-63831000D02*
X132831000Y-63498800D01*
X133065900Y-64065900D02*
X132831000Y-63831000D01*
X142700000Y-73700000D02*
X142465100Y-73465100D01*
X143032200Y-73700000D02*
X142700000Y-73700000D01*
X149200000Y-73700000D02*
X143032200Y-73700000D01*
X227524250Y-73700000D02*
X149200000Y-73700000D01*
X227856450Y-73700000D02*
X227524250Y-73700000D01*
X228819600Y-73700000D02*
X227856450Y-73700000D01*
X142465100Y-73465100D02*
X133065900Y-64065900D01*
%TO.N,/IN0B*%
X142866100Y-73299000D02*
X133232000Y-63664900D01*
X227690350Y-73299000D02*
X142866100Y-73299000D01*
X228669350Y-72320000D02*
X227690350Y-73299000D01*
X231664400Y-72320000D02*
X228669350Y-72320000D01*
X133232000Y-63664900D02*
X133232000Y-51370000D01*
%TO.N,/IN4A*%
X152950000Y-56450000D02*
X148864000Y-56450000D01*
X153543000Y-57043000D02*
X152950000Y-56450000D01*
X153543000Y-62860800D02*
X153543000Y-57043000D01*
X153777900Y-63427900D02*
X153543000Y-63193000D01*
X154257550Y-63907550D02*
X153777900Y-63427900D01*
X154492450Y-64142450D02*
X154257550Y-63907550D01*
X158862200Y-68180000D02*
X158530000Y-68180000D01*
X164680000Y-68180000D02*
X158862200Y-68180000D01*
X227524250Y-68180000D02*
X164680000Y-68180000D01*
X158295100Y-67945100D02*
X154492450Y-64142450D01*
X227856450Y-68180000D02*
X227524250Y-68180000D01*
X158530000Y-68180000D02*
X158295100Y-67945100D01*
X153543000Y-63193000D02*
X153543000Y-62860800D01*
X228819600Y-68180000D02*
X227856450Y-68180000D01*
%TO.N,/IN4B*%
X158696100Y-67779000D02*
X154658550Y-63741450D01*
X227690350Y-67779000D02*
X158696100Y-67779000D01*
X154658550Y-63741450D02*
X153944000Y-63026900D01*
X153944000Y-63026900D02*
X153944000Y-51370000D01*
X227737550Y-67731800D02*
X227690350Y-67779000D01*
X228669350Y-66800000D02*
X228371400Y-67097950D01*
X228371400Y-67097950D02*
X227737550Y-67731800D01*
X231664400Y-66800000D02*
X228669350Y-66800000D01*
%TO.N,/IN5A*%
X172850000Y-56450000D02*
X169576000Y-56450000D01*
X174255000Y-57855000D02*
X172850000Y-56450000D01*
X174255000Y-61372800D02*
X174255000Y-57855000D01*
X174255000Y-61705000D02*
X174255000Y-61372800D01*
X174489900Y-61939900D02*
X174255000Y-61705000D01*
X176355100Y-63805100D02*
X174489900Y-61939900D01*
X176922200Y-64040000D02*
X176590000Y-64040000D01*
X176590000Y-64040000D02*
X176355100Y-63805100D01*
X180440000Y-64040000D02*
X176922200Y-64040000D01*
X228006700Y-64040000D02*
X227674500Y-64040000D01*
X227674500Y-64040000D02*
X180440000Y-64040000D01*
X231664400Y-64040000D02*
X228006700Y-64040000D01*
%TO.N,/IN5B*%
X174656000Y-61538900D02*
X174656000Y-51370000D01*
X176756100Y-63639000D02*
X174656000Y-61538900D01*
X164496000Y-51370000D02*
X174656000Y-51370000D01*
X164496000Y-53496000D02*
X164496000Y-51370000D01*
X167036000Y-56036000D02*
X164496000Y-53496000D01*
X167036000Y-56450000D02*
X167036000Y-56036000D01*
%TO.N,/IN6B*%
X185208000Y-51370000D02*
X195368000Y-51370000D01*
X187748000Y-56048000D02*
X185208000Y-53508000D01*
X185208000Y-53508000D02*
X185208000Y-51370000D01*
X187748000Y-56450000D02*
X187748000Y-56048000D01*
X227690350Y-59499000D02*
X195630386Y-59499000D01*
X227737550Y-59451800D02*
X227690350Y-59499000D01*
X195630386Y-59499000D02*
X195368000Y-59236614D01*
X228669350Y-58520000D02*
X228371400Y-58817950D01*
X228371400Y-58817950D02*
X227737550Y-59451800D01*
X195368000Y-59236614D02*
X195368000Y-51370000D01*
X231664400Y-58520000D02*
X228669350Y-58520000D01*
%TO.N,/IN6A*%
X192014286Y-56450000D02*
X190288000Y-56450000D01*
X195464286Y-59900000D02*
X192014286Y-56450000D01*
%TO.N,/IN7B*%
X205920000Y-51370000D02*
X216080000Y-51370000D01*
%TO.N,/IN7A*%
X227350000Y-56450000D02*
X211000000Y-56450000D01*
X227800000Y-56000000D02*
X227350000Y-56450000D01*
X231424400Y-56000000D02*
X227800000Y-56000000D01*
X231664400Y-55760000D02*
X231424400Y-56000000D01*
%TO.N,/IN7B*%
X216080000Y-55080000D02*
X216080000Y-51370000D01*
X217049000Y-56049000D02*
X216080000Y-55080000D01*
X227150600Y-56049000D02*
X217049000Y-56049000D01*
X228819600Y-54380000D02*
X227150600Y-56049000D01*
%TO.N,/IN2B*%
X81648000Y-51370000D02*
X91808000Y-51370000D01*
X81648000Y-53910000D02*
X81648000Y-51370000D01*
X84188000Y-56450000D02*
X81648000Y-53910000D01*
%TO.N,/IN3B*%
X60936000Y-51370000D02*
X60936000Y-53420000D01*
X63476000Y-55960000D02*
X63476000Y-56450000D01*
X71096000Y-51370000D02*
X60936000Y-51370000D01*
X60936000Y-53420000D02*
X63476000Y-55960000D01*
%TO.N,/IN7B*%
X205920000Y-53420000D02*
X205920000Y-51370000D01*
X208460000Y-55960000D02*
X205920000Y-53420000D01*
X208460000Y-56450000D02*
X208460000Y-55960000D01*
%TO.N,/IN6A*%
X195464286Y-59900000D02*
X228819600Y-59900000D01*
%TO.N,/IN5B*%
X227840600Y-63639000D02*
X176756100Y-63639000D01*
X228819600Y-62660000D02*
X227840600Y-63639000D01*
%TO.N,/IN3B*%
X229888971Y-89000000D02*
X87032900Y-89000000D01*
X231664400Y-87224571D02*
X229888971Y-89000000D01*
X87032900Y-89000000D02*
X63476000Y-65443100D01*
X63476000Y-65443100D02*
X63476000Y-56450000D01*
X231664400Y-86120000D02*
X231664400Y-87224571D01*
%TO.N,/IN3A*%
X63877000Y-58589000D02*
X66016000Y-56450000D01*
X63877000Y-65277000D02*
X63877000Y-58589000D01*
X87199000Y-88599000D02*
X63877000Y-65277000D01*
X227720600Y-88599000D02*
X87199000Y-88599000D01*
X228819600Y-87500000D02*
X227720600Y-88599000D01*
%TD*%
%TA.AperFunction,Conductor*%
%TO.N,GND*%
G36*
X237003736Y-43500726D02*
G01*
X237293796Y-43518271D01*
X237308659Y-43520076D01*
X237590798Y-43571780D01*
X237605335Y-43575363D01*
X237879172Y-43660695D01*
X237893163Y-43666000D01*
X238154743Y-43783727D01*
X238167989Y-43790680D01*
X238413465Y-43939075D01*
X238425776Y-43947573D01*
X238651573Y-44124473D01*
X238662781Y-44134403D01*
X238865596Y-44337218D01*
X238875526Y-44348426D01*
X238995481Y-44501538D01*
X239052422Y-44574217D01*
X239060928Y-44586540D01*
X239209316Y-44832004D01*
X239216275Y-44845263D01*
X239333997Y-45106831D01*
X239339306Y-45120832D01*
X239424635Y-45394663D01*
X239428219Y-45409201D01*
X239479923Y-45691340D01*
X239481728Y-45706205D01*
X239499274Y-45996263D01*
X239499500Y-46003750D01*
X239499500Y-95996249D01*
X239499274Y-96003736D01*
X239481728Y-96293794D01*
X239479923Y-96308659D01*
X239428219Y-96590798D01*
X239424635Y-96605336D01*
X239339306Y-96879167D01*
X239333997Y-96893168D01*
X239216275Y-97154736D01*
X239209316Y-97167995D01*
X239060928Y-97413459D01*
X239052422Y-97425782D01*
X238875526Y-97651573D01*
X238865596Y-97662781D01*
X238662781Y-97865596D01*
X238651573Y-97875526D01*
X238425782Y-98052422D01*
X238413459Y-98060928D01*
X238167995Y-98209316D01*
X238154736Y-98216275D01*
X237893168Y-98333997D01*
X237879167Y-98339306D01*
X237605336Y-98424635D01*
X237590798Y-98428219D01*
X237308659Y-98479923D01*
X237293794Y-98481728D01*
X237003736Y-98499274D01*
X236996249Y-98499500D01*
X51003751Y-98499500D01*
X50996264Y-98499274D01*
X50706205Y-98481728D01*
X50691340Y-98479923D01*
X50409201Y-98428219D01*
X50394663Y-98424635D01*
X50120832Y-98339306D01*
X50106831Y-98333997D01*
X49845263Y-98216275D01*
X49832004Y-98209316D01*
X49586540Y-98060928D01*
X49574217Y-98052422D01*
X49348426Y-97875526D01*
X49337218Y-97865596D01*
X49134403Y-97662781D01*
X49124473Y-97651573D01*
X48947573Y-97425776D01*
X48939075Y-97413465D01*
X48790680Y-97167989D01*
X48783727Y-97154743D01*
X48666000Y-96893163D01*
X48660693Y-96879167D01*
X48646593Y-96833920D01*
X48575363Y-96605335D01*
X48571780Y-96590798D01*
X48551044Y-96477645D01*
X48520076Y-96308659D01*
X48518271Y-96293794D01*
X48500726Y-96003736D01*
X48500500Y-95996249D01*
X48500500Y-93837884D01*
X49700000Y-93837884D01*
X49700000Y-94162115D01*
X49731779Y-94484784D01*
X49731782Y-94484801D01*
X49795030Y-94802781D01*
X49795033Y-94802792D01*
X49889157Y-95113078D01*
X50013238Y-95412635D01*
X50013240Y-95412640D01*
X50166079Y-95698580D01*
X50166090Y-95698598D01*
X50346212Y-95968170D01*
X50346222Y-95968184D01*
X50495890Y-96150554D01*
X50495891Y-96150555D01*
X51705748Y-94940698D01*
X51779588Y-95042330D01*
X51957670Y-95220412D01*
X52059300Y-95294251D01*
X50849443Y-96504107D01*
X50849444Y-96504108D01*
X51031815Y-96653777D01*
X51031829Y-96653787D01*
X51301401Y-96833909D01*
X51301419Y-96833920D01*
X51587359Y-96986759D01*
X51587364Y-96986761D01*
X51886921Y-97110842D01*
X52197207Y-97204966D01*
X52197218Y-97204969D01*
X52515198Y-97268217D01*
X52515215Y-97268220D01*
X52837884Y-97300000D01*
X53162116Y-97300000D01*
X53484784Y-97268220D01*
X53484801Y-97268217D01*
X53802781Y-97204969D01*
X53802792Y-97204966D01*
X54113078Y-97110842D01*
X54412635Y-96986761D01*
X54412640Y-96986759D01*
X54698580Y-96833920D01*
X54698598Y-96833909D01*
X54968170Y-96653787D01*
X54968183Y-96653777D01*
X55150554Y-96504108D01*
X55150554Y-96504107D01*
X53940698Y-95294251D01*
X54042330Y-95220412D01*
X54220412Y-95042330D01*
X54294251Y-94940698D01*
X55504107Y-96150554D01*
X55504108Y-96150554D01*
X55653777Y-95968183D01*
X55653787Y-95968170D01*
X55833909Y-95698598D01*
X55833920Y-95698580D01*
X55986759Y-95412640D01*
X55986761Y-95412635D01*
X56110842Y-95113078D01*
X56204966Y-94802792D01*
X56204969Y-94802781D01*
X56268217Y-94484801D01*
X56268220Y-94484784D01*
X56300000Y-94162115D01*
X56300000Y-93837884D01*
X219400000Y-93837884D01*
X219400000Y-94162115D01*
X219431779Y-94484784D01*
X219431782Y-94484801D01*
X219495030Y-94802781D01*
X219495033Y-94802792D01*
X219589157Y-95113078D01*
X219713238Y-95412635D01*
X219713240Y-95412640D01*
X219866079Y-95698580D01*
X219866090Y-95698598D01*
X220046212Y-95968170D01*
X220046222Y-95968184D01*
X220195890Y-96150554D01*
X220195891Y-96150555D01*
X221405748Y-94940698D01*
X221479588Y-95042330D01*
X221657670Y-95220412D01*
X221759300Y-95294251D01*
X220549443Y-96504107D01*
X220549444Y-96504108D01*
X220731815Y-96653777D01*
X220731829Y-96653787D01*
X221001401Y-96833909D01*
X221001419Y-96833920D01*
X221287359Y-96986759D01*
X221287364Y-96986761D01*
X221586921Y-97110842D01*
X221897207Y-97204966D01*
X221897218Y-97204969D01*
X222215198Y-97268217D01*
X222215215Y-97268220D01*
X222537884Y-97300000D01*
X222862116Y-97300000D01*
X223184784Y-97268220D01*
X223184801Y-97268217D01*
X223502781Y-97204969D01*
X223502792Y-97204966D01*
X223813078Y-97110842D01*
X224112635Y-96986761D01*
X224112640Y-96986759D01*
X224398580Y-96833920D01*
X224398598Y-96833909D01*
X224668170Y-96653787D01*
X224668183Y-96653777D01*
X224850554Y-96504108D01*
X224850554Y-96504107D01*
X223640698Y-95294251D01*
X223742330Y-95220412D01*
X223920412Y-95042330D01*
X223994251Y-94940698D01*
X225204107Y-96150554D01*
X225204108Y-96150554D01*
X225353777Y-95968183D01*
X225353787Y-95968170D01*
X225533909Y-95698598D01*
X225533920Y-95698580D01*
X225686759Y-95412640D01*
X225686761Y-95412635D01*
X225810842Y-95113078D01*
X225904966Y-94802792D01*
X225904969Y-94802781D01*
X225968217Y-94484801D01*
X225968220Y-94484784D01*
X225984979Y-94314635D01*
X227646500Y-94314635D01*
X227646500Y-94606164D01*
X227679138Y-94895835D01*
X227679140Y-94895851D01*
X227744008Y-95180058D01*
X227744012Y-95180070D01*
X227840293Y-95455223D01*
X227966776Y-95717868D01*
X228121875Y-95964706D01*
X228238231Y-96110614D01*
X228956696Y-95392148D01*
X229031123Y-95494587D01*
X229207813Y-95671277D01*
X229310249Y-95745701D01*
X228591784Y-96464167D01*
X228737693Y-96580524D01*
X228984531Y-96735623D01*
X229247176Y-96862106D01*
X229522329Y-96958387D01*
X229522341Y-96958391D01*
X229806548Y-97023259D01*
X229806564Y-97023261D01*
X230096235Y-97055899D01*
X230096237Y-97055900D01*
X230387763Y-97055900D01*
X230387764Y-97055899D01*
X230677435Y-97023261D01*
X230677451Y-97023259D01*
X230961658Y-96958391D01*
X230961670Y-96958387D01*
X231236823Y-96862106D01*
X231499468Y-96735623D01*
X231746306Y-96580524D01*
X231892214Y-96464167D01*
X231892214Y-96464166D01*
X231173749Y-95745702D01*
X231276187Y-95671277D01*
X231452877Y-95494587D01*
X231527301Y-95392149D01*
X232245766Y-96110614D01*
X232245767Y-96110614D01*
X232362124Y-95964706D01*
X232517223Y-95717868D01*
X232643706Y-95455223D01*
X232739987Y-95180070D01*
X232739991Y-95180058D01*
X232804859Y-94895851D01*
X232804861Y-94895835D01*
X232837499Y-94606164D01*
X232837500Y-94606162D01*
X232837500Y-94314637D01*
X232837499Y-94314635D01*
X232804861Y-94024964D01*
X232804859Y-94024948D01*
X232739991Y-93740741D01*
X232739987Y-93740729D01*
X232643706Y-93465576D01*
X232517223Y-93202931D01*
X232362124Y-92956093D01*
X232245767Y-92810184D01*
X231527301Y-93528649D01*
X231452877Y-93426213D01*
X231276187Y-93249523D01*
X231173748Y-93175096D01*
X231892214Y-92456631D01*
X231746306Y-92340275D01*
X231499468Y-92185176D01*
X231236823Y-92058693D01*
X230961670Y-91962412D01*
X230961658Y-91962408D01*
X230677451Y-91897540D01*
X230677435Y-91897538D01*
X230387764Y-91864900D01*
X230096235Y-91864900D01*
X229806564Y-91897538D01*
X229806548Y-91897540D01*
X229522341Y-91962408D01*
X229522329Y-91962412D01*
X229247176Y-92058693D01*
X228984531Y-92185176D01*
X228737689Y-92340277D01*
X228737685Y-92340280D01*
X228591784Y-92456631D01*
X229310250Y-93175097D01*
X229207813Y-93249523D01*
X229031123Y-93426213D01*
X228956697Y-93528650D01*
X228238231Y-92810184D01*
X228121880Y-92956085D01*
X228121877Y-92956089D01*
X227966776Y-93202931D01*
X227840293Y-93465576D01*
X227744012Y-93740729D01*
X227744008Y-93740741D01*
X227679140Y-94024948D01*
X227679138Y-94024964D01*
X227646500Y-94314635D01*
X225984979Y-94314635D01*
X225986518Y-94299007D01*
X226000000Y-94162115D01*
X226000000Y-93837884D01*
X225968220Y-93515215D01*
X225968217Y-93515198D01*
X225904969Y-93197218D01*
X225904966Y-93197207D01*
X225810842Y-92886921D01*
X225686762Y-92587365D01*
X225674022Y-92563530D01*
X225674021Y-92563528D01*
X225533920Y-92301419D01*
X225533909Y-92301401D01*
X225353787Y-92031829D01*
X225353777Y-92031815D01*
X225204108Y-91849444D01*
X225204107Y-91849443D01*
X223994250Y-93059300D01*
X223920412Y-92957670D01*
X223742330Y-92779588D01*
X223640697Y-92705747D01*
X224850555Y-91495891D01*
X224850554Y-91495890D01*
X224668184Y-91346222D01*
X224668170Y-91346212D01*
X224398598Y-91166090D01*
X224398580Y-91166079D01*
X224112640Y-91013240D01*
X224112635Y-91013238D01*
X223813078Y-90889157D01*
X223502792Y-90795033D01*
X223502781Y-90795030D01*
X223184801Y-90731782D01*
X223184784Y-90731779D01*
X222862116Y-90700000D01*
X222537884Y-90700000D01*
X222215215Y-90731779D01*
X222215198Y-90731782D01*
X221897218Y-90795030D01*
X221897207Y-90795033D01*
X221586921Y-90889157D01*
X221287364Y-91013238D01*
X221287359Y-91013240D01*
X221001419Y-91166079D01*
X221001401Y-91166090D01*
X220731829Y-91346212D01*
X220731815Y-91346222D01*
X220549444Y-91495890D01*
X220549443Y-91495891D01*
X221759301Y-92705748D01*
X221657670Y-92779588D01*
X221479588Y-92957670D01*
X221405748Y-93059301D01*
X220195891Y-91849443D01*
X220195890Y-91849444D01*
X220046222Y-92031815D01*
X220046212Y-92031829D01*
X219866090Y-92301401D01*
X219866079Y-92301419D01*
X219713240Y-92587359D01*
X219713238Y-92587364D01*
X219589157Y-92886921D01*
X219495033Y-93197207D01*
X219495030Y-93197218D01*
X219431782Y-93515198D01*
X219431779Y-93515215D01*
X219400000Y-93837884D01*
X56300000Y-93837884D01*
X56268220Y-93515215D01*
X56268217Y-93515198D01*
X56204969Y-93197218D01*
X56204966Y-93197207D01*
X56110842Y-92886921D01*
X55986761Y-92587364D01*
X55986759Y-92587359D01*
X55833920Y-92301419D01*
X55833909Y-92301401D01*
X55653787Y-92031829D01*
X55653777Y-92031815D01*
X55504108Y-91849444D01*
X55504107Y-91849443D01*
X54294250Y-93059300D01*
X54220412Y-92957670D01*
X54042330Y-92779588D01*
X53940697Y-92705747D01*
X55150555Y-91495891D01*
X55150554Y-91495890D01*
X54968184Y-91346222D01*
X54968170Y-91346212D01*
X54698598Y-91166090D01*
X54698580Y-91166079D01*
X54412640Y-91013240D01*
X54412635Y-91013238D01*
X54113078Y-90889157D01*
X53802792Y-90795033D01*
X53802781Y-90795030D01*
X53484801Y-90731782D01*
X53484784Y-90731779D01*
X53162116Y-90700000D01*
X52837884Y-90700000D01*
X52515215Y-90731779D01*
X52515198Y-90731782D01*
X52197218Y-90795030D01*
X52197207Y-90795033D01*
X51886921Y-90889157D01*
X51587364Y-91013238D01*
X51587359Y-91013240D01*
X51301419Y-91166079D01*
X51301401Y-91166090D01*
X51031829Y-91346212D01*
X51031815Y-91346222D01*
X50849444Y-91495890D01*
X50849443Y-91495891D01*
X52059301Y-92705748D01*
X51957670Y-92779588D01*
X51779588Y-92957670D01*
X51705748Y-93059301D01*
X50495891Y-91849443D01*
X50495890Y-91849444D01*
X50346222Y-92031815D01*
X50346212Y-92031829D01*
X50166090Y-92301401D01*
X50166079Y-92301419D01*
X50013240Y-92587359D01*
X50013238Y-92587364D01*
X49889157Y-92886921D01*
X49795033Y-93197207D01*
X49795030Y-93197218D01*
X49731782Y-93515198D01*
X49731779Y-93515215D01*
X49700000Y-93837884D01*
X48500500Y-93837884D01*
X48500500Y-47837884D01*
X49700000Y-47837884D01*
X49700000Y-48162115D01*
X49731779Y-48484784D01*
X49731782Y-48484801D01*
X49795030Y-48802781D01*
X49795033Y-48802792D01*
X49889157Y-49113078D01*
X50013238Y-49412635D01*
X50013240Y-49412640D01*
X50166079Y-49698580D01*
X50166090Y-49698598D01*
X50346212Y-49968170D01*
X50346222Y-49968184D01*
X50495890Y-50150554D01*
X50495891Y-50150555D01*
X51705748Y-48940698D01*
X51779588Y-49042330D01*
X51957670Y-49220412D01*
X52059300Y-49294251D01*
X50849443Y-50504107D01*
X50849444Y-50504108D01*
X51031815Y-50653777D01*
X51031829Y-50653787D01*
X51301401Y-50833909D01*
X51301419Y-50833920D01*
X51587359Y-50986759D01*
X51587364Y-50986761D01*
X51886921Y-51110842D01*
X52197207Y-51204966D01*
X52197218Y-51204969D01*
X52515198Y-51268217D01*
X52515215Y-51268220D01*
X52837884Y-51300000D01*
X53162116Y-51300000D01*
X53484784Y-51268220D01*
X53484801Y-51268217D01*
X53802781Y-51204969D01*
X53802792Y-51204966D01*
X54113078Y-51110842D01*
X54412635Y-50986761D01*
X54412640Y-50986759D01*
X54698580Y-50833920D01*
X54698598Y-50833909D01*
X54968170Y-50653787D01*
X54968183Y-50653777D01*
X55150554Y-50504108D01*
X55150554Y-50504107D01*
X53940698Y-49294251D01*
X54042330Y-49220412D01*
X54220412Y-49042330D01*
X54294251Y-48940698D01*
X55504107Y-50150554D01*
X55504108Y-50150554D01*
X55653777Y-49968183D01*
X55653787Y-49968170D01*
X55833909Y-49698598D01*
X55833920Y-49698580D01*
X55954770Y-49472486D01*
X58685500Y-49472486D01*
X58685500Y-53267513D01*
X58703271Y-53402490D01*
X58724007Y-53559993D01*
X58724008Y-53559995D01*
X58800361Y-53844951D01*
X58800364Y-53844961D01*
X58913254Y-54117500D01*
X58913258Y-54117510D01*
X59060761Y-54372993D01*
X59240352Y-54607040D01*
X59240358Y-54607047D01*
X59448952Y-54815641D01*
X59448959Y-54815647D01*
X59683006Y-54995238D01*
X59938489Y-55142741D01*
X59938490Y-55142741D01*
X59938493Y-55142743D01*
X60211048Y-55255639D01*
X60496007Y-55331993D01*
X60788494Y-55370500D01*
X60788501Y-55370500D01*
X61083499Y-55370500D01*
X61083506Y-55370500D01*
X61375993Y-55331993D01*
X61660952Y-55255639D01*
X61769279Y-55210767D01*
X61838746Y-55203298D01*
X61901226Y-55234572D01*
X61904412Y-55237647D01*
X62191731Y-55524966D01*
X62225216Y-55586289D01*
X62221981Y-55650964D01*
X62207524Y-55695457D01*
X62207523Y-55695464D01*
X62176644Y-55890423D01*
X62175500Y-55897648D01*
X62175500Y-57002352D01*
X62177904Y-57017527D01*
X62207522Y-57204534D01*
X62270781Y-57399223D01*
X62363715Y-57581613D01*
X62484028Y-57747213D01*
X62484034Y-57747219D01*
X62628781Y-57891966D01*
X62794390Y-58012287D01*
X62807793Y-58019116D01*
X62858589Y-58067088D01*
X62875500Y-58129601D01*
X62875500Y-65356430D01*
X62875499Y-65356448D01*
X62875499Y-65522154D01*
X62875498Y-65522154D01*
X62875499Y-65522157D01*
X62916423Y-65674885D01*
X62916424Y-65674887D01*
X62916423Y-65674887D01*
X62933184Y-65703916D01*
X62933186Y-65703918D01*
X62933187Y-65703920D01*
X62974715Y-65775850D01*
X62995479Y-65811815D01*
X63114349Y-65930685D01*
X63114355Y-65930690D01*
X86548039Y-89364374D01*
X86548049Y-89364385D01*
X86552379Y-89368715D01*
X86552380Y-89368716D01*
X86664184Y-89480520D01*
X86664186Y-89480521D01*
X86664190Y-89480524D01*
X86801109Y-89559573D01*
X86801116Y-89559577D01*
X86912919Y-89589534D01*
X86953842Y-89600500D01*
X86953843Y-89600500D01*
X229802302Y-89600500D01*
X229802318Y-89600501D01*
X229809914Y-89600501D01*
X229968025Y-89600501D01*
X229968028Y-89600501D01*
X230120756Y-89559577D01*
X230170875Y-89530639D01*
X230257687Y-89480520D01*
X230369491Y-89368716D01*
X230369491Y-89368714D01*
X230379699Y-89358507D01*
X230379700Y-89358504D01*
X232144920Y-87593287D01*
X232223977Y-87456355D01*
X232264901Y-87303628D01*
X232264901Y-87303621D01*
X232266524Y-87297565D01*
X232302889Y-87237905D01*
X232330015Y-87219169D01*
X232336079Y-87216080D01*
X232499274Y-87097512D01*
X232641912Y-86954874D01*
X232760480Y-86791679D01*
X232852059Y-86611945D01*
X232914394Y-86420097D01*
X232930651Y-86317451D01*
X232945950Y-86220865D01*
X232945950Y-86019134D01*
X232916956Y-85836080D01*
X232914394Y-85819903D01*
X232852059Y-85628055D01*
X232760480Y-85448321D01*
X232641912Y-85285126D01*
X232499274Y-85142488D01*
X232336079Y-85023920D01*
X232156342Y-84932339D01*
X231964498Y-84870006D01*
X231916937Y-84862473D01*
X231853802Y-84832544D01*
X231816871Y-84773232D01*
X231817869Y-84703370D01*
X231856479Y-84645137D01*
X231916937Y-84617527D01*
X231927685Y-84615824D01*
X231964497Y-84609994D01*
X232156345Y-84547659D01*
X232336079Y-84456080D01*
X232499274Y-84337512D01*
X232641912Y-84194874D01*
X232760480Y-84031679D01*
X232852059Y-83851945D01*
X232914394Y-83660097D01*
X232930651Y-83557451D01*
X232945950Y-83460865D01*
X232945950Y-83259134D01*
X232927591Y-83143230D01*
X232914394Y-83059903D01*
X232852059Y-82868055D01*
X232760480Y-82688321D01*
X232641912Y-82525126D01*
X232499274Y-82382488D01*
X232336079Y-82263920D01*
X232156342Y-82172339D01*
X231964498Y-82110006D01*
X231916937Y-82102473D01*
X231853802Y-82072544D01*
X231816871Y-82013232D01*
X231817869Y-81943370D01*
X231856479Y-81885137D01*
X231916937Y-81857527D01*
X231927685Y-81855824D01*
X231964497Y-81849994D01*
X232156345Y-81787659D01*
X232336079Y-81696080D01*
X232499274Y-81577512D01*
X232641912Y-81434874D01*
X232760480Y-81271679D01*
X232852059Y-81091945D01*
X232914394Y-80900097D01*
X232942527Y-80722473D01*
X232945950Y-80700865D01*
X232945950Y-80499134D01*
X232916956Y-80316080D01*
X232914394Y-80299903D01*
X232852059Y-80108055D01*
X232760480Y-79928321D01*
X232641912Y-79765126D01*
X232499274Y-79622488D01*
X232336079Y-79503920D01*
X232156342Y-79412339D01*
X231964498Y-79350006D01*
X231916937Y-79342473D01*
X231853802Y-79312544D01*
X231816871Y-79253232D01*
X231817869Y-79183370D01*
X231856479Y-79125137D01*
X231916937Y-79097527D01*
X231927685Y-79095824D01*
X231964497Y-79089994D01*
X232156345Y-79027659D01*
X232336079Y-78936080D01*
X232499274Y-78817512D01*
X232641912Y-78674874D01*
X232760480Y-78511679D01*
X232852059Y-78331945D01*
X232914394Y-78140097D01*
X232930651Y-78037451D01*
X232945950Y-77940865D01*
X232945950Y-77739134D01*
X232920304Y-77577217D01*
X232914394Y-77539903D01*
X232852059Y-77348055D01*
X232760480Y-77168321D01*
X232641912Y-77005126D01*
X232499274Y-76862488D01*
X232336079Y-76743920D01*
X232156342Y-76652339D01*
X231964498Y-76590006D01*
X231916937Y-76582473D01*
X231853802Y-76552544D01*
X231816871Y-76493232D01*
X231817869Y-76423370D01*
X231856479Y-76365137D01*
X231916937Y-76337527D01*
X231927685Y-76335824D01*
X231964497Y-76329994D01*
X232156345Y-76267659D01*
X232336079Y-76176080D01*
X232499274Y-76057512D01*
X232641912Y-75914874D01*
X232760480Y-75751679D01*
X232852059Y-75571945D01*
X232914394Y-75380097D01*
X232942527Y-75202473D01*
X232945950Y-75180865D01*
X232945950Y-74979134D01*
X232916956Y-74796080D01*
X232914394Y-74779903D01*
X232852059Y-74588055D01*
X232760480Y-74408321D01*
X232641912Y-74245126D01*
X232499274Y-74102488D01*
X232336079Y-73983920D01*
X232156342Y-73892339D01*
X231964498Y-73830006D01*
X231916937Y-73822473D01*
X231853802Y-73792544D01*
X231816871Y-73733232D01*
X231817869Y-73663370D01*
X231856479Y-73605137D01*
X231916937Y-73577527D01*
X231927685Y-73575824D01*
X231964497Y-73569994D01*
X232156345Y-73507659D01*
X232336079Y-73416080D01*
X232499274Y-73297512D01*
X232641912Y-73154874D01*
X232760480Y-72991679D01*
X232852059Y-72811945D01*
X232914394Y-72620097D01*
X232930651Y-72517451D01*
X232945950Y-72420865D01*
X232945950Y-72219134D01*
X232920304Y-72057217D01*
X232914394Y-72019903D01*
X232852059Y-71828055D01*
X232760480Y-71648321D01*
X232641912Y-71485126D01*
X232499274Y-71342488D01*
X232336079Y-71223920D01*
X232156342Y-71132339D01*
X231964498Y-71070006D01*
X231916937Y-71062473D01*
X231853802Y-71032544D01*
X231816871Y-70973232D01*
X231817869Y-70903370D01*
X231856479Y-70845137D01*
X231916937Y-70817527D01*
X231927685Y-70815824D01*
X231964497Y-70809994D01*
X232156345Y-70747659D01*
X232336079Y-70656080D01*
X232499274Y-70537512D01*
X232641912Y-70394874D01*
X232760480Y-70231679D01*
X232852059Y-70051945D01*
X232914394Y-69860097D01*
X232942527Y-69682473D01*
X232945950Y-69660865D01*
X232945950Y-69459134D01*
X232916956Y-69276080D01*
X232914394Y-69259903D01*
X232852059Y-69068055D01*
X232760480Y-68888321D01*
X232641912Y-68725126D01*
X232499274Y-68582488D01*
X232336079Y-68463920D01*
X232156342Y-68372339D01*
X231964498Y-68310006D01*
X231916937Y-68302473D01*
X231853802Y-68272544D01*
X231816871Y-68213232D01*
X231817869Y-68143370D01*
X231856479Y-68085137D01*
X231916937Y-68057527D01*
X231927685Y-68055824D01*
X231964497Y-68049994D01*
X232156345Y-67987659D01*
X232336079Y-67896080D01*
X232499274Y-67777512D01*
X232641912Y-67634874D01*
X232760480Y-67471679D01*
X232852059Y-67291945D01*
X232914394Y-67100097D01*
X232932457Y-66986054D01*
X232945950Y-66900865D01*
X232945950Y-66699134D01*
X232927591Y-66583230D01*
X232914394Y-66499903D01*
X232852059Y-66308055D01*
X232760480Y-66128321D01*
X232641912Y-65965126D01*
X232499274Y-65822488D01*
X232336079Y-65703920D01*
X232336071Y-65703916D01*
X232156342Y-65612339D01*
X231964498Y-65550006D01*
X231916937Y-65542473D01*
X231853802Y-65512544D01*
X231816871Y-65453232D01*
X231817869Y-65383370D01*
X231856479Y-65325137D01*
X231916937Y-65297527D01*
X231927685Y-65295824D01*
X231964497Y-65289994D01*
X232156345Y-65227659D01*
X232336079Y-65136080D01*
X232499274Y-65017512D01*
X232641912Y-64874874D01*
X232760480Y-64711679D01*
X232852059Y-64531945D01*
X232914394Y-64340097D01*
X232936629Y-64199712D01*
X232945950Y-64140865D01*
X232945950Y-63939134D01*
X232927591Y-63823230D01*
X232914394Y-63739903D01*
X232856498Y-63561716D01*
X232852060Y-63548057D01*
X232789251Y-63424787D01*
X232760480Y-63368321D01*
X232641912Y-63205126D01*
X232499274Y-63062488D01*
X232336079Y-62943920D01*
X232156342Y-62852339D01*
X231964498Y-62790006D01*
X231916937Y-62782473D01*
X231853802Y-62752544D01*
X231816871Y-62693232D01*
X231817869Y-62623370D01*
X231856479Y-62565137D01*
X231916937Y-62537527D01*
X231927685Y-62535824D01*
X231964497Y-62529994D01*
X232156345Y-62467659D01*
X232336079Y-62376080D01*
X232499274Y-62257512D01*
X232641912Y-62114874D01*
X232760480Y-61951679D01*
X232852059Y-61771945D01*
X232914394Y-61580097D01*
X232942527Y-61402473D01*
X232945950Y-61380865D01*
X232945950Y-61179134D01*
X232916956Y-60996080D01*
X232914394Y-60979903D01*
X232852059Y-60788055D01*
X232760480Y-60608321D01*
X232641912Y-60445126D01*
X232499274Y-60302488D01*
X232336079Y-60183920D01*
X232156342Y-60092339D01*
X231964498Y-60030006D01*
X231916937Y-60022473D01*
X231853802Y-59992544D01*
X231816871Y-59933232D01*
X231817869Y-59863370D01*
X231856479Y-59805137D01*
X231916937Y-59777527D01*
X231927685Y-59775824D01*
X231964497Y-59769994D01*
X232156345Y-59707659D01*
X232336079Y-59616080D01*
X232499274Y-59497512D01*
X232641912Y-59354874D01*
X232760480Y-59191679D01*
X232852059Y-59011945D01*
X232914394Y-58820097D01*
X232930651Y-58717451D01*
X232945950Y-58620865D01*
X232945950Y-58419134D01*
X232927591Y-58303230D01*
X232914394Y-58219903D01*
X232860364Y-58053614D01*
X232852060Y-58028057D01*
X232786717Y-57899815D01*
X232760480Y-57848321D01*
X232641912Y-57685126D01*
X232499274Y-57542488D01*
X232336079Y-57423920D01*
X232330992Y-57421328D01*
X232156342Y-57332339D01*
X231964498Y-57270006D01*
X231916937Y-57262473D01*
X231853802Y-57232544D01*
X231816871Y-57173232D01*
X231817869Y-57103370D01*
X231856479Y-57045137D01*
X231916937Y-57017527D01*
X231927685Y-57015824D01*
X231964497Y-57009994D01*
X232156345Y-56947659D01*
X232336079Y-56856080D01*
X232499274Y-56737512D01*
X232641912Y-56594874D01*
X232760480Y-56431679D01*
X232852059Y-56251945D01*
X232914394Y-56060097D01*
X232936685Y-55919358D01*
X232945950Y-55860865D01*
X232945950Y-55659134D01*
X232920868Y-55500781D01*
X232914394Y-55459903D01*
X232868414Y-55318390D01*
X232852060Y-55268057D01*
X232836002Y-55236542D01*
X232760480Y-55088321D01*
X232641912Y-54925126D01*
X232499274Y-54782488D01*
X232336079Y-54663920D01*
X232284105Y-54637438D01*
X232156342Y-54572339D01*
X231964498Y-54510006D01*
X231765265Y-54478450D01*
X231765260Y-54478450D01*
X231563540Y-54478450D01*
X231563535Y-54478450D01*
X231364301Y-54510006D01*
X231172457Y-54572339D01*
X230992720Y-54663920D01*
X230829523Y-54782490D01*
X230686890Y-54925123D01*
X230568320Y-55088320D01*
X230476739Y-55268057D01*
X230461871Y-55313818D01*
X230422434Y-55371494D01*
X230358075Y-55398692D01*
X230343940Y-55399500D01*
X229906337Y-55399500D01*
X229839298Y-55379815D01*
X229793543Y-55327011D01*
X229783599Y-55257853D01*
X229806019Y-55202615D01*
X229838940Y-55157302D01*
X229915680Y-55051679D01*
X230007259Y-54871945D01*
X230069594Y-54680097D01*
X230096534Y-54510006D01*
X230101150Y-54480865D01*
X230101150Y-54279134D01*
X230075549Y-54117503D01*
X230069594Y-54079903D01*
X230007259Y-53888055D01*
X229915680Y-53708321D01*
X229797112Y-53545126D01*
X229654474Y-53402488D01*
X229491279Y-53283920D01*
X229311542Y-53192339D01*
X229119698Y-53130006D01*
X228920465Y-53098450D01*
X228920460Y-53098450D01*
X228718740Y-53098450D01*
X228718735Y-53098450D01*
X228519501Y-53130006D01*
X228327657Y-53192339D01*
X228147920Y-53283920D01*
X227984723Y-53402490D01*
X227842090Y-53545123D01*
X227723520Y-53708320D01*
X227631939Y-53888057D01*
X227569606Y-54079901D01*
X227538050Y-54279134D01*
X227538050Y-54480865D01*
X227569605Y-54680093D01*
X227569608Y-54680106D01*
X227570813Y-54683815D01*
X227572802Y-54753656D01*
X227540560Y-54809803D01*
X226938184Y-55412181D01*
X226876861Y-55445666D01*
X226850503Y-55448500D01*
X217349097Y-55448500D01*
X217319656Y-55439855D01*
X217289670Y-55433332D01*
X217284654Y-55429577D01*
X217282058Y-55428815D01*
X217261416Y-55412181D01*
X217137552Y-55288317D01*
X217104067Y-55226994D01*
X217109051Y-55157302D01*
X217150923Y-55101369D01*
X217163233Y-55093249D01*
X217171769Y-55088321D01*
X217332994Y-54995238D01*
X217567042Y-54815646D01*
X217775646Y-54607042D01*
X217955238Y-54372994D01*
X218102743Y-54117507D01*
X218215639Y-53844952D01*
X218291993Y-53559993D01*
X218330500Y-53267506D01*
X218330500Y-49472494D01*
X218291993Y-49180007D01*
X218215639Y-48895048D01*
X218102743Y-48622493D01*
X217955238Y-48367006D01*
X217798019Y-48162115D01*
X217775647Y-48132959D01*
X217775641Y-48132952D01*
X217567047Y-47924358D01*
X217567040Y-47924352D01*
X217454353Y-47837884D01*
X219400000Y-47837884D01*
X219400000Y-48162115D01*
X219431779Y-48484784D01*
X219431782Y-48484801D01*
X219495030Y-48802781D01*
X219495033Y-48802792D01*
X219589157Y-49113078D01*
X219713238Y-49412635D01*
X219713240Y-49412640D01*
X219866079Y-49698580D01*
X219866090Y-49698598D01*
X220046212Y-49968170D01*
X220046222Y-49968184D01*
X220195890Y-50150554D01*
X220195891Y-50150555D01*
X221405748Y-48940698D01*
X221479588Y-49042330D01*
X221657670Y-49220412D01*
X221759300Y-49294251D01*
X220549443Y-50504107D01*
X220549444Y-50504108D01*
X220731815Y-50653777D01*
X220731829Y-50653787D01*
X221001401Y-50833909D01*
X221001419Y-50833920D01*
X221287359Y-50986759D01*
X221287364Y-50986761D01*
X221586921Y-51110842D01*
X221897207Y-51204966D01*
X221897218Y-51204969D01*
X222215198Y-51268217D01*
X222215215Y-51268220D01*
X222537884Y-51300000D01*
X222862116Y-51300000D01*
X223184784Y-51268220D01*
X223184801Y-51268217D01*
X223502781Y-51204969D01*
X223502792Y-51204966D01*
X223813078Y-51110842D01*
X224112635Y-50986761D01*
X224112640Y-50986759D01*
X224398580Y-50833920D01*
X224398598Y-50833909D01*
X224668170Y-50653787D01*
X224668183Y-50653777D01*
X224850554Y-50504108D01*
X224850554Y-50504107D01*
X223640698Y-49294251D01*
X223742330Y-49220412D01*
X223920412Y-49042330D01*
X223994251Y-48940698D01*
X225204107Y-50150554D01*
X225204108Y-50150554D01*
X225353777Y-49968183D01*
X225353787Y-49968170D01*
X225533909Y-49698598D01*
X225533920Y-49698580D01*
X225686759Y-49412640D01*
X225686764Y-49412628D01*
X225722039Y-49327469D01*
X225722039Y-49327468D01*
X225810842Y-49113078D01*
X225904966Y-48802792D01*
X225904969Y-48802781D01*
X225968217Y-48484801D01*
X225968220Y-48484784D01*
X226000000Y-48162115D01*
X226000000Y-47837884D01*
X225968220Y-47515215D01*
X225968217Y-47515198D01*
X225924330Y-47294557D01*
X225924328Y-47294551D01*
X225920207Y-47273835D01*
X227646500Y-47273835D01*
X227646500Y-47565364D01*
X227679138Y-47855035D01*
X227679140Y-47855051D01*
X227744008Y-48139258D01*
X227744012Y-48139270D01*
X227840293Y-48414423D01*
X227966776Y-48677068D01*
X228121875Y-48923906D01*
X228238231Y-49069814D01*
X228956696Y-48351348D01*
X229031123Y-48453787D01*
X229207813Y-48630477D01*
X229310249Y-48704901D01*
X228591784Y-49423367D01*
X228737693Y-49539724D01*
X228984531Y-49694823D01*
X229247176Y-49821306D01*
X229522329Y-49917587D01*
X229522341Y-49917591D01*
X229806548Y-49982459D01*
X229806564Y-49982461D01*
X230096235Y-50015099D01*
X230096237Y-50015100D01*
X230387763Y-50015100D01*
X230387764Y-50015099D01*
X230677435Y-49982461D01*
X230677451Y-49982459D01*
X230961658Y-49917591D01*
X230961670Y-49917587D01*
X231236823Y-49821306D01*
X231499468Y-49694823D01*
X231746306Y-49539724D01*
X231892214Y-49423367D01*
X231892214Y-49423366D01*
X231173749Y-48704902D01*
X231276187Y-48630477D01*
X231452877Y-48453787D01*
X231527301Y-48351349D01*
X232245766Y-49069814D01*
X232245767Y-49069814D01*
X232362124Y-48923906D01*
X232517223Y-48677068D01*
X232643706Y-48414423D01*
X232739987Y-48139270D01*
X232739991Y-48139258D01*
X232804859Y-47855051D01*
X232804861Y-47855035D01*
X232837499Y-47565364D01*
X232837500Y-47565362D01*
X232837500Y-47273837D01*
X232837499Y-47273835D01*
X232804861Y-46984164D01*
X232804859Y-46984148D01*
X232739991Y-46699941D01*
X232739987Y-46699929D01*
X232643706Y-46424776D01*
X232517223Y-46162131D01*
X232362124Y-45915293D01*
X232245767Y-45769384D01*
X231527301Y-46487849D01*
X231452877Y-46385413D01*
X231276187Y-46208723D01*
X231173748Y-46134296D01*
X231892214Y-45415831D01*
X231746306Y-45299475D01*
X231499468Y-45144376D01*
X231236823Y-45017893D01*
X230961670Y-44921612D01*
X230961658Y-44921608D01*
X230677451Y-44856740D01*
X230677435Y-44856738D01*
X230387764Y-44824100D01*
X230096235Y-44824100D01*
X229806564Y-44856738D01*
X229806548Y-44856740D01*
X229522341Y-44921608D01*
X229522329Y-44921612D01*
X229247176Y-45017893D01*
X228984531Y-45144376D01*
X228737689Y-45299477D01*
X228737685Y-45299480D01*
X228591784Y-45415831D01*
X229310250Y-46134297D01*
X229207813Y-46208723D01*
X229031123Y-46385413D01*
X228956697Y-46487850D01*
X228238231Y-45769384D01*
X228121880Y-45915285D01*
X228121877Y-45915289D01*
X227966776Y-46162131D01*
X227840293Y-46424776D01*
X227744012Y-46699929D01*
X227744008Y-46699941D01*
X227679140Y-46984148D01*
X227679138Y-46984164D01*
X227646500Y-47273835D01*
X225920207Y-47273835D01*
X225904965Y-47197205D01*
X225810842Y-46886921D01*
X225686761Y-46587364D01*
X225686759Y-46587359D01*
X225533920Y-46301419D01*
X225533909Y-46301401D01*
X225353787Y-46031829D01*
X225353777Y-46031815D01*
X225204108Y-45849444D01*
X225204107Y-45849443D01*
X223994250Y-47059300D01*
X223920412Y-46957670D01*
X223742330Y-46779588D01*
X223640697Y-46705747D01*
X224850555Y-45495891D01*
X224668184Y-45346222D01*
X224668170Y-45346212D01*
X224398598Y-45166090D01*
X224398580Y-45166079D01*
X224112640Y-45013240D01*
X224112635Y-45013238D01*
X223813078Y-44889157D01*
X223502792Y-44795033D01*
X223502781Y-44795030D01*
X223184801Y-44731782D01*
X223184784Y-44731779D01*
X222862116Y-44700000D01*
X222537884Y-44700000D01*
X222215215Y-44731779D01*
X222215198Y-44731782D01*
X221897218Y-44795030D01*
X221897207Y-44795033D01*
X221586921Y-44889157D01*
X221287364Y-45013238D01*
X221287359Y-45013240D01*
X221001419Y-45166079D01*
X221001401Y-45166090D01*
X220731829Y-45346212D01*
X220731815Y-45346222D01*
X220549444Y-45495890D01*
X220549443Y-45495891D01*
X221759301Y-46705748D01*
X221657670Y-46779588D01*
X221479588Y-46957670D01*
X221405748Y-47059301D01*
X220195891Y-45849443D01*
X220195890Y-45849444D01*
X220046222Y-46031815D01*
X220046212Y-46031829D01*
X219866090Y-46301401D01*
X219866079Y-46301419D01*
X219713240Y-46587359D01*
X219713238Y-46587364D01*
X219589157Y-46886921D01*
X219495033Y-47197207D01*
X219495030Y-47197218D01*
X219431782Y-47515198D01*
X219431779Y-47515215D01*
X219400000Y-47837884D01*
X217454353Y-47837884D01*
X217332993Y-47744761D01*
X217077510Y-47597258D01*
X217077500Y-47597254D01*
X216804961Y-47484364D01*
X216804954Y-47484362D01*
X216804952Y-47484361D01*
X216519993Y-47408007D01*
X216471113Y-47401571D01*
X216227513Y-47369500D01*
X216227506Y-47369500D01*
X215932494Y-47369500D01*
X215932486Y-47369500D01*
X215654085Y-47406153D01*
X215640007Y-47408007D01*
X215355048Y-47484361D01*
X215355038Y-47484364D01*
X215082499Y-47597254D01*
X215082489Y-47597258D01*
X214827006Y-47744761D01*
X214592959Y-47924352D01*
X214592952Y-47924358D01*
X214384358Y-48132952D01*
X214384352Y-48132959D01*
X214204761Y-48367006D01*
X214057258Y-48622489D01*
X214057254Y-48622499D01*
X213944364Y-48895038D01*
X213944361Y-48895048D01*
X213885941Y-49113078D01*
X213868008Y-49180004D01*
X213868006Y-49180015D01*
X213829500Y-49472486D01*
X213829500Y-50645500D01*
X213809815Y-50712539D01*
X213757011Y-50758294D01*
X213705500Y-50769500D01*
X208294500Y-50769500D01*
X208227461Y-50749815D01*
X208181706Y-50697011D01*
X208170500Y-50645500D01*
X208170500Y-49472500D01*
X208170499Y-49472486D01*
X208156801Y-49368443D01*
X208131993Y-49180007D01*
X208055639Y-48895048D01*
X207942743Y-48622493D01*
X207795238Y-48367006D01*
X207638019Y-48162115D01*
X207615647Y-48132959D01*
X207615641Y-48132952D01*
X207407047Y-47924358D01*
X207407040Y-47924352D01*
X207172993Y-47744761D01*
X206917510Y-47597258D01*
X206917500Y-47597254D01*
X206644961Y-47484364D01*
X206644954Y-47484362D01*
X206644952Y-47484361D01*
X206359993Y-47408007D01*
X206311113Y-47401571D01*
X206067513Y-47369500D01*
X206067506Y-47369500D01*
X205772494Y-47369500D01*
X205772486Y-47369500D01*
X205494085Y-47406153D01*
X205480007Y-47408007D01*
X205195048Y-47484361D01*
X205195038Y-47484364D01*
X204922499Y-47597254D01*
X204922489Y-47597258D01*
X204667006Y-47744761D01*
X204432959Y-47924352D01*
X204432952Y-47924358D01*
X204224358Y-48132952D01*
X204224352Y-48132959D01*
X204044761Y-48367006D01*
X203897258Y-48622489D01*
X203897254Y-48622499D01*
X203784364Y-48895038D01*
X203784361Y-48895048D01*
X203725941Y-49113078D01*
X203708008Y-49180004D01*
X203708006Y-49180015D01*
X203669500Y-49472486D01*
X203669500Y-53267513D01*
X203687271Y-53402490D01*
X203708007Y-53559993D01*
X203708008Y-53559995D01*
X203784361Y-53844951D01*
X203784364Y-53844961D01*
X203897254Y-54117500D01*
X203897258Y-54117510D01*
X204044761Y-54372993D01*
X204224352Y-54607040D01*
X204224358Y-54607047D01*
X204432952Y-54815641D01*
X204432959Y-54815647D01*
X204667006Y-54995238D01*
X204922489Y-55142741D01*
X204922490Y-55142741D01*
X204922493Y-55142743D01*
X205195048Y-55255639D01*
X205480007Y-55331993D01*
X205772494Y-55370500D01*
X205772501Y-55370500D01*
X206067499Y-55370500D01*
X206067506Y-55370500D01*
X206359993Y-55331993D01*
X206644952Y-55255639D01*
X206753279Y-55210767D01*
X206822746Y-55203298D01*
X206885226Y-55234572D01*
X206888412Y-55237647D01*
X207175731Y-55524966D01*
X207209216Y-55586289D01*
X207205981Y-55650964D01*
X207191524Y-55695457D01*
X207191523Y-55695464D01*
X207160644Y-55890423D01*
X207159500Y-55897648D01*
X207159500Y-57002352D01*
X207161904Y-57017527D01*
X207191522Y-57204534D01*
X207254781Y-57399223D01*
X207347715Y-57581613D01*
X207468028Y-57747213D01*
X207612786Y-57891971D01*
X207760179Y-57999056D01*
X207778390Y-58012287D01*
X207882585Y-58065377D01*
X207960776Y-58105218D01*
X207960778Y-58105218D01*
X207960781Y-58105220D01*
X208011363Y-58121655D01*
X208155465Y-58168477D01*
X208211512Y-58177354D01*
X208357648Y-58200500D01*
X208357649Y-58200500D01*
X208562351Y-58200500D01*
X208562352Y-58200500D01*
X208764534Y-58168477D01*
X208959219Y-58105220D01*
X209141610Y-58012287D01*
X209234590Y-57944732D01*
X209307213Y-57891971D01*
X209307215Y-57891968D01*
X209307219Y-57891966D01*
X209451966Y-57747219D01*
X209451968Y-57747215D01*
X209451971Y-57747213D01*
X209572284Y-57581614D01*
X209572285Y-57581613D01*
X209572287Y-57581610D01*
X209619516Y-57488917D01*
X209667489Y-57438123D01*
X209735310Y-57421328D01*
X209801445Y-57443865D01*
X209840483Y-57488917D01*
X209868252Y-57543416D01*
X209887715Y-57581614D01*
X210008028Y-57747213D01*
X210152786Y-57891971D01*
X210300179Y-57999056D01*
X210318390Y-58012287D01*
X210422585Y-58065377D01*
X210500776Y-58105218D01*
X210500778Y-58105218D01*
X210500781Y-58105220D01*
X210551363Y-58121655D01*
X210695465Y-58168477D01*
X210751512Y-58177354D01*
X210897648Y-58200500D01*
X210897649Y-58200500D01*
X211102351Y-58200500D01*
X211102352Y-58200500D01*
X211304534Y-58168477D01*
X211499219Y-58105220D01*
X211681610Y-58012287D01*
X211774590Y-57944732D01*
X211847213Y-57891971D01*
X211847215Y-57891968D01*
X211847219Y-57891966D01*
X211991966Y-57747219D01*
X211991968Y-57747215D01*
X211991971Y-57747213D01*
X212064245Y-57647735D01*
X212112287Y-57581610D01*
X212205220Y-57399219D01*
X212268477Y-57204534D01*
X212276306Y-57155102D01*
X212306235Y-57091968D01*
X212365546Y-57055036D01*
X212398779Y-57050500D01*
X227263332Y-57050500D01*
X227270939Y-57050500D01*
X227270943Y-57050501D01*
X227414051Y-57050501D01*
X227481090Y-57070186D01*
X227526845Y-57122990D01*
X227526846Y-57123003D01*
X227538050Y-57174501D01*
X227538050Y-57240865D01*
X227569606Y-57440098D01*
X227631939Y-57631942D01*
X227690673Y-57747213D01*
X227723520Y-57811679D01*
X227842088Y-57974874D01*
X227984726Y-58117512D01*
X228005046Y-58132275D01*
X228016460Y-58147078D01*
X228031424Y-58158279D01*
X228037352Y-58174171D01*
X228047710Y-58187604D01*
X228049309Y-58206226D01*
X228055843Y-58223742D01*
X228052237Y-58240318D01*
X228053689Y-58257217D01*
X228044966Y-58273748D01*
X228040993Y-58292016D01*
X228021793Y-58317664D01*
X228021083Y-58319012D01*
X228019843Y-58320271D01*
X228002686Y-58337429D01*
X228002683Y-58337431D01*
X227477934Y-58862181D01*
X227416611Y-58895666D01*
X227390253Y-58898500D01*
X196092500Y-58898500D01*
X196025461Y-58878815D01*
X195979706Y-58826011D01*
X195968500Y-58774500D01*
X195968500Y-55384133D01*
X195988185Y-55317094D01*
X196040989Y-55271339D01*
X196060394Y-55264362D01*
X196092952Y-55255639D01*
X196365507Y-55142743D01*
X196620994Y-54995238D01*
X196855042Y-54815646D01*
X197063646Y-54607042D01*
X197243238Y-54372994D01*
X197390743Y-54117507D01*
X197503639Y-53844952D01*
X197579993Y-53559993D01*
X197618500Y-53267506D01*
X197618500Y-49472494D01*
X197579993Y-49180007D01*
X197503639Y-48895048D01*
X197390743Y-48622493D01*
X197243238Y-48367006D01*
X197086019Y-48162115D01*
X197063647Y-48132959D01*
X197063641Y-48132952D01*
X196855047Y-47924358D01*
X196855040Y-47924352D01*
X196620993Y-47744761D01*
X196365510Y-47597258D01*
X196365500Y-47597254D01*
X196092961Y-47484364D01*
X196092954Y-47484362D01*
X196092952Y-47484361D01*
X195807993Y-47408007D01*
X195759113Y-47401571D01*
X195515513Y-47369500D01*
X195515506Y-47369500D01*
X195220494Y-47369500D01*
X195220486Y-47369500D01*
X194942085Y-47406153D01*
X194928007Y-47408007D01*
X194643048Y-47484361D01*
X194643038Y-47484364D01*
X194370499Y-47597254D01*
X194370489Y-47597258D01*
X194115006Y-47744761D01*
X193880959Y-47924352D01*
X193880952Y-47924358D01*
X193672358Y-48132952D01*
X193672352Y-48132959D01*
X193492761Y-48367006D01*
X193345258Y-48622489D01*
X193345254Y-48622499D01*
X193232364Y-48895038D01*
X193232361Y-48895048D01*
X193173941Y-49113078D01*
X193156008Y-49180004D01*
X193156006Y-49180015D01*
X193117500Y-49472486D01*
X193117500Y-50645500D01*
X193097815Y-50712539D01*
X193045011Y-50758294D01*
X192993500Y-50769500D01*
X187582500Y-50769500D01*
X187515461Y-50749815D01*
X187469706Y-50697011D01*
X187458500Y-50645500D01*
X187458500Y-49472500D01*
X187458499Y-49472486D01*
X187444801Y-49368443D01*
X187419993Y-49180007D01*
X187343639Y-48895048D01*
X187230743Y-48622493D01*
X187083238Y-48367006D01*
X186926019Y-48162115D01*
X186903647Y-48132959D01*
X186903641Y-48132952D01*
X186695047Y-47924358D01*
X186695040Y-47924352D01*
X186460993Y-47744761D01*
X186205510Y-47597258D01*
X186205500Y-47597254D01*
X185932961Y-47484364D01*
X185932954Y-47484362D01*
X185932952Y-47484361D01*
X185647993Y-47408007D01*
X185599113Y-47401571D01*
X185355513Y-47369500D01*
X185355506Y-47369500D01*
X185060494Y-47369500D01*
X185060486Y-47369500D01*
X184782085Y-47406153D01*
X184768007Y-47408007D01*
X184483048Y-47484361D01*
X184483038Y-47484364D01*
X184210499Y-47597254D01*
X184210489Y-47597258D01*
X183955006Y-47744761D01*
X183720959Y-47924352D01*
X183720952Y-47924358D01*
X183512358Y-48132952D01*
X183512352Y-48132959D01*
X183332761Y-48367006D01*
X183185258Y-48622489D01*
X183185254Y-48622499D01*
X183072364Y-48895038D01*
X183072361Y-48895048D01*
X183013941Y-49113078D01*
X182996008Y-49180004D01*
X182996006Y-49180015D01*
X182957500Y-49472486D01*
X182957500Y-53267513D01*
X182975271Y-53402490D01*
X182996007Y-53559993D01*
X182996008Y-53559995D01*
X183072361Y-53844951D01*
X183072364Y-53844961D01*
X183185254Y-54117500D01*
X183185258Y-54117510D01*
X183332761Y-54372993D01*
X183512352Y-54607040D01*
X183512358Y-54607047D01*
X183720952Y-54815641D01*
X183720959Y-54815647D01*
X183955006Y-54995238D01*
X184210489Y-55142741D01*
X184210490Y-55142741D01*
X184210493Y-55142743D01*
X184483048Y-55255639D01*
X184768007Y-55331993D01*
X185060494Y-55370500D01*
X185060501Y-55370500D01*
X185355499Y-55370500D01*
X185355506Y-55370500D01*
X185647993Y-55331993D01*
X185932952Y-55255639D01*
X185979057Y-55236541D01*
X186048521Y-55229073D01*
X186111001Y-55260347D01*
X186114187Y-55263422D01*
X186443968Y-55593203D01*
X186477453Y-55654526D01*
X186478760Y-55700282D01*
X186455176Y-55849184D01*
X186447500Y-55897648D01*
X186447500Y-57002352D01*
X186449904Y-57017527D01*
X186479522Y-57204534D01*
X186542781Y-57399223D01*
X186635715Y-57581613D01*
X186756028Y-57747213D01*
X186900786Y-57891971D01*
X187048179Y-57999056D01*
X187066390Y-58012287D01*
X187170585Y-58065377D01*
X187248776Y-58105218D01*
X187248778Y-58105218D01*
X187248781Y-58105220D01*
X187299363Y-58121655D01*
X187443465Y-58168477D01*
X187499512Y-58177354D01*
X187645648Y-58200500D01*
X187645649Y-58200500D01*
X187850351Y-58200500D01*
X187850352Y-58200500D01*
X188052534Y-58168477D01*
X188247219Y-58105220D01*
X188429610Y-58012287D01*
X188522590Y-57944732D01*
X188595213Y-57891971D01*
X188595215Y-57891968D01*
X188595219Y-57891966D01*
X188739966Y-57747219D01*
X188739968Y-57747215D01*
X188739971Y-57747213D01*
X188860284Y-57581614D01*
X188860285Y-57581613D01*
X188860287Y-57581610D01*
X188907516Y-57488917D01*
X188955489Y-57438123D01*
X189023310Y-57421328D01*
X189089445Y-57443865D01*
X189128483Y-57488917D01*
X189156252Y-57543416D01*
X189175715Y-57581614D01*
X189296028Y-57747213D01*
X189440786Y-57891971D01*
X189588179Y-57999056D01*
X189606390Y-58012287D01*
X189710585Y-58065377D01*
X189788776Y-58105218D01*
X189788778Y-58105218D01*
X189788781Y-58105220D01*
X189839363Y-58121655D01*
X189983465Y-58168477D01*
X190039512Y-58177354D01*
X190185648Y-58200500D01*
X190185649Y-58200500D01*
X190390351Y-58200500D01*
X190390352Y-58200500D01*
X190592534Y-58168477D01*
X190787219Y-58105220D01*
X190969610Y-58012287D01*
X191062590Y-57944732D01*
X191135213Y-57891971D01*
X191135215Y-57891968D01*
X191135219Y-57891966D01*
X191279966Y-57747219D01*
X191279968Y-57747215D01*
X191279971Y-57747213D01*
X191352245Y-57647735D01*
X191400287Y-57581610D01*
X191493220Y-57399219D01*
X191556477Y-57204534D01*
X191564306Y-57155102D01*
X191578890Y-57124338D01*
X191593066Y-57093297D01*
X191593841Y-57092798D01*
X191594235Y-57091968D01*
X191623162Y-57073955D01*
X191651844Y-57055523D01*
X191653040Y-57055351D01*
X191653546Y-57055036D01*
X191686779Y-57050500D01*
X191714189Y-57050500D01*
X191781228Y-57070185D01*
X191801869Y-57086818D01*
X195095570Y-60380520D01*
X195232501Y-60459577D01*
X195385229Y-60500501D01*
X195385232Y-60500501D01*
X195550940Y-60500501D01*
X195550956Y-60500500D01*
X227611266Y-60500500D01*
X227678305Y-60520185D01*
X227721751Y-60568208D01*
X227723520Y-60571679D01*
X227842088Y-60734874D01*
X227984726Y-60877512D01*
X228147921Y-60996080D01*
X228327655Y-61087659D01*
X228327657Y-61087660D01*
X228519502Y-61149994D01*
X228567062Y-61157527D01*
X228630197Y-61187457D01*
X228667128Y-61246768D01*
X228666130Y-61316631D01*
X228627520Y-61374863D01*
X228567062Y-61402473D01*
X228519502Y-61410005D01*
X228327657Y-61472339D01*
X228147920Y-61563920D01*
X227984723Y-61682490D01*
X227842090Y-61825123D01*
X227723520Y-61988320D01*
X227631939Y-62168057D01*
X227569606Y-62359901D01*
X227538050Y-62559134D01*
X227538050Y-62760865D01*
X227559311Y-62895102D01*
X227550356Y-62964396D01*
X227505360Y-63017848D01*
X227438609Y-63038487D01*
X227436838Y-63038500D01*
X177056197Y-63038500D01*
X176989158Y-63018815D01*
X176968516Y-63002181D01*
X175292819Y-61326484D01*
X175259334Y-61265161D01*
X175256500Y-61238803D01*
X175256500Y-55384133D01*
X175276185Y-55317094D01*
X175328989Y-55271339D01*
X175348394Y-55264362D01*
X175380952Y-55255639D01*
X175653507Y-55142743D01*
X175908994Y-54995238D01*
X176143042Y-54815646D01*
X176351646Y-54607042D01*
X176531238Y-54372994D01*
X176678743Y-54117507D01*
X176791639Y-53844952D01*
X176867993Y-53559993D01*
X176906500Y-53267506D01*
X176906500Y-49472494D01*
X176867993Y-49180007D01*
X176791639Y-48895048D01*
X176678743Y-48622493D01*
X176531238Y-48367006D01*
X176374019Y-48162115D01*
X176351647Y-48132959D01*
X176351641Y-48132952D01*
X176143047Y-47924358D01*
X176143040Y-47924352D01*
X175908993Y-47744761D01*
X175653510Y-47597258D01*
X175653500Y-47597254D01*
X175380961Y-47484364D01*
X175380954Y-47484362D01*
X175380952Y-47484361D01*
X175095993Y-47408007D01*
X175047113Y-47401571D01*
X174803513Y-47369500D01*
X174803506Y-47369500D01*
X174508494Y-47369500D01*
X174508486Y-47369500D01*
X174230085Y-47406153D01*
X174216007Y-47408007D01*
X173931048Y-47484361D01*
X173931038Y-47484364D01*
X173658499Y-47597254D01*
X173658489Y-47597258D01*
X173403006Y-47744761D01*
X173168959Y-47924352D01*
X173168952Y-47924358D01*
X172960358Y-48132952D01*
X172960352Y-48132959D01*
X172780761Y-48367006D01*
X172633258Y-48622489D01*
X172633254Y-48622499D01*
X172520364Y-48895038D01*
X172520361Y-48895048D01*
X172461941Y-49113078D01*
X172444008Y-49180004D01*
X172444006Y-49180015D01*
X172405500Y-49472486D01*
X172405500Y-50645500D01*
X172385815Y-50712539D01*
X172333011Y-50758294D01*
X172281500Y-50769500D01*
X166870500Y-50769500D01*
X166803461Y-50749815D01*
X166757706Y-50697011D01*
X166746500Y-50645500D01*
X166746500Y-49472500D01*
X166746499Y-49472486D01*
X166732801Y-49368443D01*
X166707993Y-49180007D01*
X166631639Y-48895048D01*
X166518743Y-48622493D01*
X166371238Y-48367006D01*
X166214019Y-48162115D01*
X166191647Y-48132959D01*
X166191641Y-48132952D01*
X165983047Y-47924358D01*
X165983040Y-47924352D01*
X165748993Y-47744761D01*
X165493510Y-47597258D01*
X165493500Y-47597254D01*
X165220961Y-47484364D01*
X165220954Y-47484362D01*
X165220952Y-47484361D01*
X164935993Y-47408007D01*
X164887113Y-47401571D01*
X164643513Y-47369500D01*
X164643506Y-47369500D01*
X164348494Y-47369500D01*
X164348486Y-47369500D01*
X164070085Y-47406153D01*
X164056007Y-47408007D01*
X163771048Y-47484361D01*
X163771038Y-47484364D01*
X163498499Y-47597254D01*
X163498489Y-47597258D01*
X163243006Y-47744761D01*
X163008959Y-47924352D01*
X163008952Y-47924358D01*
X162800358Y-48132952D01*
X162800352Y-48132959D01*
X162620761Y-48367006D01*
X162473258Y-48622489D01*
X162473254Y-48622499D01*
X162360364Y-48895038D01*
X162360361Y-48895048D01*
X162301941Y-49113078D01*
X162284008Y-49180004D01*
X162284006Y-49180015D01*
X162245500Y-49472486D01*
X162245500Y-53267513D01*
X162263271Y-53402490D01*
X162284007Y-53559993D01*
X162284008Y-53559995D01*
X162360361Y-53844951D01*
X162360364Y-53844961D01*
X162473254Y-54117500D01*
X162473258Y-54117510D01*
X162620761Y-54372993D01*
X162800352Y-54607040D01*
X162800358Y-54607047D01*
X163008952Y-54815641D01*
X163008959Y-54815647D01*
X163243006Y-54995238D01*
X163498489Y-55142741D01*
X163498490Y-55142741D01*
X163498493Y-55142743D01*
X163771048Y-55255639D01*
X164056007Y-55331993D01*
X164348494Y-55370500D01*
X164348501Y-55370500D01*
X164643499Y-55370500D01*
X164643506Y-55370500D01*
X164935993Y-55331993D01*
X165220952Y-55255639D01*
X165275540Y-55233027D01*
X165345005Y-55225558D01*
X165407485Y-55256831D01*
X165410672Y-55259907D01*
X165733656Y-55582891D01*
X165767141Y-55644214D01*
X165766685Y-55690400D01*
X165768285Y-55690654D01*
X165743176Y-55849184D01*
X165735500Y-55897648D01*
X165735500Y-57002352D01*
X165737904Y-57017527D01*
X165767522Y-57204534D01*
X165830781Y-57399223D01*
X165923715Y-57581613D01*
X166044028Y-57747213D01*
X166188786Y-57891971D01*
X166336179Y-57999056D01*
X166354390Y-58012287D01*
X166458585Y-58065377D01*
X166536776Y-58105218D01*
X166536778Y-58105218D01*
X166536781Y-58105220D01*
X166587363Y-58121655D01*
X166731465Y-58168477D01*
X166787512Y-58177354D01*
X166933648Y-58200500D01*
X166933649Y-58200500D01*
X167138351Y-58200500D01*
X167138352Y-58200500D01*
X167340534Y-58168477D01*
X167535219Y-58105220D01*
X167717610Y-58012287D01*
X167810590Y-57944732D01*
X167883213Y-57891971D01*
X167883215Y-57891968D01*
X167883219Y-57891966D01*
X168027966Y-57747219D01*
X168027968Y-57747215D01*
X168027971Y-57747213D01*
X168148284Y-57581614D01*
X168148285Y-57581613D01*
X168148287Y-57581610D01*
X168195516Y-57488917D01*
X168243489Y-57438123D01*
X168311310Y-57421328D01*
X168377445Y-57443865D01*
X168416483Y-57488917D01*
X168444252Y-57543416D01*
X168463715Y-57581614D01*
X168584028Y-57747213D01*
X168728786Y-57891971D01*
X168876179Y-57999056D01*
X168894390Y-58012287D01*
X168998585Y-58065377D01*
X169076776Y-58105218D01*
X169076778Y-58105218D01*
X169076781Y-58105220D01*
X169127363Y-58121655D01*
X169271465Y-58168477D01*
X169327512Y-58177354D01*
X169473648Y-58200500D01*
X169473649Y-58200500D01*
X169678351Y-58200500D01*
X169678352Y-58200500D01*
X169880534Y-58168477D01*
X170075219Y-58105220D01*
X170257610Y-58012287D01*
X170350590Y-57944732D01*
X170423213Y-57891971D01*
X170423215Y-57891968D01*
X170423219Y-57891966D01*
X170567966Y-57747219D01*
X170567968Y-57747215D01*
X170567971Y-57747213D01*
X170640245Y-57647735D01*
X170688287Y-57581610D01*
X170781220Y-57399219D01*
X170844477Y-57204534D01*
X170852306Y-57155102D01*
X170882235Y-57091968D01*
X170941546Y-57055036D01*
X170974779Y-57050500D01*
X172549903Y-57050500D01*
X172616942Y-57070185D01*
X172637584Y-57086819D01*
X173618181Y-58067416D01*
X173651666Y-58128739D01*
X173654500Y-58155097D01*
X173654500Y-61618330D01*
X173654499Y-61618348D01*
X173654499Y-61784054D01*
X173654498Y-61784054D01*
X173695424Y-61936789D01*
X173695425Y-61936790D01*
X173716504Y-61973299D01*
X173716505Y-61973300D01*
X173774477Y-62073712D01*
X173774481Y-62073717D01*
X173903720Y-62202956D01*
X173903726Y-62202961D01*
X174128249Y-62427485D01*
X174128255Y-62427490D01*
X175874581Y-64173816D01*
X176221284Y-64520520D01*
X176221286Y-64520521D01*
X176221290Y-64520524D01*
X176278390Y-64553490D01*
X176358216Y-64599577D01*
X176510943Y-64640501D01*
X176510945Y-64640501D01*
X176676654Y-64640501D01*
X176676670Y-64640500D01*
X176843143Y-64640500D01*
X180360943Y-64640500D01*
X227576108Y-64640500D01*
X227643147Y-64660185D01*
X227688902Y-64712989D01*
X227698846Y-64782147D01*
X227686593Y-64820795D01*
X227631939Y-64928057D01*
X227569606Y-65119901D01*
X227538050Y-65319134D01*
X227538050Y-65520865D01*
X227569606Y-65720098D01*
X227631939Y-65911942D01*
X227706285Y-66057853D01*
X227723520Y-66091679D01*
X227842088Y-66254874D01*
X227984726Y-66397512D01*
X228005046Y-66412275D01*
X228016460Y-66427078D01*
X228031424Y-66438279D01*
X228037352Y-66454171D01*
X228047710Y-66467604D01*
X228049309Y-66486226D01*
X228055843Y-66503742D01*
X228052237Y-66520318D01*
X228053689Y-66537217D01*
X228044966Y-66553748D01*
X228040993Y-66572016D01*
X228021793Y-66597664D01*
X228021083Y-66599012D01*
X228019843Y-66600271D01*
X228002686Y-66617429D01*
X228002683Y-66617431D01*
X227477934Y-67142181D01*
X227416611Y-67175666D01*
X227390253Y-67178500D01*
X158996197Y-67178500D01*
X158929158Y-67158815D01*
X158908516Y-67142181D01*
X154580819Y-62814484D01*
X154547334Y-62753161D01*
X154544500Y-62726803D01*
X154544500Y-55384133D01*
X154564185Y-55317094D01*
X154616989Y-55271339D01*
X154636394Y-55264362D01*
X154668952Y-55255639D01*
X154941507Y-55142743D01*
X155196994Y-54995238D01*
X155431042Y-54815646D01*
X155639646Y-54607042D01*
X155819238Y-54372994D01*
X155966743Y-54117507D01*
X156079639Y-53844952D01*
X156155993Y-53559993D01*
X156194500Y-53267506D01*
X156194500Y-49472494D01*
X156155993Y-49180007D01*
X156079639Y-48895048D01*
X155966743Y-48622493D01*
X155819238Y-48367006D01*
X155662019Y-48162115D01*
X155639647Y-48132959D01*
X155639641Y-48132952D01*
X155431047Y-47924358D01*
X155431040Y-47924352D01*
X155196993Y-47744761D01*
X154941510Y-47597258D01*
X154941500Y-47597254D01*
X154668961Y-47484364D01*
X154668954Y-47484362D01*
X154668952Y-47484361D01*
X154383993Y-47408007D01*
X154335113Y-47401571D01*
X154091513Y-47369500D01*
X154091506Y-47369500D01*
X153796494Y-47369500D01*
X153796486Y-47369500D01*
X153518085Y-47406153D01*
X153504007Y-47408007D01*
X153219048Y-47484361D01*
X153219038Y-47484364D01*
X152946499Y-47597254D01*
X152946489Y-47597258D01*
X152691006Y-47744761D01*
X152456959Y-47924352D01*
X152456952Y-47924358D01*
X152248358Y-48132952D01*
X152248352Y-48132959D01*
X152068761Y-48367006D01*
X151921258Y-48622489D01*
X151921254Y-48622499D01*
X151808364Y-48895038D01*
X151808361Y-48895048D01*
X151749941Y-49113078D01*
X151732008Y-49180004D01*
X151732006Y-49180015D01*
X151693500Y-49472486D01*
X151693500Y-50645500D01*
X151673815Y-50712539D01*
X151621011Y-50758294D01*
X151569500Y-50769500D01*
X146158500Y-50769500D01*
X146091461Y-50749815D01*
X146045706Y-50697011D01*
X146034500Y-50645500D01*
X146034500Y-49472500D01*
X146034499Y-49472486D01*
X146020801Y-49368443D01*
X145995993Y-49180007D01*
X145919639Y-48895048D01*
X145806743Y-48622493D01*
X145659238Y-48367006D01*
X145502019Y-48162115D01*
X145479647Y-48132959D01*
X145479641Y-48132952D01*
X145271047Y-47924358D01*
X145271040Y-47924352D01*
X145036993Y-47744761D01*
X144781510Y-47597258D01*
X144781500Y-47597254D01*
X144508961Y-47484364D01*
X144508954Y-47484362D01*
X144508952Y-47484361D01*
X144223993Y-47408007D01*
X144175113Y-47401571D01*
X143931513Y-47369500D01*
X143931506Y-47369500D01*
X143636494Y-47369500D01*
X143636486Y-47369500D01*
X143358085Y-47406153D01*
X143344007Y-47408007D01*
X143059048Y-47484361D01*
X143059038Y-47484364D01*
X142786499Y-47597254D01*
X142786489Y-47597258D01*
X142531006Y-47744761D01*
X142296959Y-47924352D01*
X142296952Y-47924358D01*
X142088358Y-48132952D01*
X142088352Y-48132959D01*
X141908761Y-48367006D01*
X141761258Y-48622489D01*
X141761254Y-48622499D01*
X141648364Y-48895038D01*
X141648361Y-48895048D01*
X141589941Y-49113078D01*
X141572008Y-49180004D01*
X141572006Y-49180015D01*
X141533500Y-49472486D01*
X141533500Y-53267513D01*
X141551271Y-53402490D01*
X141572007Y-53559993D01*
X141572008Y-53559995D01*
X141648361Y-53844951D01*
X141648364Y-53844961D01*
X141761254Y-54117500D01*
X141761258Y-54117510D01*
X141908761Y-54372993D01*
X142088352Y-54607040D01*
X142088358Y-54607047D01*
X142296952Y-54815641D01*
X142296959Y-54815647D01*
X142531006Y-54995238D01*
X142786489Y-55142741D01*
X142786490Y-55142741D01*
X142786493Y-55142743D01*
X143059048Y-55255639D01*
X143344007Y-55331993D01*
X143636494Y-55370500D01*
X143636501Y-55370500D01*
X143931499Y-55370500D01*
X143931506Y-55370500D01*
X144223993Y-55331993D01*
X144508952Y-55255639D01*
X144642738Y-55200222D01*
X144712203Y-55192754D01*
X144774682Y-55224028D01*
X144777868Y-55227103D01*
X145048560Y-55497795D01*
X145082045Y-55559118D01*
X145078810Y-55623794D01*
X145055523Y-55695464D01*
X145024644Y-55890423D01*
X145023500Y-55897648D01*
X145023500Y-57002352D01*
X145025904Y-57017527D01*
X145055522Y-57204534D01*
X145118781Y-57399223D01*
X145211715Y-57581613D01*
X145332028Y-57747213D01*
X145476786Y-57891971D01*
X145624179Y-57999056D01*
X145642390Y-58012287D01*
X145746585Y-58065377D01*
X145824776Y-58105218D01*
X145824778Y-58105218D01*
X145824781Y-58105220D01*
X145875363Y-58121655D01*
X146019465Y-58168477D01*
X146075512Y-58177354D01*
X146221648Y-58200500D01*
X146221649Y-58200500D01*
X146426351Y-58200500D01*
X146426352Y-58200500D01*
X146628534Y-58168477D01*
X146823219Y-58105220D01*
X147005610Y-58012287D01*
X147098590Y-57944732D01*
X147171213Y-57891971D01*
X147171215Y-57891968D01*
X147171219Y-57891966D01*
X147315966Y-57747219D01*
X147315968Y-57747215D01*
X147315971Y-57747213D01*
X147436284Y-57581614D01*
X147436285Y-57581613D01*
X147436287Y-57581610D01*
X147483516Y-57488917D01*
X147531489Y-57438123D01*
X147599310Y-57421328D01*
X147665445Y-57443865D01*
X147704483Y-57488917D01*
X147732252Y-57543416D01*
X147751715Y-57581614D01*
X147872028Y-57747213D01*
X148016786Y-57891971D01*
X148164179Y-57999056D01*
X148182390Y-58012287D01*
X148286585Y-58065377D01*
X148364776Y-58105218D01*
X148364778Y-58105218D01*
X148364781Y-58105220D01*
X148415363Y-58121655D01*
X148559465Y-58168477D01*
X148615512Y-58177354D01*
X148761648Y-58200500D01*
X148761649Y-58200500D01*
X148966351Y-58200500D01*
X148966352Y-58200500D01*
X149168534Y-58168477D01*
X149363219Y-58105220D01*
X149545610Y-58012287D01*
X149638590Y-57944732D01*
X149711213Y-57891971D01*
X149711215Y-57891968D01*
X149711219Y-57891966D01*
X149855966Y-57747219D01*
X149855968Y-57747215D01*
X149855971Y-57747213D01*
X149928245Y-57647735D01*
X149976287Y-57581610D01*
X150069220Y-57399219D01*
X150132477Y-57204534D01*
X150140306Y-57155102D01*
X150170235Y-57091968D01*
X150229546Y-57055036D01*
X150262779Y-57050500D01*
X152649903Y-57050500D01*
X152679343Y-57059144D01*
X152709330Y-57065668D01*
X152714345Y-57069422D01*
X152716942Y-57070185D01*
X152737584Y-57086819D01*
X152906181Y-57255416D01*
X152939666Y-57316739D01*
X152942500Y-57343097D01*
X152942500Y-63106330D01*
X152942499Y-63106348D01*
X152942499Y-63272054D01*
X152942498Y-63272054D01*
X152942499Y-63272057D01*
X152983423Y-63424785D01*
X152983424Y-63424787D01*
X152983423Y-63424787D01*
X152990120Y-63436385D01*
X152990121Y-63436386D01*
X153062477Y-63561712D01*
X153062481Y-63561717D01*
X153191720Y-63690956D01*
X153191726Y-63690961D01*
X153409184Y-63908420D01*
X153906270Y-64405506D01*
X153906276Y-64405511D01*
X154130799Y-64630035D01*
X154130805Y-64630040D01*
X157814581Y-68313816D01*
X158161284Y-68660520D01*
X158161286Y-68660521D01*
X158161290Y-68660524D01*
X158273186Y-68725126D01*
X158298216Y-68739577D01*
X158450943Y-68780501D01*
X158450945Y-68780501D01*
X158616654Y-68780501D01*
X158616670Y-68780500D01*
X158783143Y-68780500D01*
X164600943Y-68780500D01*
X227445193Y-68780500D01*
X227611266Y-68780500D01*
X227678305Y-68800185D01*
X227721751Y-68848208D01*
X227723520Y-68851679D01*
X227842088Y-69014874D01*
X227984726Y-69157512D01*
X228147921Y-69276080D01*
X228327655Y-69367659D01*
X228327657Y-69367660D01*
X228519502Y-69429994D01*
X228567062Y-69437527D01*
X228630197Y-69467457D01*
X228667128Y-69526768D01*
X228666130Y-69596631D01*
X228627520Y-69654863D01*
X228567062Y-69682473D01*
X228519502Y-69690005D01*
X228327657Y-69752339D01*
X228147920Y-69843920D01*
X227984723Y-69962490D01*
X227842090Y-70105123D01*
X227723520Y-70268320D01*
X227631939Y-70448057D01*
X227569606Y-70639901D01*
X227538050Y-70839134D01*
X227538050Y-71040865D01*
X227569606Y-71240098D01*
X227631939Y-71431942D01*
X227706285Y-71577853D01*
X227723520Y-71611679D01*
X227842088Y-71774874D01*
X227984726Y-71917512D01*
X228005046Y-71932275D01*
X228047710Y-71987604D01*
X228053689Y-72057217D01*
X228021083Y-72119012D01*
X228019840Y-72120273D01*
X227477934Y-72662181D01*
X227416611Y-72695666D01*
X227390253Y-72698500D01*
X143166197Y-72698500D01*
X143099158Y-72678815D01*
X143078516Y-72662181D01*
X133868819Y-63452484D01*
X133835334Y-63391161D01*
X133832500Y-63364803D01*
X133832500Y-55384133D01*
X133852185Y-55317094D01*
X133904989Y-55271339D01*
X133924394Y-55264362D01*
X133956952Y-55255639D01*
X134229507Y-55142743D01*
X134484994Y-54995238D01*
X134719042Y-54815646D01*
X134927646Y-54607042D01*
X135107238Y-54372994D01*
X135254743Y-54117507D01*
X135367639Y-53844952D01*
X135443993Y-53559993D01*
X135482500Y-53267506D01*
X135482500Y-49472494D01*
X135443993Y-49180007D01*
X135367639Y-48895048D01*
X135254743Y-48622493D01*
X135107238Y-48367006D01*
X134950019Y-48162115D01*
X134927647Y-48132959D01*
X134927641Y-48132952D01*
X134719047Y-47924358D01*
X134719040Y-47924352D01*
X134484993Y-47744761D01*
X134229510Y-47597258D01*
X134229500Y-47597254D01*
X133956961Y-47484364D01*
X133956954Y-47484362D01*
X133956952Y-47484361D01*
X133671993Y-47408007D01*
X133623113Y-47401571D01*
X133379513Y-47369500D01*
X133379506Y-47369500D01*
X133084494Y-47369500D01*
X133084486Y-47369500D01*
X132806085Y-47406153D01*
X132792007Y-47408007D01*
X132507048Y-47484361D01*
X132507038Y-47484364D01*
X132234499Y-47597254D01*
X132234489Y-47597258D01*
X131979006Y-47744761D01*
X131744959Y-47924352D01*
X131744952Y-47924358D01*
X131536358Y-48132952D01*
X131536352Y-48132959D01*
X131356761Y-48367006D01*
X131209258Y-48622489D01*
X131209254Y-48622499D01*
X131096364Y-48895038D01*
X131096361Y-48895048D01*
X131037941Y-49113078D01*
X131020008Y-49180004D01*
X131020006Y-49180015D01*
X130981500Y-49472486D01*
X130981500Y-50645500D01*
X130961815Y-50712539D01*
X130909011Y-50758294D01*
X130857500Y-50769500D01*
X125446500Y-50769500D01*
X125379461Y-50749815D01*
X125333706Y-50697011D01*
X125322500Y-50645500D01*
X125322500Y-49472500D01*
X125322499Y-49472486D01*
X125308801Y-49368443D01*
X125283993Y-49180007D01*
X125207639Y-48895048D01*
X125094743Y-48622493D01*
X124947238Y-48367006D01*
X124790019Y-48162115D01*
X124767647Y-48132959D01*
X124767641Y-48132952D01*
X124559047Y-47924358D01*
X124559040Y-47924352D01*
X124324993Y-47744761D01*
X124069510Y-47597258D01*
X124069500Y-47597254D01*
X123796961Y-47484364D01*
X123796954Y-47484362D01*
X123796952Y-47484361D01*
X123511993Y-47408007D01*
X123463113Y-47401571D01*
X123219513Y-47369500D01*
X123219506Y-47369500D01*
X122924494Y-47369500D01*
X122924486Y-47369500D01*
X122646085Y-47406153D01*
X122632007Y-47408007D01*
X122347048Y-47484361D01*
X122347038Y-47484364D01*
X122074499Y-47597254D01*
X122074489Y-47597258D01*
X121819006Y-47744761D01*
X121584959Y-47924352D01*
X121584952Y-47924358D01*
X121376358Y-48132952D01*
X121376352Y-48132959D01*
X121196761Y-48367006D01*
X121049258Y-48622489D01*
X121049254Y-48622499D01*
X120936364Y-48895038D01*
X120936361Y-48895048D01*
X120877941Y-49113078D01*
X120860008Y-49180004D01*
X120860006Y-49180015D01*
X120821500Y-49472486D01*
X120821500Y-53267513D01*
X120839271Y-53402490D01*
X120860007Y-53559993D01*
X120860008Y-53559995D01*
X120936361Y-53844951D01*
X120936364Y-53844961D01*
X121049254Y-54117500D01*
X121049258Y-54117510D01*
X121196761Y-54372993D01*
X121376352Y-54607040D01*
X121376358Y-54607047D01*
X121584952Y-54815641D01*
X121584959Y-54815647D01*
X121819006Y-54995238D01*
X122074489Y-55142741D01*
X122074490Y-55142741D01*
X122074493Y-55142743D01*
X122347048Y-55255639D01*
X122632007Y-55331993D01*
X122924494Y-55370500D01*
X122924501Y-55370500D01*
X123219499Y-55370500D01*
X123219506Y-55370500D01*
X123511993Y-55331993D01*
X123796952Y-55255639D01*
X124009931Y-55167419D01*
X124079400Y-55159951D01*
X124141880Y-55191226D01*
X124145065Y-55194300D01*
X124364026Y-55413261D01*
X124397511Y-55474584D01*
X124394276Y-55539260D01*
X124343523Y-55695461D01*
X124343523Y-55695464D01*
X124312644Y-55890423D01*
X124311500Y-55897648D01*
X124311500Y-57002352D01*
X124313904Y-57017527D01*
X124343522Y-57204534D01*
X124406781Y-57399223D01*
X124499715Y-57581613D01*
X124620028Y-57747213D01*
X124764786Y-57891971D01*
X124912179Y-57999056D01*
X124930390Y-58012287D01*
X125034585Y-58065377D01*
X125112776Y-58105218D01*
X125112778Y-58105218D01*
X125112781Y-58105220D01*
X125163363Y-58121655D01*
X125307465Y-58168477D01*
X125363512Y-58177354D01*
X125509648Y-58200500D01*
X125509649Y-58200500D01*
X125714351Y-58200500D01*
X125714352Y-58200500D01*
X125916534Y-58168477D01*
X126111219Y-58105220D01*
X126293610Y-58012287D01*
X126386590Y-57944732D01*
X126459213Y-57891971D01*
X126459215Y-57891968D01*
X126459219Y-57891966D01*
X126603966Y-57747219D01*
X126603968Y-57747215D01*
X126603971Y-57747213D01*
X126724284Y-57581614D01*
X126724285Y-57581613D01*
X126724287Y-57581610D01*
X126771516Y-57488917D01*
X126819489Y-57438123D01*
X126887310Y-57421328D01*
X126953445Y-57443865D01*
X126992483Y-57488917D01*
X127020252Y-57543416D01*
X127039715Y-57581614D01*
X127160028Y-57747213D01*
X127304786Y-57891971D01*
X127452179Y-57999056D01*
X127470390Y-58012287D01*
X127574585Y-58065377D01*
X127652776Y-58105218D01*
X127652778Y-58105218D01*
X127652781Y-58105220D01*
X127703363Y-58121655D01*
X127847465Y-58168477D01*
X127903512Y-58177354D01*
X128049648Y-58200500D01*
X128049649Y-58200500D01*
X128254351Y-58200500D01*
X128254352Y-58200500D01*
X128456534Y-58168477D01*
X128651219Y-58105220D01*
X128833610Y-58012287D01*
X128926590Y-57944732D01*
X128999213Y-57891971D01*
X128999215Y-57891968D01*
X128999219Y-57891966D01*
X129143966Y-57747219D01*
X129143968Y-57747215D01*
X129143971Y-57747213D01*
X129216245Y-57647735D01*
X129264287Y-57581610D01*
X129357220Y-57399219D01*
X129420477Y-57204534D01*
X129428306Y-57155102D01*
X129458235Y-57091968D01*
X129517546Y-57055036D01*
X129550779Y-57050500D01*
X131649903Y-57050500D01*
X131716942Y-57070185D01*
X131737584Y-57086819D01*
X132194181Y-57543416D01*
X132227666Y-57604739D01*
X132230500Y-57631097D01*
X132230500Y-63744330D01*
X132230499Y-63744348D01*
X132230499Y-63910054D01*
X132230498Y-63910054D01*
X132271424Y-64062789D01*
X132271425Y-64062790D01*
X132292504Y-64099299D01*
X132292505Y-64099300D01*
X132350477Y-64199712D01*
X132350481Y-64199717D01*
X132479720Y-64328956D01*
X132479726Y-64328961D01*
X132704249Y-64553485D01*
X132704255Y-64553490D01*
X141984581Y-73833816D01*
X142331284Y-74180520D01*
X142331286Y-74180521D01*
X142331290Y-74180524D01*
X142443186Y-74245126D01*
X142468216Y-74259577D01*
X142620943Y-74300501D01*
X142620945Y-74300501D01*
X142786654Y-74300501D01*
X142786670Y-74300500D01*
X142953143Y-74300500D01*
X149120943Y-74300500D01*
X227445193Y-74300500D01*
X227611266Y-74300500D01*
X227678305Y-74320185D01*
X227721751Y-74368208D01*
X227723520Y-74371679D01*
X227842088Y-74534874D01*
X227984726Y-74677512D01*
X228147921Y-74796080D01*
X228327655Y-74887659D01*
X228327657Y-74887660D01*
X228519502Y-74949994D01*
X228567062Y-74957527D01*
X228630197Y-74987457D01*
X228667128Y-75046768D01*
X228666130Y-75116631D01*
X228627520Y-75174863D01*
X228567062Y-75202473D01*
X228519502Y-75210005D01*
X228327657Y-75272339D01*
X228147920Y-75363920D01*
X227984723Y-75482490D01*
X227842090Y-75625123D01*
X227723520Y-75788320D01*
X227631939Y-75968057D01*
X227569606Y-76159901D01*
X227538050Y-76359134D01*
X227538050Y-76560865D01*
X227569606Y-76760098D01*
X227631939Y-76951942D01*
X227706285Y-77097853D01*
X227723520Y-77131679D01*
X227842088Y-77294874D01*
X227984726Y-77437512D01*
X228005046Y-77452275D01*
X228047710Y-77507604D01*
X228053689Y-77577217D01*
X228021083Y-77639012D01*
X228019840Y-77640273D01*
X227487584Y-78172531D01*
X227426261Y-78206016D01*
X227399903Y-78208850D01*
X121776547Y-78208850D01*
X121709508Y-78189165D01*
X121688866Y-78172531D01*
X113136819Y-69620484D01*
X113103334Y-69559161D01*
X113100500Y-69532803D01*
X113100500Y-55389492D01*
X113120185Y-55322453D01*
X113172989Y-55276698D01*
X113192398Y-55269720D01*
X113244952Y-55255639D01*
X113517507Y-55142743D01*
X113772994Y-54995238D01*
X114007042Y-54815646D01*
X114215646Y-54607042D01*
X114395238Y-54372994D01*
X114542743Y-54117507D01*
X114655639Y-53844952D01*
X114731993Y-53559993D01*
X114770500Y-53267506D01*
X114770500Y-49472494D01*
X114731993Y-49180007D01*
X114655639Y-48895048D01*
X114542743Y-48622493D01*
X114395238Y-48367006D01*
X114238019Y-48162115D01*
X114215647Y-48132959D01*
X114215641Y-48132952D01*
X114007047Y-47924358D01*
X114007040Y-47924352D01*
X113772993Y-47744761D01*
X113517510Y-47597258D01*
X113517500Y-47597254D01*
X113244961Y-47484364D01*
X113244954Y-47484362D01*
X113244952Y-47484361D01*
X112959993Y-47408007D01*
X112911113Y-47401571D01*
X112667513Y-47369500D01*
X112667506Y-47369500D01*
X112372494Y-47369500D01*
X112372486Y-47369500D01*
X112094085Y-47406153D01*
X112080007Y-47408007D01*
X111795048Y-47484361D01*
X111795038Y-47484364D01*
X111522499Y-47597254D01*
X111522489Y-47597258D01*
X111267006Y-47744761D01*
X111032959Y-47924352D01*
X111032952Y-47924358D01*
X110824358Y-48132952D01*
X110824352Y-48132959D01*
X110644761Y-48367006D01*
X110497258Y-48622489D01*
X110497254Y-48622499D01*
X110384364Y-48895038D01*
X110384361Y-48895048D01*
X110325941Y-49113078D01*
X110308008Y-49180004D01*
X110308006Y-49180015D01*
X110269500Y-49472486D01*
X110269500Y-50645500D01*
X110249815Y-50712539D01*
X110197011Y-50758294D01*
X110145500Y-50769500D01*
X104734500Y-50769500D01*
X104667461Y-50749815D01*
X104621706Y-50697011D01*
X104610500Y-50645500D01*
X104610500Y-49472500D01*
X104610499Y-49472486D01*
X104596801Y-49368443D01*
X104571993Y-49180007D01*
X104495639Y-48895048D01*
X104382743Y-48622493D01*
X104235238Y-48367006D01*
X104078019Y-48162115D01*
X104055647Y-48132959D01*
X104055641Y-48132952D01*
X103847047Y-47924358D01*
X103847040Y-47924352D01*
X103612993Y-47744761D01*
X103357510Y-47597258D01*
X103357500Y-47597254D01*
X103084961Y-47484364D01*
X103084954Y-47484362D01*
X103084952Y-47484361D01*
X102799993Y-47408007D01*
X102751113Y-47401571D01*
X102507513Y-47369500D01*
X102507506Y-47369500D01*
X102212494Y-47369500D01*
X102212486Y-47369500D01*
X101934085Y-47406153D01*
X101920007Y-47408007D01*
X101635048Y-47484361D01*
X101635038Y-47484364D01*
X101362499Y-47597254D01*
X101362489Y-47597258D01*
X101107006Y-47744761D01*
X100872959Y-47924352D01*
X100872952Y-47924358D01*
X100664358Y-48132952D01*
X100664352Y-48132959D01*
X100484761Y-48367006D01*
X100337258Y-48622489D01*
X100337254Y-48622499D01*
X100224364Y-48895038D01*
X100224361Y-48895048D01*
X100165941Y-49113078D01*
X100148008Y-49180004D01*
X100148006Y-49180015D01*
X100109500Y-49472486D01*
X100109500Y-53267513D01*
X100127271Y-53402490D01*
X100148007Y-53559993D01*
X100148008Y-53559995D01*
X100224361Y-53844951D01*
X100224364Y-53844961D01*
X100337254Y-54117500D01*
X100337258Y-54117510D01*
X100484761Y-54372993D01*
X100664352Y-54607040D01*
X100664358Y-54607047D01*
X100872952Y-54815641D01*
X100872959Y-54815647D01*
X101107006Y-54995238D01*
X101362489Y-55142741D01*
X101362490Y-55142741D01*
X101362493Y-55142743D01*
X101635048Y-55255639D01*
X101920007Y-55331993D01*
X102212494Y-55370500D01*
X102212501Y-55370500D01*
X102507499Y-55370500D01*
X102507506Y-55370500D01*
X102799993Y-55331993D01*
X103084952Y-55255639D01*
X103235705Y-55193193D01*
X103305174Y-55185725D01*
X103367653Y-55217000D01*
X103370839Y-55220074D01*
X103630445Y-55479680D01*
X103663930Y-55541003D01*
X103660695Y-55605678D01*
X103631523Y-55695462D01*
X103600644Y-55890423D01*
X103599500Y-55897648D01*
X103599500Y-57002352D01*
X103601904Y-57017527D01*
X103631522Y-57204534D01*
X103694781Y-57399223D01*
X103787715Y-57581613D01*
X103908028Y-57747213D01*
X104052786Y-57891971D01*
X104200179Y-57999056D01*
X104218390Y-58012287D01*
X104322585Y-58065377D01*
X104400776Y-58105218D01*
X104400778Y-58105218D01*
X104400781Y-58105220D01*
X104451363Y-58121655D01*
X104595465Y-58168477D01*
X104651512Y-58177354D01*
X104797648Y-58200500D01*
X104797649Y-58200500D01*
X105002351Y-58200500D01*
X105002352Y-58200500D01*
X105204534Y-58168477D01*
X105399219Y-58105220D01*
X105581610Y-58012287D01*
X105674590Y-57944732D01*
X105747213Y-57891971D01*
X105747215Y-57891968D01*
X105747219Y-57891966D01*
X105891966Y-57747219D01*
X105891968Y-57747215D01*
X105891971Y-57747213D01*
X106012284Y-57581614D01*
X106012285Y-57581613D01*
X106012287Y-57581610D01*
X106059516Y-57488917D01*
X106107489Y-57438123D01*
X106175310Y-57421328D01*
X106241445Y-57443865D01*
X106280483Y-57488917D01*
X106308252Y-57543416D01*
X106327715Y-57581614D01*
X106448028Y-57747213D01*
X106592786Y-57891971D01*
X106740179Y-57999056D01*
X106758390Y-58012287D01*
X106862585Y-58065377D01*
X106940776Y-58105218D01*
X106940778Y-58105218D01*
X106940781Y-58105220D01*
X106991363Y-58121655D01*
X107135465Y-58168477D01*
X107191512Y-58177354D01*
X107337648Y-58200500D01*
X107337649Y-58200500D01*
X107542351Y-58200500D01*
X107542352Y-58200500D01*
X107744534Y-58168477D01*
X107939219Y-58105220D01*
X108121610Y-58012287D01*
X108214590Y-57944732D01*
X108287213Y-57891971D01*
X108287215Y-57891968D01*
X108287219Y-57891966D01*
X108431966Y-57747219D01*
X108431968Y-57747215D01*
X108431971Y-57747213D01*
X108504245Y-57647735D01*
X108552287Y-57581610D01*
X108645220Y-57399219D01*
X108708477Y-57204534D01*
X108716306Y-57155102D01*
X108746235Y-57091968D01*
X108805546Y-57055036D01*
X108838779Y-57050500D01*
X110849903Y-57050500D01*
X110916942Y-57070185D01*
X110937584Y-57086819D01*
X111462181Y-57611416D01*
X111495666Y-57672739D01*
X111498500Y-57699097D01*
X111498500Y-69912330D01*
X111498499Y-69912348D01*
X111498499Y-70078054D01*
X111498498Y-70078054D01*
X111498499Y-70078057D01*
X111539423Y-70230785D01*
X111561095Y-70268321D01*
X111599351Y-70334584D01*
X111618479Y-70367715D01*
X111737349Y-70486585D01*
X111737355Y-70486590D01*
X120835139Y-79584374D01*
X120835149Y-79584385D01*
X120839479Y-79588715D01*
X120839480Y-79588716D01*
X120951284Y-79700520D01*
X121038095Y-79750639D01*
X121038097Y-79750641D01*
X121088213Y-79779576D01*
X121088215Y-79779577D01*
X121240942Y-79820500D01*
X121240943Y-79820500D01*
X227611266Y-79820500D01*
X227678305Y-79840185D01*
X227721751Y-79888208D01*
X227723520Y-79891679D01*
X227842088Y-80054874D01*
X227984726Y-80197512D01*
X228147921Y-80316080D01*
X228327655Y-80407659D01*
X228327657Y-80407660D01*
X228519502Y-80469994D01*
X228567062Y-80477527D01*
X228630197Y-80507457D01*
X228667128Y-80566768D01*
X228666130Y-80636631D01*
X228627520Y-80694863D01*
X228567062Y-80722473D01*
X228519502Y-80730005D01*
X228327657Y-80792339D01*
X228147920Y-80883920D01*
X227984723Y-81002490D01*
X227842090Y-81145123D01*
X227723520Y-81308320D01*
X227631939Y-81488057D01*
X227569606Y-81679901D01*
X227538050Y-81879134D01*
X227538050Y-82080865D01*
X227559311Y-82215102D01*
X227550356Y-82284396D01*
X227505360Y-82337848D01*
X227438609Y-82358487D01*
X227436838Y-82358500D01*
X108326197Y-82358500D01*
X108259158Y-82338815D01*
X108238516Y-82322181D01*
X92444819Y-66528484D01*
X92411334Y-66467161D01*
X92408500Y-66440803D01*
X92408500Y-55384133D01*
X92428185Y-55317094D01*
X92480989Y-55271339D01*
X92500394Y-55264362D01*
X92532952Y-55255639D01*
X92805507Y-55142743D01*
X93060994Y-54995238D01*
X93295042Y-54815646D01*
X93503646Y-54607042D01*
X93683238Y-54372994D01*
X93830743Y-54117507D01*
X93943639Y-53844952D01*
X94019993Y-53559993D01*
X94058500Y-53267506D01*
X94058500Y-49472494D01*
X94019993Y-49180007D01*
X93943639Y-48895048D01*
X93830743Y-48622493D01*
X93683238Y-48367006D01*
X93526019Y-48162115D01*
X93503647Y-48132959D01*
X93503641Y-48132952D01*
X93295047Y-47924358D01*
X93295040Y-47924352D01*
X93060993Y-47744761D01*
X92805510Y-47597258D01*
X92805500Y-47597254D01*
X92532961Y-47484364D01*
X92532954Y-47484362D01*
X92532952Y-47484361D01*
X92247993Y-47408007D01*
X92199113Y-47401571D01*
X91955513Y-47369500D01*
X91955506Y-47369500D01*
X91660494Y-47369500D01*
X91660486Y-47369500D01*
X91382085Y-47406153D01*
X91368007Y-47408007D01*
X91083048Y-47484361D01*
X91083038Y-47484364D01*
X90810499Y-47597254D01*
X90810489Y-47597258D01*
X90555006Y-47744761D01*
X90320959Y-47924352D01*
X90320952Y-47924358D01*
X90112358Y-48132952D01*
X90112352Y-48132959D01*
X89932761Y-48367006D01*
X89785258Y-48622489D01*
X89785254Y-48622499D01*
X89672364Y-48895038D01*
X89672361Y-48895048D01*
X89613941Y-49113078D01*
X89596008Y-49180004D01*
X89596006Y-49180015D01*
X89557500Y-49472486D01*
X89557500Y-50645500D01*
X89537815Y-50712539D01*
X89485011Y-50758294D01*
X89433500Y-50769500D01*
X84022500Y-50769500D01*
X83955461Y-50749815D01*
X83909706Y-50697011D01*
X83898500Y-50645500D01*
X83898500Y-49472500D01*
X83898499Y-49472486D01*
X83884801Y-49368443D01*
X83859993Y-49180007D01*
X83783639Y-48895048D01*
X83670743Y-48622493D01*
X83523238Y-48367006D01*
X83366019Y-48162115D01*
X83343647Y-48132959D01*
X83343641Y-48132952D01*
X83135047Y-47924358D01*
X83135040Y-47924352D01*
X82900993Y-47744761D01*
X82645510Y-47597258D01*
X82645500Y-47597254D01*
X82372961Y-47484364D01*
X82372954Y-47484362D01*
X82372952Y-47484361D01*
X82087993Y-47408007D01*
X82039113Y-47401571D01*
X81795513Y-47369500D01*
X81795506Y-47369500D01*
X81500494Y-47369500D01*
X81500486Y-47369500D01*
X81222085Y-47406153D01*
X81208007Y-47408007D01*
X80923048Y-47484361D01*
X80923038Y-47484364D01*
X80650499Y-47597254D01*
X80650489Y-47597258D01*
X80395006Y-47744761D01*
X80160959Y-47924352D01*
X80160952Y-47924358D01*
X79952358Y-48132952D01*
X79952352Y-48132959D01*
X79772761Y-48367006D01*
X79625258Y-48622489D01*
X79625254Y-48622499D01*
X79512364Y-48895038D01*
X79512361Y-48895048D01*
X79453941Y-49113078D01*
X79436008Y-49180004D01*
X79436006Y-49180015D01*
X79397500Y-49472486D01*
X79397500Y-53267513D01*
X79415271Y-53402490D01*
X79436007Y-53559993D01*
X79436008Y-53559995D01*
X79512361Y-53844951D01*
X79512364Y-53844961D01*
X79625254Y-54117500D01*
X79625258Y-54117510D01*
X79772761Y-54372993D01*
X79952352Y-54607040D01*
X79952358Y-54607047D01*
X80160952Y-54815641D01*
X80160959Y-54815647D01*
X80395006Y-54995238D01*
X80650489Y-55142741D01*
X80650490Y-55142741D01*
X80650493Y-55142743D01*
X80923048Y-55255639D01*
X81208007Y-55331993D01*
X81500494Y-55370500D01*
X81500501Y-55370500D01*
X81795499Y-55370500D01*
X81795506Y-55370500D01*
X82087993Y-55331993D01*
X82123551Y-55322465D01*
X82193399Y-55324128D01*
X82243324Y-55354559D01*
X82851181Y-55962416D01*
X82884666Y-56023739D01*
X82887500Y-56050097D01*
X82887500Y-57002352D01*
X82889904Y-57017527D01*
X82919522Y-57204534D01*
X82982781Y-57399223D01*
X83075715Y-57581613D01*
X83196028Y-57747213D01*
X83340786Y-57891971D01*
X83488179Y-57999056D01*
X83506390Y-58012287D01*
X83610585Y-58065377D01*
X83688776Y-58105218D01*
X83688778Y-58105218D01*
X83688781Y-58105220D01*
X83739363Y-58121655D01*
X83883465Y-58168477D01*
X83939512Y-58177354D01*
X84085648Y-58200500D01*
X84085649Y-58200500D01*
X84290351Y-58200500D01*
X84290352Y-58200500D01*
X84492534Y-58168477D01*
X84687219Y-58105220D01*
X84869610Y-58012287D01*
X84962590Y-57944732D01*
X85035213Y-57891971D01*
X85035215Y-57891968D01*
X85035219Y-57891966D01*
X85179966Y-57747219D01*
X85179968Y-57747215D01*
X85179971Y-57747213D01*
X85300284Y-57581614D01*
X85300285Y-57581613D01*
X85300287Y-57581610D01*
X85347516Y-57488917D01*
X85395489Y-57438123D01*
X85463310Y-57421328D01*
X85529445Y-57443865D01*
X85568483Y-57488917D01*
X85596252Y-57543416D01*
X85615715Y-57581614D01*
X85736028Y-57747213D01*
X85880786Y-57891971D01*
X86028179Y-57999056D01*
X86046390Y-58012287D01*
X86150585Y-58065377D01*
X86228776Y-58105218D01*
X86228778Y-58105218D01*
X86228781Y-58105220D01*
X86279363Y-58121655D01*
X86423465Y-58168477D01*
X86479512Y-58177354D01*
X86625648Y-58200500D01*
X86625649Y-58200500D01*
X86830351Y-58200500D01*
X86830352Y-58200500D01*
X87032534Y-58168477D01*
X87227219Y-58105220D01*
X87409610Y-58012287D01*
X87502590Y-57944732D01*
X87575213Y-57891971D01*
X87575215Y-57891968D01*
X87575219Y-57891966D01*
X87719966Y-57747219D01*
X87719968Y-57747215D01*
X87719971Y-57747213D01*
X87792245Y-57647735D01*
X87840287Y-57581610D01*
X87933220Y-57399219D01*
X87996477Y-57204534D01*
X88004306Y-57155102D01*
X88034235Y-57091968D01*
X88093546Y-57055036D01*
X88126779Y-57050500D01*
X89749903Y-57050500D01*
X89816942Y-57070185D01*
X89837584Y-57086819D01*
X90770181Y-58019416D01*
X90803666Y-58080739D01*
X90806500Y-58107097D01*
X90806500Y-66820330D01*
X90806499Y-66820348D01*
X90806499Y-66986054D01*
X90806498Y-66986054D01*
X90847423Y-67138786D01*
X90858977Y-67158796D01*
X90858978Y-67158801D01*
X90858979Y-67158801D01*
X90926475Y-67275709D01*
X90926481Y-67275717D01*
X91055720Y-67404956D01*
X91055725Y-67404960D01*
X91231559Y-67580795D01*
X91280249Y-67629485D01*
X91280255Y-67629490D01*
X107144581Y-83493816D01*
X107491284Y-83840520D01*
X107491286Y-83840521D01*
X107491290Y-83840524D01*
X107628209Y-83919573D01*
X107628216Y-83919577D01*
X107780943Y-83960501D01*
X107780945Y-83960501D01*
X107946654Y-83960501D01*
X107946670Y-83960500D01*
X108113143Y-83960500D01*
X116880943Y-83960500D01*
X227576108Y-83960500D01*
X227643147Y-83980185D01*
X227688902Y-84032989D01*
X227698846Y-84102147D01*
X227686593Y-84140795D01*
X227631939Y-84248057D01*
X227569606Y-84439901D01*
X227538050Y-84639134D01*
X227538050Y-84840865D01*
X227569606Y-85040098D01*
X227631939Y-85231942D01*
X227659038Y-85285126D01*
X227723520Y-85411679D01*
X227842088Y-85574874D01*
X227984726Y-85717512D01*
X228147921Y-85836080D01*
X228327655Y-85927659D01*
X228327657Y-85927659D01*
X228327660Y-85927661D01*
X228327658Y-85927661D01*
X228478031Y-85976519D01*
X228535707Y-86015956D01*
X228562906Y-86080314D01*
X228550992Y-86149161D01*
X228503748Y-86200637D01*
X228439714Y-86218450D01*
X227990679Y-86218450D01*
X227990673Y-86218451D01*
X227931066Y-86224858D01*
X227796221Y-86275152D01*
X227796214Y-86275156D01*
X227681005Y-86361402D01*
X227681002Y-86361405D01*
X227594756Y-86476614D01*
X227594752Y-86476621D01*
X227544458Y-86611467D01*
X227538051Y-86671066D01*
X227538051Y-86671073D01*
X227538050Y-86671085D01*
X227538050Y-87874500D01*
X227518365Y-87941539D01*
X227465561Y-87987294D01*
X227414050Y-87998500D01*
X87499098Y-87998500D01*
X87432059Y-87978815D01*
X87411417Y-87962181D01*
X64513819Y-65064583D01*
X64480334Y-65003260D01*
X64477500Y-64976902D01*
X64477500Y-58889096D01*
X64497185Y-58822057D01*
X64513815Y-58801419D01*
X65249858Y-58065375D01*
X65311179Y-58031892D01*
X65380870Y-58036876D01*
X65393822Y-58042569D01*
X65438585Y-58065377D01*
X65516774Y-58105217D01*
X65516777Y-58105217D01*
X65516781Y-58105220D01*
X65645607Y-58147078D01*
X65711465Y-58168477D01*
X65767512Y-58177354D01*
X65913648Y-58200500D01*
X65913649Y-58200500D01*
X66118351Y-58200500D01*
X66118352Y-58200500D01*
X66320534Y-58168477D01*
X66515219Y-58105220D01*
X66697610Y-58012287D01*
X66790590Y-57944732D01*
X66863213Y-57891971D01*
X66863215Y-57891968D01*
X66863219Y-57891966D01*
X67007966Y-57747219D01*
X67007968Y-57747215D01*
X67007971Y-57747213D01*
X67080245Y-57647735D01*
X67128287Y-57581610D01*
X67221220Y-57399219D01*
X67284477Y-57204534D01*
X67316500Y-57002352D01*
X67316500Y-55897648D01*
X67308824Y-55849184D01*
X67284477Y-55695465D01*
X67246537Y-55578698D01*
X67221220Y-55500781D01*
X67221218Y-55500778D01*
X67221218Y-55500776D01*
X67175515Y-55411080D01*
X67128287Y-55318390D01*
X67103030Y-55283626D01*
X67007971Y-55152786D01*
X66863213Y-55008028D01*
X66697613Y-54887715D01*
X66697612Y-54887714D01*
X66697610Y-54887713D01*
X66611905Y-54844044D01*
X66515223Y-54794781D01*
X66320534Y-54731522D01*
X66145995Y-54703878D01*
X66118352Y-54699500D01*
X65913648Y-54699500D01*
X65893684Y-54702662D01*
X65711465Y-54731522D01*
X65516776Y-54794781D01*
X65334386Y-54887715D01*
X65168786Y-55008028D01*
X65024028Y-55152786D01*
X64903715Y-55318386D01*
X64856485Y-55411080D01*
X64808510Y-55461876D01*
X64740689Y-55478671D01*
X64674554Y-55456134D01*
X64635515Y-55411080D01*
X64621785Y-55384133D01*
X64588287Y-55318390D01*
X64563030Y-55283626D01*
X64467971Y-55152786D01*
X64323213Y-55008028D01*
X64157613Y-54887715D01*
X64157612Y-54887714D01*
X64157610Y-54887713D01*
X64071905Y-54844044D01*
X63975223Y-54794781D01*
X63780534Y-54731522D01*
X63605995Y-54703878D01*
X63578352Y-54699500D01*
X63373648Y-54699500D01*
X63169374Y-54731853D01*
X63100081Y-54722898D01*
X63062296Y-54697061D01*
X62851794Y-54486559D01*
X62818309Y-54425236D01*
X62823293Y-54355544D01*
X62832081Y-54336892D01*
X62958743Y-54117507D01*
X63071639Y-53844952D01*
X63147993Y-53559993D01*
X63186500Y-53267506D01*
X63186500Y-52094500D01*
X63206185Y-52027461D01*
X63258989Y-51981706D01*
X63310500Y-51970500D01*
X68721500Y-51970500D01*
X68788539Y-51990185D01*
X68834294Y-52042989D01*
X68845500Y-52094500D01*
X68845500Y-53267513D01*
X68863271Y-53402490D01*
X68884007Y-53559993D01*
X68884008Y-53559995D01*
X68960361Y-53844951D01*
X68960364Y-53844961D01*
X69073254Y-54117500D01*
X69073258Y-54117510D01*
X69220761Y-54372993D01*
X69400352Y-54607040D01*
X69400358Y-54607047D01*
X69608952Y-54815641D01*
X69608959Y-54815647D01*
X69843006Y-54995238D01*
X70098489Y-55142741D01*
X70098490Y-55142741D01*
X70098493Y-55142743D01*
X70371048Y-55255639D01*
X70656007Y-55331993D01*
X70948494Y-55370500D01*
X70948501Y-55370500D01*
X71243499Y-55370500D01*
X71243506Y-55370500D01*
X71535993Y-55331993D01*
X71820952Y-55255639D01*
X72093507Y-55142743D01*
X72348994Y-54995238D01*
X72583042Y-54815646D01*
X72791646Y-54607042D01*
X72971238Y-54372994D01*
X73118743Y-54117507D01*
X73231639Y-53844952D01*
X73307993Y-53559993D01*
X73346500Y-53267506D01*
X73346500Y-49472494D01*
X73307993Y-49180007D01*
X73231639Y-48895048D01*
X73118743Y-48622493D01*
X72971238Y-48367006D01*
X72814019Y-48162115D01*
X72791647Y-48132959D01*
X72791641Y-48132952D01*
X72583047Y-47924358D01*
X72583040Y-47924352D01*
X72348993Y-47744761D01*
X72093510Y-47597258D01*
X72093500Y-47597254D01*
X71820961Y-47484364D01*
X71820954Y-47484362D01*
X71820952Y-47484361D01*
X71535993Y-47408007D01*
X71487113Y-47401571D01*
X71243513Y-47369500D01*
X71243506Y-47369500D01*
X70948494Y-47369500D01*
X70948486Y-47369500D01*
X70670085Y-47406153D01*
X70656007Y-47408007D01*
X70371048Y-47484361D01*
X70371038Y-47484364D01*
X70098499Y-47597254D01*
X70098489Y-47597258D01*
X69843006Y-47744761D01*
X69608959Y-47924352D01*
X69608952Y-47924358D01*
X69400358Y-48132952D01*
X69400352Y-48132959D01*
X69220761Y-48367006D01*
X69073258Y-48622489D01*
X69073254Y-48622499D01*
X68960364Y-48895038D01*
X68960361Y-48895048D01*
X68901941Y-49113078D01*
X68884008Y-49180004D01*
X68884006Y-49180015D01*
X68845500Y-49472486D01*
X68845500Y-50645500D01*
X68825815Y-50712539D01*
X68773011Y-50758294D01*
X68721500Y-50769500D01*
X63310500Y-50769500D01*
X63243461Y-50749815D01*
X63197706Y-50697011D01*
X63186500Y-50645500D01*
X63186500Y-49472500D01*
X63186499Y-49472486D01*
X63172801Y-49368443D01*
X63147993Y-49180007D01*
X63071639Y-48895048D01*
X62958743Y-48622493D01*
X62811238Y-48367006D01*
X62654019Y-48162115D01*
X62631647Y-48132959D01*
X62631641Y-48132952D01*
X62423047Y-47924358D01*
X62423040Y-47924352D01*
X62188993Y-47744761D01*
X61933510Y-47597258D01*
X61933500Y-47597254D01*
X61660961Y-47484364D01*
X61660954Y-47484362D01*
X61660952Y-47484361D01*
X61375993Y-47408007D01*
X61327113Y-47401571D01*
X61083513Y-47369500D01*
X61083506Y-47369500D01*
X60788494Y-47369500D01*
X60788486Y-47369500D01*
X60510085Y-47406153D01*
X60496007Y-47408007D01*
X60211048Y-47484361D01*
X60211038Y-47484364D01*
X59938499Y-47597254D01*
X59938489Y-47597258D01*
X59683006Y-47744761D01*
X59448959Y-47924352D01*
X59448952Y-47924358D01*
X59240358Y-48132952D01*
X59240352Y-48132959D01*
X59060761Y-48367006D01*
X58913258Y-48622489D01*
X58913254Y-48622499D01*
X58800364Y-48895038D01*
X58800361Y-48895048D01*
X58741941Y-49113078D01*
X58724008Y-49180004D01*
X58724006Y-49180015D01*
X58685500Y-49472486D01*
X55954770Y-49472486D01*
X55986761Y-49412634D01*
X56110842Y-49113078D01*
X56204966Y-48802792D01*
X56204969Y-48802781D01*
X56268217Y-48484801D01*
X56268220Y-48484784D01*
X56300000Y-48162115D01*
X56300000Y-47837884D01*
X56268220Y-47515215D01*
X56268217Y-47515198D01*
X56204969Y-47197218D01*
X56204966Y-47197207D01*
X56110842Y-46886921D01*
X55986761Y-46587364D01*
X55986759Y-46587359D01*
X55833920Y-46301419D01*
X55833909Y-46301401D01*
X55653787Y-46031829D01*
X55653777Y-46031815D01*
X55504108Y-45849444D01*
X55504107Y-45849443D01*
X54294250Y-47059300D01*
X54220412Y-46957670D01*
X54042330Y-46779588D01*
X53940697Y-46705747D01*
X55150555Y-45495891D01*
X55150554Y-45495890D01*
X54968184Y-45346222D01*
X54968170Y-45346212D01*
X54698598Y-45166090D01*
X54698580Y-45166079D01*
X54412640Y-45013240D01*
X54412635Y-45013238D01*
X54113078Y-44889157D01*
X53802792Y-44795033D01*
X53802781Y-44795030D01*
X53484801Y-44731782D01*
X53484784Y-44731779D01*
X53162116Y-44700000D01*
X52837884Y-44700000D01*
X52515215Y-44731779D01*
X52515198Y-44731782D01*
X52197218Y-44795030D01*
X52197207Y-44795033D01*
X51886921Y-44889157D01*
X51587364Y-45013238D01*
X51587359Y-45013240D01*
X51301419Y-45166079D01*
X51301401Y-45166090D01*
X51031829Y-45346212D01*
X51031815Y-45346222D01*
X50849444Y-45495890D01*
X50849443Y-45495891D01*
X52059301Y-46705748D01*
X51957670Y-46779588D01*
X51779588Y-46957670D01*
X51705748Y-47059301D01*
X50495891Y-45849443D01*
X50495890Y-45849444D01*
X50346222Y-46031815D01*
X50346212Y-46031829D01*
X50166090Y-46301401D01*
X50166079Y-46301419D01*
X50013240Y-46587359D01*
X50013238Y-46587364D01*
X49889157Y-46886921D01*
X49795033Y-47197207D01*
X49795030Y-47197218D01*
X49731782Y-47515198D01*
X49731779Y-47515215D01*
X49700000Y-47837884D01*
X48500500Y-47837884D01*
X48500500Y-46003750D01*
X48500726Y-45996263D01*
X48505624Y-45915285D01*
X48518271Y-45706201D01*
X48520076Y-45691340D01*
X48551044Y-45522354D01*
X48571780Y-45409201D01*
X48575364Y-45394663D01*
X48590462Y-45346212D01*
X48660696Y-45120822D01*
X48665998Y-45106841D01*
X48783731Y-44845249D01*
X48790676Y-44832016D01*
X48939080Y-44586526D01*
X48947567Y-44574230D01*
X49124480Y-44348417D01*
X49134395Y-44337226D01*
X49337226Y-44134395D01*
X49348417Y-44124480D01*
X49574230Y-43947567D01*
X49586526Y-43939080D01*
X49832016Y-43790676D01*
X49845249Y-43783731D01*
X50106841Y-43665998D01*
X50120822Y-43660696D01*
X50394668Y-43575362D01*
X50409197Y-43571780D01*
X50691344Y-43520075D01*
X50706201Y-43518271D01*
X50996264Y-43500726D01*
X51003751Y-43500500D01*
X51065892Y-43500500D01*
X236934108Y-43500500D01*
X236996249Y-43500500D01*
X237003736Y-43500726D01*
G37*
%TD.AperFunction*%
%TD*%
M02*
