%TF.GenerationSoftware,KiCad,Pcbnew,9.0.0*%
%TF.CreationDate,2025-06-08T16:05:14+02:00*%
%TF.ProjectId,LDC_BNC_interface,4c44435f-424e-4435-9f69-6e7465726661,rev?*%
%TF.SameCoordinates,Original*%
%TF.FileFunction,Copper,L1,Top*%
%TF.FilePolarity,Positive*%
%FSLAX46Y46*%
G04 Gerber Fmt 4.6, Leading zero omitted, Abs format (unit mm)*
G04 Created by KiCad (PCBNEW 9.0.0) date 2025-06-08 16:05:14*
%MOMM*%
%LPD*%
G01*
G04 APERTURE LIST*
%TA.AperFunction,ComponentPad*%
%ADD10C,5.600000*%
%TD*%
%TA.AperFunction,ComponentPad*%
%ADD11O,1.600000X2.500000*%
%TD*%
%TA.AperFunction,ComponentPad*%
%ADD12O,3.500000X7.000000*%
%TD*%
%TA.AperFunction,ComponentPad*%
%ADD13C,4.191000*%
%TD*%
%TA.AperFunction,ComponentPad*%
%ADD14R,1.562100X1.562100*%
%TD*%
%TA.AperFunction,ComponentPad*%
%ADD15C,1.562100*%
%TD*%
%TA.AperFunction,ViaPad*%
%ADD16C,0.600000*%
%TD*%
%TA.AperFunction,Conductor*%
%ADD17C,0.200000*%
%TD*%
G04 APERTURE END LIST*
D10*
%TO.P,H4,1,1*%
%TO.N,GND*%
X65300000Y-48000000D03*
%TD*%
%TO.P,H3,1,1*%
%TO.N,GND*%
X65300000Y-94000000D03*
%TD*%
%TO.P,H2,1,1*%
%TO.N,GND*%
X222700000Y-94000000D03*
%TD*%
%TO.P,H1,1,1*%
%TO.N,GND*%
X222700000Y-48000000D03*
%TD*%
D11*
%TO.P,J5,1,In*%
%TO.N,/IN1A*%
X116071429Y-56450000D03*
D12*
%TO.P,J5,2,Ext*%
%TO.N,/IN1B*%
X110991429Y-51370000D03*
D11*
X113531429Y-56450000D03*
D12*
X121151429Y-51370000D03*
%TD*%
%TO.P,J1,2,Ext*%
%TO.N,/IN3B*%
X83180000Y-51370000D03*
D11*
X75560000Y-56450000D03*
D12*
X73020000Y-51370000D03*
D11*
%TO.P,J1,1,In*%
%TO.N,/IN3A*%
X78100000Y-56450000D03*
%TD*%
D12*
%TO.P,J9,2,Ext*%
%TO.N,/IN6B*%
X197094286Y-51370000D03*
D11*
X189474286Y-56450000D03*
D12*
X186934286Y-51370000D03*
D11*
%TO.P,J9,1,In*%
%TO.N,/IN6A*%
X192014286Y-56450000D03*
%TD*%
D12*
%TO.P,J2,2,Ext*%
%TO.N,/IN2B*%
X102165714Y-51370000D03*
D11*
X94545714Y-56450000D03*
D12*
X92005714Y-51370000D03*
D11*
%TO.P,J2,1,In*%
%TO.N,/IN2A*%
X97085714Y-56450000D03*
%TD*%
D12*
%TO.P,J7,2,Ext*%
%TO.N,/IN4B*%
X159122857Y-51370000D03*
D11*
X151502857Y-56450000D03*
D12*
X148962857Y-51370000D03*
D11*
%TO.P,J7,1,In*%
%TO.N,/IN4A*%
X154042857Y-56450000D03*
%TD*%
D12*
%TO.P,J8,2,Ext*%
%TO.N,/IN7B*%
X216080000Y-51370000D03*
D11*
X208460000Y-56450000D03*
D12*
X205920000Y-51370000D03*
D11*
%TO.P,J8,1,In*%
%TO.N,/IN7A*%
X211000000Y-56450000D03*
%TD*%
D12*
%TO.P,J6,2,Ext*%
%TO.N,/IN5B*%
X178108571Y-51370000D03*
D11*
X170488571Y-56450000D03*
D12*
X167948571Y-51370000D03*
D11*
%TO.P,J6,1,In*%
%TO.N,/IN5A*%
X173028571Y-56450000D03*
%TD*%
%TO.P,J3,1,In*%
%TO.N,/IN0A*%
X135057143Y-56450000D03*
D12*
%TO.P,J3,2,Ext*%
%TO.N,/IN0B*%
X129977143Y-51370000D03*
D11*
X132517143Y-56450000D03*
D12*
X140137143Y-51370000D03*
%TD*%
D13*
%TO.P,J4,0,PAD*%
%TO.N,GND*%
X230242000Y-94460400D03*
X230242000Y-47419600D03*
D14*
%TO.P,J4,1,1*%
%TO.N,/IN3A*%
X228819600Y-87500000D03*
D15*
%TO.P,J4,2,2*%
%TO.N,unconnected-(J4-Pad2)*%
X228819600Y-84740000D03*
%TO.P,J4,3,3*%
%TO.N,/IN2B*%
X228819600Y-81980000D03*
%TO.P,J4,4,4*%
%TO.N,/IN1A*%
X228819600Y-79220000D03*
%TO.P,J4,5,5*%
%TO.N,unconnected-(J4-Pad5)*%
X228819600Y-76460000D03*
%TO.P,J4,6,6*%
%TO.N,/IN0A*%
X228819600Y-73700000D03*
%TO.P,J4,7,7*%
%TO.N,unconnected-(J4-Pad7)*%
X228819600Y-70940000D03*
%TO.P,J4,8,8*%
%TO.N,/IN4A*%
X228819600Y-68180000D03*
%TO.P,J4,9,9*%
%TO.N,unconnected-(J4-Pad9)*%
X228819600Y-65420000D03*
%TO.P,J4,10,10*%
%TO.N,/IN5B*%
X228819600Y-62660000D03*
%TO.P,J4,11,11*%
%TO.N,/IN6A*%
X228819600Y-59900000D03*
%TO.P,J4,12,12*%
%TO.N,unconnected-(J4-Pad12)*%
X228819600Y-57140000D03*
%TO.P,J4,13,13*%
%TO.N,/IN7B*%
X228819600Y-54380000D03*
%TO.P,J4,14,P14*%
%TO.N,/IN3B*%
X231664400Y-86120000D03*
%TO.P,J4,15,P15*%
%TO.N,/IN2A*%
X231664400Y-83360000D03*
%TO.P,J4,16,P16*%
%TO.N,unconnected-(J4-P16-Pad16)*%
X231664400Y-80600000D03*
%TO.P,J4,17,P17*%
%TO.N,/IN1B*%
X231664400Y-77840000D03*
%TO.P,J4,18,P18*%
%TO.N,unconnected-(J4-P18-Pad18)*%
X231664400Y-75080000D03*
%TO.P,J4,19,P19*%
%TO.N,/IN0B*%
X231664400Y-72320000D03*
%TO.P,J4,20,P20*%
%TO.N,unconnected-(J4-P20-Pad20)*%
X231664400Y-69560000D03*
%TO.P,J4,21,P21*%
%TO.N,/IN4B*%
X231664400Y-66800000D03*
%TO.P,J4,22,P22*%
%TO.N,/IN5A*%
X231664400Y-64040000D03*
%TO.P,J4,23,P23*%
%TO.N,unconnected-(J4-P23-Pad23)*%
X231664400Y-61280000D03*
%TO.P,J4,24,P24*%
%TO.N,/IN6B*%
X231664400Y-58520000D03*
%TO.P,J4,25,P25*%
%TO.N,/IN7A*%
X231664400Y-55760000D03*
%TD*%
D16*
%TO.N,GND*%
X109000000Y-91000000D03*
X221000000Y-58000000D03*
X153777778Y-71000000D03*
X181000000Y-71000000D03*
X181000000Y-61000000D03*
X181000000Y-66000000D03*
X211000000Y-49000000D03*
X192000000Y-49000000D03*
X173000000Y-49000000D03*
X154000000Y-49000000D03*
X135000000Y-49000000D03*
X116000000Y-49000000D03*
X97000000Y-49000000D03*
X88000000Y-91000000D03*
X88000000Y-86000000D03*
X109000000Y-86000000D03*
X109000000Y-76000000D03*
X208000000Y-62000000D03*
X208000000Y-71000000D03*
X208000000Y-66000000D03*
X208000000Y-76000000D03*
X153777778Y-76000000D03*
X180888889Y-76000000D03*
X126666667Y-76000000D03*
X208000000Y-81000000D03*
X153777778Y-81000000D03*
X180888889Y-81000000D03*
X126666667Y-81000000D03*
X208000000Y-86000000D03*
X153777778Y-86000000D03*
X180888889Y-86000000D03*
X126666667Y-86000000D03*
X78000000Y-49000000D03*
X208000000Y-91000000D03*
X180888889Y-91000000D03*
X153777778Y-91000000D03*
X126666667Y-91000000D03*
%TD*%
D17*
%TO.N,/IN4B*%
X159122857Y-53727143D02*
X159122857Y-51370000D01*
X154443857Y-58406143D02*
X159122857Y-53727143D01*
X158696100Y-67779000D02*
X154443857Y-63526757D01*
X227690350Y-67779000D02*
X158696100Y-67779000D01*
X154443857Y-63526757D02*
X154443857Y-58406143D01*
X228669350Y-66800000D02*
X227690350Y-67779000D01*
X231664400Y-66800000D02*
X228669350Y-66800000D01*
%TO.N,/IN0B*%
X228669350Y-72320000D02*
X231664400Y-72320000D01*
X227690350Y-73299000D02*
X228669350Y-72320000D01*
X142866100Y-73299000D02*
X227690350Y-73299000D01*
X135500000Y-58800000D02*
X135500000Y-65932900D01*
X136600000Y-56400000D02*
X136600000Y-57700000D01*
X135500000Y-65932900D02*
X142866100Y-73299000D01*
X138880000Y-54120000D02*
X136600000Y-56400000D01*
X136600000Y-57700000D02*
X135500000Y-58800000D01*
X138880000Y-51370000D02*
X138880000Y-54120000D01*
X129977143Y-53627143D02*
X129977143Y-51370000D01*
X132517143Y-56167143D02*
X129977143Y-53627143D01*
X132517143Y-56450000D02*
X132517143Y-56167143D01*
X129977143Y-51370000D02*
X140137143Y-51370000D01*
%TO.N,/IN7B*%
X216080000Y-53680000D02*
X216080000Y-51370000D01*
X227840600Y-55359000D02*
X217759000Y-55359000D01*
X228819600Y-54380000D02*
X227840600Y-55359000D01*
X217759000Y-55359000D02*
X216080000Y-53680000D01*
X205920000Y-53420000D02*
X205920000Y-51370000D01*
X208460000Y-55960000D02*
X205920000Y-53420000D01*
X208460000Y-56450000D02*
X208460000Y-55960000D01*
X205920000Y-51370000D02*
X216080000Y-51370000D01*
%TO.N,/IN7A*%
X211690000Y-55760000D02*
X211000000Y-56450000D01*
X231664400Y-55760000D02*
X211690000Y-55760000D01*
%TO.N,/IN6B*%
X228669350Y-58520000D02*
X231664400Y-58520000D01*
X227690350Y-59499000D02*
X228669350Y-58520000D01*
X200849000Y-59499000D02*
X227690350Y-59499000D01*
X197094286Y-55744286D02*
X200849000Y-59499000D01*
X197094286Y-51370000D02*
X197094286Y-55744286D01*
X189474286Y-56024286D02*
X189474286Y-56450000D01*
X186934286Y-53484286D02*
X189474286Y-56024286D01*
X186934286Y-51370000D02*
X186934286Y-53484286D01*
X186934286Y-51370000D02*
X197094286Y-51370000D01*
%TO.N,/IN6A*%
X192014286Y-56450000D02*
X195464286Y-59900000D01*
X195464286Y-59900000D02*
X228819600Y-59900000D01*
%TO.N,/IN5B*%
X174100000Y-55378571D02*
X178108571Y-51370000D01*
X174100000Y-55514380D02*
X174100000Y-55378571D01*
X173484620Y-58001000D02*
X174129571Y-57356049D01*
X173429571Y-58056049D02*
X173484620Y-58001000D01*
X173429571Y-60312471D02*
X173429571Y-58056049D01*
X174129571Y-55543951D02*
X174100000Y-55514380D01*
X176756100Y-63639000D02*
X173429571Y-60312471D01*
X174129571Y-57356049D02*
X174129571Y-55543951D01*
X227840600Y-63639000D02*
X176756100Y-63639000D01*
X228819600Y-62660000D02*
X227840600Y-63639000D01*
X167948571Y-51370000D02*
X178108571Y-51370000D01*
X167948571Y-53398571D02*
X167948571Y-51370000D01*
X170488571Y-55938571D02*
X167948571Y-53398571D01*
X170488571Y-56450000D02*
X170488571Y-55938571D01*
%TO.N,/IN5A*%
X173028571Y-60478571D02*
X173028571Y-56450000D01*
X176590000Y-64040000D02*
X173028571Y-60478571D01*
X231664400Y-64040000D02*
X176590000Y-64040000D01*
%TO.N,/IN4B*%
X148962857Y-51370000D02*
X159122857Y-51370000D01*
X148962857Y-53362857D02*
X148962857Y-51370000D01*
X151502857Y-55902857D02*
X148962857Y-53362857D01*
X151502857Y-56450000D02*
X151502857Y-55902857D01*
%TO.N,/IN4A*%
X154042857Y-63692857D02*
X154042857Y-56450000D01*
X158530000Y-68180000D02*
X154042857Y-63692857D01*
X228819600Y-68180000D02*
X158530000Y-68180000D01*
%TO.N,/IN0A*%
X135100000Y-66100000D02*
X135100000Y-56492857D01*
X142700000Y-73700000D02*
X135100000Y-66100000D01*
X228819600Y-73700000D02*
X142700000Y-73700000D01*
X135100000Y-56492857D02*
X135057143Y-56450000D01*
%TO.N,/IN1B*%
X113260000Y-55947143D02*
X113260000Y-56080000D01*
X110720000Y-51000000D02*
X110720000Y-53407143D01*
X116200000Y-58800000D02*
X120880000Y-54120000D01*
X120880000Y-51000000D02*
X110720000Y-51000000D01*
X110720000Y-53407143D02*
X113260000Y-55947143D01*
X116200000Y-59000000D02*
X116200000Y-58800000D01*
X120880000Y-54120000D02*
X120880000Y-51000000D01*
X116200000Y-73532900D02*
X116200000Y-59000000D01*
X121476450Y-78809350D02*
X116200000Y-73532900D01*
X227700000Y-78809350D02*
X121476450Y-78809350D01*
X231664400Y-77840000D02*
X228669350Y-77840000D01*
X228669350Y-77840000D02*
X227700000Y-78809350D01*
%TO.N,/IN1A*%
X115800000Y-73700000D02*
X115800000Y-56450000D01*
X121320000Y-79220000D02*
X115800000Y-73700000D01*
X228819600Y-79220000D02*
X121320000Y-79220000D01*
%TO.N,/IN2B*%
X97486714Y-72419614D02*
X108026100Y-82959000D01*
X98600000Y-57200000D02*
X97486714Y-58313286D01*
X97486714Y-58313286D02*
X97486714Y-72419614D01*
X98600000Y-56900000D02*
X98600000Y-57200000D01*
X227840600Y-82959000D02*
X228819600Y-81980000D01*
X102165714Y-51470000D02*
X102165714Y-53334286D01*
X102165714Y-53334286D02*
X98600000Y-56900000D01*
X108026100Y-82959000D02*
X227840600Y-82959000D01*
X92005714Y-51370000D02*
X102165714Y-51370000D01*
X94545714Y-56045714D02*
X94545714Y-56450000D01*
X92005714Y-53505714D02*
X94545714Y-56045714D01*
X92005714Y-51370000D02*
X92005714Y-53505714D01*
%TO.N,/IN3B*%
X75560000Y-55960000D02*
X75560000Y-56450000D01*
X73020000Y-53420000D02*
X75560000Y-55960000D01*
X73020000Y-51370000D02*
X73020000Y-53420000D01*
%TO.N,/IN2A*%
X97085714Y-72585714D02*
X97085714Y-56550000D01*
X107860000Y-83360000D02*
X97085714Y-72585714D01*
X231664400Y-83360000D02*
X107860000Y-83360000D01*
%TO.N,/IN3A*%
X78100000Y-58422900D02*
X78100000Y-56450000D01*
X78100000Y-58755100D02*
X78100000Y-58422900D01*
X78100000Y-79500000D02*
X78100000Y-79167800D01*
X78100000Y-79167800D02*
X78100000Y-58755100D01*
X78334900Y-79734900D02*
X78100000Y-79500000D01*
X78366100Y-79766100D02*
X78334900Y-79734900D01*
X78601000Y-80001000D02*
X78366100Y-79766100D01*
X85865100Y-87265100D02*
X78601000Y-80001000D01*
X86100000Y-87500000D02*
X85865100Y-87265100D01*
X86334900Y-87734900D02*
X86100000Y-87500000D01*
X87199000Y-88599000D02*
X86334900Y-87734900D01*
X227720600Y-88599000D02*
X87199000Y-88599000D01*
X228819600Y-87500000D02*
X227720600Y-88599000D01*
%TO.N,/IN3B*%
X77699000Y-58589000D02*
X75560000Y-56450000D01*
X77699000Y-79333900D02*
X77699000Y-58589000D01*
X77699000Y-79666100D02*
X77699000Y-79333900D01*
X77933900Y-79901000D02*
X77699000Y-79666100D01*
X78200000Y-80167100D02*
X77933900Y-79901000D01*
X85699000Y-87666100D02*
X78200000Y-80167100D01*
X87032900Y-89000000D02*
X85933900Y-87901000D01*
X229888971Y-89000000D02*
X87032900Y-89000000D01*
X231664400Y-87224571D02*
X229888971Y-89000000D01*
X231664400Y-86120000D02*
X231664400Y-87224571D01*
X85933900Y-87901000D02*
X85699000Y-87666100D01*
X83180000Y-51370000D02*
X73020000Y-51370000D01*
%TD*%
%TA.AperFunction,Conductor*%
%TO.N,GND*%
G36*
X237003736Y-43500726D02*
G01*
X237293796Y-43518271D01*
X237308659Y-43520076D01*
X237590798Y-43571780D01*
X237605335Y-43575363D01*
X237879172Y-43660695D01*
X237893163Y-43666000D01*
X238154743Y-43783727D01*
X238167989Y-43790680D01*
X238413465Y-43939075D01*
X238425776Y-43947573D01*
X238651573Y-44124473D01*
X238662781Y-44134403D01*
X238865596Y-44337218D01*
X238875526Y-44348426D01*
X238995481Y-44501538D01*
X239052422Y-44574217D01*
X239060928Y-44586540D01*
X239209316Y-44832004D01*
X239216275Y-44845263D01*
X239333997Y-45106831D01*
X239339306Y-45120832D01*
X239424635Y-45394663D01*
X239428219Y-45409201D01*
X239479923Y-45691340D01*
X239481728Y-45706205D01*
X239499274Y-45996263D01*
X239499500Y-46003750D01*
X239499500Y-95996249D01*
X239499274Y-96003736D01*
X239481728Y-96293794D01*
X239479923Y-96308659D01*
X239428219Y-96590798D01*
X239424635Y-96605336D01*
X239339306Y-96879167D01*
X239333997Y-96893168D01*
X239216275Y-97154736D01*
X239209316Y-97167995D01*
X239060928Y-97413459D01*
X239052422Y-97425782D01*
X238875526Y-97651573D01*
X238865596Y-97662781D01*
X238662781Y-97865596D01*
X238651573Y-97875526D01*
X238425782Y-98052422D01*
X238413459Y-98060928D01*
X238167995Y-98209316D01*
X238154736Y-98216275D01*
X237893168Y-98333997D01*
X237879167Y-98339306D01*
X237605336Y-98424635D01*
X237590798Y-98428219D01*
X237308659Y-98479923D01*
X237293794Y-98481728D01*
X237003736Y-98499274D01*
X236996249Y-98499500D01*
X63003751Y-98499500D01*
X62996264Y-98499274D01*
X62706205Y-98481728D01*
X62691340Y-98479923D01*
X62409201Y-98428219D01*
X62394663Y-98424635D01*
X62120832Y-98339306D01*
X62106831Y-98333997D01*
X61845263Y-98216275D01*
X61832004Y-98209316D01*
X61586540Y-98060928D01*
X61574217Y-98052422D01*
X61348426Y-97875526D01*
X61337218Y-97865596D01*
X61134403Y-97662781D01*
X61124473Y-97651573D01*
X60947573Y-97425776D01*
X60939075Y-97413465D01*
X60790680Y-97167989D01*
X60783727Y-97154743D01*
X60666000Y-96893163D01*
X60660693Y-96879167D01*
X60646593Y-96833920D01*
X60575363Y-96605335D01*
X60571780Y-96590798D01*
X60551044Y-96477645D01*
X60520076Y-96308659D01*
X60518271Y-96293794D01*
X60500726Y-96003736D01*
X60500500Y-95996249D01*
X60500500Y-93837884D01*
X62000000Y-93837884D01*
X62000000Y-94162115D01*
X62031779Y-94484784D01*
X62031782Y-94484801D01*
X62095030Y-94802781D01*
X62095033Y-94802792D01*
X62189157Y-95113078D01*
X62313238Y-95412635D01*
X62313240Y-95412640D01*
X62466079Y-95698580D01*
X62466090Y-95698598D01*
X62646212Y-95968170D01*
X62646222Y-95968184D01*
X62795890Y-96150554D01*
X62795891Y-96150555D01*
X64005748Y-94940698D01*
X64079588Y-95042330D01*
X64257670Y-95220412D01*
X64359300Y-95294251D01*
X63149443Y-96504107D01*
X63149444Y-96504108D01*
X63331815Y-96653777D01*
X63331829Y-96653787D01*
X63601401Y-96833909D01*
X63601419Y-96833920D01*
X63887359Y-96986759D01*
X63887364Y-96986761D01*
X64186921Y-97110842D01*
X64497207Y-97204966D01*
X64497218Y-97204969D01*
X64815198Y-97268217D01*
X64815215Y-97268220D01*
X65137884Y-97300000D01*
X65462116Y-97300000D01*
X65784784Y-97268220D01*
X65784801Y-97268217D01*
X66102781Y-97204969D01*
X66102792Y-97204966D01*
X66413078Y-97110842D01*
X66712635Y-96986761D01*
X66712640Y-96986759D01*
X66998580Y-96833920D01*
X66998598Y-96833909D01*
X67268170Y-96653787D01*
X67268183Y-96653777D01*
X67450554Y-96504108D01*
X67450554Y-96504107D01*
X66240698Y-95294251D01*
X66342330Y-95220412D01*
X66520412Y-95042330D01*
X66594251Y-94940698D01*
X67804107Y-96150554D01*
X67804108Y-96150554D01*
X67953777Y-95968183D01*
X67953787Y-95968170D01*
X68133909Y-95698598D01*
X68133920Y-95698580D01*
X68286759Y-95412640D01*
X68286761Y-95412635D01*
X68410842Y-95113078D01*
X68504966Y-94802792D01*
X68504969Y-94802781D01*
X68568217Y-94484801D01*
X68568220Y-94484784D01*
X68600000Y-94162115D01*
X68600000Y-93837884D01*
X219400000Y-93837884D01*
X219400000Y-94162115D01*
X219431779Y-94484784D01*
X219431782Y-94484801D01*
X219495030Y-94802781D01*
X219495033Y-94802792D01*
X219589157Y-95113078D01*
X219713238Y-95412635D01*
X219713240Y-95412640D01*
X219866079Y-95698580D01*
X219866090Y-95698598D01*
X220046212Y-95968170D01*
X220046222Y-95968184D01*
X220195890Y-96150554D01*
X220195891Y-96150555D01*
X221405748Y-94940698D01*
X221479588Y-95042330D01*
X221657670Y-95220412D01*
X221759300Y-95294251D01*
X220549443Y-96504107D01*
X220549444Y-96504108D01*
X220731815Y-96653777D01*
X220731829Y-96653787D01*
X221001401Y-96833909D01*
X221001419Y-96833920D01*
X221287359Y-96986759D01*
X221287364Y-96986761D01*
X221586921Y-97110842D01*
X221897207Y-97204966D01*
X221897218Y-97204969D01*
X222215198Y-97268217D01*
X222215215Y-97268220D01*
X222537884Y-97300000D01*
X222862116Y-97300000D01*
X223184784Y-97268220D01*
X223184801Y-97268217D01*
X223502781Y-97204969D01*
X223502792Y-97204966D01*
X223813078Y-97110842D01*
X224112635Y-96986761D01*
X224112640Y-96986759D01*
X224398580Y-96833920D01*
X224398598Y-96833909D01*
X224668170Y-96653787D01*
X224668183Y-96653777D01*
X224850554Y-96504108D01*
X224850554Y-96504107D01*
X223640698Y-95294251D01*
X223742330Y-95220412D01*
X223920412Y-95042330D01*
X223994251Y-94940698D01*
X225204107Y-96150554D01*
X225204108Y-96150554D01*
X225353777Y-95968183D01*
X225353787Y-95968170D01*
X225533909Y-95698598D01*
X225533920Y-95698580D01*
X225686759Y-95412640D01*
X225686761Y-95412635D01*
X225810842Y-95113078D01*
X225904966Y-94802792D01*
X225904969Y-94802781D01*
X225968217Y-94484801D01*
X225968220Y-94484784D01*
X225984979Y-94314635D01*
X227646500Y-94314635D01*
X227646500Y-94606164D01*
X227679138Y-94895835D01*
X227679140Y-94895851D01*
X227744008Y-95180058D01*
X227744012Y-95180070D01*
X227840293Y-95455223D01*
X227966776Y-95717868D01*
X228121875Y-95964706D01*
X228238231Y-96110614D01*
X228956696Y-95392148D01*
X229031123Y-95494587D01*
X229207813Y-95671277D01*
X229310249Y-95745701D01*
X228591784Y-96464167D01*
X228737693Y-96580524D01*
X228984531Y-96735623D01*
X229247176Y-96862106D01*
X229522329Y-96958387D01*
X229522341Y-96958391D01*
X229806548Y-97023259D01*
X229806564Y-97023261D01*
X230096235Y-97055899D01*
X230096237Y-97055900D01*
X230387763Y-97055900D01*
X230387764Y-97055899D01*
X230677435Y-97023261D01*
X230677451Y-97023259D01*
X230961658Y-96958391D01*
X230961670Y-96958387D01*
X231236823Y-96862106D01*
X231499468Y-96735623D01*
X231746306Y-96580524D01*
X231892214Y-96464167D01*
X231892214Y-96464166D01*
X231173749Y-95745702D01*
X231276187Y-95671277D01*
X231452877Y-95494587D01*
X231527301Y-95392149D01*
X232245766Y-96110614D01*
X232245767Y-96110614D01*
X232362124Y-95964706D01*
X232517223Y-95717868D01*
X232643706Y-95455223D01*
X232739987Y-95180070D01*
X232739991Y-95180058D01*
X232804859Y-94895851D01*
X232804861Y-94895835D01*
X232837499Y-94606164D01*
X232837500Y-94606162D01*
X232837500Y-94314637D01*
X232837499Y-94314635D01*
X232804861Y-94024964D01*
X232804859Y-94024948D01*
X232739991Y-93740741D01*
X232739987Y-93740729D01*
X232643706Y-93465576D01*
X232517223Y-93202931D01*
X232362124Y-92956093D01*
X232245767Y-92810184D01*
X231527301Y-93528649D01*
X231452877Y-93426213D01*
X231276187Y-93249523D01*
X231173748Y-93175096D01*
X231892214Y-92456631D01*
X231746306Y-92340275D01*
X231499468Y-92185176D01*
X231236823Y-92058693D01*
X230961670Y-91962412D01*
X230961658Y-91962408D01*
X230677451Y-91897540D01*
X230677435Y-91897538D01*
X230387764Y-91864900D01*
X230096235Y-91864900D01*
X229806564Y-91897538D01*
X229806548Y-91897540D01*
X229522341Y-91962408D01*
X229522329Y-91962412D01*
X229247176Y-92058693D01*
X228984531Y-92185176D01*
X228737689Y-92340277D01*
X228737685Y-92340280D01*
X228591784Y-92456631D01*
X229310250Y-93175097D01*
X229207813Y-93249523D01*
X229031123Y-93426213D01*
X228956697Y-93528650D01*
X228238231Y-92810184D01*
X228121880Y-92956085D01*
X228121877Y-92956089D01*
X227966776Y-93202931D01*
X227840293Y-93465576D01*
X227744012Y-93740729D01*
X227744008Y-93740741D01*
X227679140Y-94024948D01*
X227679138Y-94024964D01*
X227646500Y-94314635D01*
X225984979Y-94314635D01*
X225986518Y-94299007D01*
X226000000Y-94162115D01*
X226000000Y-93837884D01*
X225968220Y-93515215D01*
X225968217Y-93515198D01*
X225904969Y-93197218D01*
X225904966Y-93197207D01*
X225810842Y-92886921D01*
X225686762Y-92587365D01*
X225674022Y-92563530D01*
X225674021Y-92563528D01*
X225533920Y-92301419D01*
X225533909Y-92301401D01*
X225353787Y-92031829D01*
X225353777Y-92031815D01*
X225204108Y-91849444D01*
X225204107Y-91849443D01*
X223994250Y-93059300D01*
X223920412Y-92957670D01*
X223742330Y-92779588D01*
X223640697Y-92705747D01*
X224850555Y-91495891D01*
X224850554Y-91495890D01*
X224668184Y-91346222D01*
X224668170Y-91346212D01*
X224398598Y-91166090D01*
X224398580Y-91166079D01*
X224112640Y-91013240D01*
X224112635Y-91013238D01*
X223813078Y-90889157D01*
X223502792Y-90795033D01*
X223502781Y-90795030D01*
X223184801Y-90731782D01*
X223184784Y-90731779D01*
X222862116Y-90700000D01*
X222537884Y-90700000D01*
X222215215Y-90731779D01*
X222215198Y-90731782D01*
X221897218Y-90795030D01*
X221897207Y-90795033D01*
X221586921Y-90889157D01*
X221287364Y-91013238D01*
X221287359Y-91013240D01*
X221001419Y-91166079D01*
X221001401Y-91166090D01*
X220731829Y-91346212D01*
X220731815Y-91346222D01*
X220549444Y-91495890D01*
X220549443Y-91495891D01*
X221759301Y-92705748D01*
X221657670Y-92779588D01*
X221479588Y-92957670D01*
X221405748Y-93059301D01*
X220195891Y-91849443D01*
X220195890Y-91849444D01*
X220046222Y-92031815D01*
X220046212Y-92031829D01*
X219866090Y-92301401D01*
X219866079Y-92301419D01*
X219713240Y-92587359D01*
X219713238Y-92587364D01*
X219589157Y-92886921D01*
X219495033Y-93197207D01*
X219495030Y-93197218D01*
X219431782Y-93515198D01*
X219431779Y-93515215D01*
X219400000Y-93837884D01*
X68600000Y-93837884D01*
X68568220Y-93515215D01*
X68568217Y-93515198D01*
X68504969Y-93197218D01*
X68504966Y-93197207D01*
X68410842Y-92886921D01*
X68286761Y-92587364D01*
X68286759Y-92587359D01*
X68133920Y-92301419D01*
X68133909Y-92301401D01*
X67953787Y-92031829D01*
X67953777Y-92031815D01*
X67804108Y-91849444D01*
X67804107Y-91849443D01*
X66594250Y-93059300D01*
X66520412Y-92957670D01*
X66342330Y-92779588D01*
X66240697Y-92705747D01*
X67450555Y-91495891D01*
X67450554Y-91495890D01*
X67268184Y-91346222D01*
X67268170Y-91346212D01*
X66998598Y-91166090D01*
X66998580Y-91166079D01*
X66712640Y-91013240D01*
X66712635Y-91013238D01*
X66413078Y-90889157D01*
X66102792Y-90795033D01*
X66102781Y-90795030D01*
X65784801Y-90731782D01*
X65784784Y-90731779D01*
X65462116Y-90700000D01*
X65137884Y-90700000D01*
X64815215Y-90731779D01*
X64815198Y-90731782D01*
X64497218Y-90795030D01*
X64497207Y-90795033D01*
X64186921Y-90889157D01*
X63887364Y-91013238D01*
X63887359Y-91013240D01*
X63601419Y-91166079D01*
X63601401Y-91166090D01*
X63331829Y-91346212D01*
X63331815Y-91346222D01*
X63149444Y-91495890D01*
X63149443Y-91495891D01*
X64359301Y-92705748D01*
X64257670Y-92779588D01*
X64079588Y-92957670D01*
X64005748Y-93059301D01*
X62795891Y-91849443D01*
X62795890Y-91849444D01*
X62646222Y-92031815D01*
X62646212Y-92031829D01*
X62466090Y-92301401D01*
X62466079Y-92301419D01*
X62313240Y-92587359D01*
X62313238Y-92587364D01*
X62189157Y-92886921D01*
X62095033Y-93197207D01*
X62095030Y-93197218D01*
X62031782Y-93515198D01*
X62031779Y-93515215D01*
X62000000Y-93837884D01*
X60500500Y-93837884D01*
X60500500Y-47837884D01*
X62000000Y-47837884D01*
X62000000Y-48162115D01*
X62031779Y-48484784D01*
X62031782Y-48484801D01*
X62095030Y-48802781D01*
X62095033Y-48802792D01*
X62189157Y-49113078D01*
X62313238Y-49412635D01*
X62313240Y-49412640D01*
X62466079Y-49698580D01*
X62466090Y-49698598D01*
X62646212Y-49968170D01*
X62646222Y-49968184D01*
X62795890Y-50150554D01*
X62795891Y-50150555D01*
X64005748Y-48940698D01*
X64079588Y-49042330D01*
X64257670Y-49220412D01*
X64359300Y-49294251D01*
X63149443Y-50504107D01*
X63149444Y-50504108D01*
X63331815Y-50653777D01*
X63331829Y-50653787D01*
X63601401Y-50833909D01*
X63601419Y-50833920D01*
X63887359Y-50986759D01*
X63887364Y-50986761D01*
X64186921Y-51110842D01*
X64497207Y-51204966D01*
X64497218Y-51204969D01*
X64815198Y-51268217D01*
X64815215Y-51268220D01*
X65137884Y-51300000D01*
X65462116Y-51300000D01*
X65784784Y-51268220D01*
X65784801Y-51268217D01*
X66102781Y-51204969D01*
X66102792Y-51204966D01*
X66413078Y-51110842D01*
X66712635Y-50986761D01*
X66712640Y-50986759D01*
X66998580Y-50833920D01*
X66998598Y-50833909D01*
X67268170Y-50653787D01*
X67268183Y-50653777D01*
X67450554Y-50504108D01*
X67450554Y-50504107D01*
X66240698Y-49294251D01*
X66342330Y-49220412D01*
X66520412Y-49042330D01*
X66594251Y-48940698D01*
X67804107Y-50150554D01*
X67804108Y-50150554D01*
X67953777Y-49968183D01*
X67953787Y-49968170D01*
X68133909Y-49698598D01*
X68133920Y-49698580D01*
X68254770Y-49472486D01*
X70769500Y-49472486D01*
X70769500Y-53267513D01*
X70787271Y-53402490D01*
X70808007Y-53559993D01*
X70808008Y-53559995D01*
X70884361Y-53844951D01*
X70884364Y-53844961D01*
X70997254Y-54117500D01*
X70997258Y-54117510D01*
X71144761Y-54372993D01*
X71324352Y-54607040D01*
X71324358Y-54607047D01*
X71532952Y-54815641D01*
X71532959Y-54815647D01*
X71767006Y-54995238D01*
X72022489Y-55142741D01*
X72022490Y-55142741D01*
X72022493Y-55142743D01*
X72171566Y-55204491D01*
X72289642Y-55253400D01*
X72295048Y-55255639D01*
X72580007Y-55331993D01*
X72872494Y-55370500D01*
X72872501Y-55370500D01*
X73167499Y-55370500D01*
X73167506Y-55370500D01*
X73459993Y-55331993D01*
X73744952Y-55255639D01*
X73853279Y-55210767D01*
X73922746Y-55203298D01*
X73985226Y-55234572D01*
X73988412Y-55237647D01*
X74275731Y-55524966D01*
X74309216Y-55586289D01*
X74305981Y-55650964D01*
X74291524Y-55695457D01*
X74291523Y-55695464D01*
X74281717Y-55757378D01*
X74259500Y-55897648D01*
X74259500Y-57002352D01*
X74261904Y-57017527D01*
X74291522Y-57204534D01*
X74354781Y-57399223D01*
X74418691Y-57524653D01*
X74441143Y-57568716D01*
X74447715Y-57581613D01*
X74568028Y-57747213D01*
X74712786Y-57891971D01*
X74860179Y-57999056D01*
X74878390Y-58012287D01*
X74977060Y-58062562D01*
X75060776Y-58105218D01*
X75060778Y-58105218D01*
X75060781Y-58105220D01*
X75135818Y-58129601D01*
X75255465Y-58168477D01*
X75356557Y-58184488D01*
X75457648Y-58200500D01*
X75457649Y-58200500D01*
X75662351Y-58200500D01*
X75662352Y-58200500D01*
X75864534Y-58168477D01*
X76059219Y-58105220D01*
X76182166Y-58042574D01*
X76250836Y-58029678D01*
X76315576Y-58055954D01*
X76326143Y-58065378D01*
X77062181Y-58801416D01*
X77095666Y-58862739D01*
X77098500Y-58889097D01*
X77098500Y-79579430D01*
X77098499Y-79579448D01*
X77098499Y-79745154D01*
X77098498Y-79745154D01*
X77139423Y-79897885D01*
X77168358Y-79948000D01*
X77168359Y-79948004D01*
X77168360Y-79948004D01*
X77218479Y-80034814D01*
X77218481Y-80034817D01*
X77347720Y-80164056D01*
X77347726Y-80164061D01*
X77572249Y-80388585D01*
X77572255Y-80388590D01*
X77719481Y-80535816D01*
X85347720Y-88164056D01*
X85347726Y-88164061D01*
X85572249Y-88388585D01*
X85572254Y-88388589D01*
X86664184Y-89480520D01*
X86664186Y-89480521D01*
X86664190Y-89480524D01*
X86801109Y-89559573D01*
X86801116Y-89559577D01*
X86953843Y-89600501D01*
X86953845Y-89600501D01*
X87119554Y-89600501D01*
X87119570Y-89600500D01*
X229802302Y-89600500D01*
X229802318Y-89600501D01*
X229809914Y-89600501D01*
X229968025Y-89600501D01*
X229968028Y-89600501D01*
X230120756Y-89559577D01*
X230170875Y-89530639D01*
X230257687Y-89480520D01*
X230369491Y-89368716D01*
X230369491Y-89368714D01*
X230379699Y-89358507D01*
X230379700Y-89358504D01*
X232144920Y-87593287D01*
X232223977Y-87456355D01*
X232264901Y-87303628D01*
X232264901Y-87303621D01*
X232266524Y-87297565D01*
X232302889Y-87237905D01*
X232330015Y-87219169D01*
X232336079Y-87216080D01*
X232499274Y-87097512D01*
X232641912Y-86954874D01*
X232760480Y-86791679D01*
X232852059Y-86611945D01*
X232914394Y-86420097D01*
X232930651Y-86317451D01*
X232945950Y-86220865D01*
X232945950Y-86019134D01*
X232916956Y-85836080D01*
X232914394Y-85819903D01*
X232852059Y-85628055D01*
X232760480Y-85448321D01*
X232641912Y-85285126D01*
X232499274Y-85142488D01*
X232336079Y-85023920D01*
X232156342Y-84932339D01*
X231964498Y-84870006D01*
X231916937Y-84862473D01*
X231853802Y-84832544D01*
X231816871Y-84773232D01*
X231817869Y-84703370D01*
X231856479Y-84645137D01*
X231916937Y-84617527D01*
X231927685Y-84615824D01*
X231964497Y-84609994D01*
X232156345Y-84547659D01*
X232336079Y-84456080D01*
X232499274Y-84337512D01*
X232641912Y-84194874D01*
X232760480Y-84031679D01*
X232852059Y-83851945D01*
X232914394Y-83660097D01*
X232930651Y-83557451D01*
X232945950Y-83460865D01*
X232945950Y-83259134D01*
X232927591Y-83143230D01*
X232914394Y-83059903D01*
X232852059Y-82868055D01*
X232760480Y-82688321D01*
X232641912Y-82525126D01*
X232499274Y-82382488D01*
X232336079Y-82263920D01*
X232156342Y-82172339D01*
X231964498Y-82110006D01*
X231916937Y-82102473D01*
X231853802Y-82072544D01*
X231816871Y-82013232D01*
X231817869Y-81943370D01*
X231856479Y-81885137D01*
X231916937Y-81857527D01*
X231927685Y-81855824D01*
X231964497Y-81849994D01*
X232156345Y-81787659D01*
X232336079Y-81696080D01*
X232499274Y-81577512D01*
X232641912Y-81434874D01*
X232760480Y-81271679D01*
X232852059Y-81091945D01*
X232914394Y-80900097D01*
X232942527Y-80722473D01*
X232945950Y-80700865D01*
X232945950Y-80499134D01*
X232916956Y-80316080D01*
X232914394Y-80299903D01*
X232881124Y-80197509D01*
X232852060Y-80108057D01*
X232760479Y-79928320D01*
X232733858Y-79891679D01*
X232641912Y-79765126D01*
X232499274Y-79622488D01*
X232336079Y-79503920D01*
X232156342Y-79412339D01*
X231964498Y-79350006D01*
X231916937Y-79342473D01*
X231853802Y-79312544D01*
X231816871Y-79253232D01*
X231817869Y-79183370D01*
X231856479Y-79125137D01*
X231916937Y-79097527D01*
X231927685Y-79095824D01*
X231964497Y-79089994D01*
X232156345Y-79027659D01*
X232336079Y-78936080D01*
X232499274Y-78817512D01*
X232641912Y-78674874D01*
X232760480Y-78511679D01*
X232852059Y-78331945D01*
X232914394Y-78140097D01*
X232930651Y-78037451D01*
X232945950Y-77940865D01*
X232945950Y-77739134D01*
X232920304Y-77577217D01*
X232914394Y-77539903D01*
X232852059Y-77348055D01*
X232760480Y-77168321D01*
X232641912Y-77005126D01*
X232499274Y-76862488D01*
X232336079Y-76743920D01*
X232156342Y-76652339D01*
X231964498Y-76590006D01*
X231916937Y-76582473D01*
X231853802Y-76552544D01*
X231816871Y-76493232D01*
X231817869Y-76423370D01*
X231856479Y-76365137D01*
X231916937Y-76337527D01*
X231927685Y-76335824D01*
X231964497Y-76329994D01*
X232156345Y-76267659D01*
X232336079Y-76176080D01*
X232499274Y-76057512D01*
X232641912Y-75914874D01*
X232760480Y-75751679D01*
X232852059Y-75571945D01*
X232914394Y-75380097D01*
X232942527Y-75202473D01*
X232945950Y-75180865D01*
X232945950Y-74979134D01*
X232916956Y-74796080D01*
X232914394Y-74779903D01*
X232852059Y-74588055D01*
X232760480Y-74408321D01*
X232641912Y-74245126D01*
X232499274Y-74102488D01*
X232336079Y-73983920D01*
X232332115Y-73981900D01*
X232156342Y-73892339D01*
X231964498Y-73830006D01*
X231916937Y-73822473D01*
X231853802Y-73792544D01*
X231816871Y-73733232D01*
X231817869Y-73663370D01*
X231856479Y-73605137D01*
X231916937Y-73577527D01*
X231927685Y-73575824D01*
X231964497Y-73569994D01*
X232156345Y-73507659D01*
X232336079Y-73416080D01*
X232499274Y-73297512D01*
X232641912Y-73154874D01*
X232760480Y-72991679D01*
X232852059Y-72811945D01*
X232914394Y-72620097D01*
X232933567Y-72499044D01*
X232945950Y-72420865D01*
X232945950Y-72219134D01*
X232920304Y-72057217D01*
X232914394Y-72019903D01*
X232852059Y-71828055D01*
X232760480Y-71648321D01*
X232641912Y-71485126D01*
X232499274Y-71342488D01*
X232336079Y-71223920D01*
X232156342Y-71132339D01*
X231964498Y-71070006D01*
X231916937Y-71062473D01*
X231853802Y-71032544D01*
X231816871Y-70973232D01*
X231817869Y-70903370D01*
X231856479Y-70845137D01*
X231916937Y-70817527D01*
X231927685Y-70815824D01*
X231964497Y-70809994D01*
X232156345Y-70747659D01*
X232336079Y-70656080D01*
X232499274Y-70537512D01*
X232641912Y-70394874D01*
X232760480Y-70231679D01*
X232852059Y-70051945D01*
X232914394Y-69860097D01*
X232942527Y-69682473D01*
X232945950Y-69660865D01*
X232945950Y-69459134D01*
X232916956Y-69276080D01*
X232914394Y-69259903D01*
X232852059Y-69068055D01*
X232760480Y-68888321D01*
X232641912Y-68725126D01*
X232499274Y-68582488D01*
X232336079Y-68463920D01*
X232156342Y-68372339D01*
X231964498Y-68310006D01*
X231916937Y-68302473D01*
X231853802Y-68272544D01*
X231816871Y-68213232D01*
X231817869Y-68143370D01*
X231856479Y-68085137D01*
X231916937Y-68057527D01*
X231927685Y-68055824D01*
X231964497Y-68049994D01*
X232156345Y-67987659D01*
X232336079Y-67896080D01*
X232499274Y-67777512D01*
X232641912Y-67634874D01*
X232760480Y-67471679D01*
X232852059Y-67291945D01*
X232914394Y-67100097D01*
X232930651Y-66997451D01*
X232945950Y-66900865D01*
X232945950Y-66699134D01*
X232920304Y-66537217D01*
X232914394Y-66499903D01*
X232876053Y-66381900D01*
X232852060Y-66308057D01*
X232786331Y-66179057D01*
X232760480Y-66128321D01*
X232641912Y-65965126D01*
X232499274Y-65822488D01*
X232336079Y-65703920D01*
X232248233Y-65659160D01*
X232156342Y-65612339D01*
X231964498Y-65550006D01*
X231916937Y-65542473D01*
X231853802Y-65512544D01*
X231816871Y-65453232D01*
X231817869Y-65383370D01*
X231856479Y-65325137D01*
X231916937Y-65297527D01*
X231927685Y-65295824D01*
X231964497Y-65289994D01*
X232156345Y-65227659D01*
X232336079Y-65136080D01*
X232499274Y-65017512D01*
X232641912Y-64874874D01*
X232760480Y-64711679D01*
X232852059Y-64531945D01*
X232914394Y-64340097D01*
X232930651Y-64237451D01*
X232945950Y-64140865D01*
X232945950Y-63939132D01*
X232919464Y-63771914D01*
X232914394Y-63739903D01*
X232873421Y-63613800D01*
X232852060Y-63548057D01*
X232786717Y-63419815D01*
X232760480Y-63368321D01*
X232641912Y-63205126D01*
X232499274Y-63062488D01*
X232336079Y-62943920D01*
X232156342Y-62852339D01*
X231964498Y-62790006D01*
X231916937Y-62782473D01*
X231853802Y-62752544D01*
X231816871Y-62693232D01*
X231817869Y-62623370D01*
X231856479Y-62565137D01*
X231916937Y-62537527D01*
X231927685Y-62535824D01*
X231964497Y-62529994D01*
X232156345Y-62467659D01*
X232336079Y-62376080D01*
X232499274Y-62257512D01*
X232641912Y-62114874D01*
X232760480Y-61951679D01*
X232852059Y-61771945D01*
X232914394Y-61580097D01*
X232942527Y-61402473D01*
X232945950Y-61380865D01*
X232945950Y-61179134D01*
X232916956Y-60996080D01*
X232914394Y-60979903D01*
X232852059Y-60788055D01*
X232760480Y-60608321D01*
X232641912Y-60445126D01*
X232499274Y-60302488D01*
X232336079Y-60183920D01*
X232171485Y-60100055D01*
X232156342Y-60092339D01*
X231964498Y-60030006D01*
X231916937Y-60022473D01*
X231853802Y-59992544D01*
X231816871Y-59933232D01*
X231817869Y-59863370D01*
X231856479Y-59805137D01*
X231916937Y-59777527D01*
X231927685Y-59775824D01*
X231964497Y-59769994D01*
X232156345Y-59707659D01*
X232336079Y-59616080D01*
X232499274Y-59497512D01*
X232641912Y-59354874D01*
X232760480Y-59191679D01*
X232852059Y-59011945D01*
X232914394Y-58820097D01*
X232937210Y-58676043D01*
X232945950Y-58620865D01*
X232945950Y-58419134D01*
X232920304Y-58257217D01*
X232914394Y-58219903D01*
X232877130Y-58105217D01*
X232852060Y-58028057D01*
X232782868Y-57892260D01*
X232760480Y-57848321D01*
X232641912Y-57685126D01*
X232499274Y-57542488D01*
X232336079Y-57423920D01*
X232330992Y-57421328D01*
X232156342Y-57332339D01*
X231964498Y-57270006D01*
X231916937Y-57262473D01*
X231853802Y-57232544D01*
X231816871Y-57173232D01*
X231817869Y-57103370D01*
X231856479Y-57045137D01*
X231916937Y-57017527D01*
X231927685Y-57015824D01*
X231964497Y-57009994D01*
X232156345Y-56947659D01*
X232336079Y-56856080D01*
X232499274Y-56737512D01*
X232641912Y-56594874D01*
X232760480Y-56431679D01*
X232852059Y-56251945D01*
X232914394Y-56060097D01*
X232930651Y-55957451D01*
X232945950Y-55860865D01*
X232945950Y-55659134D01*
X232920868Y-55500778D01*
X232914394Y-55459903D01*
X232868414Y-55318390D01*
X232852060Y-55268057D01*
X232835661Y-55235873D01*
X232760480Y-55088321D01*
X232641912Y-54925126D01*
X232499274Y-54782488D01*
X232336079Y-54663920D01*
X232310746Y-54651012D01*
X232156342Y-54572339D01*
X231964498Y-54510006D01*
X231765265Y-54478450D01*
X231765260Y-54478450D01*
X231563540Y-54478450D01*
X231563535Y-54478450D01*
X231364301Y-54510006D01*
X231172457Y-54572339D01*
X230992720Y-54663920D01*
X230829523Y-54782490D01*
X230686890Y-54925123D01*
X230568323Y-55088316D01*
X230568320Y-55088321D01*
X230566551Y-55091791D01*
X230518581Y-55142588D01*
X230456066Y-55159500D01*
X230063092Y-55159500D01*
X229996053Y-55139815D01*
X229950298Y-55087011D01*
X229940354Y-55017853D01*
X229952607Y-54979205D01*
X230007259Y-54871945D01*
X230069594Y-54680097D01*
X230088519Y-54560610D01*
X230101150Y-54480865D01*
X230101150Y-54279134D01*
X230075550Y-54117507D01*
X230069594Y-54079903D01*
X230007259Y-53888055D01*
X229915680Y-53708321D01*
X229797112Y-53545126D01*
X229654474Y-53402488D01*
X229491279Y-53283920D01*
X229311542Y-53192339D01*
X229119698Y-53130006D01*
X228920465Y-53098450D01*
X228920460Y-53098450D01*
X228718740Y-53098450D01*
X228718735Y-53098450D01*
X228519501Y-53130006D01*
X228327657Y-53192339D01*
X228147920Y-53283920D01*
X227984723Y-53402490D01*
X227842090Y-53545123D01*
X227723520Y-53708320D01*
X227631939Y-53888057D01*
X227569606Y-54079901D01*
X227538050Y-54279134D01*
X227538050Y-54480865D01*
X227559311Y-54615102D01*
X227550356Y-54684396D01*
X227505360Y-54737848D01*
X227438609Y-54758487D01*
X227436838Y-54758500D01*
X218059098Y-54758500D01*
X218029657Y-54749855D01*
X217999671Y-54743332D01*
X217994655Y-54739577D01*
X217992059Y-54738815D01*
X217971417Y-54722181D01*
X217887548Y-54638312D01*
X217854063Y-54576989D01*
X217859047Y-54507297D01*
X217876849Y-54475150D01*
X217955238Y-54372994D01*
X218102743Y-54117507D01*
X218215639Y-53844952D01*
X218291993Y-53559993D01*
X218330500Y-53267506D01*
X218330500Y-49472494D01*
X218291993Y-49180007D01*
X218215639Y-48895048D01*
X218102743Y-48622493D01*
X217955238Y-48367006D01*
X217798019Y-48162115D01*
X217775647Y-48132959D01*
X217775641Y-48132952D01*
X217567047Y-47924358D01*
X217567040Y-47924352D01*
X217454353Y-47837884D01*
X219400000Y-47837884D01*
X219400000Y-48162115D01*
X219431779Y-48484784D01*
X219431782Y-48484801D01*
X219495030Y-48802781D01*
X219495033Y-48802792D01*
X219589157Y-49113078D01*
X219713238Y-49412635D01*
X219713240Y-49412640D01*
X219866079Y-49698580D01*
X219866090Y-49698598D01*
X220046212Y-49968170D01*
X220046222Y-49968184D01*
X220195890Y-50150554D01*
X220195891Y-50150555D01*
X221405748Y-48940698D01*
X221479588Y-49042330D01*
X221657670Y-49220412D01*
X221759300Y-49294251D01*
X220549443Y-50504107D01*
X220549444Y-50504108D01*
X220731815Y-50653777D01*
X220731829Y-50653787D01*
X221001401Y-50833909D01*
X221001419Y-50833920D01*
X221287359Y-50986759D01*
X221287364Y-50986761D01*
X221586921Y-51110842D01*
X221897207Y-51204966D01*
X221897218Y-51204969D01*
X222215198Y-51268217D01*
X222215215Y-51268220D01*
X222537884Y-51300000D01*
X222862116Y-51300000D01*
X223184784Y-51268220D01*
X223184801Y-51268217D01*
X223502781Y-51204969D01*
X223502792Y-51204966D01*
X223813078Y-51110842D01*
X224112635Y-50986761D01*
X224112640Y-50986759D01*
X224398580Y-50833920D01*
X224398598Y-50833909D01*
X224668170Y-50653787D01*
X224668183Y-50653777D01*
X224850554Y-50504108D01*
X224850554Y-50504107D01*
X223640698Y-49294251D01*
X223742330Y-49220412D01*
X223920412Y-49042330D01*
X223994251Y-48940698D01*
X225204107Y-50150554D01*
X225204108Y-50150554D01*
X225353777Y-49968183D01*
X225353787Y-49968170D01*
X225533909Y-49698598D01*
X225533920Y-49698580D01*
X225686759Y-49412640D01*
X225686764Y-49412628D01*
X225722039Y-49327469D01*
X225722039Y-49327468D01*
X225810842Y-49113078D01*
X225904966Y-48802792D01*
X225904969Y-48802781D01*
X225968217Y-48484801D01*
X225968220Y-48484784D01*
X226000000Y-48162115D01*
X226000000Y-47837884D01*
X225968220Y-47515215D01*
X225968217Y-47515198D01*
X225924330Y-47294557D01*
X225924328Y-47294551D01*
X225920207Y-47273835D01*
X227646500Y-47273835D01*
X227646500Y-47565364D01*
X227679138Y-47855035D01*
X227679140Y-47855051D01*
X227744008Y-48139258D01*
X227744012Y-48139270D01*
X227840293Y-48414423D01*
X227966776Y-48677068D01*
X228121875Y-48923906D01*
X228238231Y-49069814D01*
X228956696Y-48351348D01*
X229031123Y-48453787D01*
X229207813Y-48630477D01*
X229310249Y-48704901D01*
X228591784Y-49423367D01*
X228737693Y-49539724D01*
X228984531Y-49694823D01*
X229247176Y-49821306D01*
X229522329Y-49917587D01*
X229522341Y-49917591D01*
X229806548Y-49982459D01*
X229806564Y-49982461D01*
X230096235Y-50015099D01*
X230096237Y-50015100D01*
X230387763Y-50015100D01*
X230387764Y-50015099D01*
X230677435Y-49982461D01*
X230677451Y-49982459D01*
X230961658Y-49917591D01*
X230961670Y-49917587D01*
X231236823Y-49821306D01*
X231499468Y-49694823D01*
X231746306Y-49539724D01*
X231892214Y-49423367D01*
X231892214Y-49423366D01*
X231173749Y-48704902D01*
X231276187Y-48630477D01*
X231452877Y-48453787D01*
X231527301Y-48351349D01*
X232245766Y-49069814D01*
X232245767Y-49069814D01*
X232362124Y-48923906D01*
X232517223Y-48677068D01*
X232643706Y-48414423D01*
X232739987Y-48139270D01*
X232739991Y-48139258D01*
X232804859Y-47855051D01*
X232804861Y-47855035D01*
X232837499Y-47565364D01*
X232837500Y-47565362D01*
X232837500Y-47273837D01*
X232837499Y-47273835D01*
X232804861Y-46984164D01*
X232804859Y-46984148D01*
X232739991Y-46699941D01*
X232739987Y-46699929D01*
X232643706Y-46424776D01*
X232517223Y-46162131D01*
X232362124Y-45915293D01*
X232245767Y-45769384D01*
X231527301Y-46487849D01*
X231452877Y-46385413D01*
X231276187Y-46208723D01*
X231173748Y-46134296D01*
X231892214Y-45415831D01*
X231746306Y-45299475D01*
X231499468Y-45144376D01*
X231236823Y-45017893D01*
X230961670Y-44921612D01*
X230961658Y-44921608D01*
X230677451Y-44856740D01*
X230677435Y-44856738D01*
X230387764Y-44824100D01*
X230096235Y-44824100D01*
X229806564Y-44856738D01*
X229806548Y-44856740D01*
X229522341Y-44921608D01*
X229522329Y-44921612D01*
X229247176Y-45017893D01*
X228984531Y-45144376D01*
X228737689Y-45299477D01*
X228737685Y-45299480D01*
X228591784Y-45415831D01*
X229310250Y-46134297D01*
X229207813Y-46208723D01*
X229031123Y-46385413D01*
X228956697Y-46487850D01*
X228238231Y-45769384D01*
X228121880Y-45915285D01*
X228121877Y-45915289D01*
X227966776Y-46162131D01*
X227840293Y-46424776D01*
X227744012Y-46699929D01*
X227744008Y-46699941D01*
X227679140Y-46984148D01*
X227679138Y-46984164D01*
X227646500Y-47273835D01*
X225920207Y-47273835D01*
X225904965Y-47197205D01*
X225810842Y-46886921D01*
X225686761Y-46587364D01*
X225686759Y-46587359D01*
X225533920Y-46301419D01*
X225533909Y-46301401D01*
X225353787Y-46031829D01*
X225353777Y-46031815D01*
X225204108Y-45849444D01*
X225204107Y-45849443D01*
X223994250Y-47059300D01*
X223920412Y-46957670D01*
X223742330Y-46779588D01*
X223640697Y-46705747D01*
X224850555Y-45495891D01*
X224668184Y-45346222D01*
X224668170Y-45346212D01*
X224398598Y-45166090D01*
X224398580Y-45166079D01*
X224112640Y-45013240D01*
X224112635Y-45013238D01*
X223813078Y-44889157D01*
X223502792Y-44795033D01*
X223502781Y-44795030D01*
X223184801Y-44731782D01*
X223184784Y-44731779D01*
X222862116Y-44700000D01*
X222537884Y-44700000D01*
X222215215Y-44731779D01*
X222215198Y-44731782D01*
X221897218Y-44795030D01*
X221897207Y-44795033D01*
X221586921Y-44889157D01*
X221287364Y-45013238D01*
X221287359Y-45013240D01*
X221001419Y-45166079D01*
X221001401Y-45166090D01*
X220731829Y-45346212D01*
X220731815Y-45346222D01*
X220549444Y-45495890D01*
X220549443Y-45495891D01*
X221759301Y-46705748D01*
X221657670Y-46779588D01*
X221479588Y-46957670D01*
X221405748Y-47059301D01*
X220195891Y-45849443D01*
X220195890Y-45849444D01*
X220046222Y-46031815D01*
X220046212Y-46031829D01*
X219866090Y-46301401D01*
X219866079Y-46301419D01*
X219713240Y-46587359D01*
X219713238Y-46587364D01*
X219589157Y-46886921D01*
X219495033Y-47197207D01*
X219495030Y-47197218D01*
X219431782Y-47515198D01*
X219431779Y-47515215D01*
X219400000Y-47837884D01*
X217454353Y-47837884D01*
X217332993Y-47744761D01*
X217077510Y-47597258D01*
X217077500Y-47597254D01*
X216804961Y-47484364D01*
X216804954Y-47484362D01*
X216804952Y-47484361D01*
X216519993Y-47408007D01*
X216471113Y-47401571D01*
X216227513Y-47369500D01*
X216227506Y-47369500D01*
X215932494Y-47369500D01*
X215932486Y-47369500D01*
X215654085Y-47406153D01*
X215640007Y-47408007D01*
X215355048Y-47484361D01*
X215355038Y-47484364D01*
X215082499Y-47597254D01*
X215082489Y-47597258D01*
X214827006Y-47744761D01*
X214592959Y-47924352D01*
X214592952Y-47924358D01*
X214384358Y-48132952D01*
X214384352Y-48132959D01*
X214204761Y-48367006D01*
X214057258Y-48622489D01*
X214057254Y-48622499D01*
X213944364Y-48895038D01*
X213944361Y-48895048D01*
X213885941Y-49113078D01*
X213868008Y-49180004D01*
X213868006Y-49180015D01*
X213829500Y-49472486D01*
X213829500Y-50645500D01*
X213809815Y-50712539D01*
X213757011Y-50758294D01*
X213705500Y-50769500D01*
X208294500Y-50769500D01*
X208227461Y-50749815D01*
X208181706Y-50697011D01*
X208170500Y-50645500D01*
X208170500Y-49472500D01*
X208170499Y-49472486D01*
X208156801Y-49368443D01*
X208131993Y-49180007D01*
X208055639Y-48895048D01*
X207942743Y-48622493D01*
X207795238Y-48367006D01*
X207638019Y-48162115D01*
X207615647Y-48132959D01*
X207615641Y-48132952D01*
X207407047Y-47924358D01*
X207407040Y-47924352D01*
X207172993Y-47744761D01*
X206917510Y-47597258D01*
X206917500Y-47597254D01*
X206644961Y-47484364D01*
X206644954Y-47484362D01*
X206644952Y-47484361D01*
X206359993Y-47408007D01*
X206311113Y-47401571D01*
X206067513Y-47369500D01*
X206067506Y-47369500D01*
X205772494Y-47369500D01*
X205772486Y-47369500D01*
X205494085Y-47406153D01*
X205480007Y-47408007D01*
X205195048Y-47484361D01*
X205195038Y-47484364D01*
X204922499Y-47597254D01*
X204922489Y-47597258D01*
X204667006Y-47744761D01*
X204432959Y-47924352D01*
X204432952Y-47924358D01*
X204224358Y-48132952D01*
X204224352Y-48132959D01*
X204044761Y-48367006D01*
X203897258Y-48622489D01*
X203897254Y-48622499D01*
X203784364Y-48895038D01*
X203784361Y-48895048D01*
X203725941Y-49113078D01*
X203708008Y-49180004D01*
X203708006Y-49180015D01*
X203669500Y-49472486D01*
X203669500Y-53267513D01*
X203687271Y-53402490D01*
X203708007Y-53559993D01*
X203708008Y-53559995D01*
X203784361Y-53844951D01*
X203784364Y-53844961D01*
X203897254Y-54117500D01*
X203897258Y-54117510D01*
X204044761Y-54372993D01*
X204224352Y-54607040D01*
X204224358Y-54607047D01*
X204432952Y-54815641D01*
X204432959Y-54815647D01*
X204667006Y-54995238D01*
X204922489Y-55142741D01*
X204922490Y-55142741D01*
X204922493Y-55142743D01*
X205071566Y-55204491D01*
X205189642Y-55253400D01*
X205195048Y-55255639D01*
X205480007Y-55331993D01*
X205772494Y-55370500D01*
X205772501Y-55370500D01*
X206067499Y-55370500D01*
X206067506Y-55370500D01*
X206359993Y-55331993D01*
X206644952Y-55255639D01*
X206753279Y-55210767D01*
X206822746Y-55203298D01*
X206885226Y-55234572D01*
X206888412Y-55237647D01*
X207175731Y-55524966D01*
X207209216Y-55586289D01*
X207205981Y-55650964D01*
X207191524Y-55695457D01*
X207191523Y-55695464D01*
X207181717Y-55757378D01*
X207159500Y-55897648D01*
X207159500Y-57002352D01*
X207161904Y-57017527D01*
X207191522Y-57204534D01*
X207254781Y-57399223D01*
X207318691Y-57524653D01*
X207341143Y-57568716D01*
X207347715Y-57581613D01*
X207468028Y-57747213D01*
X207612786Y-57891971D01*
X207760179Y-57999056D01*
X207778390Y-58012287D01*
X207877060Y-58062562D01*
X207960776Y-58105218D01*
X207960778Y-58105218D01*
X207960781Y-58105220D01*
X208035818Y-58129601D01*
X208155465Y-58168477D01*
X208256557Y-58184488D01*
X208357648Y-58200500D01*
X208357649Y-58200500D01*
X208562351Y-58200500D01*
X208562352Y-58200500D01*
X208764534Y-58168477D01*
X208959219Y-58105220D01*
X209141610Y-58012287D01*
X209234590Y-57944732D01*
X209307213Y-57891971D01*
X209307215Y-57891968D01*
X209307219Y-57891966D01*
X209451966Y-57747219D01*
X209451968Y-57747215D01*
X209451971Y-57747213D01*
X209572284Y-57581614D01*
X209572285Y-57581613D01*
X209572287Y-57581610D01*
X209619516Y-57488917D01*
X209667489Y-57438123D01*
X209735310Y-57421328D01*
X209801445Y-57443865D01*
X209840483Y-57488917D01*
X209881143Y-57568715D01*
X209887715Y-57581614D01*
X210008028Y-57747213D01*
X210152786Y-57891971D01*
X210300179Y-57999056D01*
X210318390Y-58012287D01*
X210417060Y-58062562D01*
X210500776Y-58105218D01*
X210500778Y-58105218D01*
X210500781Y-58105220D01*
X210575818Y-58129601D01*
X210695465Y-58168477D01*
X210796557Y-58184488D01*
X210897648Y-58200500D01*
X210897649Y-58200500D01*
X211102351Y-58200500D01*
X211102352Y-58200500D01*
X211304534Y-58168477D01*
X211499219Y-58105220D01*
X211681610Y-58012287D01*
X211774590Y-57944732D01*
X211847213Y-57891971D01*
X211847215Y-57891968D01*
X211847219Y-57891966D01*
X211991966Y-57747219D01*
X211991968Y-57747215D01*
X211991971Y-57747213D01*
X212044732Y-57674590D01*
X212112287Y-57581610D01*
X212205220Y-57399219D01*
X212268477Y-57204534D01*
X212300500Y-57002352D01*
X212300500Y-56484500D01*
X212320185Y-56417461D01*
X212372989Y-56371706D01*
X212424500Y-56360500D01*
X227576108Y-56360500D01*
X227643147Y-56380185D01*
X227688902Y-56432989D01*
X227698846Y-56502147D01*
X227686593Y-56540793D01*
X227673162Y-56567155D01*
X227631939Y-56648057D01*
X227569606Y-56839901D01*
X227538050Y-57039134D01*
X227538050Y-57240865D01*
X227569606Y-57440098D01*
X227631939Y-57631942D01*
X227690673Y-57747213D01*
X227723520Y-57811679D01*
X227842088Y-57974874D01*
X227984726Y-58117512D01*
X228005046Y-58132275D01*
X228047710Y-58187604D01*
X228053689Y-58257217D01*
X228021083Y-58319012D01*
X228019840Y-58320273D01*
X227477934Y-58862181D01*
X227416611Y-58895666D01*
X227390253Y-58898500D01*
X201149097Y-58898500D01*
X201082058Y-58878815D01*
X201061416Y-58862181D01*
X197731105Y-55531870D01*
X197716401Y-55504942D01*
X197699809Y-55479124D01*
X197698917Y-55472923D01*
X197697620Y-55470547D01*
X197694786Y-55444189D01*
X197694786Y-55384133D01*
X197714471Y-55317094D01*
X197767275Y-55271339D01*
X197786680Y-55264362D01*
X197819238Y-55255639D01*
X198091793Y-55142743D01*
X198347280Y-54995238D01*
X198581328Y-54815646D01*
X198789932Y-54607042D01*
X198969524Y-54372994D01*
X199117029Y-54117507D01*
X199229925Y-53844952D01*
X199306279Y-53559993D01*
X199344786Y-53267506D01*
X199344786Y-49472494D01*
X199306279Y-49180007D01*
X199229925Y-48895048D01*
X199117029Y-48622493D01*
X198969524Y-48367006D01*
X198812305Y-48162115D01*
X198789933Y-48132959D01*
X198789927Y-48132952D01*
X198581333Y-47924358D01*
X198581326Y-47924352D01*
X198347279Y-47744761D01*
X198091796Y-47597258D01*
X198091786Y-47597254D01*
X197819247Y-47484364D01*
X197819240Y-47484362D01*
X197819238Y-47484361D01*
X197534279Y-47408007D01*
X197485399Y-47401571D01*
X197241799Y-47369500D01*
X197241792Y-47369500D01*
X196946780Y-47369500D01*
X196946772Y-47369500D01*
X196668371Y-47406153D01*
X196654293Y-47408007D01*
X196369334Y-47484361D01*
X196369324Y-47484364D01*
X196096785Y-47597254D01*
X196096775Y-47597258D01*
X195841292Y-47744761D01*
X195607245Y-47924352D01*
X195607238Y-47924358D01*
X195398644Y-48132952D01*
X195398638Y-48132959D01*
X195219047Y-48367006D01*
X195071544Y-48622489D01*
X195071540Y-48622499D01*
X194958650Y-48895038D01*
X194958647Y-48895048D01*
X194900227Y-49113078D01*
X194882294Y-49180004D01*
X194882292Y-49180015D01*
X194843786Y-49472486D01*
X194843786Y-50645500D01*
X194824101Y-50712539D01*
X194771297Y-50758294D01*
X194719786Y-50769500D01*
X189308786Y-50769500D01*
X189241747Y-50749815D01*
X189195992Y-50697011D01*
X189184786Y-50645500D01*
X189184786Y-49472500D01*
X189184785Y-49472486D01*
X189171087Y-49368443D01*
X189146279Y-49180007D01*
X189069925Y-48895048D01*
X188957029Y-48622493D01*
X188809524Y-48367006D01*
X188652305Y-48162115D01*
X188629933Y-48132959D01*
X188629927Y-48132952D01*
X188421333Y-47924358D01*
X188421326Y-47924352D01*
X188187279Y-47744761D01*
X187931796Y-47597258D01*
X187931786Y-47597254D01*
X187659247Y-47484364D01*
X187659240Y-47484362D01*
X187659238Y-47484361D01*
X187374279Y-47408007D01*
X187325399Y-47401571D01*
X187081799Y-47369500D01*
X187081792Y-47369500D01*
X186786780Y-47369500D01*
X186786772Y-47369500D01*
X186508371Y-47406153D01*
X186494293Y-47408007D01*
X186209334Y-47484361D01*
X186209324Y-47484364D01*
X185936785Y-47597254D01*
X185936775Y-47597258D01*
X185681292Y-47744761D01*
X185447245Y-47924352D01*
X185447238Y-47924358D01*
X185238644Y-48132952D01*
X185238638Y-48132959D01*
X185059047Y-48367006D01*
X184911544Y-48622489D01*
X184911540Y-48622499D01*
X184798650Y-48895038D01*
X184798647Y-48895048D01*
X184740227Y-49113078D01*
X184722294Y-49180004D01*
X184722292Y-49180015D01*
X184683786Y-49472486D01*
X184683786Y-53267513D01*
X184701557Y-53402490D01*
X184722293Y-53559993D01*
X184722294Y-53559995D01*
X184798647Y-53844951D01*
X184798650Y-53844961D01*
X184911540Y-54117500D01*
X184911544Y-54117510D01*
X185059047Y-54372993D01*
X185238638Y-54607040D01*
X185238644Y-54607047D01*
X185447238Y-54815641D01*
X185447245Y-54815647D01*
X185681292Y-54995238D01*
X185936775Y-55142741D01*
X185936776Y-55142741D01*
X185936779Y-55142743D01*
X186085852Y-55204491D01*
X186203928Y-55253400D01*
X186209334Y-55255639D01*
X186494293Y-55331993D01*
X186786780Y-55370500D01*
X186786787Y-55370500D01*
X187081785Y-55370500D01*
X187081792Y-55370500D01*
X187374279Y-55331993D01*
X187659238Y-55255639D01*
X187722109Y-55229596D01*
X187791574Y-55222127D01*
X187854054Y-55253400D01*
X187857241Y-55256476D01*
X188174252Y-55573487D01*
X188207737Y-55634810D01*
X188204996Y-55690258D01*
X188206947Y-55690727D01*
X188205807Y-55695472D01*
X188188078Y-55807413D01*
X188173786Y-55897648D01*
X188173786Y-57002352D01*
X188176190Y-57017527D01*
X188205808Y-57204534D01*
X188269067Y-57399223D01*
X188332977Y-57524653D01*
X188355429Y-57568716D01*
X188362001Y-57581613D01*
X188482314Y-57747213D01*
X188627072Y-57891971D01*
X188774465Y-57999056D01*
X188792676Y-58012287D01*
X188891346Y-58062562D01*
X188975062Y-58105218D01*
X188975064Y-58105218D01*
X188975067Y-58105220D01*
X189050104Y-58129601D01*
X189169751Y-58168477D01*
X189270843Y-58184488D01*
X189371934Y-58200500D01*
X189371935Y-58200500D01*
X189576637Y-58200500D01*
X189576638Y-58200500D01*
X189778820Y-58168477D01*
X189973505Y-58105220D01*
X190155896Y-58012287D01*
X190248876Y-57944732D01*
X190321499Y-57891971D01*
X190321501Y-57891968D01*
X190321505Y-57891966D01*
X190466252Y-57747219D01*
X190466254Y-57747215D01*
X190466257Y-57747213D01*
X190586570Y-57581614D01*
X190586571Y-57581613D01*
X190586573Y-57581610D01*
X190633802Y-57488917D01*
X190681775Y-57438123D01*
X190749596Y-57421328D01*
X190815731Y-57443865D01*
X190854769Y-57488917D01*
X190895429Y-57568715D01*
X190902001Y-57581614D01*
X191022314Y-57747213D01*
X191167072Y-57891971D01*
X191314465Y-57999056D01*
X191332676Y-58012287D01*
X191431346Y-58062562D01*
X191515062Y-58105218D01*
X191515064Y-58105218D01*
X191515067Y-58105220D01*
X191590104Y-58129601D01*
X191709751Y-58168477D01*
X191810843Y-58184488D01*
X191911934Y-58200500D01*
X191911935Y-58200500D01*
X192116637Y-58200500D01*
X192116638Y-58200500D01*
X192318820Y-58168477D01*
X192513505Y-58105220D01*
X192636453Y-58042574D01*
X192705120Y-58029678D01*
X192769861Y-58055954D01*
X192780428Y-58065378D01*
X195095570Y-60380520D01*
X195232501Y-60459577D01*
X195385229Y-60500501D01*
X195385232Y-60500501D01*
X195550940Y-60500501D01*
X195550956Y-60500500D01*
X227611266Y-60500500D01*
X227678305Y-60520185D01*
X227721751Y-60568208D01*
X227723520Y-60571679D01*
X227842088Y-60734874D01*
X227984726Y-60877512D01*
X228147921Y-60996080D01*
X228327655Y-61087659D01*
X228327657Y-61087660D01*
X228519502Y-61149994D01*
X228567062Y-61157527D01*
X228630197Y-61187457D01*
X228667128Y-61246768D01*
X228666130Y-61316631D01*
X228627520Y-61374863D01*
X228567062Y-61402473D01*
X228519502Y-61410005D01*
X228327657Y-61472339D01*
X228147920Y-61563920D01*
X227984723Y-61682490D01*
X227842090Y-61825123D01*
X227723520Y-61988320D01*
X227631939Y-62168057D01*
X227569606Y-62359901D01*
X227538050Y-62559134D01*
X227538050Y-62760865D01*
X227559311Y-62895102D01*
X227550356Y-62964396D01*
X227505360Y-63017848D01*
X227438609Y-63038487D01*
X227436838Y-63038500D01*
X177056197Y-63038500D01*
X176989158Y-63018815D01*
X176968516Y-63002181D01*
X174066390Y-60100055D01*
X174032905Y-60038732D01*
X174030071Y-60012374D01*
X174030071Y-58356145D01*
X174049756Y-58289106D01*
X174066386Y-58268468D01*
X174488077Y-57846776D01*
X174488082Y-57846773D01*
X174498285Y-57836569D01*
X174498287Y-57836569D01*
X174610091Y-57724765D01*
X174689148Y-57587833D01*
X174719105Y-57476030D01*
X174730071Y-57435107D01*
X174730071Y-57276992D01*
X174730071Y-55649096D01*
X174749756Y-55582057D01*
X174766385Y-55561420D01*
X176017120Y-54310684D01*
X176078441Y-54277201D01*
X176148133Y-54282185D01*
X176204066Y-54324057D01*
X176212185Y-54336365D01*
X176233333Y-54372994D01*
X176233334Y-54372995D01*
X176233336Y-54372998D01*
X176412923Y-54607040D01*
X176412929Y-54607047D01*
X176621523Y-54815641D01*
X176621530Y-54815647D01*
X176855577Y-54995238D01*
X177111060Y-55142741D01*
X177111061Y-55142741D01*
X177111064Y-55142743D01*
X177260137Y-55204491D01*
X177378213Y-55253400D01*
X177383619Y-55255639D01*
X177668578Y-55331993D01*
X177961065Y-55370500D01*
X177961072Y-55370500D01*
X178256070Y-55370500D01*
X178256077Y-55370500D01*
X178548564Y-55331993D01*
X178833523Y-55255639D01*
X179106078Y-55142743D01*
X179361565Y-54995238D01*
X179595613Y-54815646D01*
X179804217Y-54607042D01*
X179983809Y-54372994D01*
X180131314Y-54117507D01*
X180244210Y-53844952D01*
X180320564Y-53559993D01*
X180359071Y-53267506D01*
X180359071Y-49472494D01*
X180320564Y-49180007D01*
X180244210Y-48895048D01*
X180131314Y-48622493D01*
X179983809Y-48367006D01*
X179826590Y-48162115D01*
X179804218Y-48132959D01*
X179804212Y-48132952D01*
X179595618Y-47924358D01*
X179595611Y-47924352D01*
X179361564Y-47744761D01*
X179106081Y-47597258D01*
X179106071Y-47597254D01*
X178833532Y-47484364D01*
X178833525Y-47484362D01*
X178833523Y-47484361D01*
X178548564Y-47408007D01*
X178499684Y-47401571D01*
X178256084Y-47369500D01*
X178256077Y-47369500D01*
X177961065Y-47369500D01*
X177961057Y-47369500D01*
X177682656Y-47406153D01*
X177668578Y-47408007D01*
X177383619Y-47484361D01*
X177383609Y-47484364D01*
X177111070Y-47597254D01*
X177111060Y-47597258D01*
X176855577Y-47744761D01*
X176621530Y-47924352D01*
X176621523Y-47924358D01*
X176412929Y-48132952D01*
X176412923Y-48132959D01*
X176233332Y-48367006D01*
X176085829Y-48622489D01*
X176085825Y-48622499D01*
X175972935Y-48895038D01*
X175972932Y-48895048D01*
X175914512Y-49113078D01*
X175896579Y-49180004D01*
X175896577Y-49180015D01*
X175858071Y-49472486D01*
X175858071Y-50645500D01*
X175838386Y-50712539D01*
X175785582Y-50758294D01*
X175734071Y-50769500D01*
X170323071Y-50769500D01*
X170256032Y-50749815D01*
X170210277Y-50697011D01*
X170199071Y-50645500D01*
X170199071Y-49472500D01*
X170199070Y-49472486D01*
X170185372Y-49368443D01*
X170160564Y-49180007D01*
X170084210Y-48895048D01*
X169971314Y-48622493D01*
X169823809Y-48367006D01*
X169666590Y-48162115D01*
X169644218Y-48132959D01*
X169644212Y-48132952D01*
X169435618Y-47924358D01*
X169435611Y-47924352D01*
X169201564Y-47744761D01*
X168946081Y-47597258D01*
X168946071Y-47597254D01*
X168673532Y-47484364D01*
X168673525Y-47484362D01*
X168673523Y-47484361D01*
X168388564Y-47408007D01*
X168339684Y-47401571D01*
X168096084Y-47369500D01*
X168096077Y-47369500D01*
X167801065Y-47369500D01*
X167801057Y-47369500D01*
X167522656Y-47406153D01*
X167508578Y-47408007D01*
X167223619Y-47484361D01*
X167223609Y-47484364D01*
X166951070Y-47597254D01*
X166951060Y-47597258D01*
X166695577Y-47744761D01*
X166461530Y-47924352D01*
X166461523Y-47924358D01*
X166252929Y-48132952D01*
X166252923Y-48132959D01*
X166073332Y-48367006D01*
X165925829Y-48622489D01*
X165925825Y-48622499D01*
X165812935Y-48895038D01*
X165812932Y-48895048D01*
X165754512Y-49113078D01*
X165736579Y-49180004D01*
X165736577Y-49180015D01*
X165698071Y-49472486D01*
X165698071Y-53267513D01*
X165715842Y-53402490D01*
X165736578Y-53559993D01*
X165736579Y-53559995D01*
X165812932Y-53844951D01*
X165812935Y-53844961D01*
X165925825Y-54117500D01*
X165925829Y-54117510D01*
X166073332Y-54372993D01*
X166252923Y-54607040D01*
X166252929Y-54607047D01*
X166461523Y-54815641D01*
X166461530Y-54815647D01*
X166695577Y-54995238D01*
X166951060Y-55142741D01*
X166951061Y-55142741D01*
X166951064Y-55142743D01*
X167100137Y-55204491D01*
X167218213Y-55253400D01*
X167223619Y-55255639D01*
X167508578Y-55331993D01*
X167801065Y-55370500D01*
X167801072Y-55370500D01*
X168096070Y-55370500D01*
X168096077Y-55370500D01*
X168388564Y-55331993D01*
X168673523Y-55255639D01*
X168797006Y-55204490D01*
X168866470Y-55197022D01*
X168928950Y-55228296D01*
X168932136Y-55231371D01*
X169209557Y-55508792D01*
X169243042Y-55570115D01*
X169239808Y-55634789D01*
X169220093Y-55695466D01*
X169202363Y-55807413D01*
X169188071Y-55897648D01*
X169188071Y-57002352D01*
X169190475Y-57017527D01*
X169220093Y-57204534D01*
X169283352Y-57399223D01*
X169347262Y-57524653D01*
X169369714Y-57568716D01*
X169376286Y-57581613D01*
X169496599Y-57747213D01*
X169641357Y-57891971D01*
X169788750Y-57999056D01*
X169806961Y-58012287D01*
X169905631Y-58062562D01*
X169989347Y-58105218D01*
X169989349Y-58105218D01*
X169989352Y-58105220D01*
X170064389Y-58129601D01*
X170184036Y-58168477D01*
X170285128Y-58184488D01*
X170386219Y-58200500D01*
X170386220Y-58200500D01*
X170590922Y-58200500D01*
X170590923Y-58200500D01*
X170793105Y-58168477D01*
X170987790Y-58105220D01*
X171170181Y-58012287D01*
X171263161Y-57944732D01*
X171335784Y-57891971D01*
X171335786Y-57891968D01*
X171335790Y-57891966D01*
X171480537Y-57747219D01*
X171480539Y-57747215D01*
X171480542Y-57747213D01*
X171600855Y-57581614D01*
X171600856Y-57581613D01*
X171600858Y-57581610D01*
X171648087Y-57488917D01*
X171696060Y-57438123D01*
X171763881Y-57421328D01*
X171830016Y-57443865D01*
X171869054Y-57488917D01*
X171909714Y-57568715D01*
X171916286Y-57581614D01*
X172036599Y-57747213D01*
X172036605Y-57747219D01*
X172181352Y-57891966D01*
X172346961Y-58012287D01*
X172360364Y-58019116D01*
X172411160Y-58067088D01*
X172428071Y-58129601D01*
X172428071Y-60391901D01*
X172428070Y-60391919D01*
X172428070Y-60557625D01*
X172428069Y-60557625D01*
X172428070Y-60557628D01*
X172468994Y-60710356D01*
X172468995Y-60710358D01*
X172468994Y-60710358D01*
X172483150Y-60734875D01*
X172483152Y-60734877D01*
X172548050Y-60847285D01*
X172548052Y-60847288D01*
X172666920Y-60966156D01*
X172666926Y-60966161D01*
X176105139Y-64404374D01*
X176105149Y-64404385D01*
X176109479Y-64408715D01*
X176109480Y-64408716D01*
X176221284Y-64520520D01*
X176308095Y-64570639D01*
X176308097Y-64570641D01*
X176358213Y-64599576D01*
X176358215Y-64599577D01*
X176510942Y-64640500D01*
X176510943Y-64640500D01*
X227576108Y-64640500D01*
X227643147Y-64660185D01*
X227688902Y-64712989D01*
X227698846Y-64782147D01*
X227686593Y-64820795D01*
X227631939Y-64928057D01*
X227569606Y-65119901D01*
X227538050Y-65319134D01*
X227538050Y-65520865D01*
X227569606Y-65720098D01*
X227631939Y-65911942D01*
X227687476Y-66020939D01*
X227723520Y-66091679D01*
X227842088Y-66254874D01*
X227984726Y-66397512D01*
X228005046Y-66412275D01*
X228047710Y-66467604D01*
X228053689Y-66537217D01*
X228021083Y-66599012D01*
X228019840Y-66600273D01*
X227477934Y-67142181D01*
X227416611Y-67175666D01*
X227390253Y-67178500D01*
X158996198Y-67178500D01*
X158929159Y-67158815D01*
X158908517Y-67142181D01*
X155080676Y-63314340D01*
X155047191Y-63253017D01*
X155044357Y-63226659D01*
X155044357Y-58706239D01*
X155064042Y-58639200D01*
X155080671Y-58618563D01*
X158383318Y-55315915D01*
X158444639Y-55282432D01*
X158503090Y-55283823D01*
X158529708Y-55290955D01*
X158682864Y-55331993D01*
X158975351Y-55370500D01*
X158975358Y-55370500D01*
X159270356Y-55370500D01*
X159270363Y-55370500D01*
X159562850Y-55331993D01*
X159847809Y-55255639D01*
X160120364Y-55142743D01*
X160375851Y-54995238D01*
X160609899Y-54815646D01*
X160818503Y-54607042D01*
X160998095Y-54372994D01*
X161145600Y-54117507D01*
X161258496Y-53844952D01*
X161334850Y-53559993D01*
X161373357Y-53267506D01*
X161373357Y-49472494D01*
X161334850Y-49180007D01*
X161258496Y-48895048D01*
X161145600Y-48622493D01*
X160998095Y-48367006D01*
X160840876Y-48162115D01*
X160818504Y-48132959D01*
X160818498Y-48132952D01*
X160609904Y-47924358D01*
X160609897Y-47924352D01*
X160375850Y-47744761D01*
X160120367Y-47597258D01*
X160120357Y-47597254D01*
X159847818Y-47484364D01*
X159847811Y-47484362D01*
X159847809Y-47484361D01*
X159562850Y-47408007D01*
X159513970Y-47401571D01*
X159270370Y-47369500D01*
X159270363Y-47369500D01*
X158975351Y-47369500D01*
X158975343Y-47369500D01*
X158696942Y-47406153D01*
X158682864Y-47408007D01*
X158397905Y-47484361D01*
X158397895Y-47484364D01*
X158125356Y-47597254D01*
X158125346Y-47597258D01*
X157869863Y-47744761D01*
X157635816Y-47924352D01*
X157635809Y-47924358D01*
X157427215Y-48132952D01*
X157427209Y-48132959D01*
X157247618Y-48367006D01*
X157100115Y-48622489D01*
X157100111Y-48622499D01*
X156987221Y-48895038D01*
X156987218Y-48895048D01*
X156928798Y-49113078D01*
X156910865Y-49180004D01*
X156910863Y-49180015D01*
X156872357Y-49472486D01*
X156872357Y-50645500D01*
X156852672Y-50712539D01*
X156799868Y-50758294D01*
X156748357Y-50769500D01*
X151337357Y-50769500D01*
X151270318Y-50749815D01*
X151224563Y-50697011D01*
X151213357Y-50645500D01*
X151213357Y-49472500D01*
X151213356Y-49472486D01*
X151199658Y-49368443D01*
X151174850Y-49180007D01*
X151098496Y-48895048D01*
X150985600Y-48622493D01*
X150838095Y-48367006D01*
X150680876Y-48162115D01*
X150658504Y-48132959D01*
X150658498Y-48132952D01*
X150449904Y-47924358D01*
X150449897Y-47924352D01*
X150215850Y-47744761D01*
X149960367Y-47597258D01*
X149960357Y-47597254D01*
X149687818Y-47484364D01*
X149687811Y-47484362D01*
X149687809Y-47484361D01*
X149402850Y-47408007D01*
X149353970Y-47401571D01*
X149110370Y-47369500D01*
X149110363Y-47369500D01*
X148815351Y-47369500D01*
X148815343Y-47369500D01*
X148536942Y-47406153D01*
X148522864Y-47408007D01*
X148237905Y-47484361D01*
X148237895Y-47484364D01*
X147965356Y-47597254D01*
X147965346Y-47597258D01*
X147709863Y-47744761D01*
X147475816Y-47924352D01*
X147475809Y-47924358D01*
X147267215Y-48132952D01*
X147267209Y-48132959D01*
X147087618Y-48367006D01*
X146940115Y-48622489D01*
X146940111Y-48622499D01*
X146827221Y-48895038D01*
X146827218Y-48895048D01*
X146768798Y-49113078D01*
X146750865Y-49180004D01*
X146750863Y-49180015D01*
X146712357Y-49472486D01*
X146712357Y-53267513D01*
X146730128Y-53402490D01*
X146750864Y-53559993D01*
X146750865Y-53559995D01*
X146827218Y-53844951D01*
X146827221Y-53844961D01*
X146940111Y-54117500D01*
X146940115Y-54117510D01*
X147087618Y-54372993D01*
X147267209Y-54607040D01*
X147267215Y-54607047D01*
X147475809Y-54815641D01*
X147475816Y-54815647D01*
X147709863Y-54995238D01*
X147965346Y-55142741D01*
X147965347Y-55142741D01*
X147965350Y-55142743D01*
X148114423Y-55204491D01*
X148232499Y-55253400D01*
X148237905Y-55255639D01*
X148522864Y-55331993D01*
X148815351Y-55370500D01*
X148815358Y-55370500D01*
X149110356Y-55370500D01*
X149110363Y-55370500D01*
X149402850Y-55331993D01*
X149687809Y-55255639D01*
X149836542Y-55194030D01*
X149906011Y-55186562D01*
X149968491Y-55217837D01*
X149971676Y-55220911D01*
X150232602Y-55481837D01*
X150266087Y-55543160D01*
X150262852Y-55607836D01*
X150234380Y-55695464D01*
X150224574Y-55757378D01*
X150202357Y-55897648D01*
X150202357Y-57002352D01*
X150204761Y-57017527D01*
X150234379Y-57204534D01*
X150297638Y-57399223D01*
X150361548Y-57524653D01*
X150384000Y-57568716D01*
X150390572Y-57581613D01*
X150510885Y-57747213D01*
X150655643Y-57891971D01*
X150803036Y-57999056D01*
X150821247Y-58012287D01*
X150919917Y-58062562D01*
X151003633Y-58105218D01*
X151003635Y-58105218D01*
X151003638Y-58105220D01*
X151078675Y-58129601D01*
X151198322Y-58168477D01*
X151299414Y-58184488D01*
X151400505Y-58200500D01*
X151400506Y-58200500D01*
X151605208Y-58200500D01*
X151605209Y-58200500D01*
X151807391Y-58168477D01*
X152002076Y-58105220D01*
X152184467Y-58012287D01*
X152277447Y-57944732D01*
X152350070Y-57891971D01*
X152350072Y-57891968D01*
X152350076Y-57891966D01*
X152494823Y-57747219D01*
X152494825Y-57747215D01*
X152494828Y-57747213D01*
X152615141Y-57581614D01*
X152615142Y-57581613D01*
X152615144Y-57581610D01*
X152662373Y-57488917D01*
X152710346Y-57438123D01*
X152778167Y-57421328D01*
X152844302Y-57443865D01*
X152883340Y-57488917D01*
X152924000Y-57568715D01*
X152930572Y-57581614D01*
X153050885Y-57747213D01*
X153050891Y-57747219D01*
X153195638Y-57891966D01*
X153361247Y-58012287D01*
X153374650Y-58019116D01*
X153425446Y-58067088D01*
X153442357Y-58129601D01*
X153442357Y-63606187D01*
X153442356Y-63606205D01*
X153442356Y-63771911D01*
X153442355Y-63771911D01*
X153483280Y-63924643D01*
X153487317Y-63931634D01*
X153491647Y-63939133D01*
X153491649Y-63939142D01*
X153491652Y-63939141D01*
X153562336Y-64061571D01*
X153562338Y-64061574D01*
X153681206Y-64180442D01*
X153681212Y-64180447D01*
X158045139Y-68544374D01*
X158045149Y-68544385D01*
X158049479Y-68548715D01*
X158049480Y-68548716D01*
X158161284Y-68660520D01*
X158161286Y-68660521D01*
X158161290Y-68660524D01*
X158273186Y-68725126D01*
X158298216Y-68739577D01*
X158399747Y-68766782D01*
X158450942Y-68780500D01*
X158450943Y-68780500D01*
X227611266Y-68780500D01*
X227678305Y-68800185D01*
X227721751Y-68848208D01*
X227723520Y-68851679D01*
X227842088Y-69014874D01*
X227984726Y-69157512D01*
X228147921Y-69276080D01*
X228327655Y-69367659D01*
X228327657Y-69367660D01*
X228519502Y-69429994D01*
X228567062Y-69437527D01*
X228630197Y-69467457D01*
X228667128Y-69526768D01*
X228666130Y-69596631D01*
X228627520Y-69654863D01*
X228567062Y-69682473D01*
X228519502Y-69690005D01*
X228327657Y-69752339D01*
X228147920Y-69843920D01*
X227984723Y-69962490D01*
X227842090Y-70105123D01*
X227723520Y-70268320D01*
X227631939Y-70448057D01*
X227569606Y-70639901D01*
X227538050Y-70839134D01*
X227538050Y-71040865D01*
X227569606Y-71240098D01*
X227631939Y-71431942D01*
X227706285Y-71577853D01*
X227723520Y-71611679D01*
X227842088Y-71774874D01*
X227984726Y-71917512D01*
X228005046Y-71932275D01*
X228047710Y-71987604D01*
X228053689Y-72057217D01*
X228021083Y-72119012D01*
X228019840Y-72120273D01*
X227477934Y-72662181D01*
X227416611Y-72695666D01*
X227390253Y-72698500D01*
X143166198Y-72698500D01*
X143099159Y-72678815D01*
X143078517Y-72662181D01*
X136136819Y-65720483D01*
X136103334Y-65659160D01*
X136100500Y-65632802D01*
X136100500Y-59100096D01*
X136120185Y-59033057D01*
X136136815Y-59012419D01*
X136958506Y-58190727D01*
X136958511Y-58190724D01*
X136968714Y-58180520D01*
X136968716Y-58180520D01*
X137080520Y-58068716D01*
X137134699Y-57974874D01*
X137159577Y-57931785D01*
X137200501Y-57779057D01*
X137200501Y-57620943D01*
X137200501Y-57613348D01*
X137200500Y-57613330D01*
X137200500Y-56700096D01*
X137220185Y-56633057D01*
X137236814Y-56612420D01*
X138797754Y-55051479D01*
X138859075Y-55017996D01*
X138928767Y-55022980D01*
X138947433Y-55031775D01*
X139139632Y-55142741D01*
X139139633Y-55142741D01*
X139139636Y-55142743D01*
X139288709Y-55204491D01*
X139406785Y-55253400D01*
X139412191Y-55255639D01*
X139697150Y-55331993D01*
X139989637Y-55370500D01*
X139989644Y-55370500D01*
X140284642Y-55370500D01*
X140284649Y-55370500D01*
X140577136Y-55331993D01*
X140862095Y-55255639D01*
X141134650Y-55142743D01*
X141390137Y-54995238D01*
X141624185Y-54815646D01*
X141832789Y-54607042D01*
X142012381Y-54372994D01*
X142159886Y-54117507D01*
X142272782Y-53844952D01*
X142349136Y-53559993D01*
X142387643Y-53267506D01*
X142387643Y-49472494D01*
X142349136Y-49180007D01*
X142272782Y-48895048D01*
X142159886Y-48622493D01*
X142012381Y-48367006D01*
X141855162Y-48162115D01*
X141832790Y-48132959D01*
X141832784Y-48132952D01*
X141624190Y-47924358D01*
X141624183Y-47924352D01*
X141390136Y-47744761D01*
X141134653Y-47597258D01*
X141134643Y-47597254D01*
X140862104Y-47484364D01*
X140862097Y-47484362D01*
X140862095Y-47484361D01*
X140577136Y-47408007D01*
X140528256Y-47401571D01*
X140284656Y-47369500D01*
X140284649Y-47369500D01*
X139989637Y-47369500D01*
X139989629Y-47369500D01*
X139711228Y-47406153D01*
X139697150Y-47408007D01*
X139412191Y-47484361D01*
X139412181Y-47484364D01*
X139139642Y-47597254D01*
X139139632Y-47597258D01*
X138884149Y-47744761D01*
X138650102Y-47924352D01*
X138650095Y-47924358D01*
X138441501Y-48132952D01*
X138441495Y-48132959D01*
X138261904Y-48367006D01*
X138114401Y-48622489D01*
X138114397Y-48622499D01*
X138001507Y-48895038D01*
X138001504Y-48895048D01*
X137943084Y-49113078D01*
X137925151Y-49180004D01*
X137925149Y-49180015D01*
X137886643Y-49472486D01*
X137886643Y-50645500D01*
X137866958Y-50712539D01*
X137814154Y-50758294D01*
X137762643Y-50769500D01*
X132351643Y-50769500D01*
X132284604Y-50749815D01*
X132238849Y-50697011D01*
X132227643Y-50645500D01*
X132227643Y-49472500D01*
X132227642Y-49472486D01*
X132213944Y-49368443D01*
X132189136Y-49180007D01*
X132112782Y-48895048D01*
X131999886Y-48622493D01*
X131852381Y-48367006D01*
X131695162Y-48162115D01*
X131672790Y-48132959D01*
X131672784Y-48132952D01*
X131464190Y-47924358D01*
X131464183Y-47924352D01*
X131230136Y-47744761D01*
X130974653Y-47597258D01*
X130974643Y-47597254D01*
X130702104Y-47484364D01*
X130702097Y-47484362D01*
X130702095Y-47484361D01*
X130417136Y-47408007D01*
X130368256Y-47401571D01*
X130124656Y-47369500D01*
X130124649Y-47369500D01*
X129829637Y-47369500D01*
X129829629Y-47369500D01*
X129551228Y-47406153D01*
X129537150Y-47408007D01*
X129252191Y-47484361D01*
X129252181Y-47484364D01*
X128979642Y-47597254D01*
X128979632Y-47597258D01*
X128724149Y-47744761D01*
X128490102Y-47924352D01*
X128490095Y-47924358D01*
X128281501Y-48132952D01*
X128281495Y-48132959D01*
X128101904Y-48367006D01*
X127954401Y-48622489D01*
X127954397Y-48622499D01*
X127841507Y-48895038D01*
X127841504Y-48895048D01*
X127783084Y-49113078D01*
X127765151Y-49180004D01*
X127765149Y-49180015D01*
X127726643Y-49472486D01*
X127726643Y-53267513D01*
X127744414Y-53402490D01*
X127765150Y-53559993D01*
X127765151Y-53559995D01*
X127841504Y-53844951D01*
X127841507Y-53844961D01*
X127954397Y-54117500D01*
X127954401Y-54117510D01*
X128101904Y-54372993D01*
X128281495Y-54607040D01*
X128281501Y-54607047D01*
X128490095Y-54815641D01*
X128490102Y-54815647D01*
X128724149Y-54995238D01*
X128979632Y-55142741D01*
X128979633Y-55142741D01*
X128979636Y-55142743D01*
X129128709Y-55204491D01*
X129246785Y-55253400D01*
X129252191Y-55255639D01*
X129537150Y-55331993D01*
X129829637Y-55370500D01*
X129829644Y-55370500D01*
X130124642Y-55370500D01*
X130124649Y-55370500D01*
X130417136Y-55331993D01*
X130675779Y-55262690D01*
X130745624Y-55264353D01*
X130795549Y-55294784D01*
X131196820Y-55696055D01*
X131230305Y-55757378D01*
X131231612Y-55803134D01*
X131216643Y-55897642D01*
X131216643Y-55897648D01*
X131216643Y-57002352D01*
X131219047Y-57017527D01*
X131248665Y-57204534D01*
X131311924Y-57399223D01*
X131375834Y-57524653D01*
X131398286Y-57568716D01*
X131404858Y-57581613D01*
X131525171Y-57747213D01*
X131669929Y-57891971D01*
X131817322Y-57999056D01*
X131835533Y-58012287D01*
X131934203Y-58062562D01*
X132017919Y-58105218D01*
X132017921Y-58105218D01*
X132017924Y-58105220D01*
X132092961Y-58129601D01*
X132212608Y-58168477D01*
X132313700Y-58184488D01*
X132414791Y-58200500D01*
X132414792Y-58200500D01*
X132619494Y-58200500D01*
X132619495Y-58200500D01*
X132821677Y-58168477D01*
X133016362Y-58105220D01*
X133198753Y-58012287D01*
X133291733Y-57944732D01*
X133364356Y-57891971D01*
X133364358Y-57891968D01*
X133364362Y-57891966D01*
X133509109Y-57747219D01*
X133509111Y-57747215D01*
X133509114Y-57747213D01*
X133629427Y-57581614D01*
X133629428Y-57581613D01*
X133629430Y-57581610D01*
X133676659Y-57488917D01*
X133724632Y-57438123D01*
X133792453Y-57421328D01*
X133858588Y-57443865D01*
X133897626Y-57488917D01*
X133938286Y-57568715D01*
X133944858Y-57581614D01*
X134065171Y-57747213D01*
X134209929Y-57891971D01*
X134357322Y-57999056D01*
X134375533Y-58012287D01*
X134431794Y-58040953D01*
X134482591Y-58088927D01*
X134499500Y-58151438D01*
X134499500Y-66013330D01*
X134499499Y-66013348D01*
X134499499Y-66179054D01*
X134499498Y-66179054D01*
X134540423Y-66331785D01*
X134569358Y-66381900D01*
X134569359Y-66381904D01*
X134569360Y-66381904D01*
X134619479Y-66468714D01*
X134619481Y-66468717D01*
X134738349Y-66587585D01*
X134738355Y-66587590D01*
X142215139Y-74064374D01*
X142215149Y-74064385D01*
X142219479Y-74068715D01*
X142219480Y-74068716D01*
X142331284Y-74180520D01*
X142418095Y-74230639D01*
X142418097Y-74230641D01*
X142443186Y-74245126D01*
X142468215Y-74259577D01*
X142620943Y-74300500D01*
X227611266Y-74300500D01*
X227678305Y-74320185D01*
X227721751Y-74368208D01*
X227723520Y-74371679D01*
X227842088Y-74534874D01*
X227984726Y-74677512D01*
X228147921Y-74796080D01*
X228327655Y-74887659D01*
X228327657Y-74887660D01*
X228519502Y-74949994D01*
X228567062Y-74957527D01*
X228630197Y-74987457D01*
X228667128Y-75046768D01*
X228666130Y-75116631D01*
X228627520Y-75174863D01*
X228567062Y-75202473D01*
X228519502Y-75210005D01*
X228327657Y-75272339D01*
X228147920Y-75363920D01*
X227984723Y-75482490D01*
X227842090Y-75625123D01*
X227723520Y-75788320D01*
X227631939Y-75968057D01*
X227569606Y-76159901D01*
X227538050Y-76359134D01*
X227538050Y-76560865D01*
X227569606Y-76760098D01*
X227631939Y-76951942D01*
X227706285Y-77097853D01*
X227723520Y-77131679D01*
X227842088Y-77294874D01*
X227984726Y-77437512D01*
X228005046Y-77452275D01*
X228047710Y-77507604D01*
X228053689Y-77577217D01*
X228021083Y-77639012D01*
X228019840Y-77640273D01*
X227487584Y-78172531D01*
X227426261Y-78206016D01*
X227399903Y-78208850D01*
X121776547Y-78208850D01*
X121709508Y-78189165D01*
X121688866Y-78172531D01*
X116836819Y-73320484D01*
X116803334Y-73259161D01*
X116800500Y-73232803D01*
X116800500Y-59100096D01*
X116820185Y-59033057D01*
X116836814Y-59012420D01*
X120507658Y-55341575D01*
X120568979Y-55308092D01*
X120627426Y-55309482D01*
X120711436Y-55331993D01*
X121003923Y-55370500D01*
X121003930Y-55370500D01*
X121298928Y-55370500D01*
X121298935Y-55370500D01*
X121591422Y-55331993D01*
X121876381Y-55255639D01*
X122148936Y-55142743D01*
X122404423Y-54995238D01*
X122638471Y-54815646D01*
X122847075Y-54607042D01*
X123026667Y-54372994D01*
X123174172Y-54117507D01*
X123287068Y-53844952D01*
X123363422Y-53559993D01*
X123401929Y-53267506D01*
X123401929Y-49472494D01*
X123363422Y-49180007D01*
X123287068Y-48895048D01*
X123174172Y-48622493D01*
X123026667Y-48367006D01*
X122869448Y-48162115D01*
X122847076Y-48132959D01*
X122847070Y-48132952D01*
X122638476Y-47924358D01*
X122638469Y-47924352D01*
X122404422Y-47744761D01*
X122148939Y-47597258D01*
X122148929Y-47597254D01*
X121876390Y-47484364D01*
X121876383Y-47484362D01*
X121876381Y-47484361D01*
X121591422Y-47408007D01*
X121542542Y-47401571D01*
X121298942Y-47369500D01*
X121298935Y-47369500D01*
X121003923Y-47369500D01*
X121003915Y-47369500D01*
X120725514Y-47406153D01*
X120711436Y-47408007D01*
X120426477Y-47484361D01*
X120426467Y-47484364D01*
X120153928Y-47597254D01*
X120153918Y-47597258D01*
X119898435Y-47744761D01*
X119664388Y-47924352D01*
X119664381Y-47924358D01*
X119455787Y-48132952D01*
X119455781Y-48132959D01*
X119276190Y-48367006D01*
X119128687Y-48622489D01*
X119128683Y-48622499D01*
X119015793Y-48895038D01*
X119015790Y-48895048D01*
X118957370Y-49113078D01*
X118939437Y-49180004D01*
X118939435Y-49180015D01*
X118900929Y-49472486D01*
X118900929Y-50275500D01*
X118881244Y-50342539D01*
X118828440Y-50388294D01*
X118776929Y-50399500D01*
X113365929Y-50399500D01*
X113298890Y-50379815D01*
X113253135Y-50327011D01*
X113241929Y-50275500D01*
X113241929Y-49472500D01*
X113241928Y-49472486D01*
X113228230Y-49368443D01*
X113203422Y-49180007D01*
X113127068Y-48895048D01*
X113014172Y-48622493D01*
X112866667Y-48367006D01*
X112709448Y-48162115D01*
X112687076Y-48132959D01*
X112687070Y-48132952D01*
X112478476Y-47924358D01*
X112478469Y-47924352D01*
X112244422Y-47744761D01*
X111988939Y-47597258D01*
X111988929Y-47597254D01*
X111716390Y-47484364D01*
X111716383Y-47484362D01*
X111716381Y-47484361D01*
X111431422Y-47408007D01*
X111382542Y-47401571D01*
X111138942Y-47369500D01*
X111138935Y-47369500D01*
X110843923Y-47369500D01*
X110843915Y-47369500D01*
X110565514Y-47406153D01*
X110551436Y-47408007D01*
X110266477Y-47484361D01*
X110266467Y-47484364D01*
X109993928Y-47597254D01*
X109993918Y-47597258D01*
X109738435Y-47744761D01*
X109504388Y-47924352D01*
X109504381Y-47924358D01*
X109295787Y-48132952D01*
X109295781Y-48132959D01*
X109116190Y-48367006D01*
X108968687Y-48622489D01*
X108968683Y-48622499D01*
X108855793Y-48895038D01*
X108855790Y-48895048D01*
X108797370Y-49113078D01*
X108779437Y-49180004D01*
X108779435Y-49180015D01*
X108740929Y-49472486D01*
X108740929Y-53267513D01*
X108758700Y-53402490D01*
X108779436Y-53559993D01*
X108779437Y-53559995D01*
X108855790Y-53844951D01*
X108855793Y-53844961D01*
X108968683Y-54117500D01*
X108968687Y-54117510D01*
X109116190Y-54372993D01*
X109295781Y-54607040D01*
X109295787Y-54607047D01*
X109504381Y-54815641D01*
X109504388Y-54815647D01*
X109738435Y-54995238D01*
X109993918Y-55142741D01*
X109993919Y-55142741D01*
X109993922Y-55142743D01*
X110142995Y-55204491D01*
X110261071Y-55253400D01*
X110266477Y-55255639D01*
X110551436Y-55331993D01*
X110843923Y-55370500D01*
X110843930Y-55370500D01*
X111138928Y-55370500D01*
X111138935Y-55370500D01*
X111431422Y-55331993D01*
X111649502Y-55273559D01*
X111719351Y-55275222D01*
X111769275Y-55305653D01*
X112204074Y-55740452D01*
X112237559Y-55801775D01*
X112238866Y-55847531D01*
X112230929Y-55897642D01*
X112230929Y-55897648D01*
X112230929Y-57002352D01*
X112233333Y-57017527D01*
X112262951Y-57204534D01*
X112326210Y-57399223D01*
X112390120Y-57524653D01*
X112412572Y-57568716D01*
X112419144Y-57581613D01*
X112539457Y-57747213D01*
X112684215Y-57891971D01*
X112831608Y-57999056D01*
X112849819Y-58012287D01*
X112948489Y-58062562D01*
X113032205Y-58105218D01*
X113032207Y-58105218D01*
X113032210Y-58105220D01*
X113107247Y-58129601D01*
X113226894Y-58168477D01*
X113327986Y-58184488D01*
X113429077Y-58200500D01*
X113429078Y-58200500D01*
X113633780Y-58200500D01*
X113633781Y-58200500D01*
X113835963Y-58168477D01*
X114030648Y-58105220D01*
X114213039Y-58012287D01*
X114306019Y-57944732D01*
X114378642Y-57891971D01*
X114378644Y-57891968D01*
X114378648Y-57891966D01*
X114523395Y-57747219D01*
X114523397Y-57747215D01*
X114523400Y-57747213D01*
X114643713Y-57581614D01*
X114643714Y-57581613D01*
X114643716Y-57581610D01*
X114690945Y-57488917D01*
X114738918Y-57438123D01*
X114806739Y-57421328D01*
X114872874Y-57443865D01*
X114911912Y-57488917D01*
X114952572Y-57568715D01*
X114959144Y-57581614D01*
X115079457Y-57747213D01*
X115163181Y-57830937D01*
X115196666Y-57892260D01*
X115199500Y-57918618D01*
X115199500Y-73613330D01*
X115199499Y-73613348D01*
X115199499Y-73779054D01*
X115199498Y-73779054D01*
X115240423Y-73931785D01*
X115269358Y-73981900D01*
X115269359Y-73981904D01*
X115269360Y-73981904D01*
X115319479Y-74068714D01*
X115319481Y-74068717D01*
X115438349Y-74187585D01*
X115438355Y-74187590D01*
X120835139Y-79584374D01*
X120835149Y-79584385D01*
X120839479Y-79588715D01*
X120839480Y-79588716D01*
X120951284Y-79700520D01*
X121028598Y-79745157D01*
X121088215Y-79779577D01*
X121240943Y-79820501D01*
X121240946Y-79820501D01*
X121406653Y-79820501D01*
X121406669Y-79820500D01*
X227611266Y-79820500D01*
X227678305Y-79840185D01*
X227721751Y-79888208D01*
X227723520Y-79891679D01*
X227842088Y-80054874D01*
X227984726Y-80197512D01*
X228147921Y-80316080D01*
X228290220Y-80388585D01*
X228327657Y-80407660D01*
X228519502Y-80469994D01*
X228567062Y-80477527D01*
X228630197Y-80507457D01*
X228667128Y-80566768D01*
X228666130Y-80636631D01*
X228627520Y-80694863D01*
X228567062Y-80722473D01*
X228519502Y-80730005D01*
X228327657Y-80792339D01*
X228147920Y-80883920D01*
X227984723Y-81002490D01*
X227842090Y-81145123D01*
X227723520Y-81308320D01*
X227631939Y-81488057D01*
X227569606Y-81679901D01*
X227538050Y-81879134D01*
X227538050Y-82080865D01*
X227559311Y-82215102D01*
X227550356Y-82284396D01*
X227505360Y-82337848D01*
X227438609Y-82358487D01*
X227436838Y-82358500D01*
X108326198Y-82358500D01*
X108259159Y-82338815D01*
X108238517Y-82322181D01*
X98123533Y-72207197D01*
X98090048Y-72145874D01*
X98087214Y-72119516D01*
X98087214Y-58613382D01*
X98106899Y-58546343D01*
X98123529Y-58525705D01*
X98958506Y-57690727D01*
X98958511Y-57690724D01*
X98968714Y-57680520D01*
X98968716Y-57680520D01*
X99080520Y-57568716D01*
X99143531Y-57459577D01*
X99159577Y-57431785D01*
X99200500Y-57279057D01*
X99200500Y-57200096D01*
X99220185Y-57133057D01*
X99236814Y-57112420D01*
X101136693Y-55212540D01*
X101198014Y-55179057D01*
X101267706Y-55184041D01*
X101271783Y-55185645D01*
X101382174Y-55231371D01*
X101435356Y-55253400D01*
X101440762Y-55255639D01*
X101725721Y-55331993D01*
X102018208Y-55370500D01*
X102018215Y-55370500D01*
X102313213Y-55370500D01*
X102313220Y-55370500D01*
X102605707Y-55331993D01*
X102890666Y-55255639D01*
X103163221Y-55142743D01*
X103418708Y-54995238D01*
X103652756Y-54815646D01*
X103861360Y-54607042D01*
X104040952Y-54372994D01*
X104188457Y-54117507D01*
X104301353Y-53844952D01*
X104377707Y-53559993D01*
X104416214Y-53267506D01*
X104416214Y-49472494D01*
X104377707Y-49180007D01*
X104301353Y-48895048D01*
X104188457Y-48622493D01*
X104040952Y-48367006D01*
X103883733Y-48162115D01*
X103861361Y-48132959D01*
X103861355Y-48132952D01*
X103652761Y-47924358D01*
X103652754Y-47924352D01*
X103418707Y-47744761D01*
X103163224Y-47597258D01*
X103163214Y-47597254D01*
X102890675Y-47484364D01*
X102890668Y-47484362D01*
X102890666Y-47484361D01*
X102605707Y-47408007D01*
X102556827Y-47401571D01*
X102313227Y-47369500D01*
X102313220Y-47369500D01*
X102018208Y-47369500D01*
X102018200Y-47369500D01*
X101739799Y-47406153D01*
X101725721Y-47408007D01*
X101440762Y-47484361D01*
X101440752Y-47484364D01*
X101168213Y-47597254D01*
X101168203Y-47597258D01*
X100912720Y-47744761D01*
X100678673Y-47924352D01*
X100678666Y-47924358D01*
X100470072Y-48132952D01*
X100470066Y-48132959D01*
X100290475Y-48367006D01*
X100142972Y-48622489D01*
X100142968Y-48622499D01*
X100030078Y-48895038D01*
X100030075Y-48895048D01*
X99971655Y-49113078D01*
X99953722Y-49180004D01*
X99953720Y-49180015D01*
X99915214Y-49472486D01*
X99915214Y-50645500D01*
X99895529Y-50712539D01*
X99842725Y-50758294D01*
X99791214Y-50769500D01*
X94380214Y-50769500D01*
X94313175Y-50749815D01*
X94267420Y-50697011D01*
X94256214Y-50645500D01*
X94256214Y-49472500D01*
X94256213Y-49472486D01*
X94242515Y-49368443D01*
X94217707Y-49180007D01*
X94141353Y-48895048D01*
X94028457Y-48622493D01*
X93880952Y-48367006D01*
X93723733Y-48162115D01*
X93701361Y-48132959D01*
X93701355Y-48132952D01*
X93492761Y-47924358D01*
X93492754Y-47924352D01*
X93258707Y-47744761D01*
X93003224Y-47597258D01*
X93003214Y-47597254D01*
X92730675Y-47484364D01*
X92730668Y-47484362D01*
X92730666Y-47484361D01*
X92445707Y-47408007D01*
X92396827Y-47401571D01*
X92153227Y-47369500D01*
X92153220Y-47369500D01*
X91858208Y-47369500D01*
X91858200Y-47369500D01*
X91579799Y-47406153D01*
X91565721Y-47408007D01*
X91280762Y-47484361D01*
X91280752Y-47484364D01*
X91008213Y-47597254D01*
X91008203Y-47597258D01*
X90752720Y-47744761D01*
X90518673Y-47924352D01*
X90518666Y-47924358D01*
X90310072Y-48132952D01*
X90310066Y-48132959D01*
X90130475Y-48367006D01*
X89982972Y-48622489D01*
X89982968Y-48622499D01*
X89870078Y-48895038D01*
X89870075Y-48895048D01*
X89811655Y-49113078D01*
X89793722Y-49180004D01*
X89793720Y-49180015D01*
X89755214Y-49472486D01*
X89755214Y-53267513D01*
X89772985Y-53402490D01*
X89793721Y-53559993D01*
X89793722Y-53559995D01*
X89870075Y-53844951D01*
X89870078Y-53844961D01*
X89982968Y-54117500D01*
X89982972Y-54117510D01*
X90130475Y-54372993D01*
X90310066Y-54607040D01*
X90310072Y-54607047D01*
X90518666Y-54815641D01*
X90518673Y-54815647D01*
X90752720Y-54995238D01*
X91008203Y-55142741D01*
X91008204Y-55142741D01*
X91008207Y-55142743D01*
X91157280Y-55204491D01*
X91275356Y-55253400D01*
X91280762Y-55255639D01*
X91565721Y-55331993D01*
X91858208Y-55370500D01*
X91858215Y-55370500D01*
X92153213Y-55370500D01*
X92153220Y-55370500D01*
X92445707Y-55331993D01*
X92730666Y-55255639D01*
X92778384Y-55235872D01*
X92847853Y-55228404D01*
X92910332Y-55259679D01*
X92913518Y-55262753D01*
X93241994Y-55591229D01*
X93275479Y-55652552D01*
X93276786Y-55698308D01*
X93259506Y-55807413D01*
X93245214Y-55897648D01*
X93245214Y-57002352D01*
X93247618Y-57017527D01*
X93277236Y-57204534D01*
X93340495Y-57399223D01*
X93404405Y-57524653D01*
X93426857Y-57568716D01*
X93433429Y-57581613D01*
X93553742Y-57747213D01*
X93698500Y-57891971D01*
X93845893Y-57999056D01*
X93864104Y-58012287D01*
X93962774Y-58062562D01*
X94046490Y-58105218D01*
X94046492Y-58105218D01*
X94046495Y-58105220D01*
X94121532Y-58129601D01*
X94241179Y-58168477D01*
X94342271Y-58184488D01*
X94443362Y-58200500D01*
X94443363Y-58200500D01*
X94648065Y-58200500D01*
X94648066Y-58200500D01*
X94850248Y-58168477D01*
X95044933Y-58105220D01*
X95227324Y-58012287D01*
X95320304Y-57944732D01*
X95392927Y-57891971D01*
X95392929Y-57891968D01*
X95392933Y-57891966D01*
X95537680Y-57747219D01*
X95537682Y-57747215D01*
X95537685Y-57747213D01*
X95657998Y-57581614D01*
X95657999Y-57581613D01*
X95658001Y-57581610D01*
X95705230Y-57488917D01*
X95753203Y-57438123D01*
X95821024Y-57421328D01*
X95887159Y-57443865D01*
X95926197Y-57488917D01*
X95966857Y-57568715D01*
X95973429Y-57581614D01*
X96093742Y-57747213D01*
X96093748Y-57747219D01*
X96238495Y-57891966D01*
X96404104Y-58012287D01*
X96417507Y-58019116D01*
X96468303Y-58067088D01*
X96485214Y-58129601D01*
X96485214Y-72499044D01*
X96485213Y-72499062D01*
X96485213Y-72664768D01*
X96485212Y-72664768D01*
X96526136Y-72817497D01*
X96553635Y-72865127D01*
X96605191Y-72954426D01*
X96605195Y-72954431D01*
X96724063Y-73073299D01*
X96724069Y-73073304D01*
X107375139Y-83724374D01*
X107375149Y-83724385D01*
X107379479Y-83728715D01*
X107379480Y-83728716D01*
X107491284Y-83840520D01*
X107491286Y-83840521D01*
X107491290Y-83840524D01*
X107628209Y-83919573D01*
X107628216Y-83919577D01*
X107729747Y-83946782D01*
X107780942Y-83960500D01*
X107780943Y-83960500D01*
X227576108Y-83960500D01*
X227643147Y-83980185D01*
X227688902Y-84032989D01*
X227698846Y-84102147D01*
X227686593Y-84140795D01*
X227631939Y-84248057D01*
X227569606Y-84439901D01*
X227538050Y-84639134D01*
X227538050Y-84840865D01*
X227569606Y-85040098D01*
X227631939Y-85231942D01*
X227659038Y-85285126D01*
X227723520Y-85411679D01*
X227842088Y-85574874D01*
X227984726Y-85717512D01*
X228147921Y-85836080D01*
X228327655Y-85927659D01*
X228327657Y-85927659D01*
X228327660Y-85927661D01*
X228327658Y-85927661D01*
X228478031Y-85976519D01*
X228535707Y-86015956D01*
X228562906Y-86080314D01*
X228550992Y-86149161D01*
X228503748Y-86200637D01*
X228439714Y-86218450D01*
X227990679Y-86218450D01*
X227990673Y-86218451D01*
X227931066Y-86224858D01*
X227796221Y-86275152D01*
X227796214Y-86275156D01*
X227681005Y-86361402D01*
X227681002Y-86361405D01*
X227594756Y-86476614D01*
X227594752Y-86476621D01*
X227544458Y-86611467D01*
X227538051Y-86671066D01*
X227538051Y-86671073D01*
X227538050Y-86671085D01*
X227538050Y-87874500D01*
X227518365Y-87941539D01*
X227465561Y-87987294D01*
X227414050Y-87998500D01*
X87499097Y-87998500D01*
X87432058Y-87978815D01*
X87411416Y-87962181D01*
X86822490Y-87373255D01*
X86822488Y-87373252D01*
X86746801Y-87297565D01*
X86597961Y-87148726D01*
X86597961Y-87148725D01*
X86546745Y-87097509D01*
X86363059Y-86913824D01*
X86363058Y-86913822D01*
X79088590Y-79639355D01*
X79088588Y-79639352D01*
X78736819Y-79287583D01*
X78703334Y-79226260D01*
X78700500Y-79199902D01*
X78700500Y-58129601D01*
X78720185Y-58062562D01*
X78768206Y-58019116D01*
X78781610Y-58012287D01*
X78947219Y-57891966D01*
X79091966Y-57747219D01*
X79091968Y-57747215D01*
X79091971Y-57747213D01*
X79144732Y-57674590D01*
X79212287Y-57581610D01*
X79305220Y-57399219D01*
X79368477Y-57204534D01*
X79400500Y-57002352D01*
X79400500Y-55897648D01*
X79378283Y-55757378D01*
X79368477Y-55695465D01*
X79327748Y-55570115D01*
X79305220Y-55500781D01*
X79305218Y-55500778D01*
X79305218Y-55500776D01*
X79259515Y-55411080D01*
X79212287Y-55318390D01*
X79195136Y-55294784D01*
X79091971Y-55152786D01*
X78947213Y-55008028D01*
X78781613Y-54887715D01*
X78781612Y-54887714D01*
X78781610Y-54887713D01*
X78722167Y-54857425D01*
X78599223Y-54794781D01*
X78404534Y-54731522D01*
X78229995Y-54703878D01*
X78202352Y-54699500D01*
X77997648Y-54699500D01*
X77973329Y-54703351D01*
X77795465Y-54731522D01*
X77600776Y-54794781D01*
X77418386Y-54887715D01*
X77252786Y-55008028D01*
X77108028Y-55152786D01*
X76987715Y-55318386D01*
X76940485Y-55411080D01*
X76892510Y-55461876D01*
X76824689Y-55478671D01*
X76758554Y-55456134D01*
X76719515Y-55411080D01*
X76698838Y-55370500D01*
X76672287Y-55318390D01*
X76655136Y-55294784D01*
X76551971Y-55152786D01*
X76407213Y-55008028D01*
X76241613Y-54887715D01*
X76241612Y-54887714D01*
X76241610Y-54887713D01*
X76182167Y-54857425D01*
X76059223Y-54794781D01*
X75864534Y-54731522D01*
X75689995Y-54703878D01*
X75662352Y-54699500D01*
X75457648Y-54699500D01*
X75253374Y-54731853D01*
X75184081Y-54722898D01*
X75146296Y-54697061D01*
X74935794Y-54486559D01*
X74902309Y-54425236D01*
X74907293Y-54355544D01*
X74916081Y-54336892D01*
X75042743Y-54117507D01*
X75155639Y-53844952D01*
X75231993Y-53559993D01*
X75270500Y-53267506D01*
X75270500Y-52094500D01*
X75290185Y-52027461D01*
X75342989Y-51981706D01*
X75394500Y-51970500D01*
X80805500Y-51970500D01*
X80872539Y-51990185D01*
X80918294Y-52042989D01*
X80929500Y-52094500D01*
X80929500Y-53267513D01*
X80947271Y-53402490D01*
X80968007Y-53559993D01*
X80968008Y-53559995D01*
X81044361Y-53844951D01*
X81044364Y-53844961D01*
X81157254Y-54117500D01*
X81157258Y-54117510D01*
X81304761Y-54372993D01*
X81484352Y-54607040D01*
X81484358Y-54607047D01*
X81692952Y-54815641D01*
X81692959Y-54815647D01*
X81927006Y-54995238D01*
X82182489Y-55142741D01*
X82182490Y-55142741D01*
X82182493Y-55142743D01*
X82331566Y-55204491D01*
X82449642Y-55253400D01*
X82455048Y-55255639D01*
X82740007Y-55331993D01*
X83032494Y-55370500D01*
X83032501Y-55370500D01*
X83327499Y-55370500D01*
X83327506Y-55370500D01*
X83619993Y-55331993D01*
X83904952Y-55255639D01*
X84177507Y-55142743D01*
X84432994Y-54995238D01*
X84667042Y-54815646D01*
X84875646Y-54607042D01*
X85055238Y-54372994D01*
X85202743Y-54117507D01*
X85315639Y-53844952D01*
X85391993Y-53559993D01*
X85430500Y-53267506D01*
X85430500Y-49472494D01*
X85391993Y-49180007D01*
X85315639Y-48895048D01*
X85202743Y-48622493D01*
X85055238Y-48367006D01*
X84898019Y-48162115D01*
X84875647Y-48132959D01*
X84875641Y-48132952D01*
X84667047Y-47924358D01*
X84667040Y-47924352D01*
X84432993Y-47744761D01*
X84177510Y-47597258D01*
X84177500Y-47597254D01*
X83904961Y-47484364D01*
X83904954Y-47484362D01*
X83904952Y-47484361D01*
X83619993Y-47408007D01*
X83571113Y-47401571D01*
X83327513Y-47369500D01*
X83327506Y-47369500D01*
X83032494Y-47369500D01*
X83032486Y-47369500D01*
X82754085Y-47406153D01*
X82740007Y-47408007D01*
X82455048Y-47484361D01*
X82455038Y-47484364D01*
X82182499Y-47597254D01*
X82182489Y-47597258D01*
X81927006Y-47744761D01*
X81692959Y-47924352D01*
X81692952Y-47924358D01*
X81484358Y-48132952D01*
X81484352Y-48132959D01*
X81304761Y-48367006D01*
X81157258Y-48622489D01*
X81157254Y-48622499D01*
X81044364Y-48895038D01*
X81044361Y-48895048D01*
X80985941Y-49113078D01*
X80968008Y-49180004D01*
X80968006Y-49180015D01*
X80929500Y-49472486D01*
X80929500Y-50645500D01*
X80909815Y-50712539D01*
X80857011Y-50758294D01*
X80805500Y-50769500D01*
X75394500Y-50769500D01*
X75327461Y-50749815D01*
X75281706Y-50697011D01*
X75270500Y-50645500D01*
X75270500Y-49472500D01*
X75270499Y-49472486D01*
X75256801Y-49368443D01*
X75231993Y-49180007D01*
X75155639Y-48895048D01*
X75042743Y-48622493D01*
X74895238Y-48367006D01*
X74738019Y-48162115D01*
X74715647Y-48132959D01*
X74715641Y-48132952D01*
X74507047Y-47924358D01*
X74507040Y-47924352D01*
X74272993Y-47744761D01*
X74017510Y-47597258D01*
X74017500Y-47597254D01*
X73744961Y-47484364D01*
X73744954Y-47484362D01*
X73744952Y-47484361D01*
X73459993Y-47408007D01*
X73411113Y-47401571D01*
X73167513Y-47369500D01*
X73167506Y-47369500D01*
X72872494Y-47369500D01*
X72872486Y-47369500D01*
X72594085Y-47406153D01*
X72580007Y-47408007D01*
X72295048Y-47484361D01*
X72295038Y-47484364D01*
X72022499Y-47597254D01*
X72022489Y-47597258D01*
X71767006Y-47744761D01*
X71532959Y-47924352D01*
X71532952Y-47924358D01*
X71324358Y-48132952D01*
X71324352Y-48132959D01*
X71144761Y-48367006D01*
X70997258Y-48622489D01*
X70997254Y-48622499D01*
X70884364Y-48895038D01*
X70884361Y-48895048D01*
X70825941Y-49113078D01*
X70808008Y-49180004D01*
X70808006Y-49180015D01*
X70769500Y-49472486D01*
X68254770Y-49472486D01*
X68286761Y-49412634D01*
X68410842Y-49113078D01*
X68504966Y-48802792D01*
X68504969Y-48802781D01*
X68568217Y-48484801D01*
X68568220Y-48484784D01*
X68600000Y-48162115D01*
X68600000Y-47837884D01*
X68568220Y-47515215D01*
X68568217Y-47515198D01*
X68504969Y-47197218D01*
X68504966Y-47197207D01*
X68410842Y-46886921D01*
X68286761Y-46587364D01*
X68286759Y-46587359D01*
X68133920Y-46301419D01*
X68133909Y-46301401D01*
X67953787Y-46031829D01*
X67953777Y-46031815D01*
X67804108Y-45849444D01*
X67804107Y-45849443D01*
X66594250Y-47059300D01*
X66520412Y-46957670D01*
X66342330Y-46779588D01*
X66240697Y-46705747D01*
X67450555Y-45495891D01*
X67450554Y-45495890D01*
X67268184Y-45346222D01*
X67268170Y-45346212D01*
X66998598Y-45166090D01*
X66998580Y-45166079D01*
X66712640Y-45013240D01*
X66712635Y-45013238D01*
X66413078Y-44889157D01*
X66102792Y-44795033D01*
X66102781Y-44795030D01*
X65784801Y-44731782D01*
X65784784Y-44731779D01*
X65462116Y-44700000D01*
X65137884Y-44700000D01*
X64815215Y-44731779D01*
X64815198Y-44731782D01*
X64497218Y-44795030D01*
X64497207Y-44795033D01*
X64186921Y-44889157D01*
X63887364Y-45013238D01*
X63887359Y-45013240D01*
X63601419Y-45166079D01*
X63601401Y-45166090D01*
X63331829Y-45346212D01*
X63331815Y-45346222D01*
X63149444Y-45495890D01*
X63149443Y-45495891D01*
X64359301Y-46705748D01*
X64257670Y-46779588D01*
X64079588Y-46957670D01*
X64005748Y-47059301D01*
X62795891Y-45849443D01*
X62795890Y-45849444D01*
X62646222Y-46031815D01*
X62646212Y-46031829D01*
X62466090Y-46301401D01*
X62466079Y-46301419D01*
X62313240Y-46587359D01*
X62313238Y-46587364D01*
X62189157Y-46886921D01*
X62095033Y-47197207D01*
X62095030Y-47197218D01*
X62031782Y-47515198D01*
X62031779Y-47515215D01*
X62000000Y-47837884D01*
X60500500Y-47837884D01*
X60500500Y-46003750D01*
X60500726Y-45996263D01*
X60505624Y-45915285D01*
X60518271Y-45706201D01*
X60520076Y-45691340D01*
X60551044Y-45522354D01*
X60571780Y-45409201D01*
X60575364Y-45394663D01*
X60590462Y-45346212D01*
X60660696Y-45120822D01*
X60665998Y-45106841D01*
X60783731Y-44845249D01*
X60790676Y-44832016D01*
X60939080Y-44586526D01*
X60947567Y-44574230D01*
X61124480Y-44348417D01*
X61134395Y-44337226D01*
X61337226Y-44134395D01*
X61348417Y-44124480D01*
X61574230Y-43947567D01*
X61586526Y-43939080D01*
X61832016Y-43790676D01*
X61845249Y-43783731D01*
X62106841Y-43665998D01*
X62120822Y-43660696D01*
X62394668Y-43575362D01*
X62409197Y-43571780D01*
X62691344Y-43520075D01*
X62706201Y-43518271D01*
X62996264Y-43500726D01*
X63003751Y-43500500D01*
X63065892Y-43500500D01*
X236934108Y-43500500D01*
X236996249Y-43500500D01*
X237003736Y-43500726D01*
G37*
%TD.AperFunction*%
%TD*%
M02*
