%TF.GenerationSoftware,KiCad,Pcbnew,9.0.0*%
%TF.CreationDate,2025-06-08T21:09:37+02:00*%
%TF.ProjectId,LDC_BNC_interface,4c44435f-424e-4435-9f69-6e7465726661,rev?*%
%TF.SameCoordinates,Original*%
%TF.FileFunction,Soldermask,Bot*%
%TF.FilePolarity,Negative*%
%FSLAX46Y46*%
G04 Gerber Fmt 4.6, Leading zero omitted, Abs format (unit mm)*
G04 Created by KiCad (PCBNEW 9.0.0) date 2025-06-08 21:09:37*
%MOMM*%
%LPD*%
G01*
G04 APERTURE LIST*
%ADD10C,4.191000*%
%ADD11R,1.562100X1.562100*%
%ADD12C,1.562100*%
%ADD13O,1.600000X2.500000*%
%ADD14O,3.500000X7.000000*%
%ADD15C,5.600000*%
G04 APERTURE END LIST*
D10*
%TO.C,J4*%
X230242000Y-94460400D03*
X230242000Y-47419600D03*
D11*
X228819600Y-87500000D03*
D12*
X228819600Y-84740000D03*
X228819600Y-81980000D03*
X228819600Y-79220000D03*
X228819600Y-76460000D03*
X228819600Y-73700000D03*
X228819600Y-70940000D03*
X228819600Y-68180000D03*
X228819600Y-65420000D03*
X228819600Y-62660000D03*
X228819600Y-59900000D03*
X228819600Y-57140000D03*
X228819600Y-54380000D03*
X231664400Y-86120000D03*
X231664400Y-83360000D03*
X231664400Y-80600000D03*
X231664400Y-77840000D03*
X231664400Y-75080000D03*
X231664400Y-72320000D03*
X231664400Y-69560000D03*
X231664400Y-66800000D03*
X231664400Y-64040000D03*
X231664400Y-61280000D03*
X231664400Y-58520000D03*
X231664400Y-55760000D03*
%TD*%
D13*
%TO.C,J5*%
X107440000Y-56450000D03*
D14*
X102360000Y-51370000D03*
D13*
X104900000Y-56450000D03*
D14*
X112520000Y-51370000D03*
%TD*%
D13*
%TO.C,J9*%
X190288000Y-56450000D03*
D14*
X185208000Y-51370000D03*
D13*
X187748000Y-56450000D03*
D14*
X195368000Y-51370000D03*
%TD*%
D15*
%TO.C,H2*%
X222700000Y-94000000D03*
%TD*%
%TO.C,H4*%
X53000000Y-48000000D03*
%TD*%
D13*
%TO.C,J1*%
X66016000Y-56450000D03*
D14*
X60936000Y-51370000D03*
D13*
X63476000Y-56450000D03*
D14*
X71096000Y-51370000D03*
%TD*%
D13*
%TO.C,J2*%
X86728000Y-56450000D03*
D14*
X81648000Y-51370000D03*
D13*
X84188000Y-56450000D03*
D14*
X91808000Y-51370000D03*
%TD*%
D13*
%TO.C,J7*%
X148864000Y-56450000D03*
D14*
X143784000Y-51370000D03*
D13*
X146324000Y-56450000D03*
D14*
X153944000Y-51370000D03*
%TD*%
D15*
%TO.C,H1*%
X222700000Y-48000000D03*
%TD*%
D13*
%TO.C,J8*%
X211000000Y-56450000D03*
D14*
X205920000Y-51370000D03*
D13*
X208460000Y-56450000D03*
D14*
X216080000Y-51370000D03*
%TD*%
D13*
%TO.C,J3*%
X128152000Y-56450000D03*
D14*
X123072000Y-51370000D03*
D13*
X125612000Y-56450000D03*
D14*
X133232000Y-51370000D03*
%TD*%
D15*
%TO.C,H3*%
X53000000Y-94000000D03*
%TD*%
D13*
%TO.C,J6*%
X169576000Y-56450000D03*
D14*
X164496000Y-51370000D03*
D13*
X167036000Y-56450000D03*
D14*
X174656000Y-51370000D03*
%TD*%
M02*
