%TF.GenerationSoftware,KiCad,Pcbnew,9.0.0*%
%TF.CreationDate,2025-06-08T16:05:14+02:00*%
%TF.ProjectId,LDC_BNC_interface,4c44435f-424e-4435-9f69-6e7465726661,rev?*%
%TF.SameCoordinates,Original*%
%TF.FileFunction,Copper,L2,Bot*%
%TF.FilePolarity,Positive*%
%FSLAX46Y46*%
G04 Gerber Fmt 4.6, Leading zero omitted, Abs format (unit mm)*
G04 Created by KiCad (PCBNEW 9.0.0) date 2025-06-08 16:05:14*
%MOMM*%
%LPD*%
G01*
G04 APERTURE LIST*
%TA.AperFunction,ComponentPad*%
%ADD10C,5.600000*%
%TD*%
%TA.AperFunction,ComponentPad*%
%ADD11O,1.600000X2.500000*%
%TD*%
%TA.AperFunction,ComponentPad*%
%ADD12O,3.500000X7.000000*%
%TD*%
%TA.AperFunction,ComponentPad*%
%ADD13C,4.191000*%
%TD*%
%TA.AperFunction,ComponentPad*%
%ADD14R,1.562100X1.562100*%
%TD*%
%TA.AperFunction,ComponentPad*%
%ADD15C,1.562100*%
%TD*%
%TA.AperFunction,ViaPad*%
%ADD16C,0.600000*%
%TD*%
G04 APERTURE END LIST*
D10*
%TO.P,H4,1,1*%
%TO.N,GND*%
X65300000Y-48000000D03*
%TD*%
%TO.P,H3,1,1*%
%TO.N,GND*%
X65300000Y-94000000D03*
%TD*%
%TO.P,H2,1,1*%
%TO.N,GND*%
X222700000Y-94000000D03*
%TD*%
%TO.P,H1,1,1*%
%TO.N,GND*%
X222700000Y-48000000D03*
%TD*%
D11*
%TO.P,J5,1,In*%
%TO.N,/IN1A*%
X116071429Y-56450000D03*
D12*
%TO.P,J5,2,Ext*%
%TO.N,/IN1B*%
X110991429Y-51370000D03*
D11*
X113531429Y-56450000D03*
D12*
X121151429Y-51370000D03*
%TD*%
%TO.P,J1,2,Ext*%
%TO.N,/IN3B*%
X83180000Y-51370000D03*
D11*
X75560000Y-56450000D03*
D12*
X73020000Y-51370000D03*
D11*
%TO.P,J1,1,In*%
%TO.N,/IN3A*%
X78100000Y-56450000D03*
%TD*%
D12*
%TO.P,J9,2,Ext*%
%TO.N,/IN6B*%
X197094286Y-51370000D03*
D11*
X189474286Y-56450000D03*
D12*
X186934286Y-51370000D03*
D11*
%TO.P,J9,1,In*%
%TO.N,/IN6A*%
X192014286Y-56450000D03*
%TD*%
D12*
%TO.P,J2,2,Ext*%
%TO.N,/IN2B*%
X102165714Y-51370000D03*
D11*
X94545714Y-56450000D03*
D12*
X92005714Y-51370000D03*
D11*
%TO.P,J2,1,In*%
%TO.N,/IN2A*%
X97085714Y-56450000D03*
%TD*%
D12*
%TO.P,J7,2,Ext*%
%TO.N,/IN4B*%
X159122857Y-51370000D03*
D11*
X151502857Y-56450000D03*
D12*
X148962857Y-51370000D03*
D11*
%TO.P,J7,1,In*%
%TO.N,/IN4A*%
X154042857Y-56450000D03*
%TD*%
D12*
%TO.P,J8,2,Ext*%
%TO.N,/IN7B*%
X216080000Y-51370000D03*
D11*
X208460000Y-56450000D03*
D12*
X205920000Y-51370000D03*
D11*
%TO.P,J8,1,In*%
%TO.N,/IN7A*%
X211000000Y-56450000D03*
%TD*%
D12*
%TO.P,J6,2,Ext*%
%TO.N,/IN5B*%
X178108571Y-51370000D03*
D11*
X170488571Y-56450000D03*
D12*
X167948571Y-51370000D03*
D11*
%TO.P,J6,1,In*%
%TO.N,/IN5A*%
X173028571Y-56450000D03*
%TD*%
%TO.P,J3,1,In*%
%TO.N,/IN0A*%
X135057143Y-56450000D03*
D12*
%TO.P,J3,2,Ext*%
%TO.N,/IN0B*%
X129977143Y-51370000D03*
D11*
X132517143Y-56450000D03*
D12*
X140137143Y-51370000D03*
%TD*%
D13*
%TO.P,J4,0,PAD*%
%TO.N,GND*%
X230242000Y-94460400D03*
X230242000Y-47419600D03*
D14*
%TO.P,J4,1,1*%
%TO.N,/IN3A*%
X228819600Y-87500000D03*
D15*
%TO.P,J4,2,2*%
%TO.N,unconnected-(J4-Pad2)*%
X228819600Y-84740000D03*
%TO.P,J4,3,3*%
%TO.N,/IN2B*%
X228819600Y-81980000D03*
%TO.P,J4,4,4*%
%TO.N,/IN1A*%
X228819600Y-79220000D03*
%TO.P,J4,5,5*%
%TO.N,unconnected-(J4-Pad5)*%
X228819600Y-76460000D03*
%TO.P,J4,6,6*%
%TO.N,/IN0A*%
X228819600Y-73700000D03*
%TO.P,J4,7,7*%
%TO.N,unconnected-(J4-Pad7)*%
X228819600Y-70940000D03*
%TO.P,J4,8,8*%
%TO.N,/IN4A*%
X228819600Y-68180000D03*
%TO.P,J4,9,9*%
%TO.N,unconnected-(J4-Pad9)*%
X228819600Y-65420000D03*
%TO.P,J4,10,10*%
%TO.N,/IN5B*%
X228819600Y-62660000D03*
%TO.P,J4,11,11*%
%TO.N,/IN6A*%
X228819600Y-59900000D03*
%TO.P,J4,12,12*%
%TO.N,unconnected-(J4-Pad12)*%
X228819600Y-57140000D03*
%TO.P,J4,13,13*%
%TO.N,/IN7B*%
X228819600Y-54380000D03*
%TO.P,J4,14,P14*%
%TO.N,/IN3B*%
X231664400Y-86120000D03*
%TO.P,J4,15,P15*%
%TO.N,/IN2A*%
X231664400Y-83360000D03*
%TO.P,J4,16,P16*%
%TO.N,unconnected-(J4-P16-Pad16)*%
X231664400Y-80600000D03*
%TO.P,J4,17,P17*%
%TO.N,/IN1B*%
X231664400Y-77840000D03*
%TO.P,J4,18,P18*%
%TO.N,unconnected-(J4-P18-Pad18)*%
X231664400Y-75080000D03*
%TO.P,J4,19,P19*%
%TO.N,/IN0B*%
X231664400Y-72320000D03*
%TO.P,J4,20,P20*%
%TO.N,unconnected-(J4-P20-Pad20)*%
X231664400Y-69560000D03*
%TO.P,J4,21,P21*%
%TO.N,/IN4B*%
X231664400Y-66800000D03*
%TO.P,J4,22,P22*%
%TO.N,/IN5A*%
X231664400Y-64040000D03*
%TO.P,J4,23,P23*%
%TO.N,unconnected-(J4-P23-Pad23)*%
X231664400Y-61280000D03*
%TO.P,J4,24,P24*%
%TO.N,/IN6B*%
X231664400Y-58520000D03*
%TO.P,J4,25,P25*%
%TO.N,/IN7A*%
X231664400Y-55760000D03*
%TD*%
D16*
%TO.N,GND*%
X109000000Y-91000000D03*
X221000000Y-58000000D03*
X153777778Y-71000000D03*
X181000000Y-71000000D03*
X181000000Y-61000000D03*
X181000000Y-66000000D03*
X211000000Y-49000000D03*
X192000000Y-49000000D03*
X173000000Y-49000000D03*
X154000000Y-49000000D03*
X135000000Y-49000000D03*
X116000000Y-49000000D03*
X97000000Y-49000000D03*
X88000000Y-91000000D03*
X88000000Y-86000000D03*
X109000000Y-86000000D03*
X109000000Y-76000000D03*
X208000000Y-62000000D03*
X208000000Y-71000000D03*
X208000000Y-66000000D03*
X208000000Y-76000000D03*
X153777778Y-76000000D03*
X180888889Y-76000000D03*
X126666667Y-76000000D03*
X208000000Y-81000000D03*
X153777778Y-81000000D03*
X180888889Y-81000000D03*
X126666667Y-81000000D03*
X208000000Y-86000000D03*
X153777778Y-86000000D03*
X180888889Y-86000000D03*
X126666667Y-86000000D03*
X78000000Y-49000000D03*
X208000000Y-91000000D03*
X180888889Y-91000000D03*
X153777778Y-91000000D03*
X126666667Y-91000000D03*
%TD*%
%TA.AperFunction,Conductor*%
%TO.N,GND*%
G36*
X237003736Y-43500726D02*
G01*
X237293796Y-43518271D01*
X237308659Y-43520076D01*
X237590798Y-43571780D01*
X237605335Y-43575363D01*
X237879172Y-43660695D01*
X237893163Y-43666000D01*
X238154743Y-43783727D01*
X238167989Y-43790680D01*
X238413465Y-43939075D01*
X238425776Y-43947573D01*
X238651573Y-44124473D01*
X238662781Y-44134403D01*
X238865596Y-44337218D01*
X238875526Y-44348426D01*
X238995481Y-44501538D01*
X239052422Y-44574217D01*
X239060928Y-44586540D01*
X239209316Y-44832004D01*
X239216275Y-44845263D01*
X239333997Y-45106831D01*
X239339306Y-45120832D01*
X239424635Y-45394663D01*
X239428219Y-45409201D01*
X239479923Y-45691340D01*
X239481728Y-45706205D01*
X239499274Y-45996263D01*
X239499500Y-46003750D01*
X239499500Y-95996249D01*
X239499274Y-96003736D01*
X239481728Y-96293794D01*
X239479923Y-96308659D01*
X239428219Y-96590798D01*
X239424635Y-96605336D01*
X239339306Y-96879167D01*
X239333997Y-96893168D01*
X239216275Y-97154736D01*
X239209316Y-97167995D01*
X239060928Y-97413459D01*
X239052422Y-97425782D01*
X238875526Y-97651573D01*
X238865596Y-97662781D01*
X238662781Y-97865596D01*
X238651573Y-97875526D01*
X238425782Y-98052422D01*
X238413459Y-98060928D01*
X238167995Y-98209316D01*
X238154736Y-98216275D01*
X237893168Y-98333997D01*
X237879167Y-98339306D01*
X237605336Y-98424635D01*
X237590798Y-98428219D01*
X237308659Y-98479923D01*
X237293794Y-98481728D01*
X237003736Y-98499274D01*
X236996249Y-98499500D01*
X63003751Y-98499500D01*
X62996264Y-98499274D01*
X62706205Y-98481728D01*
X62691340Y-98479923D01*
X62409201Y-98428219D01*
X62394663Y-98424635D01*
X62120832Y-98339306D01*
X62106831Y-98333997D01*
X61845263Y-98216275D01*
X61832004Y-98209316D01*
X61586540Y-98060928D01*
X61574217Y-98052422D01*
X61348426Y-97875526D01*
X61337218Y-97865596D01*
X61134403Y-97662781D01*
X61124473Y-97651573D01*
X60947573Y-97425776D01*
X60939075Y-97413465D01*
X60790680Y-97167989D01*
X60783727Y-97154743D01*
X60666000Y-96893163D01*
X60660693Y-96879167D01*
X60646593Y-96833920D01*
X60575363Y-96605335D01*
X60571780Y-96590798D01*
X60551044Y-96477645D01*
X60520076Y-96308659D01*
X60518271Y-96293794D01*
X60500726Y-96003736D01*
X60500500Y-95996249D01*
X60500500Y-93837884D01*
X62000000Y-93837884D01*
X62000000Y-94162115D01*
X62031779Y-94484784D01*
X62031782Y-94484801D01*
X62095030Y-94802781D01*
X62095033Y-94802792D01*
X62189157Y-95113078D01*
X62313238Y-95412635D01*
X62313240Y-95412640D01*
X62466079Y-95698580D01*
X62466090Y-95698598D01*
X62646212Y-95968170D01*
X62646222Y-95968184D01*
X62795890Y-96150554D01*
X62795891Y-96150555D01*
X64005748Y-94940698D01*
X64079588Y-95042330D01*
X64257670Y-95220412D01*
X64359300Y-95294251D01*
X63149443Y-96504107D01*
X63149444Y-96504108D01*
X63331815Y-96653777D01*
X63331829Y-96653787D01*
X63601401Y-96833909D01*
X63601419Y-96833920D01*
X63887359Y-96986759D01*
X63887364Y-96986761D01*
X64186921Y-97110842D01*
X64497207Y-97204966D01*
X64497218Y-97204969D01*
X64815198Y-97268217D01*
X64815215Y-97268220D01*
X65137884Y-97300000D01*
X65462116Y-97300000D01*
X65784784Y-97268220D01*
X65784801Y-97268217D01*
X66102781Y-97204969D01*
X66102792Y-97204966D01*
X66413078Y-97110842D01*
X66712635Y-96986761D01*
X66712640Y-96986759D01*
X66998580Y-96833920D01*
X66998598Y-96833909D01*
X67268170Y-96653787D01*
X67268183Y-96653777D01*
X67450554Y-96504108D01*
X67450554Y-96504107D01*
X66240698Y-95294251D01*
X66342330Y-95220412D01*
X66520412Y-95042330D01*
X66594251Y-94940698D01*
X67804107Y-96150554D01*
X67804108Y-96150554D01*
X67953777Y-95968183D01*
X67953787Y-95968170D01*
X68133909Y-95698598D01*
X68133920Y-95698580D01*
X68286759Y-95412640D01*
X68286761Y-95412635D01*
X68410842Y-95113078D01*
X68504966Y-94802792D01*
X68504969Y-94802781D01*
X68568217Y-94484801D01*
X68568220Y-94484784D01*
X68600000Y-94162115D01*
X68600000Y-93837884D01*
X219400000Y-93837884D01*
X219400000Y-94162115D01*
X219431779Y-94484784D01*
X219431782Y-94484801D01*
X219495030Y-94802781D01*
X219495033Y-94802792D01*
X219589157Y-95113078D01*
X219713238Y-95412635D01*
X219713240Y-95412640D01*
X219866079Y-95698580D01*
X219866090Y-95698598D01*
X220046212Y-95968170D01*
X220046222Y-95968184D01*
X220195890Y-96150554D01*
X220195891Y-96150555D01*
X221405748Y-94940698D01*
X221479588Y-95042330D01*
X221657670Y-95220412D01*
X221759300Y-95294251D01*
X220549443Y-96504107D01*
X220549444Y-96504108D01*
X220731815Y-96653777D01*
X220731829Y-96653787D01*
X221001401Y-96833909D01*
X221001419Y-96833920D01*
X221287359Y-96986759D01*
X221287364Y-96986761D01*
X221586921Y-97110842D01*
X221897207Y-97204966D01*
X221897218Y-97204969D01*
X222215198Y-97268217D01*
X222215215Y-97268220D01*
X222537884Y-97300000D01*
X222862116Y-97300000D01*
X223184784Y-97268220D01*
X223184801Y-97268217D01*
X223502781Y-97204969D01*
X223502792Y-97204966D01*
X223813078Y-97110842D01*
X224112635Y-96986761D01*
X224112640Y-96986759D01*
X224398580Y-96833920D01*
X224398598Y-96833909D01*
X224668170Y-96653787D01*
X224668183Y-96653777D01*
X224850554Y-96504108D01*
X224850554Y-96504107D01*
X223640698Y-95294251D01*
X223742330Y-95220412D01*
X223920412Y-95042330D01*
X223994251Y-94940698D01*
X225204107Y-96150554D01*
X225204108Y-96150554D01*
X225353777Y-95968183D01*
X225353787Y-95968170D01*
X225533909Y-95698598D01*
X225533920Y-95698580D01*
X225686759Y-95412640D01*
X225686761Y-95412635D01*
X225810842Y-95113078D01*
X225904966Y-94802792D01*
X225904969Y-94802781D01*
X225968217Y-94484801D01*
X225968220Y-94484784D01*
X225984979Y-94314635D01*
X227646500Y-94314635D01*
X227646500Y-94606164D01*
X227679138Y-94895835D01*
X227679140Y-94895851D01*
X227744008Y-95180058D01*
X227744012Y-95180070D01*
X227840293Y-95455223D01*
X227966776Y-95717868D01*
X228121875Y-95964706D01*
X228238231Y-96110614D01*
X228956696Y-95392148D01*
X229031123Y-95494587D01*
X229207813Y-95671277D01*
X229310249Y-95745701D01*
X228591784Y-96464167D01*
X228737693Y-96580524D01*
X228984531Y-96735623D01*
X229247176Y-96862106D01*
X229522329Y-96958387D01*
X229522341Y-96958391D01*
X229806548Y-97023259D01*
X229806564Y-97023261D01*
X230096235Y-97055899D01*
X230096237Y-97055900D01*
X230387763Y-97055900D01*
X230387764Y-97055899D01*
X230677435Y-97023261D01*
X230677451Y-97023259D01*
X230961658Y-96958391D01*
X230961670Y-96958387D01*
X231236823Y-96862106D01*
X231499468Y-96735623D01*
X231746306Y-96580524D01*
X231892214Y-96464167D01*
X231892214Y-96464166D01*
X231173749Y-95745702D01*
X231276187Y-95671277D01*
X231452877Y-95494587D01*
X231527301Y-95392149D01*
X232245766Y-96110614D01*
X232245767Y-96110614D01*
X232362124Y-95964706D01*
X232517223Y-95717868D01*
X232643706Y-95455223D01*
X232739987Y-95180070D01*
X232739991Y-95180058D01*
X232804859Y-94895851D01*
X232804861Y-94895835D01*
X232837499Y-94606164D01*
X232837500Y-94606162D01*
X232837500Y-94314637D01*
X232837499Y-94314635D01*
X232804861Y-94024964D01*
X232804859Y-94024948D01*
X232739991Y-93740741D01*
X232739987Y-93740729D01*
X232643706Y-93465576D01*
X232517223Y-93202931D01*
X232362124Y-92956093D01*
X232245767Y-92810184D01*
X231527301Y-93528649D01*
X231452877Y-93426213D01*
X231276187Y-93249523D01*
X231173748Y-93175096D01*
X231892214Y-92456631D01*
X231746306Y-92340275D01*
X231499468Y-92185176D01*
X231236823Y-92058693D01*
X230961670Y-91962412D01*
X230961658Y-91962408D01*
X230677451Y-91897540D01*
X230677435Y-91897538D01*
X230387764Y-91864900D01*
X230096235Y-91864900D01*
X229806564Y-91897538D01*
X229806548Y-91897540D01*
X229522341Y-91962408D01*
X229522329Y-91962412D01*
X229247176Y-92058693D01*
X228984531Y-92185176D01*
X228737689Y-92340277D01*
X228737685Y-92340280D01*
X228591784Y-92456631D01*
X229310250Y-93175097D01*
X229207813Y-93249523D01*
X229031123Y-93426213D01*
X228956697Y-93528650D01*
X228238231Y-92810184D01*
X228121880Y-92956085D01*
X228121877Y-92956089D01*
X227966776Y-93202931D01*
X227840293Y-93465576D01*
X227744012Y-93740729D01*
X227744008Y-93740741D01*
X227679140Y-94024948D01*
X227679138Y-94024964D01*
X227646500Y-94314635D01*
X225984979Y-94314635D01*
X225986518Y-94299007D01*
X226000000Y-94162115D01*
X226000000Y-93837884D01*
X225968220Y-93515215D01*
X225968217Y-93515198D01*
X225904969Y-93197218D01*
X225904966Y-93197207D01*
X225810842Y-92886921D01*
X225686762Y-92587365D01*
X225674022Y-92563530D01*
X225674021Y-92563528D01*
X225533920Y-92301419D01*
X225533909Y-92301401D01*
X225353787Y-92031829D01*
X225353777Y-92031815D01*
X225204108Y-91849444D01*
X225204107Y-91849443D01*
X223994250Y-93059300D01*
X223920412Y-92957670D01*
X223742330Y-92779588D01*
X223640697Y-92705747D01*
X224850555Y-91495891D01*
X224850554Y-91495890D01*
X224668184Y-91346222D01*
X224668170Y-91346212D01*
X224398598Y-91166090D01*
X224398580Y-91166079D01*
X224112640Y-91013240D01*
X224112635Y-91013238D01*
X223813078Y-90889157D01*
X223502792Y-90795033D01*
X223502781Y-90795030D01*
X223184801Y-90731782D01*
X223184784Y-90731779D01*
X222862116Y-90700000D01*
X222537884Y-90700000D01*
X222215215Y-90731779D01*
X222215198Y-90731782D01*
X221897218Y-90795030D01*
X221897207Y-90795033D01*
X221586921Y-90889157D01*
X221287364Y-91013238D01*
X221287359Y-91013240D01*
X221001419Y-91166079D01*
X221001401Y-91166090D01*
X220731829Y-91346212D01*
X220731815Y-91346222D01*
X220549444Y-91495890D01*
X220549443Y-91495891D01*
X221759301Y-92705748D01*
X221657670Y-92779588D01*
X221479588Y-92957670D01*
X221405748Y-93059301D01*
X220195891Y-91849443D01*
X220195890Y-91849444D01*
X220046222Y-92031815D01*
X220046212Y-92031829D01*
X219866090Y-92301401D01*
X219866079Y-92301419D01*
X219713240Y-92587359D01*
X219713238Y-92587364D01*
X219589157Y-92886921D01*
X219495033Y-93197207D01*
X219495030Y-93197218D01*
X219431782Y-93515198D01*
X219431779Y-93515215D01*
X219400000Y-93837884D01*
X68600000Y-93837884D01*
X68568220Y-93515215D01*
X68568217Y-93515198D01*
X68504969Y-93197218D01*
X68504966Y-93197207D01*
X68410842Y-92886921D01*
X68286761Y-92587364D01*
X68286759Y-92587359D01*
X68133920Y-92301419D01*
X68133909Y-92301401D01*
X67953787Y-92031829D01*
X67953777Y-92031815D01*
X67804108Y-91849444D01*
X67804107Y-91849443D01*
X66594250Y-93059300D01*
X66520412Y-92957670D01*
X66342330Y-92779588D01*
X66240697Y-92705747D01*
X67450555Y-91495891D01*
X67450554Y-91495890D01*
X67268184Y-91346222D01*
X67268170Y-91346212D01*
X66998598Y-91166090D01*
X66998580Y-91166079D01*
X66712640Y-91013240D01*
X66712635Y-91013238D01*
X66413078Y-90889157D01*
X66102792Y-90795033D01*
X66102781Y-90795030D01*
X65784801Y-90731782D01*
X65784784Y-90731779D01*
X65462116Y-90700000D01*
X65137884Y-90700000D01*
X64815215Y-90731779D01*
X64815198Y-90731782D01*
X64497218Y-90795030D01*
X64497207Y-90795033D01*
X64186921Y-90889157D01*
X63887364Y-91013238D01*
X63887359Y-91013240D01*
X63601419Y-91166079D01*
X63601401Y-91166090D01*
X63331829Y-91346212D01*
X63331815Y-91346222D01*
X63149444Y-91495890D01*
X63149443Y-91495891D01*
X64359301Y-92705748D01*
X64257670Y-92779588D01*
X64079588Y-92957670D01*
X64005748Y-93059301D01*
X62795891Y-91849443D01*
X62795890Y-91849444D01*
X62646222Y-92031815D01*
X62646212Y-92031829D01*
X62466090Y-92301401D01*
X62466079Y-92301419D01*
X62313240Y-92587359D01*
X62313238Y-92587364D01*
X62189157Y-92886921D01*
X62095033Y-93197207D01*
X62095030Y-93197218D01*
X62031782Y-93515198D01*
X62031779Y-93515215D01*
X62000000Y-93837884D01*
X60500500Y-93837884D01*
X60500500Y-55897648D01*
X74259500Y-55897648D01*
X74259500Y-57002352D01*
X74261904Y-57017527D01*
X74291522Y-57204534D01*
X74354781Y-57399223D01*
X74447715Y-57581613D01*
X74568028Y-57747213D01*
X74712786Y-57891971D01*
X74867749Y-58004556D01*
X74878390Y-58012287D01*
X74994607Y-58071503D01*
X75060776Y-58105218D01*
X75060778Y-58105218D01*
X75060781Y-58105220D01*
X75165137Y-58139127D01*
X75255465Y-58168477D01*
X75356557Y-58184488D01*
X75457648Y-58200500D01*
X75457649Y-58200500D01*
X75662351Y-58200500D01*
X75662352Y-58200500D01*
X75864534Y-58168477D01*
X76059219Y-58105220D01*
X76241610Y-58012287D01*
X76334590Y-57944732D01*
X76407213Y-57891971D01*
X76407215Y-57891968D01*
X76407219Y-57891966D01*
X76551966Y-57747219D01*
X76551968Y-57747215D01*
X76551971Y-57747213D01*
X76672284Y-57581614D01*
X76672285Y-57581613D01*
X76672287Y-57581610D01*
X76719516Y-57488917D01*
X76767489Y-57438123D01*
X76835310Y-57421328D01*
X76901445Y-57443865D01*
X76940483Y-57488917D01*
X76984348Y-57575006D01*
X76987715Y-57581614D01*
X77108028Y-57747213D01*
X77252786Y-57891971D01*
X77407749Y-58004556D01*
X77418390Y-58012287D01*
X77534607Y-58071503D01*
X77600776Y-58105218D01*
X77600778Y-58105218D01*
X77600781Y-58105220D01*
X77705137Y-58139127D01*
X77795465Y-58168477D01*
X77896557Y-58184488D01*
X77997648Y-58200500D01*
X77997649Y-58200500D01*
X78202351Y-58200500D01*
X78202352Y-58200500D01*
X78404534Y-58168477D01*
X78599219Y-58105220D01*
X78781610Y-58012287D01*
X78874590Y-57944732D01*
X78947213Y-57891971D01*
X78947215Y-57891968D01*
X78947219Y-57891966D01*
X79091966Y-57747219D01*
X79091968Y-57747215D01*
X79091971Y-57747213D01*
X79144732Y-57674590D01*
X79212287Y-57581610D01*
X79305220Y-57399219D01*
X79368477Y-57204534D01*
X79400500Y-57002352D01*
X79400500Y-55897648D01*
X93245214Y-55897648D01*
X93245214Y-57002352D01*
X93247618Y-57017527D01*
X93277236Y-57204534D01*
X93340495Y-57399223D01*
X93433429Y-57581613D01*
X93553742Y-57747213D01*
X93698500Y-57891971D01*
X93853463Y-58004556D01*
X93864104Y-58012287D01*
X93980321Y-58071503D01*
X94046490Y-58105218D01*
X94046492Y-58105218D01*
X94046495Y-58105220D01*
X94150851Y-58139127D01*
X94241179Y-58168477D01*
X94342271Y-58184488D01*
X94443362Y-58200500D01*
X94443363Y-58200500D01*
X94648065Y-58200500D01*
X94648066Y-58200500D01*
X94850248Y-58168477D01*
X95044933Y-58105220D01*
X95227324Y-58012287D01*
X95320304Y-57944732D01*
X95392927Y-57891971D01*
X95392929Y-57891968D01*
X95392933Y-57891966D01*
X95537680Y-57747219D01*
X95537682Y-57747215D01*
X95537685Y-57747213D01*
X95657998Y-57581614D01*
X95657999Y-57581613D01*
X95658001Y-57581610D01*
X95705230Y-57488917D01*
X95753203Y-57438123D01*
X95821024Y-57421328D01*
X95887159Y-57443865D01*
X95926197Y-57488917D01*
X95970062Y-57575006D01*
X95973429Y-57581614D01*
X96093742Y-57747213D01*
X96238500Y-57891971D01*
X96393463Y-58004556D01*
X96404104Y-58012287D01*
X96520321Y-58071503D01*
X96586490Y-58105218D01*
X96586492Y-58105218D01*
X96586495Y-58105220D01*
X96690851Y-58139127D01*
X96781179Y-58168477D01*
X96882271Y-58184488D01*
X96983362Y-58200500D01*
X96983363Y-58200500D01*
X97188065Y-58200500D01*
X97188066Y-58200500D01*
X97390248Y-58168477D01*
X97584933Y-58105220D01*
X97767324Y-58012287D01*
X97860304Y-57944732D01*
X97932927Y-57891971D01*
X97932929Y-57891968D01*
X97932933Y-57891966D01*
X98077680Y-57747219D01*
X98077682Y-57747215D01*
X98077685Y-57747213D01*
X98130446Y-57674590D01*
X98198001Y-57581610D01*
X98290934Y-57399219D01*
X98354191Y-57204534D01*
X98386214Y-57002352D01*
X98386214Y-55897648D01*
X112230929Y-55897648D01*
X112230929Y-57002352D01*
X112233333Y-57017527D01*
X112262951Y-57204534D01*
X112326210Y-57399223D01*
X112419144Y-57581613D01*
X112539457Y-57747213D01*
X112684215Y-57891971D01*
X112839178Y-58004556D01*
X112849819Y-58012287D01*
X112966036Y-58071503D01*
X113032205Y-58105218D01*
X113032207Y-58105218D01*
X113032210Y-58105220D01*
X113136566Y-58139127D01*
X113226894Y-58168477D01*
X113327986Y-58184488D01*
X113429077Y-58200500D01*
X113429078Y-58200500D01*
X113633780Y-58200500D01*
X113633781Y-58200500D01*
X113835963Y-58168477D01*
X114030648Y-58105220D01*
X114213039Y-58012287D01*
X114306019Y-57944732D01*
X114378642Y-57891971D01*
X114378644Y-57891968D01*
X114378648Y-57891966D01*
X114523395Y-57747219D01*
X114523397Y-57747215D01*
X114523400Y-57747213D01*
X114643713Y-57581614D01*
X114643714Y-57581613D01*
X114643716Y-57581610D01*
X114690945Y-57488917D01*
X114738918Y-57438123D01*
X114806739Y-57421328D01*
X114872874Y-57443865D01*
X114911912Y-57488917D01*
X114955777Y-57575006D01*
X114959144Y-57581614D01*
X115079457Y-57747213D01*
X115224215Y-57891971D01*
X115379178Y-58004556D01*
X115389819Y-58012287D01*
X115506036Y-58071503D01*
X115572205Y-58105218D01*
X115572207Y-58105218D01*
X115572210Y-58105220D01*
X115676566Y-58139127D01*
X115766894Y-58168477D01*
X115867986Y-58184488D01*
X115969077Y-58200500D01*
X115969078Y-58200500D01*
X116173780Y-58200500D01*
X116173781Y-58200500D01*
X116375963Y-58168477D01*
X116570648Y-58105220D01*
X116753039Y-58012287D01*
X116846019Y-57944732D01*
X116918642Y-57891971D01*
X116918644Y-57891968D01*
X116918648Y-57891966D01*
X117063395Y-57747219D01*
X117063397Y-57747215D01*
X117063400Y-57747213D01*
X117116161Y-57674590D01*
X117183716Y-57581610D01*
X117276649Y-57399219D01*
X117339906Y-57204534D01*
X117371929Y-57002352D01*
X117371929Y-55897648D01*
X131216643Y-55897648D01*
X131216643Y-57002352D01*
X131219047Y-57017527D01*
X131248665Y-57204534D01*
X131311924Y-57399223D01*
X131404858Y-57581613D01*
X131525171Y-57747213D01*
X131669929Y-57891971D01*
X131824892Y-58004556D01*
X131835533Y-58012287D01*
X131951750Y-58071503D01*
X132017919Y-58105218D01*
X132017921Y-58105218D01*
X132017924Y-58105220D01*
X132122280Y-58139127D01*
X132212608Y-58168477D01*
X132313700Y-58184488D01*
X132414791Y-58200500D01*
X132414792Y-58200500D01*
X132619494Y-58200500D01*
X132619495Y-58200500D01*
X132821677Y-58168477D01*
X133016362Y-58105220D01*
X133198753Y-58012287D01*
X133291733Y-57944732D01*
X133364356Y-57891971D01*
X133364358Y-57891968D01*
X133364362Y-57891966D01*
X133509109Y-57747219D01*
X133509111Y-57747215D01*
X133509114Y-57747213D01*
X133629427Y-57581614D01*
X133629428Y-57581613D01*
X133629430Y-57581610D01*
X133676659Y-57488917D01*
X133724632Y-57438123D01*
X133792453Y-57421328D01*
X133858588Y-57443865D01*
X133897626Y-57488917D01*
X133941491Y-57575006D01*
X133944858Y-57581614D01*
X134065171Y-57747213D01*
X134209929Y-57891971D01*
X134364892Y-58004556D01*
X134375533Y-58012287D01*
X134491750Y-58071503D01*
X134557919Y-58105218D01*
X134557921Y-58105218D01*
X134557924Y-58105220D01*
X134662280Y-58139127D01*
X134752608Y-58168477D01*
X134853700Y-58184488D01*
X134954791Y-58200500D01*
X134954792Y-58200500D01*
X135159494Y-58200500D01*
X135159495Y-58200500D01*
X135361677Y-58168477D01*
X135556362Y-58105220D01*
X135738753Y-58012287D01*
X135831733Y-57944732D01*
X135904356Y-57891971D01*
X135904358Y-57891968D01*
X135904362Y-57891966D01*
X136049109Y-57747219D01*
X136049111Y-57747215D01*
X136049114Y-57747213D01*
X136101875Y-57674590D01*
X136169430Y-57581610D01*
X136262363Y-57399219D01*
X136325620Y-57204534D01*
X136357643Y-57002352D01*
X136357643Y-55897648D01*
X150202357Y-55897648D01*
X150202357Y-57002352D01*
X150204761Y-57017527D01*
X150234379Y-57204534D01*
X150297638Y-57399223D01*
X150390572Y-57581613D01*
X150510885Y-57747213D01*
X150655643Y-57891971D01*
X150810606Y-58004556D01*
X150821247Y-58012287D01*
X150937464Y-58071503D01*
X151003633Y-58105218D01*
X151003635Y-58105218D01*
X151003638Y-58105220D01*
X151107994Y-58139127D01*
X151198322Y-58168477D01*
X151299414Y-58184488D01*
X151400505Y-58200500D01*
X151400506Y-58200500D01*
X151605208Y-58200500D01*
X151605209Y-58200500D01*
X151807391Y-58168477D01*
X152002076Y-58105220D01*
X152184467Y-58012287D01*
X152277447Y-57944732D01*
X152350070Y-57891971D01*
X152350072Y-57891968D01*
X152350076Y-57891966D01*
X152494823Y-57747219D01*
X152494825Y-57747215D01*
X152494828Y-57747213D01*
X152615141Y-57581614D01*
X152615142Y-57581613D01*
X152615144Y-57581610D01*
X152662373Y-57488917D01*
X152710346Y-57438123D01*
X152778167Y-57421328D01*
X152844302Y-57443865D01*
X152883340Y-57488917D01*
X152927205Y-57575006D01*
X152930572Y-57581614D01*
X153050885Y-57747213D01*
X153195643Y-57891971D01*
X153350606Y-58004556D01*
X153361247Y-58012287D01*
X153477464Y-58071503D01*
X153543633Y-58105218D01*
X153543635Y-58105218D01*
X153543638Y-58105220D01*
X153647994Y-58139127D01*
X153738322Y-58168477D01*
X153839414Y-58184488D01*
X153940505Y-58200500D01*
X153940506Y-58200500D01*
X154145208Y-58200500D01*
X154145209Y-58200500D01*
X154347391Y-58168477D01*
X154542076Y-58105220D01*
X154724467Y-58012287D01*
X154817447Y-57944732D01*
X154890070Y-57891971D01*
X154890072Y-57891968D01*
X154890076Y-57891966D01*
X155034823Y-57747219D01*
X155034825Y-57747215D01*
X155034828Y-57747213D01*
X155087589Y-57674590D01*
X155155144Y-57581610D01*
X155248077Y-57399219D01*
X155311334Y-57204534D01*
X155343357Y-57002352D01*
X155343357Y-55897648D01*
X169188071Y-55897648D01*
X169188071Y-57002352D01*
X169190475Y-57017527D01*
X169220093Y-57204534D01*
X169283352Y-57399223D01*
X169376286Y-57581613D01*
X169496599Y-57747213D01*
X169641357Y-57891971D01*
X169796320Y-58004556D01*
X169806961Y-58012287D01*
X169923178Y-58071503D01*
X169989347Y-58105218D01*
X169989349Y-58105218D01*
X169989352Y-58105220D01*
X170093708Y-58139127D01*
X170184036Y-58168477D01*
X170285128Y-58184488D01*
X170386219Y-58200500D01*
X170386220Y-58200500D01*
X170590922Y-58200500D01*
X170590923Y-58200500D01*
X170793105Y-58168477D01*
X170987790Y-58105220D01*
X171170181Y-58012287D01*
X171263161Y-57944732D01*
X171335784Y-57891971D01*
X171335786Y-57891968D01*
X171335790Y-57891966D01*
X171480537Y-57747219D01*
X171480539Y-57747215D01*
X171480542Y-57747213D01*
X171600855Y-57581614D01*
X171600856Y-57581613D01*
X171600858Y-57581610D01*
X171648087Y-57488917D01*
X171696060Y-57438123D01*
X171763881Y-57421328D01*
X171830016Y-57443865D01*
X171869054Y-57488917D01*
X171912919Y-57575006D01*
X171916286Y-57581614D01*
X172036599Y-57747213D01*
X172181357Y-57891971D01*
X172336320Y-58004556D01*
X172346961Y-58012287D01*
X172463178Y-58071503D01*
X172529347Y-58105218D01*
X172529349Y-58105218D01*
X172529352Y-58105220D01*
X172633708Y-58139127D01*
X172724036Y-58168477D01*
X172825128Y-58184488D01*
X172926219Y-58200500D01*
X172926220Y-58200500D01*
X173130922Y-58200500D01*
X173130923Y-58200500D01*
X173333105Y-58168477D01*
X173527790Y-58105220D01*
X173710181Y-58012287D01*
X173803161Y-57944732D01*
X173875784Y-57891971D01*
X173875786Y-57891968D01*
X173875790Y-57891966D01*
X174020537Y-57747219D01*
X174020539Y-57747215D01*
X174020542Y-57747213D01*
X174073303Y-57674590D01*
X174140858Y-57581610D01*
X174233791Y-57399219D01*
X174297048Y-57204534D01*
X174329071Y-57002352D01*
X174329071Y-55897648D01*
X188173786Y-55897648D01*
X188173786Y-57002352D01*
X188176190Y-57017527D01*
X188205808Y-57204534D01*
X188269067Y-57399223D01*
X188362001Y-57581613D01*
X188482314Y-57747213D01*
X188627072Y-57891971D01*
X188782035Y-58004556D01*
X188792676Y-58012287D01*
X188908893Y-58071503D01*
X188975062Y-58105218D01*
X188975064Y-58105218D01*
X188975067Y-58105220D01*
X189079423Y-58139127D01*
X189169751Y-58168477D01*
X189270843Y-58184488D01*
X189371934Y-58200500D01*
X189371935Y-58200500D01*
X189576637Y-58200500D01*
X189576638Y-58200500D01*
X189778820Y-58168477D01*
X189973505Y-58105220D01*
X190155896Y-58012287D01*
X190248876Y-57944732D01*
X190321499Y-57891971D01*
X190321501Y-57891968D01*
X190321505Y-57891966D01*
X190466252Y-57747219D01*
X190466254Y-57747215D01*
X190466257Y-57747213D01*
X190586570Y-57581614D01*
X190586571Y-57581613D01*
X190586573Y-57581610D01*
X190633802Y-57488917D01*
X190681775Y-57438123D01*
X190749596Y-57421328D01*
X190815731Y-57443865D01*
X190854769Y-57488917D01*
X190898634Y-57575006D01*
X190902001Y-57581614D01*
X191022314Y-57747213D01*
X191167072Y-57891971D01*
X191322035Y-58004556D01*
X191332676Y-58012287D01*
X191448893Y-58071503D01*
X191515062Y-58105218D01*
X191515064Y-58105218D01*
X191515067Y-58105220D01*
X191619423Y-58139127D01*
X191709751Y-58168477D01*
X191810843Y-58184488D01*
X191911934Y-58200500D01*
X191911935Y-58200500D01*
X192116637Y-58200500D01*
X192116638Y-58200500D01*
X192318820Y-58168477D01*
X192513505Y-58105220D01*
X192695896Y-58012287D01*
X192788876Y-57944732D01*
X192861499Y-57891971D01*
X192861501Y-57891968D01*
X192861505Y-57891966D01*
X193006252Y-57747219D01*
X193006254Y-57747215D01*
X193006257Y-57747213D01*
X193059018Y-57674590D01*
X193126573Y-57581610D01*
X193219506Y-57399219D01*
X193282763Y-57204534D01*
X193314786Y-57002352D01*
X193314786Y-55897648D01*
X207159500Y-55897648D01*
X207159500Y-57002352D01*
X207161904Y-57017527D01*
X207191522Y-57204534D01*
X207254781Y-57399223D01*
X207347715Y-57581613D01*
X207468028Y-57747213D01*
X207612786Y-57891971D01*
X207767749Y-58004556D01*
X207778390Y-58012287D01*
X207894607Y-58071503D01*
X207960776Y-58105218D01*
X207960778Y-58105218D01*
X207960781Y-58105220D01*
X208065137Y-58139127D01*
X208155465Y-58168477D01*
X208256557Y-58184488D01*
X208357648Y-58200500D01*
X208357649Y-58200500D01*
X208562351Y-58200500D01*
X208562352Y-58200500D01*
X208764534Y-58168477D01*
X208959219Y-58105220D01*
X209141610Y-58012287D01*
X209234590Y-57944732D01*
X209307213Y-57891971D01*
X209307215Y-57891968D01*
X209307219Y-57891966D01*
X209451966Y-57747219D01*
X209451968Y-57747215D01*
X209451971Y-57747213D01*
X209572284Y-57581614D01*
X209572285Y-57581613D01*
X209572287Y-57581610D01*
X209619516Y-57488917D01*
X209667489Y-57438123D01*
X209735310Y-57421328D01*
X209801445Y-57443865D01*
X209840483Y-57488917D01*
X209884348Y-57575006D01*
X209887715Y-57581614D01*
X210008028Y-57747213D01*
X210152786Y-57891971D01*
X210307749Y-58004556D01*
X210318390Y-58012287D01*
X210434607Y-58071503D01*
X210500776Y-58105218D01*
X210500778Y-58105218D01*
X210500781Y-58105220D01*
X210605137Y-58139127D01*
X210695465Y-58168477D01*
X210796557Y-58184488D01*
X210897648Y-58200500D01*
X210897649Y-58200500D01*
X211102351Y-58200500D01*
X211102352Y-58200500D01*
X211304534Y-58168477D01*
X211499219Y-58105220D01*
X211681610Y-58012287D01*
X211774590Y-57944732D01*
X211847213Y-57891971D01*
X211847215Y-57891968D01*
X211847219Y-57891966D01*
X211991966Y-57747219D01*
X211991968Y-57747215D01*
X211991971Y-57747213D01*
X212044732Y-57674590D01*
X212112287Y-57581610D01*
X212205220Y-57399219D01*
X212268477Y-57204534D01*
X212300500Y-57002352D01*
X212300500Y-55897648D01*
X212268477Y-55695466D01*
X212259376Y-55667457D01*
X212205218Y-55500776D01*
X212138838Y-55370500D01*
X212112287Y-55318390D01*
X212104556Y-55307749D01*
X211991971Y-55152786D01*
X211847213Y-55008028D01*
X211681613Y-54887715D01*
X211681612Y-54887714D01*
X211681610Y-54887713D01*
X211624653Y-54858691D01*
X211499223Y-54794781D01*
X211304534Y-54731522D01*
X211129995Y-54703878D01*
X211102352Y-54699500D01*
X210897648Y-54699500D01*
X210873329Y-54703351D01*
X210695465Y-54731522D01*
X210500776Y-54794781D01*
X210318386Y-54887715D01*
X210152786Y-55008028D01*
X210008028Y-55152786D01*
X209887715Y-55318386D01*
X209840485Y-55411080D01*
X209792510Y-55461876D01*
X209724689Y-55478671D01*
X209658554Y-55456134D01*
X209619515Y-55411080D01*
X209598838Y-55370500D01*
X209572287Y-55318390D01*
X209564556Y-55307749D01*
X209451971Y-55152786D01*
X209307213Y-55008028D01*
X209141613Y-54887715D01*
X209141612Y-54887714D01*
X209141610Y-54887713D01*
X209084653Y-54858691D01*
X208959223Y-54794781D01*
X208764534Y-54731522D01*
X208589995Y-54703878D01*
X208562352Y-54699500D01*
X208357648Y-54699500D01*
X208333329Y-54703351D01*
X208155465Y-54731522D01*
X207960776Y-54794781D01*
X207778386Y-54887715D01*
X207612786Y-55008028D01*
X207468028Y-55152786D01*
X207347715Y-55318386D01*
X207254781Y-55500776D01*
X207191522Y-55695465D01*
X207160711Y-55890005D01*
X207159500Y-55897648D01*
X193314786Y-55897648D01*
X193282763Y-55695466D01*
X193273662Y-55667457D01*
X193219504Y-55500776D01*
X193153124Y-55370500D01*
X193126573Y-55318390D01*
X193118842Y-55307749D01*
X193006257Y-55152786D01*
X192861499Y-55008028D01*
X192695899Y-54887715D01*
X192695898Y-54887714D01*
X192695896Y-54887713D01*
X192638939Y-54858691D01*
X192513509Y-54794781D01*
X192318820Y-54731522D01*
X192144281Y-54703878D01*
X192116638Y-54699500D01*
X191911934Y-54699500D01*
X191887615Y-54703351D01*
X191709751Y-54731522D01*
X191515062Y-54794781D01*
X191332672Y-54887715D01*
X191167072Y-55008028D01*
X191022314Y-55152786D01*
X190902001Y-55318386D01*
X190854771Y-55411080D01*
X190806796Y-55461876D01*
X190738975Y-55478671D01*
X190672840Y-55456134D01*
X190633801Y-55411080D01*
X190613124Y-55370500D01*
X190586573Y-55318390D01*
X190578842Y-55307749D01*
X190466257Y-55152786D01*
X190321499Y-55008028D01*
X190155899Y-54887715D01*
X190155898Y-54887714D01*
X190155896Y-54887713D01*
X190098939Y-54858691D01*
X189973509Y-54794781D01*
X189778820Y-54731522D01*
X189604281Y-54703878D01*
X189576638Y-54699500D01*
X189371934Y-54699500D01*
X189347615Y-54703351D01*
X189169751Y-54731522D01*
X188975062Y-54794781D01*
X188792672Y-54887715D01*
X188627072Y-55008028D01*
X188482314Y-55152786D01*
X188362001Y-55318386D01*
X188269067Y-55500776D01*
X188205808Y-55695465D01*
X188174997Y-55890005D01*
X188173786Y-55897648D01*
X174329071Y-55897648D01*
X174297048Y-55695466D01*
X174287947Y-55667457D01*
X174233789Y-55500776D01*
X174167409Y-55370500D01*
X174140858Y-55318390D01*
X174133127Y-55307749D01*
X174020542Y-55152786D01*
X173875784Y-55008028D01*
X173710184Y-54887715D01*
X173710183Y-54887714D01*
X173710181Y-54887713D01*
X173653224Y-54858691D01*
X173527794Y-54794781D01*
X173333105Y-54731522D01*
X173158566Y-54703878D01*
X173130923Y-54699500D01*
X172926219Y-54699500D01*
X172901900Y-54703351D01*
X172724036Y-54731522D01*
X172529347Y-54794781D01*
X172346957Y-54887715D01*
X172181357Y-55008028D01*
X172036599Y-55152786D01*
X171916286Y-55318386D01*
X171869056Y-55411080D01*
X171821081Y-55461876D01*
X171753260Y-55478671D01*
X171687125Y-55456134D01*
X171648086Y-55411080D01*
X171627409Y-55370500D01*
X171600858Y-55318390D01*
X171593127Y-55307749D01*
X171480542Y-55152786D01*
X171335784Y-55008028D01*
X171170184Y-54887715D01*
X171170183Y-54887714D01*
X171170181Y-54887713D01*
X171113224Y-54858691D01*
X170987794Y-54794781D01*
X170793105Y-54731522D01*
X170618566Y-54703878D01*
X170590923Y-54699500D01*
X170386219Y-54699500D01*
X170361900Y-54703351D01*
X170184036Y-54731522D01*
X169989347Y-54794781D01*
X169806957Y-54887715D01*
X169641357Y-55008028D01*
X169496599Y-55152786D01*
X169376286Y-55318386D01*
X169283352Y-55500776D01*
X169220093Y-55695465D01*
X169189282Y-55890005D01*
X169188071Y-55897648D01*
X155343357Y-55897648D01*
X155311334Y-55695466D01*
X155302233Y-55667457D01*
X155248075Y-55500776D01*
X155181695Y-55370500D01*
X155155144Y-55318390D01*
X155147413Y-55307749D01*
X155034828Y-55152786D01*
X154890070Y-55008028D01*
X154724470Y-54887715D01*
X154724469Y-54887714D01*
X154724467Y-54887713D01*
X154667510Y-54858691D01*
X154542080Y-54794781D01*
X154347391Y-54731522D01*
X154172852Y-54703878D01*
X154145209Y-54699500D01*
X153940505Y-54699500D01*
X153916186Y-54703351D01*
X153738322Y-54731522D01*
X153543633Y-54794781D01*
X153361243Y-54887715D01*
X153195643Y-55008028D01*
X153050885Y-55152786D01*
X152930572Y-55318386D01*
X152883342Y-55411080D01*
X152835367Y-55461876D01*
X152767546Y-55478671D01*
X152701411Y-55456134D01*
X152662372Y-55411080D01*
X152641695Y-55370500D01*
X152615144Y-55318390D01*
X152607413Y-55307749D01*
X152494828Y-55152786D01*
X152350070Y-55008028D01*
X152184470Y-54887715D01*
X152184469Y-54887714D01*
X152184467Y-54887713D01*
X152127510Y-54858691D01*
X152002080Y-54794781D01*
X151807391Y-54731522D01*
X151632852Y-54703878D01*
X151605209Y-54699500D01*
X151400505Y-54699500D01*
X151376186Y-54703351D01*
X151198322Y-54731522D01*
X151003633Y-54794781D01*
X150821243Y-54887715D01*
X150655643Y-55008028D01*
X150510885Y-55152786D01*
X150390572Y-55318386D01*
X150297638Y-55500776D01*
X150234379Y-55695465D01*
X150203568Y-55890005D01*
X150202357Y-55897648D01*
X136357643Y-55897648D01*
X136325620Y-55695466D01*
X136316519Y-55667457D01*
X136262361Y-55500776D01*
X136195981Y-55370500D01*
X136169430Y-55318390D01*
X136161699Y-55307749D01*
X136049114Y-55152786D01*
X135904356Y-55008028D01*
X135738756Y-54887715D01*
X135738755Y-54887714D01*
X135738753Y-54887713D01*
X135681796Y-54858691D01*
X135556366Y-54794781D01*
X135361677Y-54731522D01*
X135187138Y-54703878D01*
X135159495Y-54699500D01*
X134954791Y-54699500D01*
X134930472Y-54703351D01*
X134752608Y-54731522D01*
X134557919Y-54794781D01*
X134375529Y-54887715D01*
X134209929Y-55008028D01*
X134065171Y-55152786D01*
X133944858Y-55318386D01*
X133897628Y-55411080D01*
X133849653Y-55461876D01*
X133781832Y-55478671D01*
X133715697Y-55456134D01*
X133676658Y-55411080D01*
X133655981Y-55370500D01*
X133629430Y-55318390D01*
X133621699Y-55307749D01*
X133509114Y-55152786D01*
X133364356Y-55008028D01*
X133198756Y-54887715D01*
X133198755Y-54887714D01*
X133198753Y-54887713D01*
X133141796Y-54858691D01*
X133016366Y-54794781D01*
X132821677Y-54731522D01*
X132647138Y-54703878D01*
X132619495Y-54699500D01*
X132414791Y-54699500D01*
X132390472Y-54703351D01*
X132212608Y-54731522D01*
X132017919Y-54794781D01*
X131835529Y-54887715D01*
X131669929Y-55008028D01*
X131525171Y-55152786D01*
X131404858Y-55318386D01*
X131311924Y-55500776D01*
X131248665Y-55695465D01*
X131217854Y-55890005D01*
X131216643Y-55897648D01*
X117371929Y-55897648D01*
X117339906Y-55695466D01*
X117330805Y-55667457D01*
X117276647Y-55500776D01*
X117210267Y-55370500D01*
X117183716Y-55318390D01*
X117175985Y-55307749D01*
X117063400Y-55152786D01*
X116918642Y-55008028D01*
X116753042Y-54887715D01*
X116753041Y-54887714D01*
X116753039Y-54887713D01*
X116696082Y-54858691D01*
X116570652Y-54794781D01*
X116375963Y-54731522D01*
X116201424Y-54703878D01*
X116173781Y-54699500D01*
X115969077Y-54699500D01*
X115944758Y-54703351D01*
X115766894Y-54731522D01*
X115572205Y-54794781D01*
X115389815Y-54887715D01*
X115224215Y-55008028D01*
X115079457Y-55152786D01*
X114959144Y-55318386D01*
X114911914Y-55411080D01*
X114863939Y-55461876D01*
X114796118Y-55478671D01*
X114729983Y-55456134D01*
X114690944Y-55411080D01*
X114670267Y-55370500D01*
X114643716Y-55318390D01*
X114635985Y-55307749D01*
X114523400Y-55152786D01*
X114378642Y-55008028D01*
X114213042Y-54887715D01*
X114213041Y-54887714D01*
X114213039Y-54887713D01*
X114156082Y-54858691D01*
X114030652Y-54794781D01*
X113835963Y-54731522D01*
X113661424Y-54703878D01*
X113633781Y-54699500D01*
X113429077Y-54699500D01*
X113404758Y-54703351D01*
X113226894Y-54731522D01*
X113032205Y-54794781D01*
X112849815Y-54887715D01*
X112684215Y-55008028D01*
X112539457Y-55152786D01*
X112419144Y-55318386D01*
X112326210Y-55500776D01*
X112262951Y-55695465D01*
X112232140Y-55890005D01*
X112230929Y-55897648D01*
X98386214Y-55897648D01*
X98354191Y-55695466D01*
X98345090Y-55667457D01*
X98290932Y-55500776D01*
X98224552Y-55370500D01*
X98198001Y-55318390D01*
X98190270Y-55307749D01*
X98077685Y-55152786D01*
X97932927Y-55008028D01*
X97767327Y-54887715D01*
X97767326Y-54887714D01*
X97767324Y-54887713D01*
X97710367Y-54858691D01*
X97584937Y-54794781D01*
X97390248Y-54731522D01*
X97215709Y-54703878D01*
X97188066Y-54699500D01*
X96983362Y-54699500D01*
X96959043Y-54703351D01*
X96781179Y-54731522D01*
X96586490Y-54794781D01*
X96404100Y-54887715D01*
X96238500Y-55008028D01*
X96093742Y-55152786D01*
X95973429Y-55318386D01*
X95926199Y-55411080D01*
X95878224Y-55461876D01*
X95810403Y-55478671D01*
X95744268Y-55456134D01*
X95705229Y-55411080D01*
X95684552Y-55370500D01*
X95658001Y-55318390D01*
X95650270Y-55307749D01*
X95537685Y-55152786D01*
X95392927Y-55008028D01*
X95227327Y-54887715D01*
X95227326Y-54887714D01*
X95227324Y-54887713D01*
X95170367Y-54858691D01*
X95044937Y-54794781D01*
X94850248Y-54731522D01*
X94675709Y-54703878D01*
X94648066Y-54699500D01*
X94443362Y-54699500D01*
X94419043Y-54703351D01*
X94241179Y-54731522D01*
X94046490Y-54794781D01*
X93864100Y-54887715D01*
X93698500Y-55008028D01*
X93553742Y-55152786D01*
X93433429Y-55318386D01*
X93340495Y-55500776D01*
X93277236Y-55695465D01*
X93246425Y-55890005D01*
X93245214Y-55897648D01*
X79400500Y-55897648D01*
X79368477Y-55695466D01*
X79359376Y-55667457D01*
X79305218Y-55500776D01*
X79238838Y-55370500D01*
X79212287Y-55318390D01*
X79204556Y-55307749D01*
X79091971Y-55152786D01*
X78947213Y-55008028D01*
X78781613Y-54887715D01*
X78781612Y-54887714D01*
X78781610Y-54887713D01*
X78724653Y-54858691D01*
X78599223Y-54794781D01*
X78404534Y-54731522D01*
X78229995Y-54703878D01*
X78202352Y-54699500D01*
X77997648Y-54699500D01*
X77973329Y-54703351D01*
X77795465Y-54731522D01*
X77600776Y-54794781D01*
X77418386Y-54887715D01*
X77252786Y-55008028D01*
X77108028Y-55152786D01*
X76987715Y-55318386D01*
X76940485Y-55411080D01*
X76892510Y-55461876D01*
X76824689Y-55478671D01*
X76758554Y-55456134D01*
X76719515Y-55411080D01*
X76698838Y-55370500D01*
X76672287Y-55318390D01*
X76664556Y-55307749D01*
X76551971Y-55152786D01*
X76407213Y-55008028D01*
X76241613Y-54887715D01*
X76241612Y-54887714D01*
X76241610Y-54887713D01*
X76184653Y-54858691D01*
X76059223Y-54794781D01*
X75864534Y-54731522D01*
X75689995Y-54703878D01*
X75662352Y-54699500D01*
X75457648Y-54699500D01*
X75433329Y-54703351D01*
X75255465Y-54731522D01*
X75060776Y-54794781D01*
X74878386Y-54887715D01*
X74712786Y-55008028D01*
X74568028Y-55152786D01*
X74447715Y-55318386D01*
X74354781Y-55500776D01*
X74291522Y-55695465D01*
X74260711Y-55890005D01*
X74259500Y-55897648D01*
X60500500Y-55897648D01*
X60500500Y-47837884D01*
X62000000Y-47837884D01*
X62000000Y-48162115D01*
X62031779Y-48484784D01*
X62031782Y-48484801D01*
X62095030Y-48802781D01*
X62095033Y-48802792D01*
X62189157Y-49113078D01*
X62313238Y-49412635D01*
X62313240Y-49412640D01*
X62466079Y-49698580D01*
X62466090Y-49698598D01*
X62646212Y-49968170D01*
X62646222Y-49968184D01*
X62795890Y-50150554D01*
X62795891Y-50150555D01*
X64005748Y-48940698D01*
X64079588Y-49042330D01*
X64257670Y-49220412D01*
X64359300Y-49294251D01*
X63149443Y-50504107D01*
X63149444Y-50504108D01*
X63331815Y-50653777D01*
X63331829Y-50653787D01*
X63601401Y-50833909D01*
X63601419Y-50833920D01*
X63887359Y-50986759D01*
X63887364Y-50986761D01*
X64186921Y-51110842D01*
X64497207Y-51204966D01*
X64497218Y-51204969D01*
X64815198Y-51268217D01*
X64815215Y-51268220D01*
X65137884Y-51300000D01*
X65462116Y-51300000D01*
X65784784Y-51268220D01*
X65784801Y-51268217D01*
X66102781Y-51204969D01*
X66102792Y-51204966D01*
X66413078Y-51110842D01*
X66712635Y-50986761D01*
X66712640Y-50986759D01*
X66998580Y-50833920D01*
X66998598Y-50833909D01*
X67268170Y-50653787D01*
X67268183Y-50653777D01*
X67450554Y-50504108D01*
X67450554Y-50504107D01*
X66240698Y-49294251D01*
X66342330Y-49220412D01*
X66520412Y-49042330D01*
X66594251Y-48940698D01*
X67804107Y-50150554D01*
X67804108Y-50150554D01*
X67953777Y-49968183D01*
X67953787Y-49968170D01*
X68133909Y-49698598D01*
X68133920Y-49698580D01*
X68254770Y-49472486D01*
X70769500Y-49472486D01*
X70769500Y-53267513D01*
X70787271Y-53402490D01*
X70808007Y-53559993D01*
X70808008Y-53559995D01*
X70884361Y-53844951D01*
X70884364Y-53844961D01*
X70997254Y-54117500D01*
X70997258Y-54117510D01*
X71144761Y-54372993D01*
X71324352Y-54607040D01*
X71324358Y-54607047D01*
X71532952Y-54815641D01*
X71532959Y-54815647D01*
X71767006Y-54995238D01*
X72022489Y-55142741D01*
X72022490Y-55142741D01*
X72022493Y-55142743D01*
X72295048Y-55255639D01*
X72580007Y-55331993D01*
X72872494Y-55370500D01*
X72872501Y-55370500D01*
X73167499Y-55370500D01*
X73167506Y-55370500D01*
X73459993Y-55331993D01*
X73744952Y-55255639D01*
X74017507Y-55142743D01*
X74272994Y-54995238D01*
X74507042Y-54815646D01*
X74715646Y-54607042D01*
X74895238Y-54372994D01*
X75042743Y-54117507D01*
X75155639Y-53844952D01*
X75231993Y-53559993D01*
X75270500Y-53267506D01*
X75270500Y-49472494D01*
X75270499Y-49472486D01*
X80929500Y-49472486D01*
X80929500Y-53267513D01*
X80947271Y-53402490D01*
X80968007Y-53559993D01*
X80968008Y-53559995D01*
X81044361Y-53844951D01*
X81044364Y-53844961D01*
X81157254Y-54117500D01*
X81157258Y-54117510D01*
X81304761Y-54372993D01*
X81484352Y-54607040D01*
X81484358Y-54607047D01*
X81692952Y-54815641D01*
X81692959Y-54815647D01*
X81927006Y-54995238D01*
X82182489Y-55142741D01*
X82182490Y-55142741D01*
X82182493Y-55142743D01*
X82455048Y-55255639D01*
X82740007Y-55331993D01*
X83032494Y-55370500D01*
X83032501Y-55370500D01*
X83327499Y-55370500D01*
X83327506Y-55370500D01*
X83619993Y-55331993D01*
X83904952Y-55255639D01*
X84177507Y-55142743D01*
X84432994Y-54995238D01*
X84667042Y-54815646D01*
X84875646Y-54607042D01*
X85055238Y-54372994D01*
X85202743Y-54117507D01*
X85315639Y-53844952D01*
X85391993Y-53559993D01*
X85430500Y-53267506D01*
X85430500Y-49472494D01*
X85430499Y-49472486D01*
X89755214Y-49472486D01*
X89755214Y-53267513D01*
X89772985Y-53402490D01*
X89793721Y-53559993D01*
X89793722Y-53559995D01*
X89870075Y-53844951D01*
X89870078Y-53844961D01*
X89982968Y-54117500D01*
X89982972Y-54117510D01*
X90130475Y-54372993D01*
X90310066Y-54607040D01*
X90310072Y-54607047D01*
X90518666Y-54815641D01*
X90518673Y-54815647D01*
X90752720Y-54995238D01*
X91008203Y-55142741D01*
X91008204Y-55142741D01*
X91008207Y-55142743D01*
X91280762Y-55255639D01*
X91565721Y-55331993D01*
X91858208Y-55370500D01*
X91858215Y-55370500D01*
X92153213Y-55370500D01*
X92153220Y-55370500D01*
X92445707Y-55331993D01*
X92730666Y-55255639D01*
X93003221Y-55142743D01*
X93258708Y-54995238D01*
X93492756Y-54815646D01*
X93701360Y-54607042D01*
X93880952Y-54372994D01*
X94028457Y-54117507D01*
X94141353Y-53844952D01*
X94217707Y-53559993D01*
X94256214Y-53267506D01*
X94256214Y-49472494D01*
X94256213Y-49472486D01*
X99915214Y-49472486D01*
X99915214Y-53267513D01*
X99932985Y-53402490D01*
X99953721Y-53559993D01*
X99953722Y-53559995D01*
X100030075Y-53844951D01*
X100030078Y-53844961D01*
X100142968Y-54117500D01*
X100142972Y-54117510D01*
X100290475Y-54372993D01*
X100470066Y-54607040D01*
X100470072Y-54607047D01*
X100678666Y-54815641D01*
X100678673Y-54815647D01*
X100912720Y-54995238D01*
X101168203Y-55142741D01*
X101168204Y-55142741D01*
X101168207Y-55142743D01*
X101440762Y-55255639D01*
X101725721Y-55331993D01*
X102018208Y-55370500D01*
X102018215Y-55370500D01*
X102313213Y-55370500D01*
X102313220Y-55370500D01*
X102605707Y-55331993D01*
X102890666Y-55255639D01*
X103163221Y-55142743D01*
X103418708Y-54995238D01*
X103652756Y-54815646D01*
X103861360Y-54607042D01*
X104040952Y-54372994D01*
X104188457Y-54117507D01*
X104301353Y-53844952D01*
X104377707Y-53559993D01*
X104416214Y-53267506D01*
X104416214Y-49472494D01*
X104416213Y-49472486D01*
X108740929Y-49472486D01*
X108740929Y-53267513D01*
X108758700Y-53402490D01*
X108779436Y-53559993D01*
X108779437Y-53559995D01*
X108855790Y-53844951D01*
X108855793Y-53844961D01*
X108968683Y-54117500D01*
X108968687Y-54117510D01*
X109116190Y-54372993D01*
X109295781Y-54607040D01*
X109295787Y-54607047D01*
X109504381Y-54815641D01*
X109504388Y-54815647D01*
X109738435Y-54995238D01*
X109993918Y-55142741D01*
X109993919Y-55142741D01*
X109993922Y-55142743D01*
X110266477Y-55255639D01*
X110551436Y-55331993D01*
X110843923Y-55370500D01*
X110843930Y-55370500D01*
X111138928Y-55370500D01*
X111138935Y-55370500D01*
X111431422Y-55331993D01*
X111716381Y-55255639D01*
X111988936Y-55142743D01*
X112244423Y-54995238D01*
X112478471Y-54815646D01*
X112687075Y-54607042D01*
X112866667Y-54372994D01*
X113014172Y-54117507D01*
X113127068Y-53844952D01*
X113203422Y-53559993D01*
X113241929Y-53267506D01*
X113241929Y-49472494D01*
X113241928Y-49472486D01*
X118900929Y-49472486D01*
X118900929Y-53267513D01*
X118918700Y-53402490D01*
X118939436Y-53559993D01*
X118939437Y-53559995D01*
X119015790Y-53844951D01*
X119015793Y-53844961D01*
X119128683Y-54117500D01*
X119128687Y-54117510D01*
X119276190Y-54372993D01*
X119455781Y-54607040D01*
X119455787Y-54607047D01*
X119664381Y-54815641D01*
X119664388Y-54815647D01*
X119898435Y-54995238D01*
X120153918Y-55142741D01*
X120153919Y-55142741D01*
X120153922Y-55142743D01*
X120426477Y-55255639D01*
X120711436Y-55331993D01*
X121003923Y-55370500D01*
X121003930Y-55370500D01*
X121298928Y-55370500D01*
X121298935Y-55370500D01*
X121591422Y-55331993D01*
X121876381Y-55255639D01*
X122148936Y-55142743D01*
X122404423Y-54995238D01*
X122638471Y-54815646D01*
X122847075Y-54607042D01*
X123026667Y-54372994D01*
X123174172Y-54117507D01*
X123287068Y-53844952D01*
X123363422Y-53559993D01*
X123401929Y-53267506D01*
X123401929Y-49472494D01*
X123401928Y-49472486D01*
X127726643Y-49472486D01*
X127726643Y-53267513D01*
X127744414Y-53402490D01*
X127765150Y-53559993D01*
X127765151Y-53559995D01*
X127841504Y-53844951D01*
X127841507Y-53844961D01*
X127954397Y-54117500D01*
X127954401Y-54117510D01*
X128101904Y-54372993D01*
X128281495Y-54607040D01*
X128281501Y-54607047D01*
X128490095Y-54815641D01*
X128490102Y-54815647D01*
X128724149Y-54995238D01*
X128979632Y-55142741D01*
X128979633Y-55142741D01*
X128979636Y-55142743D01*
X129252191Y-55255639D01*
X129537150Y-55331993D01*
X129829637Y-55370500D01*
X129829644Y-55370500D01*
X130124642Y-55370500D01*
X130124649Y-55370500D01*
X130417136Y-55331993D01*
X130702095Y-55255639D01*
X130974650Y-55142743D01*
X131230137Y-54995238D01*
X131464185Y-54815646D01*
X131672789Y-54607042D01*
X131852381Y-54372994D01*
X131999886Y-54117507D01*
X132112782Y-53844952D01*
X132189136Y-53559993D01*
X132227643Y-53267506D01*
X132227643Y-49472494D01*
X132227642Y-49472486D01*
X137886643Y-49472486D01*
X137886643Y-53267513D01*
X137904414Y-53402490D01*
X137925150Y-53559993D01*
X137925151Y-53559995D01*
X138001504Y-53844951D01*
X138001507Y-53844961D01*
X138114397Y-54117500D01*
X138114401Y-54117510D01*
X138261904Y-54372993D01*
X138441495Y-54607040D01*
X138441501Y-54607047D01*
X138650095Y-54815641D01*
X138650102Y-54815647D01*
X138884149Y-54995238D01*
X139139632Y-55142741D01*
X139139633Y-55142741D01*
X139139636Y-55142743D01*
X139412191Y-55255639D01*
X139697150Y-55331993D01*
X139989637Y-55370500D01*
X139989644Y-55370500D01*
X140284642Y-55370500D01*
X140284649Y-55370500D01*
X140577136Y-55331993D01*
X140862095Y-55255639D01*
X141134650Y-55142743D01*
X141390137Y-54995238D01*
X141624185Y-54815646D01*
X141832789Y-54607042D01*
X142012381Y-54372994D01*
X142159886Y-54117507D01*
X142272782Y-53844952D01*
X142349136Y-53559993D01*
X142387643Y-53267506D01*
X142387643Y-49472494D01*
X142387642Y-49472486D01*
X146712357Y-49472486D01*
X146712357Y-53267513D01*
X146730128Y-53402490D01*
X146750864Y-53559993D01*
X146750865Y-53559995D01*
X146827218Y-53844951D01*
X146827221Y-53844961D01*
X146940111Y-54117500D01*
X146940115Y-54117510D01*
X147087618Y-54372993D01*
X147267209Y-54607040D01*
X147267215Y-54607047D01*
X147475809Y-54815641D01*
X147475816Y-54815647D01*
X147709863Y-54995238D01*
X147965346Y-55142741D01*
X147965347Y-55142741D01*
X147965350Y-55142743D01*
X148237905Y-55255639D01*
X148522864Y-55331993D01*
X148815351Y-55370500D01*
X148815358Y-55370500D01*
X149110356Y-55370500D01*
X149110363Y-55370500D01*
X149402850Y-55331993D01*
X149687809Y-55255639D01*
X149960364Y-55142743D01*
X150215851Y-54995238D01*
X150449899Y-54815646D01*
X150658503Y-54607042D01*
X150838095Y-54372994D01*
X150985600Y-54117507D01*
X151098496Y-53844952D01*
X151174850Y-53559993D01*
X151213357Y-53267506D01*
X151213357Y-49472494D01*
X151213356Y-49472486D01*
X156872357Y-49472486D01*
X156872357Y-53267513D01*
X156890128Y-53402490D01*
X156910864Y-53559993D01*
X156910865Y-53559995D01*
X156987218Y-53844951D01*
X156987221Y-53844961D01*
X157100111Y-54117500D01*
X157100115Y-54117510D01*
X157247618Y-54372993D01*
X157427209Y-54607040D01*
X157427215Y-54607047D01*
X157635809Y-54815641D01*
X157635816Y-54815647D01*
X157869863Y-54995238D01*
X158125346Y-55142741D01*
X158125347Y-55142741D01*
X158125350Y-55142743D01*
X158397905Y-55255639D01*
X158682864Y-55331993D01*
X158975351Y-55370500D01*
X158975358Y-55370500D01*
X159270356Y-55370500D01*
X159270363Y-55370500D01*
X159562850Y-55331993D01*
X159847809Y-55255639D01*
X160120364Y-55142743D01*
X160375851Y-54995238D01*
X160609899Y-54815646D01*
X160818503Y-54607042D01*
X160998095Y-54372994D01*
X161145600Y-54117507D01*
X161258496Y-53844952D01*
X161334850Y-53559993D01*
X161373357Y-53267506D01*
X161373357Y-49472494D01*
X161373356Y-49472486D01*
X165698071Y-49472486D01*
X165698071Y-53267513D01*
X165715842Y-53402490D01*
X165736578Y-53559993D01*
X165736579Y-53559995D01*
X165812932Y-53844951D01*
X165812935Y-53844961D01*
X165925825Y-54117500D01*
X165925829Y-54117510D01*
X166073332Y-54372993D01*
X166252923Y-54607040D01*
X166252929Y-54607047D01*
X166461523Y-54815641D01*
X166461530Y-54815647D01*
X166695577Y-54995238D01*
X166951060Y-55142741D01*
X166951061Y-55142741D01*
X166951064Y-55142743D01*
X167223619Y-55255639D01*
X167508578Y-55331993D01*
X167801065Y-55370500D01*
X167801072Y-55370500D01*
X168096070Y-55370500D01*
X168096077Y-55370500D01*
X168388564Y-55331993D01*
X168673523Y-55255639D01*
X168946078Y-55142743D01*
X169201565Y-54995238D01*
X169435613Y-54815646D01*
X169644217Y-54607042D01*
X169823809Y-54372994D01*
X169971314Y-54117507D01*
X170084210Y-53844952D01*
X170160564Y-53559993D01*
X170199071Y-53267506D01*
X170199071Y-49472494D01*
X170199070Y-49472486D01*
X175858071Y-49472486D01*
X175858071Y-53267513D01*
X175875842Y-53402490D01*
X175896578Y-53559993D01*
X175896579Y-53559995D01*
X175972932Y-53844951D01*
X175972935Y-53844961D01*
X176085825Y-54117500D01*
X176085829Y-54117510D01*
X176233332Y-54372993D01*
X176412923Y-54607040D01*
X176412929Y-54607047D01*
X176621523Y-54815641D01*
X176621530Y-54815647D01*
X176855577Y-54995238D01*
X177111060Y-55142741D01*
X177111061Y-55142741D01*
X177111064Y-55142743D01*
X177383619Y-55255639D01*
X177668578Y-55331993D01*
X177961065Y-55370500D01*
X177961072Y-55370500D01*
X178256070Y-55370500D01*
X178256077Y-55370500D01*
X178548564Y-55331993D01*
X178833523Y-55255639D01*
X179106078Y-55142743D01*
X179361565Y-54995238D01*
X179595613Y-54815646D01*
X179804217Y-54607042D01*
X179983809Y-54372994D01*
X180131314Y-54117507D01*
X180244210Y-53844952D01*
X180320564Y-53559993D01*
X180359071Y-53267506D01*
X180359071Y-49472494D01*
X180359070Y-49472486D01*
X184683786Y-49472486D01*
X184683786Y-53267513D01*
X184701557Y-53402490D01*
X184722293Y-53559993D01*
X184722294Y-53559995D01*
X184798647Y-53844951D01*
X184798650Y-53844961D01*
X184911540Y-54117500D01*
X184911544Y-54117510D01*
X185059047Y-54372993D01*
X185238638Y-54607040D01*
X185238644Y-54607047D01*
X185447238Y-54815641D01*
X185447245Y-54815647D01*
X185681292Y-54995238D01*
X185936775Y-55142741D01*
X185936776Y-55142741D01*
X185936779Y-55142743D01*
X186209334Y-55255639D01*
X186494293Y-55331993D01*
X186786780Y-55370500D01*
X186786787Y-55370500D01*
X187081785Y-55370500D01*
X187081792Y-55370500D01*
X187374279Y-55331993D01*
X187659238Y-55255639D01*
X187931793Y-55142743D01*
X188187280Y-54995238D01*
X188421328Y-54815646D01*
X188629932Y-54607042D01*
X188809524Y-54372994D01*
X188957029Y-54117507D01*
X189069925Y-53844952D01*
X189146279Y-53559993D01*
X189184786Y-53267506D01*
X189184786Y-49472494D01*
X189184785Y-49472486D01*
X194843786Y-49472486D01*
X194843786Y-53267513D01*
X194861557Y-53402490D01*
X194882293Y-53559993D01*
X194882294Y-53559995D01*
X194958647Y-53844951D01*
X194958650Y-53844961D01*
X195071540Y-54117500D01*
X195071544Y-54117510D01*
X195219047Y-54372993D01*
X195398638Y-54607040D01*
X195398644Y-54607047D01*
X195607238Y-54815641D01*
X195607245Y-54815647D01*
X195841292Y-54995238D01*
X196096775Y-55142741D01*
X196096776Y-55142741D01*
X196096779Y-55142743D01*
X196369334Y-55255639D01*
X196654293Y-55331993D01*
X196946780Y-55370500D01*
X196946787Y-55370500D01*
X197241785Y-55370500D01*
X197241792Y-55370500D01*
X197534279Y-55331993D01*
X197819238Y-55255639D01*
X198091793Y-55142743D01*
X198347280Y-54995238D01*
X198581328Y-54815646D01*
X198789932Y-54607042D01*
X198969524Y-54372994D01*
X199117029Y-54117507D01*
X199229925Y-53844952D01*
X199306279Y-53559993D01*
X199344786Y-53267506D01*
X199344786Y-49472494D01*
X199344785Y-49472486D01*
X203669500Y-49472486D01*
X203669500Y-53267513D01*
X203687271Y-53402490D01*
X203708007Y-53559993D01*
X203708008Y-53559995D01*
X203784361Y-53844951D01*
X203784364Y-53844961D01*
X203897254Y-54117500D01*
X203897258Y-54117510D01*
X204044761Y-54372993D01*
X204224352Y-54607040D01*
X204224358Y-54607047D01*
X204432952Y-54815641D01*
X204432959Y-54815647D01*
X204667006Y-54995238D01*
X204922489Y-55142741D01*
X204922490Y-55142741D01*
X204922493Y-55142743D01*
X205195048Y-55255639D01*
X205480007Y-55331993D01*
X205772494Y-55370500D01*
X205772501Y-55370500D01*
X206067499Y-55370500D01*
X206067506Y-55370500D01*
X206359993Y-55331993D01*
X206644952Y-55255639D01*
X206917507Y-55142743D01*
X207172994Y-54995238D01*
X207407042Y-54815646D01*
X207615646Y-54607042D01*
X207795238Y-54372994D01*
X207942743Y-54117507D01*
X208055639Y-53844952D01*
X208131993Y-53559993D01*
X208170500Y-53267506D01*
X208170500Y-49472494D01*
X208170499Y-49472486D01*
X213829500Y-49472486D01*
X213829500Y-53267513D01*
X213847271Y-53402490D01*
X213868007Y-53559993D01*
X213868008Y-53559995D01*
X213944361Y-53844951D01*
X213944364Y-53844961D01*
X214057254Y-54117500D01*
X214057258Y-54117510D01*
X214204761Y-54372993D01*
X214384352Y-54607040D01*
X214384358Y-54607047D01*
X214592952Y-54815641D01*
X214592959Y-54815647D01*
X214827006Y-54995238D01*
X215082489Y-55142741D01*
X215082490Y-55142741D01*
X215082493Y-55142743D01*
X215355048Y-55255639D01*
X215640007Y-55331993D01*
X215932494Y-55370500D01*
X215932501Y-55370500D01*
X216227499Y-55370500D01*
X216227506Y-55370500D01*
X216519993Y-55331993D01*
X216804952Y-55255639D01*
X217077507Y-55142743D01*
X217332994Y-54995238D01*
X217567042Y-54815646D01*
X217775646Y-54607042D01*
X217955238Y-54372994D01*
X218009428Y-54279134D01*
X227538050Y-54279134D01*
X227538050Y-54480865D01*
X227569606Y-54680098D01*
X227631939Y-54871942D01*
X227659038Y-54925126D01*
X227723520Y-55051679D01*
X227842088Y-55214874D01*
X227984726Y-55357512D01*
X228147921Y-55476080D01*
X228280796Y-55543783D01*
X228327657Y-55567660D01*
X228519502Y-55629994D01*
X228567062Y-55637527D01*
X228630197Y-55667457D01*
X228667128Y-55726768D01*
X228666130Y-55796631D01*
X228627520Y-55854863D01*
X228567062Y-55882473D01*
X228519502Y-55890005D01*
X228327657Y-55952339D01*
X228147920Y-56043920D01*
X227984723Y-56162490D01*
X227842090Y-56305123D01*
X227723520Y-56468320D01*
X227631939Y-56648057D01*
X227569606Y-56839901D01*
X227538050Y-57039134D01*
X227538050Y-57240865D01*
X227569606Y-57440098D01*
X227631939Y-57631942D01*
X227659038Y-57685126D01*
X227723520Y-57811679D01*
X227842088Y-57974874D01*
X227984726Y-58117512D01*
X228147921Y-58236080D01*
X228327655Y-58327659D01*
X228327657Y-58327660D01*
X228519502Y-58389994D01*
X228567062Y-58397527D01*
X228630197Y-58427457D01*
X228667128Y-58486768D01*
X228666130Y-58556631D01*
X228627520Y-58614863D01*
X228567062Y-58642473D01*
X228519502Y-58650005D01*
X228327657Y-58712339D01*
X228147920Y-58803920D01*
X227984723Y-58922490D01*
X227842090Y-59065123D01*
X227723520Y-59228320D01*
X227631939Y-59408057D01*
X227569606Y-59599901D01*
X227538050Y-59799134D01*
X227538050Y-60000865D01*
X227569606Y-60200098D01*
X227631939Y-60391942D01*
X227659038Y-60445126D01*
X227723520Y-60571679D01*
X227842088Y-60734874D01*
X227984726Y-60877512D01*
X228147921Y-60996080D01*
X228327655Y-61087659D01*
X228327657Y-61087660D01*
X228519502Y-61149994D01*
X228567062Y-61157527D01*
X228630197Y-61187457D01*
X228667128Y-61246768D01*
X228666130Y-61316631D01*
X228627520Y-61374863D01*
X228567062Y-61402473D01*
X228519502Y-61410005D01*
X228327657Y-61472339D01*
X228147920Y-61563920D01*
X227984723Y-61682490D01*
X227842090Y-61825123D01*
X227723520Y-61988320D01*
X227631939Y-62168057D01*
X227569606Y-62359901D01*
X227538050Y-62559134D01*
X227538050Y-62760865D01*
X227569606Y-62960098D01*
X227631939Y-63151942D01*
X227659038Y-63205126D01*
X227723520Y-63331679D01*
X227842088Y-63494874D01*
X227984726Y-63637512D01*
X228147921Y-63756080D01*
X228327655Y-63847659D01*
X228327657Y-63847660D01*
X228519502Y-63909994D01*
X228567062Y-63917527D01*
X228630197Y-63947457D01*
X228667128Y-64006768D01*
X228666130Y-64076631D01*
X228627520Y-64134863D01*
X228567062Y-64162473D01*
X228519502Y-64170005D01*
X228327657Y-64232339D01*
X228147920Y-64323920D01*
X227984723Y-64442490D01*
X227842090Y-64585123D01*
X227723520Y-64748320D01*
X227631939Y-64928057D01*
X227569606Y-65119901D01*
X227538050Y-65319134D01*
X227538050Y-65520865D01*
X227569606Y-65720098D01*
X227631939Y-65911942D01*
X227659038Y-65965126D01*
X227723520Y-66091679D01*
X227842088Y-66254874D01*
X227984726Y-66397512D01*
X228147921Y-66516080D01*
X228327655Y-66607659D01*
X228327657Y-66607660D01*
X228519502Y-66669994D01*
X228567062Y-66677527D01*
X228630197Y-66707457D01*
X228667128Y-66766768D01*
X228666130Y-66836631D01*
X228627520Y-66894863D01*
X228567062Y-66922473D01*
X228519502Y-66930005D01*
X228327657Y-66992339D01*
X228147920Y-67083920D01*
X227984723Y-67202490D01*
X227842090Y-67345123D01*
X227723520Y-67508320D01*
X227631939Y-67688057D01*
X227569606Y-67879901D01*
X227538050Y-68079134D01*
X227538050Y-68280865D01*
X227569606Y-68480098D01*
X227631939Y-68671942D01*
X227659038Y-68725126D01*
X227723520Y-68851679D01*
X227842088Y-69014874D01*
X227984726Y-69157512D01*
X228147921Y-69276080D01*
X228327655Y-69367659D01*
X228327657Y-69367660D01*
X228519502Y-69429994D01*
X228567062Y-69437527D01*
X228630197Y-69467457D01*
X228667128Y-69526768D01*
X228666130Y-69596631D01*
X228627520Y-69654863D01*
X228567062Y-69682473D01*
X228519502Y-69690005D01*
X228327657Y-69752339D01*
X228147920Y-69843920D01*
X227984723Y-69962490D01*
X227842090Y-70105123D01*
X227723520Y-70268320D01*
X227631939Y-70448057D01*
X227569606Y-70639901D01*
X227538050Y-70839134D01*
X227538050Y-71040865D01*
X227569606Y-71240098D01*
X227631939Y-71431942D01*
X227659038Y-71485126D01*
X227723520Y-71611679D01*
X227842088Y-71774874D01*
X227984726Y-71917512D01*
X228147921Y-72036080D01*
X228327655Y-72127659D01*
X228327657Y-72127660D01*
X228519502Y-72189994D01*
X228567062Y-72197527D01*
X228630197Y-72227457D01*
X228667128Y-72286768D01*
X228666130Y-72356631D01*
X228627520Y-72414863D01*
X228567062Y-72442473D01*
X228519502Y-72450005D01*
X228327657Y-72512339D01*
X228147920Y-72603920D01*
X227984723Y-72722490D01*
X227842090Y-72865123D01*
X227723520Y-73028320D01*
X227631939Y-73208057D01*
X227569606Y-73399901D01*
X227538050Y-73599134D01*
X227538050Y-73800865D01*
X227569606Y-74000098D01*
X227631939Y-74191942D01*
X227659038Y-74245126D01*
X227723520Y-74371679D01*
X227842088Y-74534874D01*
X227984726Y-74677512D01*
X228147921Y-74796080D01*
X228327655Y-74887659D01*
X228327657Y-74887660D01*
X228519502Y-74949994D01*
X228567062Y-74957527D01*
X228630197Y-74987457D01*
X228667128Y-75046768D01*
X228666130Y-75116631D01*
X228627520Y-75174863D01*
X228567062Y-75202473D01*
X228519502Y-75210005D01*
X228327657Y-75272339D01*
X228147920Y-75363920D01*
X227984723Y-75482490D01*
X227842090Y-75625123D01*
X227723520Y-75788320D01*
X227631939Y-75968057D01*
X227569606Y-76159901D01*
X227538050Y-76359134D01*
X227538050Y-76560865D01*
X227569606Y-76760098D01*
X227631939Y-76951942D01*
X227659038Y-77005126D01*
X227723520Y-77131679D01*
X227842088Y-77294874D01*
X227984726Y-77437512D01*
X228147921Y-77556080D01*
X228327655Y-77647659D01*
X228327657Y-77647660D01*
X228519502Y-77709994D01*
X228567062Y-77717527D01*
X228630197Y-77747457D01*
X228667128Y-77806768D01*
X228666130Y-77876631D01*
X228627520Y-77934863D01*
X228567062Y-77962473D01*
X228519502Y-77970005D01*
X228327657Y-78032339D01*
X228147920Y-78123920D01*
X227984723Y-78242490D01*
X227842090Y-78385123D01*
X227723520Y-78548320D01*
X227631939Y-78728057D01*
X227569606Y-78919901D01*
X227538050Y-79119134D01*
X227538050Y-79320865D01*
X227569606Y-79520098D01*
X227631939Y-79711942D01*
X227659038Y-79765126D01*
X227723520Y-79891679D01*
X227842088Y-80054874D01*
X227984726Y-80197512D01*
X228147921Y-80316080D01*
X228327655Y-80407659D01*
X228327657Y-80407660D01*
X228519502Y-80469994D01*
X228567062Y-80477527D01*
X228630197Y-80507457D01*
X228667128Y-80566768D01*
X228666130Y-80636631D01*
X228627520Y-80694863D01*
X228567062Y-80722473D01*
X228519502Y-80730005D01*
X228327657Y-80792339D01*
X228147920Y-80883920D01*
X227984723Y-81002490D01*
X227842090Y-81145123D01*
X227723520Y-81308320D01*
X227631939Y-81488057D01*
X227569606Y-81679901D01*
X227538050Y-81879134D01*
X227538050Y-82080865D01*
X227569606Y-82280098D01*
X227631939Y-82471942D01*
X227659038Y-82525126D01*
X227723520Y-82651679D01*
X227842088Y-82814874D01*
X227984726Y-82957512D01*
X228147921Y-83076080D01*
X228327655Y-83167659D01*
X228327657Y-83167660D01*
X228519502Y-83229994D01*
X228567062Y-83237527D01*
X228630197Y-83267457D01*
X228667128Y-83326768D01*
X228666130Y-83396631D01*
X228627520Y-83454863D01*
X228567062Y-83482473D01*
X228519502Y-83490005D01*
X228327657Y-83552339D01*
X228147920Y-83643920D01*
X227984723Y-83762490D01*
X227842090Y-83905123D01*
X227723520Y-84068320D01*
X227631939Y-84248057D01*
X227569606Y-84439901D01*
X227538050Y-84639134D01*
X227538050Y-84840865D01*
X227569606Y-85040098D01*
X227631939Y-85231942D01*
X227659038Y-85285126D01*
X227723520Y-85411679D01*
X227842088Y-85574874D01*
X227984726Y-85717512D01*
X228147921Y-85836080D01*
X228327655Y-85927659D01*
X228327657Y-85927659D01*
X228327660Y-85927661D01*
X228327658Y-85927661D01*
X228478031Y-85976519D01*
X228535707Y-86015956D01*
X228562906Y-86080314D01*
X228550992Y-86149161D01*
X228503748Y-86200637D01*
X228439714Y-86218450D01*
X227990679Y-86218450D01*
X227990673Y-86218451D01*
X227931066Y-86224858D01*
X227796221Y-86275152D01*
X227796214Y-86275156D01*
X227681005Y-86361402D01*
X227681002Y-86361405D01*
X227594756Y-86476614D01*
X227594752Y-86476621D01*
X227544458Y-86611467D01*
X227538051Y-86671066D01*
X227538051Y-86671073D01*
X227538050Y-86671085D01*
X227538050Y-88328920D01*
X227538051Y-88328926D01*
X227544458Y-88388533D01*
X227594752Y-88523378D01*
X227594756Y-88523385D01*
X227681002Y-88638594D01*
X227681005Y-88638597D01*
X227796214Y-88724843D01*
X227796221Y-88724847D01*
X227931067Y-88775141D01*
X227931066Y-88775141D01*
X227937994Y-88775885D01*
X227990677Y-88781550D01*
X229648522Y-88781549D01*
X229708133Y-88775141D01*
X229842981Y-88724846D01*
X229958196Y-88638596D01*
X230044446Y-88523381D01*
X230094741Y-88388533D01*
X230101150Y-88328923D01*
X230101149Y-86671078D01*
X230094741Y-86611467D01*
X230044446Y-86476619D01*
X230044445Y-86476618D01*
X230044443Y-86476614D01*
X229958197Y-86361405D01*
X229958194Y-86361402D01*
X229842985Y-86275156D01*
X229842978Y-86275152D01*
X229708132Y-86224858D01*
X229708133Y-86224858D01*
X229648533Y-86218451D01*
X229648531Y-86218450D01*
X229648523Y-86218450D01*
X229648515Y-86218450D01*
X229199487Y-86218450D01*
X229132448Y-86198765D01*
X229086693Y-86145961D01*
X229076749Y-86076803D01*
X229105774Y-86013247D01*
X229161169Y-85976519D01*
X229311542Y-85927660D01*
X229311542Y-85927659D01*
X229311545Y-85927659D01*
X229491279Y-85836080D01*
X229654474Y-85717512D01*
X229797112Y-85574874D01*
X229915680Y-85411679D01*
X230007259Y-85231945D01*
X230069594Y-85040097D01*
X230097727Y-84862473D01*
X230101150Y-84840865D01*
X230101150Y-84639134D01*
X230072156Y-84456080D01*
X230069594Y-84439903D01*
X230007259Y-84248055D01*
X229915680Y-84068321D01*
X229797112Y-83905126D01*
X229654474Y-83762488D01*
X229491279Y-83643920D01*
X229311542Y-83552339D01*
X229119698Y-83490006D01*
X229072137Y-83482473D01*
X229009002Y-83452544D01*
X228972071Y-83393232D01*
X228973069Y-83323370D01*
X229011679Y-83265137D01*
X229072137Y-83237527D01*
X229082885Y-83235824D01*
X229119697Y-83229994D01*
X229311545Y-83167659D01*
X229491279Y-83076080D01*
X229654474Y-82957512D01*
X229797112Y-82814874D01*
X229915680Y-82651679D01*
X230007259Y-82471945D01*
X230069594Y-82280097D01*
X230097727Y-82102473D01*
X230101150Y-82080865D01*
X230101150Y-81879134D01*
X230072156Y-81696080D01*
X230069594Y-81679903D01*
X230007259Y-81488055D01*
X229915680Y-81308321D01*
X229797112Y-81145126D01*
X229654474Y-81002488D01*
X229491279Y-80883920D01*
X229311542Y-80792339D01*
X229119698Y-80730006D01*
X229072137Y-80722473D01*
X229009002Y-80692544D01*
X228972071Y-80633232D01*
X228973069Y-80563370D01*
X229011679Y-80505137D01*
X229072137Y-80477527D01*
X229082885Y-80475824D01*
X229119697Y-80469994D01*
X229311545Y-80407659D01*
X229491279Y-80316080D01*
X229654474Y-80197512D01*
X229797112Y-80054874D01*
X229915680Y-79891679D01*
X230007259Y-79711945D01*
X230069594Y-79520097D01*
X230097727Y-79342473D01*
X230101150Y-79320865D01*
X230101150Y-79119134D01*
X230072156Y-78936080D01*
X230069594Y-78919903D01*
X230007259Y-78728055D01*
X229915680Y-78548321D01*
X229797112Y-78385126D01*
X229654474Y-78242488D01*
X229491279Y-78123920D01*
X229311542Y-78032339D01*
X229119698Y-77970006D01*
X229072137Y-77962473D01*
X229009002Y-77932544D01*
X228972071Y-77873232D01*
X228973069Y-77803370D01*
X229011679Y-77745137D01*
X229072137Y-77717527D01*
X229082885Y-77715824D01*
X229119697Y-77709994D01*
X229311545Y-77647659D01*
X229491279Y-77556080D01*
X229654474Y-77437512D01*
X229797112Y-77294874D01*
X229915680Y-77131679D01*
X230007259Y-76951945D01*
X230069594Y-76760097D01*
X230097727Y-76582473D01*
X230101150Y-76560865D01*
X230101150Y-76359134D01*
X230072156Y-76176080D01*
X230069594Y-76159903D01*
X230007259Y-75968055D01*
X229915680Y-75788321D01*
X229797112Y-75625126D01*
X229654474Y-75482488D01*
X229491279Y-75363920D01*
X229311542Y-75272339D01*
X229119698Y-75210006D01*
X229072137Y-75202473D01*
X229009002Y-75172544D01*
X228972071Y-75113232D01*
X228973069Y-75043370D01*
X229011679Y-74985137D01*
X229072137Y-74957527D01*
X229082885Y-74955824D01*
X229119697Y-74949994D01*
X229311545Y-74887659D01*
X229491279Y-74796080D01*
X229654474Y-74677512D01*
X229797112Y-74534874D01*
X229915680Y-74371679D01*
X230007259Y-74191945D01*
X230069594Y-74000097D01*
X230097727Y-73822473D01*
X230101150Y-73800865D01*
X230101150Y-73599134D01*
X230072156Y-73416080D01*
X230069594Y-73399903D01*
X230007259Y-73208055D01*
X229915680Y-73028321D01*
X229797112Y-72865126D01*
X229654474Y-72722488D01*
X229491279Y-72603920D01*
X229311542Y-72512339D01*
X229119698Y-72450006D01*
X229072137Y-72442473D01*
X229009002Y-72412544D01*
X228972071Y-72353232D01*
X228973069Y-72283370D01*
X229011679Y-72225137D01*
X229072137Y-72197527D01*
X229082885Y-72195824D01*
X229119697Y-72189994D01*
X229311545Y-72127659D01*
X229491279Y-72036080D01*
X229654474Y-71917512D01*
X229797112Y-71774874D01*
X229915680Y-71611679D01*
X230007259Y-71431945D01*
X230069594Y-71240097D01*
X230097727Y-71062473D01*
X230101150Y-71040865D01*
X230101150Y-70839134D01*
X230072156Y-70656080D01*
X230069594Y-70639903D01*
X230007259Y-70448055D01*
X229915680Y-70268321D01*
X229797112Y-70105126D01*
X229654474Y-69962488D01*
X229491279Y-69843920D01*
X229311542Y-69752339D01*
X229119698Y-69690006D01*
X229072137Y-69682473D01*
X229009002Y-69652544D01*
X228972071Y-69593232D01*
X228973069Y-69523370D01*
X229011679Y-69465137D01*
X229072137Y-69437527D01*
X229082885Y-69435824D01*
X229119697Y-69429994D01*
X229311545Y-69367659D01*
X229491279Y-69276080D01*
X229654474Y-69157512D01*
X229797112Y-69014874D01*
X229915680Y-68851679D01*
X230007259Y-68671945D01*
X230069594Y-68480097D01*
X230097727Y-68302473D01*
X230101150Y-68280865D01*
X230101150Y-68079134D01*
X230072156Y-67896080D01*
X230069594Y-67879903D01*
X230007259Y-67688055D01*
X229915680Y-67508321D01*
X229797112Y-67345126D01*
X229654474Y-67202488D01*
X229491279Y-67083920D01*
X229311542Y-66992339D01*
X229119698Y-66930006D01*
X229072137Y-66922473D01*
X229009002Y-66892544D01*
X228972071Y-66833232D01*
X228973069Y-66763370D01*
X229011679Y-66705137D01*
X229072137Y-66677527D01*
X229082885Y-66675824D01*
X229119697Y-66669994D01*
X229311545Y-66607659D01*
X229491279Y-66516080D01*
X229654474Y-66397512D01*
X229797112Y-66254874D01*
X229915680Y-66091679D01*
X230007259Y-65911945D01*
X230069594Y-65720097D01*
X230097727Y-65542473D01*
X230101150Y-65520865D01*
X230101150Y-65319134D01*
X230072156Y-65136080D01*
X230069594Y-65119903D01*
X230007259Y-64928055D01*
X229915680Y-64748321D01*
X229797112Y-64585126D01*
X229654474Y-64442488D01*
X229491279Y-64323920D01*
X229311542Y-64232339D01*
X229119698Y-64170006D01*
X229072137Y-64162473D01*
X229009002Y-64132544D01*
X228972071Y-64073232D01*
X228973069Y-64003370D01*
X229011679Y-63945137D01*
X229072137Y-63917527D01*
X229082885Y-63915824D01*
X229119697Y-63909994D01*
X229311545Y-63847659D01*
X229491279Y-63756080D01*
X229654474Y-63637512D01*
X229797112Y-63494874D01*
X229915680Y-63331679D01*
X230007259Y-63151945D01*
X230069594Y-62960097D01*
X230097727Y-62782473D01*
X230101150Y-62760865D01*
X230101150Y-62559134D01*
X230072156Y-62376080D01*
X230069594Y-62359903D01*
X230007259Y-62168055D01*
X229915680Y-61988321D01*
X229797112Y-61825126D01*
X229654474Y-61682488D01*
X229491279Y-61563920D01*
X229311542Y-61472339D01*
X229119698Y-61410006D01*
X229072137Y-61402473D01*
X229009002Y-61372544D01*
X228972071Y-61313232D01*
X228973069Y-61243370D01*
X229011679Y-61185137D01*
X229072137Y-61157527D01*
X229082885Y-61155824D01*
X229119697Y-61149994D01*
X229311545Y-61087659D01*
X229491279Y-60996080D01*
X229654474Y-60877512D01*
X229797112Y-60734874D01*
X229915680Y-60571679D01*
X230007259Y-60391945D01*
X230069594Y-60200097D01*
X230097727Y-60022473D01*
X230101150Y-60000865D01*
X230101150Y-59799134D01*
X230072156Y-59616080D01*
X230069594Y-59599903D01*
X230007259Y-59408055D01*
X229915680Y-59228321D01*
X229797112Y-59065126D01*
X229654474Y-58922488D01*
X229491279Y-58803920D01*
X229311542Y-58712339D01*
X229119698Y-58650006D01*
X229072137Y-58642473D01*
X229009002Y-58612544D01*
X228972071Y-58553232D01*
X228973069Y-58483370D01*
X229011679Y-58425137D01*
X229072137Y-58397527D01*
X229082885Y-58395824D01*
X229119697Y-58389994D01*
X229311545Y-58327659D01*
X229491279Y-58236080D01*
X229654474Y-58117512D01*
X229797112Y-57974874D01*
X229915680Y-57811679D01*
X230007259Y-57631945D01*
X230069594Y-57440097D01*
X230097727Y-57262473D01*
X230101150Y-57240865D01*
X230101150Y-57039134D01*
X230072156Y-56856080D01*
X230069594Y-56839903D01*
X230007259Y-56648055D01*
X229915680Y-56468321D01*
X229797112Y-56305126D01*
X229654474Y-56162488D01*
X229491279Y-56043920D01*
X229311542Y-55952339D01*
X229119698Y-55890006D01*
X229072137Y-55882473D01*
X229009002Y-55852544D01*
X228972071Y-55793232D01*
X228973069Y-55723370D01*
X229011679Y-55665137D01*
X229024824Y-55659134D01*
X230382850Y-55659134D01*
X230382850Y-55860865D01*
X230414406Y-56060098D01*
X230476739Y-56251942D01*
X230503838Y-56305126D01*
X230568320Y-56431679D01*
X230686888Y-56594874D01*
X230829526Y-56737512D01*
X230992721Y-56856080D01*
X231172455Y-56947659D01*
X231172457Y-56947660D01*
X231364302Y-57009994D01*
X231411862Y-57017527D01*
X231474997Y-57047457D01*
X231511928Y-57106768D01*
X231510930Y-57176631D01*
X231472320Y-57234863D01*
X231411862Y-57262473D01*
X231364302Y-57270005D01*
X231172457Y-57332339D01*
X230992720Y-57423920D01*
X230829523Y-57542490D01*
X230686890Y-57685123D01*
X230568320Y-57848320D01*
X230476739Y-58028057D01*
X230414406Y-58219901D01*
X230382850Y-58419134D01*
X230382850Y-58620865D01*
X230414406Y-58820098D01*
X230476739Y-59011942D01*
X230503838Y-59065126D01*
X230568320Y-59191679D01*
X230686888Y-59354874D01*
X230829526Y-59497512D01*
X230992721Y-59616080D01*
X231172455Y-59707659D01*
X231172457Y-59707660D01*
X231364302Y-59769994D01*
X231411862Y-59777527D01*
X231474997Y-59807457D01*
X231511928Y-59866768D01*
X231510930Y-59936631D01*
X231472320Y-59994863D01*
X231411862Y-60022473D01*
X231364302Y-60030005D01*
X231172457Y-60092339D01*
X230992720Y-60183920D01*
X230829523Y-60302490D01*
X230686890Y-60445123D01*
X230568320Y-60608320D01*
X230476739Y-60788057D01*
X230414406Y-60979901D01*
X230382850Y-61179134D01*
X230382850Y-61380865D01*
X230414406Y-61580098D01*
X230476739Y-61771942D01*
X230503838Y-61825126D01*
X230568320Y-61951679D01*
X230686888Y-62114874D01*
X230829526Y-62257512D01*
X230992721Y-62376080D01*
X231172455Y-62467659D01*
X231172457Y-62467660D01*
X231364302Y-62529994D01*
X231411862Y-62537527D01*
X231474997Y-62567457D01*
X231511928Y-62626768D01*
X231510930Y-62696631D01*
X231472320Y-62754863D01*
X231411862Y-62782473D01*
X231364302Y-62790005D01*
X231172457Y-62852339D01*
X230992720Y-62943920D01*
X230829523Y-63062490D01*
X230686890Y-63205123D01*
X230568320Y-63368320D01*
X230476739Y-63548057D01*
X230414406Y-63739901D01*
X230382850Y-63939134D01*
X230382850Y-64140865D01*
X230414406Y-64340098D01*
X230476739Y-64531942D01*
X230503838Y-64585126D01*
X230568320Y-64711679D01*
X230686888Y-64874874D01*
X230829526Y-65017512D01*
X230992721Y-65136080D01*
X231172455Y-65227659D01*
X231172457Y-65227660D01*
X231364302Y-65289994D01*
X231411862Y-65297527D01*
X231474997Y-65327457D01*
X231511928Y-65386768D01*
X231510930Y-65456631D01*
X231472320Y-65514863D01*
X231411862Y-65542473D01*
X231364302Y-65550005D01*
X231172457Y-65612339D01*
X230992720Y-65703920D01*
X230829523Y-65822490D01*
X230686890Y-65965123D01*
X230568320Y-66128320D01*
X230476739Y-66308057D01*
X230414406Y-66499901D01*
X230382850Y-66699134D01*
X230382850Y-66900865D01*
X230414406Y-67100098D01*
X230476739Y-67291942D01*
X230503838Y-67345126D01*
X230568320Y-67471679D01*
X230686888Y-67634874D01*
X230829526Y-67777512D01*
X230992721Y-67896080D01*
X231172455Y-67987659D01*
X231172457Y-67987660D01*
X231364302Y-68049994D01*
X231411862Y-68057527D01*
X231474997Y-68087457D01*
X231511928Y-68146768D01*
X231510930Y-68216631D01*
X231472320Y-68274863D01*
X231411862Y-68302473D01*
X231364302Y-68310005D01*
X231172457Y-68372339D01*
X230992720Y-68463920D01*
X230829523Y-68582490D01*
X230686890Y-68725123D01*
X230568320Y-68888320D01*
X230476739Y-69068057D01*
X230414406Y-69259901D01*
X230382850Y-69459134D01*
X230382850Y-69660865D01*
X230414406Y-69860098D01*
X230476739Y-70051942D01*
X230503838Y-70105126D01*
X230568320Y-70231679D01*
X230686888Y-70394874D01*
X230829526Y-70537512D01*
X230992721Y-70656080D01*
X231172455Y-70747659D01*
X231172457Y-70747660D01*
X231364302Y-70809994D01*
X231411862Y-70817527D01*
X231474997Y-70847457D01*
X231511928Y-70906768D01*
X231510930Y-70976631D01*
X231472320Y-71034863D01*
X231411862Y-71062473D01*
X231364302Y-71070005D01*
X231172457Y-71132339D01*
X230992720Y-71223920D01*
X230829523Y-71342490D01*
X230686890Y-71485123D01*
X230568320Y-71648320D01*
X230476739Y-71828057D01*
X230414406Y-72019901D01*
X230382850Y-72219134D01*
X230382850Y-72420865D01*
X230414406Y-72620098D01*
X230476739Y-72811942D01*
X230503838Y-72865126D01*
X230568320Y-72991679D01*
X230686888Y-73154874D01*
X230829526Y-73297512D01*
X230992721Y-73416080D01*
X231172455Y-73507659D01*
X231172457Y-73507660D01*
X231364302Y-73569994D01*
X231411862Y-73577527D01*
X231474997Y-73607457D01*
X231511928Y-73666768D01*
X231510930Y-73736631D01*
X231472320Y-73794863D01*
X231411862Y-73822473D01*
X231364302Y-73830005D01*
X231172457Y-73892339D01*
X230992720Y-73983920D01*
X230829523Y-74102490D01*
X230686890Y-74245123D01*
X230568320Y-74408320D01*
X230476739Y-74588057D01*
X230414406Y-74779901D01*
X230382850Y-74979134D01*
X230382850Y-75180865D01*
X230414406Y-75380098D01*
X230476739Y-75571942D01*
X230503838Y-75625126D01*
X230568320Y-75751679D01*
X230686888Y-75914874D01*
X230829526Y-76057512D01*
X230992721Y-76176080D01*
X231172455Y-76267659D01*
X231172457Y-76267660D01*
X231364302Y-76329994D01*
X231411862Y-76337527D01*
X231474997Y-76367457D01*
X231511928Y-76426768D01*
X231510930Y-76496631D01*
X231472320Y-76554863D01*
X231411862Y-76582473D01*
X231364302Y-76590005D01*
X231172457Y-76652339D01*
X230992720Y-76743920D01*
X230829523Y-76862490D01*
X230686890Y-77005123D01*
X230568320Y-77168320D01*
X230476739Y-77348057D01*
X230414406Y-77539901D01*
X230382850Y-77739134D01*
X230382850Y-77940865D01*
X230414406Y-78140098D01*
X230476739Y-78331942D01*
X230503838Y-78385126D01*
X230568320Y-78511679D01*
X230686888Y-78674874D01*
X230829526Y-78817512D01*
X230992721Y-78936080D01*
X231172455Y-79027659D01*
X231172457Y-79027660D01*
X231364302Y-79089994D01*
X231411862Y-79097527D01*
X231474997Y-79127457D01*
X231511928Y-79186768D01*
X231510930Y-79256631D01*
X231472320Y-79314863D01*
X231411862Y-79342473D01*
X231364302Y-79350005D01*
X231172457Y-79412339D01*
X230992720Y-79503920D01*
X230829523Y-79622490D01*
X230686890Y-79765123D01*
X230568320Y-79928320D01*
X230476739Y-80108057D01*
X230414406Y-80299901D01*
X230382850Y-80499134D01*
X230382850Y-80700865D01*
X230414406Y-80900098D01*
X230476739Y-81091942D01*
X230503838Y-81145126D01*
X230568320Y-81271679D01*
X230686888Y-81434874D01*
X230829526Y-81577512D01*
X230992721Y-81696080D01*
X231172455Y-81787659D01*
X231172457Y-81787660D01*
X231364302Y-81849994D01*
X231411862Y-81857527D01*
X231474997Y-81887457D01*
X231511928Y-81946768D01*
X231510930Y-82016631D01*
X231472320Y-82074863D01*
X231411862Y-82102473D01*
X231364302Y-82110005D01*
X231172457Y-82172339D01*
X230992720Y-82263920D01*
X230829523Y-82382490D01*
X230686890Y-82525123D01*
X230568320Y-82688320D01*
X230476739Y-82868057D01*
X230414406Y-83059901D01*
X230382850Y-83259134D01*
X230382850Y-83460865D01*
X230414406Y-83660098D01*
X230476739Y-83851942D01*
X230503838Y-83905126D01*
X230568320Y-84031679D01*
X230686888Y-84194874D01*
X230829526Y-84337512D01*
X230992721Y-84456080D01*
X231172455Y-84547659D01*
X231172457Y-84547660D01*
X231364302Y-84609994D01*
X231411862Y-84617527D01*
X231474997Y-84647457D01*
X231511928Y-84706768D01*
X231510930Y-84776631D01*
X231472320Y-84834863D01*
X231411862Y-84862473D01*
X231364302Y-84870005D01*
X231172457Y-84932339D01*
X230992720Y-85023920D01*
X230829523Y-85142490D01*
X230686890Y-85285123D01*
X230568320Y-85448320D01*
X230476739Y-85628057D01*
X230414406Y-85819901D01*
X230382850Y-86019134D01*
X230382850Y-86220865D01*
X230414406Y-86420098D01*
X230476739Y-86611942D01*
X230506871Y-86671079D01*
X230568320Y-86791679D01*
X230686888Y-86954874D01*
X230829526Y-87097512D01*
X230992721Y-87216080D01*
X231172455Y-87307659D01*
X231172457Y-87307660D01*
X231268379Y-87338826D01*
X231364303Y-87369994D01*
X231456578Y-87384608D01*
X231563535Y-87401550D01*
X231563540Y-87401550D01*
X231765265Y-87401550D01*
X231861851Y-87386251D01*
X231964497Y-87369994D01*
X232156345Y-87307659D01*
X232336079Y-87216080D01*
X232499274Y-87097512D01*
X232641912Y-86954874D01*
X232760480Y-86791679D01*
X232852059Y-86611945D01*
X232914394Y-86420097D01*
X232930651Y-86317451D01*
X232945950Y-86220865D01*
X232945950Y-86019134D01*
X232916956Y-85836080D01*
X232914394Y-85819903D01*
X232852059Y-85628055D01*
X232760480Y-85448321D01*
X232641912Y-85285126D01*
X232499274Y-85142488D01*
X232336079Y-85023920D01*
X232156342Y-84932339D01*
X231964498Y-84870006D01*
X231916937Y-84862473D01*
X231853802Y-84832544D01*
X231816871Y-84773232D01*
X231817869Y-84703370D01*
X231856479Y-84645137D01*
X231916937Y-84617527D01*
X231927685Y-84615824D01*
X231964497Y-84609994D01*
X232156345Y-84547659D01*
X232336079Y-84456080D01*
X232499274Y-84337512D01*
X232641912Y-84194874D01*
X232760480Y-84031679D01*
X232852059Y-83851945D01*
X232914394Y-83660097D01*
X232942527Y-83482473D01*
X232945950Y-83460865D01*
X232945950Y-83259134D01*
X232916956Y-83076080D01*
X232914394Y-83059903D01*
X232852059Y-82868055D01*
X232760480Y-82688321D01*
X232641912Y-82525126D01*
X232499274Y-82382488D01*
X232336079Y-82263920D01*
X232156342Y-82172339D01*
X231964498Y-82110006D01*
X231916937Y-82102473D01*
X231853802Y-82072544D01*
X231816871Y-82013232D01*
X231817869Y-81943370D01*
X231856479Y-81885137D01*
X231916937Y-81857527D01*
X231927685Y-81855824D01*
X231964497Y-81849994D01*
X232156345Y-81787659D01*
X232336079Y-81696080D01*
X232499274Y-81577512D01*
X232641912Y-81434874D01*
X232760480Y-81271679D01*
X232852059Y-81091945D01*
X232914394Y-80900097D01*
X232942527Y-80722473D01*
X232945950Y-80700865D01*
X232945950Y-80499134D01*
X232916956Y-80316080D01*
X232914394Y-80299903D01*
X232852059Y-80108055D01*
X232760480Y-79928321D01*
X232641912Y-79765126D01*
X232499274Y-79622488D01*
X232336079Y-79503920D01*
X232156342Y-79412339D01*
X231964498Y-79350006D01*
X231916937Y-79342473D01*
X231853802Y-79312544D01*
X231816871Y-79253232D01*
X231817869Y-79183370D01*
X231856479Y-79125137D01*
X231916937Y-79097527D01*
X231927685Y-79095824D01*
X231964497Y-79089994D01*
X232156345Y-79027659D01*
X232336079Y-78936080D01*
X232499274Y-78817512D01*
X232641912Y-78674874D01*
X232760480Y-78511679D01*
X232852059Y-78331945D01*
X232914394Y-78140097D01*
X232942527Y-77962473D01*
X232945950Y-77940865D01*
X232945950Y-77739134D01*
X232916956Y-77556080D01*
X232914394Y-77539903D01*
X232852059Y-77348055D01*
X232760480Y-77168321D01*
X232641912Y-77005126D01*
X232499274Y-76862488D01*
X232336079Y-76743920D01*
X232156342Y-76652339D01*
X231964498Y-76590006D01*
X231916937Y-76582473D01*
X231853802Y-76552544D01*
X231816871Y-76493232D01*
X231817869Y-76423370D01*
X231856479Y-76365137D01*
X231916937Y-76337527D01*
X231927685Y-76335824D01*
X231964497Y-76329994D01*
X232156345Y-76267659D01*
X232336079Y-76176080D01*
X232499274Y-76057512D01*
X232641912Y-75914874D01*
X232760480Y-75751679D01*
X232852059Y-75571945D01*
X232914394Y-75380097D01*
X232942527Y-75202473D01*
X232945950Y-75180865D01*
X232945950Y-74979134D01*
X232916956Y-74796080D01*
X232914394Y-74779903D01*
X232852059Y-74588055D01*
X232760480Y-74408321D01*
X232641912Y-74245126D01*
X232499274Y-74102488D01*
X232336079Y-73983920D01*
X232156342Y-73892339D01*
X231964498Y-73830006D01*
X231916937Y-73822473D01*
X231853802Y-73792544D01*
X231816871Y-73733232D01*
X231817869Y-73663370D01*
X231856479Y-73605137D01*
X231916937Y-73577527D01*
X231927685Y-73575824D01*
X231964497Y-73569994D01*
X232156345Y-73507659D01*
X232336079Y-73416080D01*
X232499274Y-73297512D01*
X232641912Y-73154874D01*
X232760480Y-72991679D01*
X232852059Y-72811945D01*
X232914394Y-72620097D01*
X232942527Y-72442473D01*
X232945950Y-72420865D01*
X232945950Y-72219134D01*
X232916956Y-72036080D01*
X232914394Y-72019903D01*
X232852059Y-71828055D01*
X232760480Y-71648321D01*
X232641912Y-71485126D01*
X232499274Y-71342488D01*
X232336079Y-71223920D01*
X232156342Y-71132339D01*
X231964498Y-71070006D01*
X231916937Y-71062473D01*
X231853802Y-71032544D01*
X231816871Y-70973232D01*
X231817869Y-70903370D01*
X231856479Y-70845137D01*
X231916937Y-70817527D01*
X231927685Y-70815824D01*
X231964497Y-70809994D01*
X232156345Y-70747659D01*
X232336079Y-70656080D01*
X232499274Y-70537512D01*
X232641912Y-70394874D01*
X232760480Y-70231679D01*
X232852059Y-70051945D01*
X232914394Y-69860097D01*
X232942527Y-69682473D01*
X232945950Y-69660865D01*
X232945950Y-69459134D01*
X232916956Y-69276080D01*
X232914394Y-69259903D01*
X232852059Y-69068055D01*
X232760480Y-68888321D01*
X232641912Y-68725126D01*
X232499274Y-68582488D01*
X232336079Y-68463920D01*
X232156342Y-68372339D01*
X231964498Y-68310006D01*
X231916937Y-68302473D01*
X231853802Y-68272544D01*
X231816871Y-68213232D01*
X231817869Y-68143370D01*
X231856479Y-68085137D01*
X231916937Y-68057527D01*
X231927685Y-68055824D01*
X231964497Y-68049994D01*
X232156345Y-67987659D01*
X232336079Y-67896080D01*
X232499274Y-67777512D01*
X232641912Y-67634874D01*
X232760480Y-67471679D01*
X232852059Y-67291945D01*
X232914394Y-67100097D01*
X232942527Y-66922473D01*
X232945950Y-66900865D01*
X232945950Y-66699134D01*
X232916956Y-66516080D01*
X232914394Y-66499903D01*
X232852059Y-66308055D01*
X232760480Y-66128321D01*
X232641912Y-65965126D01*
X232499274Y-65822488D01*
X232336079Y-65703920D01*
X232156342Y-65612339D01*
X231964498Y-65550006D01*
X231916937Y-65542473D01*
X231853802Y-65512544D01*
X231816871Y-65453232D01*
X231817869Y-65383370D01*
X231856479Y-65325137D01*
X231916937Y-65297527D01*
X231927685Y-65295824D01*
X231964497Y-65289994D01*
X232156345Y-65227659D01*
X232336079Y-65136080D01*
X232499274Y-65017512D01*
X232641912Y-64874874D01*
X232760480Y-64711679D01*
X232852059Y-64531945D01*
X232914394Y-64340097D01*
X232942527Y-64162473D01*
X232945950Y-64140865D01*
X232945950Y-63939134D01*
X232916956Y-63756080D01*
X232914394Y-63739903D01*
X232852059Y-63548055D01*
X232760480Y-63368321D01*
X232641912Y-63205126D01*
X232499274Y-63062488D01*
X232336079Y-62943920D01*
X232156342Y-62852339D01*
X231964498Y-62790006D01*
X231916937Y-62782473D01*
X231853802Y-62752544D01*
X231816871Y-62693232D01*
X231817869Y-62623370D01*
X231856479Y-62565137D01*
X231916937Y-62537527D01*
X231927685Y-62535824D01*
X231964497Y-62529994D01*
X232156345Y-62467659D01*
X232336079Y-62376080D01*
X232499274Y-62257512D01*
X232641912Y-62114874D01*
X232760480Y-61951679D01*
X232852059Y-61771945D01*
X232914394Y-61580097D01*
X232942527Y-61402473D01*
X232945950Y-61380865D01*
X232945950Y-61179134D01*
X232916956Y-60996080D01*
X232914394Y-60979903D01*
X232852059Y-60788055D01*
X232760480Y-60608321D01*
X232641912Y-60445126D01*
X232499274Y-60302488D01*
X232336079Y-60183920D01*
X232156342Y-60092339D01*
X231964498Y-60030006D01*
X231916937Y-60022473D01*
X231853802Y-59992544D01*
X231816871Y-59933232D01*
X231817869Y-59863370D01*
X231856479Y-59805137D01*
X231916937Y-59777527D01*
X231927685Y-59775824D01*
X231964497Y-59769994D01*
X232156345Y-59707659D01*
X232336079Y-59616080D01*
X232499274Y-59497512D01*
X232641912Y-59354874D01*
X232760480Y-59191679D01*
X232852059Y-59011945D01*
X232914394Y-58820097D01*
X232942527Y-58642473D01*
X232945950Y-58620865D01*
X232945950Y-58419134D01*
X232916956Y-58236080D01*
X232914394Y-58219903D01*
X232852059Y-58028055D01*
X232760480Y-57848321D01*
X232641912Y-57685126D01*
X232499274Y-57542488D01*
X232336079Y-57423920D01*
X232330992Y-57421328D01*
X232156342Y-57332339D01*
X231964498Y-57270006D01*
X231916937Y-57262473D01*
X231853802Y-57232544D01*
X231816871Y-57173232D01*
X231817869Y-57103370D01*
X231856479Y-57045137D01*
X231916937Y-57017527D01*
X231927685Y-57015824D01*
X231964497Y-57009994D01*
X232156345Y-56947659D01*
X232336079Y-56856080D01*
X232499274Y-56737512D01*
X232641912Y-56594874D01*
X232760480Y-56431679D01*
X232852059Y-56251945D01*
X232914394Y-56060097D01*
X232931461Y-55952339D01*
X232945950Y-55860865D01*
X232945950Y-55659134D01*
X232920868Y-55500781D01*
X232914394Y-55459903D01*
X232868414Y-55318390D01*
X232852060Y-55268057D01*
X232824962Y-55214874D01*
X232760480Y-55088321D01*
X232641912Y-54925126D01*
X232499274Y-54782488D01*
X232336079Y-54663920D01*
X232156342Y-54572339D01*
X231964498Y-54510006D01*
X231765265Y-54478450D01*
X231765260Y-54478450D01*
X231563540Y-54478450D01*
X231563535Y-54478450D01*
X231364301Y-54510006D01*
X231172457Y-54572339D01*
X230992720Y-54663920D01*
X230829523Y-54782490D01*
X230686890Y-54925123D01*
X230568320Y-55088320D01*
X230476739Y-55268057D01*
X230414406Y-55459901D01*
X230382850Y-55659134D01*
X229024824Y-55659134D01*
X229072137Y-55637527D01*
X229082885Y-55635824D01*
X229119697Y-55629994D01*
X229311545Y-55567659D01*
X229491279Y-55476080D01*
X229654474Y-55357512D01*
X229797112Y-55214874D01*
X229915680Y-55051679D01*
X230007259Y-54871945D01*
X230069594Y-54680097D01*
X230096534Y-54510006D01*
X230101150Y-54480865D01*
X230101150Y-54279134D01*
X230075550Y-54117507D01*
X230069594Y-54079903D01*
X230007259Y-53888055D01*
X229915680Y-53708321D01*
X229797112Y-53545126D01*
X229654474Y-53402488D01*
X229491279Y-53283920D01*
X229311542Y-53192339D01*
X229119698Y-53130006D01*
X228920465Y-53098450D01*
X228920460Y-53098450D01*
X228718740Y-53098450D01*
X228718735Y-53098450D01*
X228519501Y-53130006D01*
X228327657Y-53192339D01*
X228147920Y-53283920D01*
X227984723Y-53402490D01*
X227842090Y-53545123D01*
X227723520Y-53708320D01*
X227631939Y-53888057D01*
X227569606Y-54079901D01*
X227538050Y-54279134D01*
X218009428Y-54279134D01*
X218102743Y-54117507D01*
X218215639Y-53844952D01*
X218291993Y-53559993D01*
X218330500Y-53267506D01*
X218330500Y-49472494D01*
X218291993Y-49180007D01*
X218215639Y-48895048D01*
X218102743Y-48622493D01*
X217955238Y-48367006D01*
X217798019Y-48162115D01*
X217775647Y-48132959D01*
X217775641Y-48132952D01*
X217567047Y-47924358D01*
X217567040Y-47924352D01*
X217454353Y-47837884D01*
X219400000Y-47837884D01*
X219400000Y-48162115D01*
X219431779Y-48484784D01*
X219431782Y-48484801D01*
X219495030Y-48802781D01*
X219495033Y-48802792D01*
X219589157Y-49113078D01*
X219713238Y-49412635D01*
X219713240Y-49412640D01*
X219866079Y-49698580D01*
X219866090Y-49698598D01*
X220046212Y-49968170D01*
X220046222Y-49968184D01*
X220195890Y-50150554D01*
X220195891Y-50150555D01*
X221405748Y-48940698D01*
X221479588Y-49042330D01*
X221657670Y-49220412D01*
X221759300Y-49294251D01*
X220549443Y-50504107D01*
X220549444Y-50504108D01*
X220731815Y-50653777D01*
X220731829Y-50653787D01*
X221001401Y-50833909D01*
X221001419Y-50833920D01*
X221287359Y-50986759D01*
X221287364Y-50986761D01*
X221586921Y-51110842D01*
X221897207Y-51204966D01*
X221897218Y-51204969D01*
X222215198Y-51268217D01*
X222215215Y-51268220D01*
X222537884Y-51300000D01*
X222862116Y-51300000D01*
X223184784Y-51268220D01*
X223184801Y-51268217D01*
X223502781Y-51204969D01*
X223502792Y-51204966D01*
X223813078Y-51110842D01*
X224112635Y-50986761D01*
X224112640Y-50986759D01*
X224398580Y-50833920D01*
X224398598Y-50833909D01*
X224668170Y-50653787D01*
X224668183Y-50653777D01*
X224850554Y-50504108D01*
X224850554Y-50504107D01*
X223640698Y-49294251D01*
X223742330Y-49220412D01*
X223920412Y-49042330D01*
X223994251Y-48940698D01*
X225204107Y-50150554D01*
X225204108Y-50150554D01*
X225353777Y-49968183D01*
X225353787Y-49968170D01*
X225533909Y-49698598D01*
X225533920Y-49698580D01*
X225686759Y-49412640D01*
X225686764Y-49412628D01*
X225722039Y-49327469D01*
X225722039Y-49327468D01*
X225810842Y-49113078D01*
X225904966Y-48802792D01*
X225904969Y-48802781D01*
X225968217Y-48484801D01*
X225968220Y-48484784D01*
X226000000Y-48162115D01*
X226000000Y-47837884D01*
X225968220Y-47515215D01*
X225968217Y-47515198D01*
X225924330Y-47294557D01*
X225924328Y-47294551D01*
X225920207Y-47273835D01*
X227646500Y-47273835D01*
X227646500Y-47565364D01*
X227679138Y-47855035D01*
X227679140Y-47855051D01*
X227744008Y-48139258D01*
X227744012Y-48139270D01*
X227840293Y-48414423D01*
X227966776Y-48677068D01*
X228121875Y-48923906D01*
X228238231Y-49069814D01*
X228956696Y-48351348D01*
X229031123Y-48453787D01*
X229207813Y-48630477D01*
X229310249Y-48704901D01*
X228591784Y-49423367D01*
X228737693Y-49539724D01*
X228984531Y-49694823D01*
X229247176Y-49821306D01*
X229522329Y-49917587D01*
X229522341Y-49917591D01*
X229806548Y-49982459D01*
X229806564Y-49982461D01*
X230096235Y-50015099D01*
X230096237Y-50015100D01*
X230387763Y-50015100D01*
X230387764Y-50015099D01*
X230677435Y-49982461D01*
X230677451Y-49982459D01*
X230961658Y-49917591D01*
X230961670Y-49917587D01*
X231236823Y-49821306D01*
X231499468Y-49694823D01*
X231746306Y-49539724D01*
X231892214Y-49423367D01*
X231892214Y-49423366D01*
X231173749Y-48704902D01*
X231276187Y-48630477D01*
X231452877Y-48453787D01*
X231527301Y-48351349D01*
X232245766Y-49069814D01*
X232245767Y-49069814D01*
X232362124Y-48923906D01*
X232517223Y-48677068D01*
X232643706Y-48414423D01*
X232739987Y-48139270D01*
X232739991Y-48139258D01*
X232804859Y-47855051D01*
X232804861Y-47855035D01*
X232837499Y-47565364D01*
X232837500Y-47565362D01*
X232837500Y-47273837D01*
X232837499Y-47273835D01*
X232804861Y-46984164D01*
X232804859Y-46984148D01*
X232739991Y-46699941D01*
X232739987Y-46699929D01*
X232643706Y-46424776D01*
X232517223Y-46162131D01*
X232362124Y-45915293D01*
X232245767Y-45769384D01*
X231527301Y-46487849D01*
X231452877Y-46385413D01*
X231276187Y-46208723D01*
X231173748Y-46134296D01*
X231892214Y-45415831D01*
X231746306Y-45299475D01*
X231499468Y-45144376D01*
X231236823Y-45017893D01*
X230961670Y-44921612D01*
X230961658Y-44921608D01*
X230677451Y-44856740D01*
X230677435Y-44856738D01*
X230387764Y-44824100D01*
X230096235Y-44824100D01*
X229806564Y-44856738D01*
X229806548Y-44856740D01*
X229522341Y-44921608D01*
X229522329Y-44921612D01*
X229247176Y-45017893D01*
X228984531Y-45144376D01*
X228737689Y-45299477D01*
X228737685Y-45299480D01*
X228591784Y-45415831D01*
X229310250Y-46134297D01*
X229207813Y-46208723D01*
X229031123Y-46385413D01*
X228956697Y-46487850D01*
X228238231Y-45769384D01*
X228121880Y-45915285D01*
X228121877Y-45915289D01*
X227966776Y-46162131D01*
X227840293Y-46424776D01*
X227744012Y-46699929D01*
X227744008Y-46699941D01*
X227679140Y-46984148D01*
X227679138Y-46984164D01*
X227646500Y-47273835D01*
X225920207Y-47273835D01*
X225904965Y-47197205D01*
X225810842Y-46886921D01*
X225686761Y-46587364D01*
X225686759Y-46587359D01*
X225533920Y-46301419D01*
X225533909Y-46301401D01*
X225353787Y-46031829D01*
X225353777Y-46031815D01*
X225204108Y-45849444D01*
X225204107Y-45849443D01*
X223994250Y-47059300D01*
X223920412Y-46957670D01*
X223742330Y-46779588D01*
X223640697Y-46705747D01*
X224850555Y-45495891D01*
X224668184Y-45346222D01*
X224668170Y-45346212D01*
X224398598Y-45166090D01*
X224398580Y-45166079D01*
X224112640Y-45013240D01*
X224112635Y-45013238D01*
X223813078Y-44889157D01*
X223502792Y-44795033D01*
X223502781Y-44795030D01*
X223184801Y-44731782D01*
X223184784Y-44731779D01*
X222862116Y-44700000D01*
X222537884Y-44700000D01*
X222215215Y-44731779D01*
X222215198Y-44731782D01*
X221897218Y-44795030D01*
X221897207Y-44795033D01*
X221586921Y-44889157D01*
X221287364Y-45013238D01*
X221287359Y-45013240D01*
X221001419Y-45166079D01*
X221001401Y-45166090D01*
X220731829Y-45346212D01*
X220731815Y-45346222D01*
X220549444Y-45495890D01*
X220549443Y-45495891D01*
X221759301Y-46705748D01*
X221657670Y-46779588D01*
X221479588Y-46957670D01*
X221405748Y-47059301D01*
X220195891Y-45849443D01*
X220195890Y-45849444D01*
X220046222Y-46031815D01*
X220046212Y-46031829D01*
X219866090Y-46301401D01*
X219866079Y-46301419D01*
X219713240Y-46587359D01*
X219713238Y-46587364D01*
X219589157Y-46886921D01*
X219495033Y-47197207D01*
X219495030Y-47197218D01*
X219431782Y-47515198D01*
X219431779Y-47515215D01*
X219400000Y-47837884D01*
X217454353Y-47837884D01*
X217332993Y-47744761D01*
X217077510Y-47597258D01*
X217077500Y-47597254D01*
X216804961Y-47484364D01*
X216804954Y-47484362D01*
X216804952Y-47484361D01*
X216519993Y-47408007D01*
X216471113Y-47401571D01*
X216227513Y-47369500D01*
X216227506Y-47369500D01*
X215932494Y-47369500D01*
X215932486Y-47369500D01*
X215654085Y-47406153D01*
X215640007Y-47408007D01*
X215355048Y-47484361D01*
X215355038Y-47484364D01*
X215082499Y-47597254D01*
X215082489Y-47597258D01*
X214827006Y-47744761D01*
X214592959Y-47924352D01*
X214592952Y-47924358D01*
X214384358Y-48132952D01*
X214384352Y-48132959D01*
X214204761Y-48367006D01*
X214057258Y-48622489D01*
X214057254Y-48622499D01*
X213944364Y-48895038D01*
X213944361Y-48895048D01*
X213885941Y-49113078D01*
X213868008Y-49180004D01*
X213868006Y-49180015D01*
X213829500Y-49472486D01*
X208170499Y-49472486D01*
X208131993Y-49180007D01*
X208055639Y-48895048D01*
X207942743Y-48622493D01*
X207795238Y-48367006D01*
X207638019Y-48162115D01*
X207615647Y-48132959D01*
X207615641Y-48132952D01*
X207407047Y-47924358D01*
X207407040Y-47924352D01*
X207172993Y-47744761D01*
X206917510Y-47597258D01*
X206917500Y-47597254D01*
X206644961Y-47484364D01*
X206644954Y-47484362D01*
X206644952Y-47484361D01*
X206359993Y-47408007D01*
X206311113Y-47401571D01*
X206067513Y-47369500D01*
X206067506Y-47369500D01*
X205772494Y-47369500D01*
X205772486Y-47369500D01*
X205494085Y-47406153D01*
X205480007Y-47408007D01*
X205195048Y-47484361D01*
X205195038Y-47484364D01*
X204922499Y-47597254D01*
X204922489Y-47597258D01*
X204667006Y-47744761D01*
X204432959Y-47924352D01*
X204432952Y-47924358D01*
X204224358Y-48132952D01*
X204224352Y-48132959D01*
X204044761Y-48367006D01*
X203897258Y-48622489D01*
X203897254Y-48622499D01*
X203784364Y-48895038D01*
X203784361Y-48895048D01*
X203725941Y-49113078D01*
X203708008Y-49180004D01*
X203708006Y-49180015D01*
X203669500Y-49472486D01*
X199344785Y-49472486D01*
X199306279Y-49180007D01*
X199229925Y-48895048D01*
X199117029Y-48622493D01*
X198969524Y-48367006D01*
X198812305Y-48162115D01*
X198789933Y-48132959D01*
X198789927Y-48132952D01*
X198581333Y-47924358D01*
X198581326Y-47924352D01*
X198347279Y-47744761D01*
X198091796Y-47597258D01*
X198091786Y-47597254D01*
X197819247Y-47484364D01*
X197819240Y-47484362D01*
X197819238Y-47484361D01*
X197534279Y-47408007D01*
X197485399Y-47401571D01*
X197241799Y-47369500D01*
X197241792Y-47369500D01*
X196946780Y-47369500D01*
X196946772Y-47369500D01*
X196668371Y-47406153D01*
X196654293Y-47408007D01*
X196369334Y-47484361D01*
X196369324Y-47484364D01*
X196096785Y-47597254D01*
X196096775Y-47597258D01*
X195841292Y-47744761D01*
X195607245Y-47924352D01*
X195607238Y-47924358D01*
X195398644Y-48132952D01*
X195398638Y-48132959D01*
X195219047Y-48367006D01*
X195071544Y-48622489D01*
X195071540Y-48622499D01*
X194958650Y-48895038D01*
X194958647Y-48895048D01*
X194900227Y-49113078D01*
X194882294Y-49180004D01*
X194882292Y-49180015D01*
X194843786Y-49472486D01*
X189184785Y-49472486D01*
X189146279Y-49180007D01*
X189069925Y-48895048D01*
X188957029Y-48622493D01*
X188809524Y-48367006D01*
X188652305Y-48162115D01*
X188629933Y-48132959D01*
X188629927Y-48132952D01*
X188421333Y-47924358D01*
X188421326Y-47924352D01*
X188187279Y-47744761D01*
X187931796Y-47597258D01*
X187931786Y-47597254D01*
X187659247Y-47484364D01*
X187659240Y-47484362D01*
X187659238Y-47484361D01*
X187374279Y-47408007D01*
X187325399Y-47401571D01*
X187081799Y-47369500D01*
X187081792Y-47369500D01*
X186786780Y-47369500D01*
X186786772Y-47369500D01*
X186508371Y-47406153D01*
X186494293Y-47408007D01*
X186209334Y-47484361D01*
X186209324Y-47484364D01*
X185936785Y-47597254D01*
X185936775Y-47597258D01*
X185681292Y-47744761D01*
X185447245Y-47924352D01*
X185447238Y-47924358D01*
X185238644Y-48132952D01*
X185238638Y-48132959D01*
X185059047Y-48367006D01*
X184911544Y-48622489D01*
X184911540Y-48622499D01*
X184798650Y-48895038D01*
X184798647Y-48895048D01*
X184740227Y-49113078D01*
X184722294Y-49180004D01*
X184722292Y-49180015D01*
X184683786Y-49472486D01*
X180359070Y-49472486D01*
X180320564Y-49180007D01*
X180244210Y-48895048D01*
X180131314Y-48622493D01*
X179983809Y-48367006D01*
X179826590Y-48162115D01*
X179804218Y-48132959D01*
X179804212Y-48132952D01*
X179595618Y-47924358D01*
X179595611Y-47924352D01*
X179361564Y-47744761D01*
X179106081Y-47597258D01*
X179106071Y-47597254D01*
X178833532Y-47484364D01*
X178833525Y-47484362D01*
X178833523Y-47484361D01*
X178548564Y-47408007D01*
X178499684Y-47401571D01*
X178256084Y-47369500D01*
X178256077Y-47369500D01*
X177961065Y-47369500D01*
X177961057Y-47369500D01*
X177682656Y-47406153D01*
X177668578Y-47408007D01*
X177383619Y-47484361D01*
X177383609Y-47484364D01*
X177111070Y-47597254D01*
X177111060Y-47597258D01*
X176855577Y-47744761D01*
X176621530Y-47924352D01*
X176621523Y-47924358D01*
X176412929Y-48132952D01*
X176412923Y-48132959D01*
X176233332Y-48367006D01*
X176085829Y-48622489D01*
X176085825Y-48622499D01*
X175972935Y-48895038D01*
X175972932Y-48895048D01*
X175914512Y-49113078D01*
X175896579Y-49180004D01*
X175896577Y-49180015D01*
X175858071Y-49472486D01*
X170199070Y-49472486D01*
X170160564Y-49180007D01*
X170084210Y-48895048D01*
X169971314Y-48622493D01*
X169823809Y-48367006D01*
X169666590Y-48162115D01*
X169644218Y-48132959D01*
X169644212Y-48132952D01*
X169435618Y-47924358D01*
X169435611Y-47924352D01*
X169201564Y-47744761D01*
X168946081Y-47597258D01*
X168946071Y-47597254D01*
X168673532Y-47484364D01*
X168673525Y-47484362D01*
X168673523Y-47484361D01*
X168388564Y-47408007D01*
X168339684Y-47401571D01*
X168096084Y-47369500D01*
X168096077Y-47369500D01*
X167801065Y-47369500D01*
X167801057Y-47369500D01*
X167522656Y-47406153D01*
X167508578Y-47408007D01*
X167223619Y-47484361D01*
X167223609Y-47484364D01*
X166951070Y-47597254D01*
X166951060Y-47597258D01*
X166695577Y-47744761D01*
X166461530Y-47924352D01*
X166461523Y-47924358D01*
X166252929Y-48132952D01*
X166252923Y-48132959D01*
X166073332Y-48367006D01*
X165925829Y-48622489D01*
X165925825Y-48622499D01*
X165812935Y-48895038D01*
X165812932Y-48895048D01*
X165754512Y-49113078D01*
X165736579Y-49180004D01*
X165736577Y-49180015D01*
X165698071Y-49472486D01*
X161373356Y-49472486D01*
X161334850Y-49180007D01*
X161258496Y-48895048D01*
X161145600Y-48622493D01*
X160998095Y-48367006D01*
X160840876Y-48162115D01*
X160818504Y-48132959D01*
X160818498Y-48132952D01*
X160609904Y-47924358D01*
X160609897Y-47924352D01*
X160375850Y-47744761D01*
X160120367Y-47597258D01*
X160120357Y-47597254D01*
X159847818Y-47484364D01*
X159847811Y-47484362D01*
X159847809Y-47484361D01*
X159562850Y-47408007D01*
X159513970Y-47401571D01*
X159270370Y-47369500D01*
X159270363Y-47369500D01*
X158975351Y-47369500D01*
X158975343Y-47369500D01*
X158696942Y-47406153D01*
X158682864Y-47408007D01*
X158397905Y-47484361D01*
X158397895Y-47484364D01*
X158125356Y-47597254D01*
X158125346Y-47597258D01*
X157869863Y-47744761D01*
X157635816Y-47924352D01*
X157635809Y-47924358D01*
X157427215Y-48132952D01*
X157427209Y-48132959D01*
X157247618Y-48367006D01*
X157100115Y-48622489D01*
X157100111Y-48622499D01*
X156987221Y-48895038D01*
X156987218Y-48895048D01*
X156928798Y-49113078D01*
X156910865Y-49180004D01*
X156910863Y-49180015D01*
X156872357Y-49472486D01*
X151213356Y-49472486D01*
X151174850Y-49180007D01*
X151098496Y-48895048D01*
X150985600Y-48622493D01*
X150838095Y-48367006D01*
X150680876Y-48162115D01*
X150658504Y-48132959D01*
X150658498Y-48132952D01*
X150449904Y-47924358D01*
X150449897Y-47924352D01*
X150215850Y-47744761D01*
X149960367Y-47597258D01*
X149960357Y-47597254D01*
X149687818Y-47484364D01*
X149687811Y-47484362D01*
X149687809Y-47484361D01*
X149402850Y-47408007D01*
X149353970Y-47401571D01*
X149110370Y-47369500D01*
X149110363Y-47369500D01*
X148815351Y-47369500D01*
X148815343Y-47369500D01*
X148536942Y-47406153D01*
X148522864Y-47408007D01*
X148237905Y-47484361D01*
X148237895Y-47484364D01*
X147965356Y-47597254D01*
X147965346Y-47597258D01*
X147709863Y-47744761D01*
X147475816Y-47924352D01*
X147475809Y-47924358D01*
X147267215Y-48132952D01*
X147267209Y-48132959D01*
X147087618Y-48367006D01*
X146940115Y-48622489D01*
X146940111Y-48622499D01*
X146827221Y-48895038D01*
X146827218Y-48895048D01*
X146768798Y-49113078D01*
X146750865Y-49180004D01*
X146750863Y-49180015D01*
X146712357Y-49472486D01*
X142387642Y-49472486D01*
X142349136Y-49180007D01*
X142272782Y-48895048D01*
X142159886Y-48622493D01*
X142012381Y-48367006D01*
X141855162Y-48162115D01*
X141832790Y-48132959D01*
X141832784Y-48132952D01*
X141624190Y-47924358D01*
X141624183Y-47924352D01*
X141390136Y-47744761D01*
X141134653Y-47597258D01*
X141134643Y-47597254D01*
X140862104Y-47484364D01*
X140862097Y-47484362D01*
X140862095Y-47484361D01*
X140577136Y-47408007D01*
X140528256Y-47401571D01*
X140284656Y-47369500D01*
X140284649Y-47369500D01*
X139989637Y-47369500D01*
X139989629Y-47369500D01*
X139711228Y-47406153D01*
X139697150Y-47408007D01*
X139412191Y-47484361D01*
X139412181Y-47484364D01*
X139139642Y-47597254D01*
X139139632Y-47597258D01*
X138884149Y-47744761D01*
X138650102Y-47924352D01*
X138650095Y-47924358D01*
X138441501Y-48132952D01*
X138441495Y-48132959D01*
X138261904Y-48367006D01*
X138114401Y-48622489D01*
X138114397Y-48622499D01*
X138001507Y-48895038D01*
X138001504Y-48895048D01*
X137943084Y-49113078D01*
X137925151Y-49180004D01*
X137925149Y-49180015D01*
X137886643Y-49472486D01*
X132227642Y-49472486D01*
X132189136Y-49180007D01*
X132112782Y-48895048D01*
X131999886Y-48622493D01*
X131852381Y-48367006D01*
X131695162Y-48162115D01*
X131672790Y-48132959D01*
X131672784Y-48132952D01*
X131464190Y-47924358D01*
X131464183Y-47924352D01*
X131230136Y-47744761D01*
X130974653Y-47597258D01*
X130974643Y-47597254D01*
X130702104Y-47484364D01*
X130702097Y-47484362D01*
X130702095Y-47484361D01*
X130417136Y-47408007D01*
X130368256Y-47401571D01*
X130124656Y-47369500D01*
X130124649Y-47369500D01*
X129829637Y-47369500D01*
X129829629Y-47369500D01*
X129551228Y-47406153D01*
X129537150Y-47408007D01*
X129252191Y-47484361D01*
X129252181Y-47484364D01*
X128979642Y-47597254D01*
X128979632Y-47597258D01*
X128724149Y-47744761D01*
X128490102Y-47924352D01*
X128490095Y-47924358D01*
X128281501Y-48132952D01*
X128281495Y-48132959D01*
X128101904Y-48367006D01*
X127954401Y-48622489D01*
X127954397Y-48622499D01*
X127841507Y-48895038D01*
X127841504Y-48895048D01*
X127783084Y-49113078D01*
X127765151Y-49180004D01*
X127765149Y-49180015D01*
X127726643Y-49472486D01*
X123401928Y-49472486D01*
X123363422Y-49180007D01*
X123287068Y-48895048D01*
X123174172Y-48622493D01*
X123026667Y-48367006D01*
X122869448Y-48162115D01*
X122847076Y-48132959D01*
X122847070Y-48132952D01*
X122638476Y-47924358D01*
X122638469Y-47924352D01*
X122404422Y-47744761D01*
X122148939Y-47597258D01*
X122148929Y-47597254D01*
X121876390Y-47484364D01*
X121876383Y-47484362D01*
X121876381Y-47484361D01*
X121591422Y-47408007D01*
X121542542Y-47401571D01*
X121298942Y-47369500D01*
X121298935Y-47369500D01*
X121003923Y-47369500D01*
X121003915Y-47369500D01*
X120725514Y-47406153D01*
X120711436Y-47408007D01*
X120426477Y-47484361D01*
X120426467Y-47484364D01*
X120153928Y-47597254D01*
X120153918Y-47597258D01*
X119898435Y-47744761D01*
X119664388Y-47924352D01*
X119664381Y-47924358D01*
X119455787Y-48132952D01*
X119455781Y-48132959D01*
X119276190Y-48367006D01*
X119128687Y-48622489D01*
X119128683Y-48622499D01*
X119015793Y-48895038D01*
X119015790Y-48895048D01*
X118957370Y-49113078D01*
X118939437Y-49180004D01*
X118939435Y-49180015D01*
X118900929Y-49472486D01*
X113241928Y-49472486D01*
X113203422Y-49180007D01*
X113127068Y-48895048D01*
X113014172Y-48622493D01*
X112866667Y-48367006D01*
X112709448Y-48162115D01*
X112687076Y-48132959D01*
X112687070Y-48132952D01*
X112478476Y-47924358D01*
X112478469Y-47924352D01*
X112244422Y-47744761D01*
X111988939Y-47597258D01*
X111988929Y-47597254D01*
X111716390Y-47484364D01*
X111716383Y-47484362D01*
X111716381Y-47484361D01*
X111431422Y-47408007D01*
X111382542Y-47401571D01*
X111138942Y-47369500D01*
X111138935Y-47369500D01*
X110843923Y-47369500D01*
X110843915Y-47369500D01*
X110565514Y-47406153D01*
X110551436Y-47408007D01*
X110266477Y-47484361D01*
X110266467Y-47484364D01*
X109993928Y-47597254D01*
X109993918Y-47597258D01*
X109738435Y-47744761D01*
X109504388Y-47924352D01*
X109504381Y-47924358D01*
X109295787Y-48132952D01*
X109295781Y-48132959D01*
X109116190Y-48367006D01*
X108968687Y-48622489D01*
X108968683Y-48622499D01*
X108855793Y-48895038D01*
X108855790Y-48895048D01*
X108797370Y-49113078D01*
X108779437Y-49180004D01*
X108779435Y-49180015D01*
X108740929Y-49472486D01*
X104416213Y-49472486D01*
X104377707Y-49180007D01*
X104301353Y-48895048D01*
X104188457Y-48622493D01*
X104040952Y-48367006D01*
X103883733Y-48162115D01*
X103861361Y-48132959D01*
X103861355Y-48132952D01*
X103652761Y-47924358D01*
X103652754Y-47924352D01*
X103418707Y-47744761D01*
X103163224Y-47597258D01*
X103163214Y-47597254D01*
X102890675Y-47484364D01*
X102890668Y-47484362D01*
X102890666Y-47484361D01*
X102605707Y-47408007D01*
X102556827Y-47401571D01*
X102313227Y-47369500D01*
X102313220Y-47369500D01*
X102018208Y-47369500D01*
X102018200Y-47369500D01*
X101739799Y-47406153D01*
X101725721Y-47408007D01*
X101440762Y-47484361D01*
X101440752Y-47484364D01*
X101168213Y-47597254D01*
X101168203Y-47597258D01*
X100912720Y-47744761D01*
X100678673Y-47924352D01*
X100678666Y-47924358D01*
X100470072Y-48132952D01*
X100470066Y-48132959D01*
X100290475Y-48367006D01*
X100142972Y-48622489D01*
X100142968Y-48622499D01*
X100030078Y-48895038D01*
X100030075Y-48895048D01*
X99971655Y-49113078D01*
X99953722Y-49180004D01*
X99953720Y-49180015D01*
X99915214Y-49472486D01*
X94256213Y-49472486D01*
X94217707Y-49180007D01*
X94141353Y-48895048D01*
X94028457Y-48622493D01*
X93880952Y-48367006D01*
X93723733Y-48162115D01*
X93701361Y-48132959D01*
X93701355Y-48132952D01*
X93492761Y-47924358D01*
X93492754Y-47924352D01*
X93258707Y-47744761D01*
X93003224Y-47597258D01*
X93003214Y-47597254D01*
X92730675Y-47484364D01*
X92730668Y-47484362D01*
X92730666Y-47484361D01*
X92445707Y-47408007D01*
X92396827Y-47401571D01*
X92153227Y-47369500D01*
X92153220Y-47369500D01*
X91858208Y-47369500D01*
X91858200Y-47369500D01*
X91579799Y-47406153D01*
X91565721Y-47408007D01*
X91280762Y-47484361D01*
X91280752Y-47484364D01*
X91008213Y-47597254D01*
X91008203Y-47597258D01*
X90752720Y-47744761D01*
X90518673Y-47924352D01*
X90518666Y-47924358D01*
X90310072Y-48132952D01*
X90310066Y-48132959D01*
X90130475Y-48367006D01*
X89982972Y-48622489D01*
X89982968Y-48622499D01*
X89870078Y-48895038D01*
X89870075Y-48895048D01*
X89811655Y-49113078D01*
X89793722Y-49180004D01*
X89793720Y-49180015D01*
X89755214Y-49472486D01*
X85430499Y-49472486D01*
X85391993Y-49180007D01*
X85315639Y-48895048D01*
X85202743Y-48622493D01*
X85055238Y-48367006D01*
X84898019Y-48162115D01*
X84875647Y-48132959D01*
X84875641Y-48132952D01*
X84667047Y-47924358D01*
X84667040Y-47924352D01*
X84432993Y-47744761D01*
X84177510Y-47597258D01*
X84177500Y-47597254D01*
X83904961Y-47484364D01*
X83904954Y-47484362D01*
X83904952Y-47484361D01*
X83619993Y-47408007D01*
X83571113Y-47401571D01*
X83327513Y-47369500D01*
X83327506Y-47369500D01*
X83032494Y-47369500D01*
X83032486Y-47369500D01*
X82754085Y-47406153D01*
X82740007Y-47408007D01*
X82455048Y-47484361D01*
X82455038Y-47484364D01*
X82182499Y-47597254D01*
X82182489Y-47597258D01*
X81927006Y-47744761D01*
X81692959Y-47924352D01*
X81692952Y-47924358D01*
X81484358Y-48132952D01*
X81484352Y-48132959D01*
X81304761Y-48367006D01*
X81157258Y-48622489D01*
X81157254Y-48622499D01*
X81044364Y-48895038D01*
X81044361Y-48895048D01*
X80985941Y-49113078D01*
X80968008Y-49180004D01*
X80968006Y-49180015D01*
X80929500Y-49472486D01*
X75270499Y-49472486D01*
X75231993Y-49180007D01*
X75155639Y-48895048D01*
X75042743Y-48622493D01*
X74895238Y-48367006D01*
X74738019Y-48162115D01*
X74715647Y-48132959D01*
X74715641Y-48132952D01*
X74507047Y-47924358D01*
X74507040Y-47924352D01*
X74272993Y-47744761D01*
X74017510Y-47597258D01*
X74017500Y-47597254D01*
X73744961Y-47484364D01*
X73744954Y-47484362D01*
X73744952Y-47484361D01*
X73459993Y-47408007D01*
X73411113Y-47401571D01*
X73167513Y-47369500D01*
X73167506Y-47369500D01*
X72872494Y-47369500D01*
X72872486Y-47369500D01*
X72594085Y-47406153D01*
X72580007Y-47408007D01*
X72295048Y-47484361D01*
X72295038Y-47484364D01*
X72022499Y-47597254D01*
X72022489Y-47597258D01*
X71767006Y-47744761D01*
X71532959Y-47924352D01*
X71532952Y-47924358D01*
X71324358Y-48132952D01*
X71324352Y-48132959D01*
X71144761Y-48367006D01*
X70997258Y-48622489D01*
X70997254Y-48622499D01*
X70884364Y-48895038D01*
X70884361Y-48895048D01*
X70825941Y-49113078D01*
X70808008Y-49180004D01*
X70808006Y-49180015D01*
X70769500Y-49472486D01*
X68254770Y-49472486D01*
X68286761Y-49412634D01*
X68410842Y-49113078D01*
X68504966Y-48802792D01*
X68504969Y-48802781D01*
X68568217Y-48484801D01*
X68568220Y-48484784D01*
X68600000Y-48162115D01*
X68600000Y-47837884D01*
X68568220Y-47515215D01*
X68568217Y-47515198D01*
X68504969Y-47197218D01*
X68504966Y-47197207D01*
X68410842Y-46886921D01*
X68286761Y-46587364D01*
X68286759Y-46587359D01*
X68133920Y-46301419D01*
X68133909Y-46301401D01*
X67953787Y-46031829D01*
X67953777Y-46031815D01*
X67804108Y-45849444D01*
X67804107Y-45849443D01*
X66594250Y-47059300D01*
X66520412Y-46957670D01*
X66342330Y-46779588D01*
X66240697Y-46705747D01*
X67450555Y-45495891D01*
X67450554Y-45495890D01*
X67268184Y-45346222D01*
X67268170Y-45346212D01*
X66998598Y-45166090D01*
X66998580Y-45166079D01*
X66712640Y-45013240D01*
X66712635Y-45013238D01*
X66413078Y-44889157D01*
X66102792Y-44795033D01*
X66102781Y-44795030D01*
X65784801Y-44731782D01*
X65784784Y-44731779D01*
X65462116Y-44700000D01*
X65137884Y-44700000D01*
X64815215Y-44731779D01*
X64815198Y-44731782D01*
X64497218Y-44795030D01*
X64497207Y-44795033D01*
X64186921Y-44889157D01*
X63887364Y-45013238D01*
X63887359Y-45013240D01*
X63601419Y-45166079D01*
X63601401Y-45166090D01*
X63331829Y-45346212D01*
X63331815Y-45346222D01*
X63149444Y-45495890D01*
X63149443Y-45495891D01*
X64359301Y-46705748D01*
X64257670Y-46779588D01*
X64079588Y-46957670D01*
X64005748Y-47059301D01*
X62795891Y-45849443D01*
X62795890Y-45849444D01*
X62646222Y-46031815D01*
X62646212Y-46031829D01*
X62466090Y-46301401D01*
X62466079Y-46301419D01*
X62313240Y-46587359D01*
X62313238Y-46587364D01*
X62189157Y-46886921D01*
X62095033Y-47197207D01*
X62095030Y-47197218D01*
X62031782Y-47515198D01*
X62031779Y-47515215D01*
X62000000Y-47837884D01*
X60500500Y-47837884D01*
X60500500Y-46003750D01*
X60500726Y-45996263D01*
X60505624Y-45915285D01*
X60518271Y-45706201D01*
X60520076Y-45691340D01*
X60551044Y-45522354D01*
X60571780Y-45409201D01*
X60575364Y-45394663D01*
X60590462Y-45346212D01*
X60660696Y-45120822D01*
X60665998Y-45106841D01*
X60783731Y-44845249D01*
X60790676Y-44832016D01*
X60939080Y-44586526D01*
X60947567Y-44574230D01*
X61124480Y-44348417D01*
X61134395Y-44337226D01*
X61337226Y-44134395D01*
X61348417Y-44124480D01*
X61574230Y-43947567D01*
X61586526Y-43939080D01*
X61832016Y-43790676D01*
X61845249Y-43783731D01*
X62106841Y-43665998D01*
X62120822Y-43660696D01*
X62394668Y-43575362D01*
X62409197Y-43571780D01*
X62691344Y-43520075D01*
X62706201Y-43518271D01*
X62996264Y-43500726D01*
X63003751Y-43500500D01*
X63065892Y-43500500D01*
X236934108Y-43500500D01*
X236996249Y-43500500D01*
X237003736Y-43500726D01*
G37*
%TD.AperFunction*%
%TD*%
M02*
