M48
; DRILL file {KiCad 9.0.0} date 2025-06-08T21:09:37+0200
; FORMAT={-:-/ absolute / inch / decimal}
; #@! TF.CreationDate,2025-06-08T21:09:37+02:00
; #@! TF.GenerationSoftware,Kicad,Pcbnew,9.0.0
; #@! TF.FileFunction,Plated,1,2,PTH
FMAT,2
INCH
; #@! TA.AperFunction,Plated,PTH,ViaDrill
T1C0.0118
; #@! TA.AperFunction,Plated,PTH,ComponentDrill
T2C0.0350
; #@! TA.AperFunction,Plated,PTH,ComponentDrill
T3C0.0410
; #@! TA.AperFunction,Plated,PTH,ComponentDrill
T4C0.0791
; #@! TA.AperFunction,Plated,PTH,ComponentDrill
T5C0.1250
; #@! TA.AperFunction,Plated,PTH,ComponentDrill
T6C0.1260
%
G90
G05
T1
X2.5984Y-1.9291
X3.4139Y-1.9291
X3.4646Y-3.3858
X3.4646Y-3.5827
X4.2295Y-1.9291
X4.2913Y-2.9921
X4.2913Y-3.3858
X4.2913Y-3.5827
X4.9869Y-2.9921
X4.9869Y-3.189
X4.9869Y-3.3858
X4.9869Y-3.5827
X5.045Y-1.9291
X5.8605Y-1.9291
X6.0542Y-2.7953
X6.0542Y-2.9921
X6.0542Y-3.189
X6.0542Y-3.3858
X6.0542Y-3.5827
X6.676Y-1.9291
X7.1216Y-2.9921
X7.1216Y-3.189
X7.1216Y-3.3858
X7.1216Y-3.5827
X7.126Y-2.4016
X7.126Y-2.5984
X7.126Y-2.7953
X7.4916Y-1.9291
X8.189Y-2.4409
X8.189Y-2.5984
X8.189Y-2.7953
X8.189Y-2.9921
X8.189Y-3.189
X8.189Y-3.3858
X8.189Y-3.5827
X8.3071Y-1.9291
X8.7008Y-2.2835
T2
X2.4991Y-2.2224
X2.5991Y-2.2224
X3.3145Y-2.2224
X3.4145Y-2.2224
X4.1299Y-2.2224
X4.2299Y-2.2224
X4.9454Y-2.2224
X5.0454Y-2.2224
X5.7608Y-2.2224
X5.8608Y-2.2224
X6.5762Y-2.2224
X6.6762Y-2.2224
X7.3917Y-2.2224
X7.4917Y-2.2224
X8.2071Y-2.2224
X8.3071Y-2.2224
T3
X9.0086Y-2.1409
X9.0086Y-2.2496
X9.0086Y-2.3583
X9.0086Y-2.4669
X9.0086Y-2.5756
X9.0086Y-2.6843
X9.0086Y-2.7929
X9.0086Y-2.9016
X9.0086Y-3.0102
X9.0086Y-3.1189
X9.0086Y-3.2276
X9.0086Y-3.3362
X9.0086Y-3.4449
X9.1206Y-2.1953
X9.1206Y-2.3039
X9.1206Y-2.4126
X9.1206Y-2.5213
X9.1206Y-2.6299
X9.1206Y-2.7386
X9.1206Y-2.8472
X9.1206Y-2.9559
X9.1206Y-3.0646
X9.1206Y-3.1732
X9.1206Y-3.2819
X9.1206Y-3.3906
T4
X2.3991Y-2.0224
X2.7991Y-2.0224
X3.2145Y-2.0224
X3.6145Y-2.0224
X4.0299Y-2.0224
X4.4299Y-2.0224
X4.8454Y-2.0224
X5.2454Y-2.0224
X5.6608Y-2.0224
X6.0608Y-2.0224
X6.4762Y-2.0224
X6.8762Y-2.0224
X7.2917Y-2.0224
X7.6917Y-2.0224
X8.1071Y-2.0224
X8.5071Y-2.0224
T5
X9.0646Y-1.8669
X9.0646Y-3.7189
T6
X2.0866Y-1.8898
X2.0866Y-3.7008
X8.7677Y-1.8898
X8.7677Y-3.7008
M30
