M48
; DRILL file {KiCad 9.0.0} date 2025-06-08T16:05:14+0200
; FORMAT={-:-/ absolute / inch / decimal}
; #@! TF.CreationDate,2025-06-08T16:05:14+02:00
; #@! TF.GenerationSoftware,Kicad,Pcbnew,9.0.0
; #@! TF.FileFunction,Plated,1,2,PTH
FMAT,2
INCH
; #@! TA.AperFunction,Plated,PTH,ViaDrill
T1C0.0118
; #@! TA.AperFunction,Plated,PTH,ComponentDrill
T2C0.0350
; #@! TA.AperFunction,Plated,PTH,ComponentDrill
T3C0.0410
; #@! TA.AperFunction,Plated,PTH,ComponentDrill
T4C0.0791
; #@! TA.AperFunction,Plated,PTH,ComponentDrill
T5C0.1250
; #@! TA.AperFunction,Plated,PTH,ComponentDrill
T6C0.1260
%
G90
G05
T1
X3.0709Y-1.9291
X3.4646Y-3.3858
X3.4646Y-3.5827
X3.8189Y-1.9291
X4.2913Y-2.9921
X4.2913Y-3.3858
X4.2913Y-3.5827
X4.5669Y-1.9291
X4.9869Y-2.9921
X4.9869Y-3.189
X4.9869Y-3.3858
X4.9869Y-3.5827
X5.315Y-1.9291
X6.0542Y-2.7953
X6.0542Y-2.9921
X6.0542Y-3.189
X6.0542Y-3.3858
X6.0542Y-3.5827
X6.063Y-1.9291
X6.811Y-1.9291
X7.1216Y-2.9921
X7.1216Y-3.189
X7.1216Y-3.3858
X7.1216Y-3.5827
X7.126Y-2.4016
X7.126Y-2.5984
X7.126Y-2.7953
X7.5591Y-1.9291
X8.189Y-2.4409
X8.189Y-2.5984
X8.189Y-2.7953
X8.189Y-2.9921
X8.189Y-3.189
X8.189Y-3.3858
X8.189Y-3.5827
X8.3071Y-1.9291
X8.7008Y-2.2835
T2
X2.9748Y-2.2224
X3.0748Y-2.2224
X3.7223Y-2.2224
X3.8223Y-2.2224
X4.4697Y-2.2224
X4.5697Y-2.2224
X5.2172Y-2.2224
X5.3172Y-2.2224
X5.9647Y-2.2224
X6.0647Y-2.2224
X6.7121Y-2.2224
X6.8121Y-2.2224
X7.4596Y-2.2224
X7.5596Y-2.2224
X8.2071Y-2.2224
X8.3071Y-2.2224
T3
X9.0086Y-2.1409
X9.0086Y-2.2496
X9.0086Y-2.3583
X9.0086Y-2.4669
X9.0086Y-2.5756
X9.0086Y-2.6843
X9.0086Y-2.7929
X9.0086Y-2.9016
X9.0086Y-3.0102
X9.0086Y-3.1189
X9.0086Y-3.2276
X9.0086Y-3.3362
X9.0086Y-3.4449
X9.1206Y-2.1953
X9.1206Y-2.3039
X9.1206Y-2.4126
X9.1206Y-2.5213
X9.1206Y-2.6299
X9.1206Y-2.7386
X9.1206Y-2.8472
X9.1206Y-2.9559
X9.1206Y-3.0646
X9.1206Y-3.1732
X9.1206Y-3.2819
X9.1206Y-3.3906
T4
X2.8748Y-2.0224
X3.2748Y-2.0224
X3.6223Y-2.0224
X4.0223Y-2.0224
X4.3697Y-2.0224
X4.7697Y-2.0224
X5.1172Y-2.0224
X5.5172Y-2.0224
X5.8647Y-2.0224
X6.2647Y-2.0224
X6.6121Y-2.0224
X7.0121Y-2.0224
X7.3596Y-2.0224
X7.7596Y-2.0224
X8.1071Y-2.0224
X8.5071Y-2.0224
T5
X9.0646Y-1.8669
X9.0646Y-3.7189
T6
X2.5709Y-1.8898
X2.5709Y-3.7008
X8.7677Y-1.8898
X8.7677Y-3.7008
M30
