%TF.GenerationSoftware,KiCad,Pcbnew,9.0.0*%
%TF.CreationDate,2025-06-08T16:05:14+02:00*%
%TF.ProjectId,LDC_BNC_interface,4c44435f-424e-4435-9f69-6e7465726661,rev?*%
%TF.SameCoordinates,Original*%
%TF.FileFunction,Soldermask,Bot*%
%TF.FilePolarity,Negative*%
%FSLAX46Y46*%
G04 Gerber Fmt 4.6, Leading zero omitted, Abs format (unit mm)*
G04 Created by KiCad (PCBNEW 9.0.0) date 2025-06-08 16:05:14*
%MOMM*%
%LPD*%
G01*
G04 APERTURE LIST*
%ADD10C,5.600000*%
%ADD11O,1.600000X2.500000*%
%ADD12O,3.500000X7.000000*%
%ADD13C,4.191000*%
%ADD14R,1.562100X1.562100*%
%ADD15C,1.562100*%
G04 APERTURE END LIST*
D10*
%TO.C,H4*%
X65300000Y-48000000D03*
%TD*%
%TO.C,H3*%
X65300000Y-94000000D03*
%TD*%
%TO.C,H2*%
X222700000Y-94000000D03*
%TD*%
%TO.C,H1*%
X222700000Y-48000000D03*
%TD*%
D11*
%TO.C,J5*%
X116071429Y-56450000D03*
D12*
X110991429Y-51370000D03*
D11*
X113531429Y-56450000D03*
D12*
X121151429Y-51370000D03*
%TD*%
%TO.C,J1*%
X83180000Y-51370000D03*
D11*
X75560000Y-56450000D03*
D12*
X73020000Y-51370000D03*
D11*
X78100000Y-56450000D03*
%TD*%
D12*
%TO.C,J9*%
X197094286Y-51370000D03*
D11*
X189474286Y-56450000D03*
D12*
X186934286Y-51370000D03*
D11*
X192014286Y-56450000D03*
%TD*%
D12*
%TO.C,J2*%
X102165714Y-51370000D03*
D11*
X94545714Y-56450000D03*
D12*
X92005714Y-51370000D03*
D11*
X97085714Y-56450000D03*
%TD*%
D12*
%TO.C,J7*%
X159122857Y-51370000D03*
D11*
X151502857Y-56450000D03*
D12*
X148962857Y-51370000D03*
D11*
X154042857Y-56450000D03*
%TD*%
D12*
%TO.C,J8*%
X216080000Y-51370000D03*
D11*
X208460000Y-56450000D03*
D12*
X205920000Y-51370000D03*
D11*
X211000000Y-56450000D03*
%TD*%
D12*
%TO.C,J6*%
X178108571Y-51370000D03*
D11*
X170488571Y-56450000D03*
D12*
X167948571Y-51370000D03*
D11*
X173028571Y-56450000D03*
%TD*%
%TO.C,J3*%
X135057143Y-56450000D03*
D12*
X129977143Y-51370000D03*
D11*
X132517143Y-56450000D03*
D12*
X140137143Y-51370000D03*
%TD*%
D13*
%TO.C,J4*%
X230242000Y-94460400D03*
X230242000Y-47419600D03*
D14*
X228819600Y-87500000D03*
D15*
X228819600Y-84740000D03*
X228819600Y-81980000D03*
X228819600Y-79220000D03*
X228819600Y-76460000D03*
X228819600Y-73700000D03*
X228819600Y-70940000D03*
X228819600Y-68180000D03*
X228819600Y-65420000D03*
X228819600Y-62660000D03*
X228819600Y-59900000D03*
X228819600Y-57140000D03*
X228819600Y-54380000D03*
X231664400Y-86120000D03*
X231664400Y-83360000D03*
X231664400Y-80600000D03*
X231664400Y-77840000D03*
X231664400Y-75080000D03*
X231664400Y-72320000D03*
X231664400Y-69560000D03*
X231664400Y-66800000D03*
X231664400Y-64040000D03*
X231664400Y-61280000D03*
X231664400Y-58520000D03*
X231664400Y-55760000D03*
%TD*%
M02*
