%TF.GenerationSoftware,KiCad,Pcbnew,9.0.0*%
%TF.CreationDate,2025-06-08T16:05:14+02:00*%
%TF.ProjectId,LDC_BNC_interface,4c44435f-424e-4435-9f69-6e7465726661,rev?*%
%TF.SameCoordinates,Original*%
%TF.FileFunction,Legend,Top*%
%TF.FilePolarity,Positive*%
%FSLAX46Y46*%
G04 Gerber Fmt 4.6, Leading zero omitted, Abs format (unit mm)*
G04 Created by KiCad (PCBNEW 9.0.0) date 2025-06-08 16:05:14*
%MOMM*%
%LPD*%
G01*
G04 APERTURE LIST*
G04 Aperture macros list*
%AMRoundRect*
0 Rectangle with rounded corners*
0 $1 Rounding radius*
0 $2 $3 $4 $5 $6 $7 $8 $9 X,Y pos of 4 corners*
0 Add a 4 corners polygon primitive as box body*
4,1,4,$2,$3,$4,$5,$6,$7,$8,$9,$2,$3,0*
0 Add four circle primitives for the rounded corners*
1,1,$1+$1,$2,$3*
1,1,$1+$1,$4,$5*
1,1,$1+$1,$6,$7*
1,1,$1+$1,$8,$9*
0 Add four rect primitives between the rounded corners*
20,1,$1+$1,$2,$3,$4,$5,0*
20,1,$1+$1,$4,$5,$6,$7,0*
20,1,$1+$1,$6,$7,$8,$9,0*
20,1,$1+$1,$8,$9,$2,$3,0*%
G04 Aperture macros list end*
%ADD10C,0.150000*%
%ADD11C,0.625000*%
%ADD12C,0.300000*%
%ADD13C,0.100000*%
%ADD14C,0.120000*%
%ADD15C,0.127000*%
%ADD16C,0.400000*%
%ADD17C,5.600000*%
%ADD18O,1.600000X2.500000*%
%ADD19O,3.500000X7.000000*%
%ADD20C,4.395000*%
%ADD21RoundRect,0.102000X0.781050X-0.781050X0.781050X0.781050X-0.781050X0.781050X-0.781050X-0.781050X0*%
%ADD22C,1.766100*%
G04 APERTURE END LIST*
D10*
X236130180Y-67622493D02*
X235415895Y-67622493D01*
X235415895Y-67622493D02*
X235273038Y-67574874D01*
X235273038Y-67574874D02*
X235177800Y-67479636D01*
X235177800Y-67479636D02*
X235130180Y-67336779D01*
X235130180Y-67336779D02*
X235130180Y-67241541D01*
X235130180Y-68574874D02*
X235130180Y-68098684D01*
X235130180Y-68098684D02*
X236130180Y-68098684D01*
X235225419Y-69479636D02*
X235177800Y-69432017D01*
X235177800Y-69432017D02*
X235130180Y-69289160D01*
X235130180Y-69289160D02*
X235130180Y-69193922D01*
X235130180Y-69193922D02*
X235177800Y-69051065D01*
X235177800Y-69051065D02*
X235273038Y-68955827D01*
X235273038Y-68955827D02*
X235368276Y-68908208D01*
X235368276Y-68908208D02*
X235558752Y-68860589D01*
X235558752Y-68860589D02*
X235701609Y-68860589D01*
X235701609Y-68860589D02*
X235892085Y-68908208D01*
X235892085Y-68908208D02*
X235987323Y-68955827D01*
X235987323Y-68955827D02*
X236082561Y-69051065D01*
X236082561Y-69051065D02*
X236130180Y-69193922D01*
X236130180Y-69193922D02*
X236130180Y-69289160D01*
X236130180Y-69289160D02*
X236082561Y-69432017D01*
X236082561Y-69432017D02*
X236034942Y-69479636D01*
X236130180Y-70193922D02*
X235415895Y-70193922D01*
X235415895Y-70193922D02*
X235273038Y-70146303D01*
X235273038Y-70146303D02*
X235177800Y-70051065D01*
X235177800Y-70051065D02*
X235130180Y-69908208D01*
X235130180Y-69908208D02*
X235130180Y-69812970D01*
X235130180Y-71146303D02*
X235130180Y-70670113D01*
X235130180Y-70670113D02*
X236130180Y-70670113D01*
X235225419Y-72051065D02*
X235177800Y-72003446D01*
X235177800Y-72003446D02*
X235130180Y-71860589D01*
X235130180Y-71860589D02*
X235130180Y-71765351D01*
X235130180Y-71765351D02*
X235177800Y-71622494D01*
X235177800Y-71622494D02*
X235273038Y-71527256D01*
X235273038Y-71527256D02*
X235368276Y-71479637D01*
X235368276Y-71479637D02*
X235558752Y-71432018D01*
X235558752Y-71432018D02*
X235701609Y-71432018D01*
X235701609Y-71432018D02*
X235892085Y-71479637D01*
X235892085Y-71479637D02*
X235987323Y-71527256D01*
X235987323Y-71527256D02*
X236082561Y-71622494D01*
X236082561Y-71622494D02*
X236130180Y-71765351D01*
X236130180Y-71765351D02*
X236130180Y-71860589D01*
X236130180Y-71860589D02*
X236082561Y-72003446D01*
X236082561Y-72003446D02*
X236034942Y-72051065D01*
X236130180Y-72765351D02*
X235415895Y-72765351D01*
X235415895Y-72765351D02*
X235273038Y-72717732D01*
X235273038Y-72717732D02*
X235177800Y-72622494D01*
X235177800Y-72622494D02*
X235130180Y-72479637D01*
X235130180Y-72479637D02*
X235130180Y-72384399D01*
X235130180Y-73717732D02*
X235130180Y-73241542D01*
X235130180Y-73241542D02*
X236130180Y-73241542D01*
X235225419Y-74622494D02*
X235177800Y-74574875D01*
X235177800Y-74574875D02*
X235130180Y-74432018D01*
X235130180Y-74432018D02*
X235130180Y-74336780D01*
X235130180Y-74336780D02*
X235177800Y-74193923D01*
X235177800Y-74193923D02*
X235273038Y-74098685D01*
X235273038Y-74098685D02*
X235368276Y-74051066D01*
X235368276Y-74051066D02*
X235558752Y-74003447D01*
X235558752Y-74003447D02*
X235701609Y-74003447D01*
X235701609Y-74003447D02*
X235892085Y-74051066D01*
X235892085Y-74051066D02*
X235987323Y-74098685D01*
X235987323Y-74098685D02*
X236082561Y-74193923D01*
X236082561Y-74193923D02*
X236130180Y-74336780D01*
X236130180Y-74336780D02*
X236130180Y-74432018D01*
X236130180Y-74432018D02*
X236082561Y-74574875D01*
X236082561Y-74574875D02*
X236034942Y-74622494D01*
X236130180Y-75336780D02*
X235415895Y-75336780D01*
X235415895Y-75336780D02*
X235273038Y-75289161D01*
X235273038Y-75289161D02*
X235177800Y-75193923D01*
X235177800Y-75193923D02*
X235130180Y-75051066D01*
X235130180Y-75051066D02*
X235130180Y-74955828D01*
X235130180Y-76289161D02*
X235130180Y-75812971D01*
X235130180Y-75812971D02*
X236130180Y-75812971D01*
X235225419Y-77193923D02*
X235177800Y-77146304D01*
X235177800Y-77146304D02*
X235130180Y-77003447D01*
X235130180Y-77003447D02*
X235130180Y-76908209D01*
X235130180Y-76908209D02*
X235177800Y-76765352D01*
X235177800Y-76765352D02*
X235273038Y-76670114D01*
X235273038Y-76670114D02*
X235368276Y-76622495D01*
X235368276Y-76622495D02*
X235558752Y-76574876D01*
X235558752Y-76574876D02*
X235701609Y-76574876D01*
X235701609Y-76574876D02*
X235892085Y-76622495D01*
X235892085Y-76622495D02*
X235987323Y-76670114D01*
X235987323Y-76670114D02*
X236082561Y-76765352D01*
X236082561Y-76765352D02*
X236130180Y-76908209D01*
X236130180Y-76908209D02*
X236130180Y-77003447D01*
X236130180Y-77003447D02*
X236082561Y-77146304D01*
X236082561Y-77146304D02*
X236034942Y-77193923D01*
D11*
X111601660Y-83355595D02*
X111601660Y-78355595D01*
X114458803Y-83355595D02*
X112315945Y-80498452D01*
X114458803Y-78355595D02*
X111601660Y-81212738D01*
X116363564Y-81927023D02*
X118744517Y-81927023D01*
X115887374Y-83355595D02*
X117554041Y-78355595D01*
X117554041Y-78355595D02*
X119220707Y-83355595D01*
X120649278Y-83117500D02*
X121363564Y-83355595D01*
X121363564Y-83355595D02*
X122554040Y-83355595D01*
X122554040Y-83355595D02*
X123030231Y-83117500D01*
X123030231Y-83117500D02*
X123268326Y-82879404D01*
X123268326Y-82879404D02*
X123506421Y-82403214D01*
X123506421Y-82403214D02*
X123506421Y-81927023D01*
X123506421Y-81927023D02*
X123268326Y-81450833D01*
X123268326Y-81450833D02*
X123030231Y-81212738D01*
X123030231Y-81212738D02*
X122554040Y-80974642D01*
X122554040Y-80974642D02*
X121601659Y-80736547D01*
X121601659Y-80736547D02*
X121125469Y-80498452D01*
X121125469Y-80498452D02*
X120887374Y-80260357D01*
X120887374Y-80260357D02*
X120649278Y-79784166D01*
X120649278Y-79784166D02*
X120649278Y-79307976D01*
X120649278Y-79307976D02*
X120887374Y-78831785D01*
X120887374Y-78831785D02*
X121125469Y-78593690D01*
X121125469Y-78593690D02*
X121601659Y-78355595D01*
X121601659Y-78355595D02*
X122792136Y-78355595D01*
X122792136Y-78355595D02*
X123506421Y-78593690D01*
X125649279Y-83355595D02*
X125649279Y-78355595D01*
X125649279Y-78355595D02*
X127315945Y-81927023D01*
X127315945Y-81927023D02*
X128982612Y-78355595D01*
X128982612Y-78355595D02*
X128982612Y-83355595D01*
X137554041Y-83355595D02*
X135173089Y-83355595D01*
X135173089Y-83355595D02*
X135173089Y-78355595D01*
X139220708Y-83355595D02*
X139220708Y-78355595D01*
X139220708Y-78355595D02*
X140411184Y-78355595D01*
X140411184Y-78355595D02*
X141125470Y-78593690D01*
X141125470Y-78593690D02*
X141601660Y-79069880D01*
X141601660Y-79069880D02*
X141839755Y-79546071D01*
X141839755Y-79546071D02*
X142077851Y-80498452D01*
X142077851Y-80498452D02*
X142077851Y-81212738D01*
X142077851Y-81212738D02*
X141839755Y-82165119D01*
X141839755Y-82165119D02*
X141601660Y-82641309D01*
X141601660Y-82641309D02*
X141125470Y-83117500D01*
X141125470Y-83117500D02*
X140411184Y-83355595D01*
X140411184Y-83355595D02*
X139220708Y-83355595D01*
X147077851Y-82879404D02*
X146839755Y-83117500D01*
X146839755Y-83117500D02*
X146125470Y-83355595D01*
X146125470Y-83355595D02*
X145649279Y-83355595D01*
X145649279Y-83355595D02*
X144934993Y-83117500D01*
X144934993Y-83117500D02*
X144458803Y-82641309D01*
X144458803Y-82641309D02*
X144220708Y-82165119D01*
X144220708Y-82165119D02*
X143982612Y-81212738D01*
X143982612Y-81212738D02*
X143982612Y-80498452D01*
X143982612Y-80498452D02*
X144220708Y-79546071D01*
X144220708Y-79546071D02*
X144458803Y-79069880D01*
X144458803Y-79069880D02*
X144934993Y-78593690D01*
X144934993Y-78593690D02*
X145649279Y-78355595D01*
X145649279Y-78355595D02*
X146125470Y-78355595D01*
X146125470Y-78355595D02*
X146839755Y-78593690D01*
X146839755Y-78593690D02*
X147077851Y-78831785D01*
X154696898Y-80736547D02*
X155411184Y-80974642D01*
X155411184Y-80974642D02*
X155649279Y-81212738D01*
X155649279Y-81212738D02*
X155887375Y-81688928D01*
X155887375Y-81688928D02*
X155887375Y-82403214D01*
X155887375Y-82403214D02*
X155649279Y-82879404D01*
X155649279Y-82879404D02*
X155411184Y-83117500D01*
X155411184Y-83117500D02*
X154934994Y-83355595D01*
X154934994Y-83355595D02*
X153030232Y-83355595D01*
X153030232Y-83355595D02*
X153030232Y-78355595D01*
X153030232Y-78355595D02*
X154696898Y-78355595D01*
X154696898Y-78355595D02*
X155173089Y-78593690D01*
X155173089Y-78593690D02*
X155411184Y-78831785D01*
X155411184Y-78831785D02*
X155649279Y-79307976D01*
X155649279Y-79307976D02*
X155649279Y-79784166D01*
X155649279Y-79784166D02*
X155411184Y-80260357D01*
X155411184Y-80260357D02*
X155173089Y-80498452D01*
X155173089Y-80498452D02*
X154696898Y-80736547D01*
X154696898Y-80736547D02*
X153030232Y-80736547D01*
X158030232Y-83355595D02*
X158030232Y-80022261D01*
X158030232Y-80974642D02*
X158268327Y-80498452D01*
X158268327Y-80498452D02*
X158506422Y-80260357D01*
X158506422Y-80260357D02*
X158982613Y-80022261D01*
X158982613Y-80022261D02*
X159458803Y-80022261D01*
X163030232Y-83117500D02*
X162554041Y-83355595D01*
X162554041Y-83355595D02*
X161601660Y-83355595D01*
X161601660Y-83355595D02*
X161125470Y-83117500D01*
X161125470Y-83117500D02*
X160887374Y-82641309D01*
X160887374Y-82641309D02*
X160887374Y-80736547D01*
X160887374Y-80736547D02*
X161125470Y-80260357D01*
X161125470Y-80260357D02*
X161601660Y-80022261D01*
X161601660Y-80022261D02*
X162554041Y-80022261D01*
X162554041Y-80022261D02*
X163030232Y-80260357D01*
X163030232Y-80260357D02*
X163268327Y-80736547D01*
X163268327Y-80736547D02*
X163268327Y-81212738D01*
X163268327Y-81212738D02*
X160887374Y-81688928D01*
X167554041Y-83355595D02*
X167554041Y-80736547D01*
X167554041Y-80736547D02*
X167315946Y-80260357D01*
X167315946Y-80260357D02*
X166839755Y-80022261D01*
X166839755Y-80022261D02*
X165887374Y-80022261D01*
X165887374Y-80022261D02*
X165411184Y-80260357D01*
X167554041Y-83117500D02*
X167077850Y-83355595D01*
X167077850Y-83355595D02*
X165887374Y-83355595D01*
X165887374Y-83355595D02*
X165411184Y-83117500D01*
X165411184Y-83117500D02*
X165173088Y-82641309D01*
X165173088Y-82641309D02*
X165173088Y-82165119D01*
X165173088Y-82165119D02*
X165411184Y-81688928D01*
X165411184Y-81688928D02*
X165887374Y-81450833D01*
X165887374Y-81450833D02*
X167077850Y-81450833D01*
X167077850Y-81450833D02*
X167554041Y-81212738D01*
X169934994Y-83355595D02*
X169934994Y-78355595D01*
X170411184Y-81450833D02*
X171839756Y-83355595D01*
X171839756Y-80022261D02*
X169934994Y-81927023D01*
X174696898Y-83355595D02*
X174220708Y-83117500D01*
X174220708Y-83117500D02*
X173982613Y-82879404D01*
X173982613Y-82879404D02*
X173744517Y-82403214D01*
X173744517Y-82403214D02*
X173744517Y-80974642D01*
X173744517Y-80974642D02*
X173982613Y-80498452D01*
X173982613Y-80498452D02*
X174220708Y-80260357D01*
X174220708Y-80260357D02*
X174696898Y-80022261D01*
X174696898Y-80022261D02*
X175411184Y-80022261D01*
X175411184Y-80022261D02*
X175887375Y-80260357D01*
X175887375Y-80260357D02*
X176125470Y-80498452D01*
X176125470Y-80498452D02*
X176363565Y-80974642D01*
X176363565Y-80974642D02*
X176363565Y-82403214D01*
X176363565Y-82403214D02*
X176125470Y-82879404D01*
X176125470Y-82879404D02*
X175887375Y-83117500D01*
X175887375Y-83117500D02*
X175411184Y-83355595D01*
X175411184Y-83355595D02*
X174696898Y-83355595D01*
X180649280Y-80022261D02*
X180649280Y-83355595D01*
X178506423Y-80022261D02*
X178506423Y-82641309D01*
X178506423Y-82641309D02*
X178744518Y-83117500D01*
X178744518Y-83117500D02*
X179220708Y-83355595D01*
X179220708Y-83355595D02*
X179934994Y-83355595D01*
X179934994Y-83355595D02*
X180411185Y-83117500D01*
X180411185Y-83117500D02*
X180649280Y-82879404D01*
X182315947Y-80022261D02*
X184220709Y-80022261D01*
X183030233Y-78355595D02*
X183030233Y-82641309D01*
X183030233Y-82641309D02*
X183268328Y-83117500D01*
X183268328Y-83117500D02*
X183744518Y-83355595D01*
X183744518Y-83355595D02*
X184220709Y-83355595D01*
D12*
X209375939Y-64731542D02*
X209233082Y-64874400D01*
X209233082Y-64874400D02*
X208804510Y-65017257D01*
X208804510Y-65017257D02*
X208518796Y-65017257D01*
X208518796Y-65017257D02*
X208090225Y-64874400D01*
X208090225Y-64874400D02*
X207804510Y-64588685D01*
X207804510Y-64588685D02*
X207661653Y-64302971D01*
X207661653Y-64302971D02*
X207518796Y-63731542D01*
X207518796Y-63731542D02*
X207518796Y-63302971D01*
X207518796Y-63302971D02*
X207661653Y-62731542D01*
X207661653Y-62731542D02*
X207804510Y-62445828D01*
X207804510Y-62445828D02*
X208090225Y-62160114D01*
X208090225Y-62160114D02*
X208518796Y-62017257D01*
X208518796Y-62017257D02*
X208804510Y-62017257D01*
X208804510Y-62017257D02*
X209233082Y-62160114D01*
X209233082Y-62160114D02*
X209375939Y-62302971D01*
X210661653Y-65017257D02*
X210661653Y-62017257D01*
X210661653Y-63445828D02*
X212375939Y-63445828D01*
X212375939Y-65017257D02*
X212375939Y-62017257D01*
X213518796Y-62017257D02*
X215518796Y-62017257D01*
X215518796Y-62017257D02*
X214233082Y-65017257D01*
X190361653Y-64731542D02*
X190218796Y-64874400D01*
X190218796Y-64874400D02*
X189790224Y-65017257D01*
X189790224Y-65017257D02*
X189504510Y-65017257D01*
X189504510Y-65017257D02*
X189075939Y-64874400D01*
X189075939Y-64874400D02*
X188790224Y-64588685D01*
X188790224Y-64588685D02*
X188647367Y-64302971D01*
X188647367Y-64302971D02*
X188504510Y-63731542D01*
X188504510Y-63731542D02*
X188504510Y-63302971D01*
X188504510Y-63302971D02*
X188647367Y-62731542D01*
X188647367Y-62731542D02*
X188790224Y-62445828D01*
X188790224Y-62445828D02*
X189075939Y-62160114D01*
X189075939Y-62160114D02*
X189504510Y-62017257D01*
X189504510Y-62017257D02*
X189790224Y-62017257D01*
X189790224Y-62017257D02*
X190218796Y-62160114D01*
X190218796Y-62160114D02*
X190361653Y-62302971D01*
X191647367Y-65017257D02*
X191647367Y-62017257D01*
X191647367Y-63445828D02*
X193361653Y-63445828D01*
X193361653Y-65017257D02*
X193361653Y-62017257D01*
X196075939Y-62017257D02*
X195504510Y-62017257D01*
X195504510Y-62017257D02*
X195218796Y-62160114D01*
X195218796Y-62160114D02*
X195075939Y-62302971D01*
X195075939Y-62302971D02*
X194790224Y-62731542D01*
X194790224Y-62731542D02*
X194647367Y-63302971D01*
X194647367Y-63302971D02*
X194647367Y-64445828D01*
X194647367Y-64445828D02*
X194790224Y-64731542D01*
X194790224Y-64731542D02*
X194933081Y-64874400D01*
X194933081Y-64874400D02*
X195218796Y-65017257D01*
X195218796Y-65017257D02*
X195790224Y-65017257D01*
X195790224Y-65017257D02*
X196075939Y-64874400D01*
X196075939Y-64874400D02*
X196218796Y-64731542D01*
X196218796Y-64731542D02*
X196361653Y-64445828D01*
X196361653Y-64445828D02*
X196361653Y-63731542D01*
X196361653Y-63731542D02*
X196218796Y-63445828D01*
X196218796Y-63445828D02*
X196075939Y-63302971D01*
X196075939Y-63302971D02*
X195790224Y-63160114D01*
X195790224Y-63160114D02*
X195218796Y-63160114D01*
X195218796Y-63160114D02*
X194933081Y-63302971D01*
X194933081Y-63302971D02*
X194790224Y-63445828D01*
X194790224Y-63445828D02*
X194647367Y-63731542D01*
X171347368Y-64731542D02*
X171204511Y-64874400D01*
X171204511Y-64874400D02*
X170775939Y-65017257D01*
X170775939Y-65017257D02*
X170490225Y-65017257D01*
X170490225Y-65017257D02*
X170061654Y-64874400D01*
X170061654Y-64874400D02*
X169775939Y-64588685D01*
X169775939Y-64588685D02*
X169633082Y-64302971D01*
X169633082Y-64302971D02*
X169490225Y-63731542D01*
X169490225Y-63731542D02*
X169490225Y-63302971D01*
X169490225Y-63302971D02*
X169633082Y-62731542D01*
X169633082Y-62731542D02*
X169775939Y-62445828D01*
X169775939Y-62445828D02*
X170061654Y-62160114D01*
X170061654Y-62160114D02*
X170490225Y-62017257D01*
X170490225Y-62017257D02*
X170775939Y-62017257D01*
X170775939Y-62017257D02*
X171204511Y-62160114D01*
X171204511Y-62160114D02*
X171347368Y-62302971D01*
X172633082Y-65017257D02*
X172633082Y-62017257D01*
X172633082Y-63445828D02*
X174347368Y-63445828D01*
X174347368Y-65017257D02*
X174347368Y-62017257D01*
X177204511Y-62017257D02*
X175775939Y-62017257D01*
X175775939Y-62017257D02*
X175633082Y-63445828D01*
X175633082Y-63445828D02*
X175775939Y-63302971D01*
X175775939Y-63302971D02*
X176061654Y-63160114D01*
X176061654Y-63160114D02*
X176775939Y-63160114D01*
X176775939Y-63160114D02*
X177061654Y-63302971D01*
X177061654Y-63302971D02*
X177204511Y-63445828D01*
X177204511Y-63445828D02*
X177347368Y-63731542D01*
X177347368Y-63731542D02*
X177347368Y-64445828D01*
X177347368Y-64445828D02*
X177204511Y-64731542D01*
X177204511Y-64731542D02*
X177061654Y-64874400D01*
X177061654Y-64874400D02*
X176775939Y-65017257D01*
X176775939Y-65017257D02*
X176061654Y-65017257D01*
X176061654Y-65017257D02*
X175775939Y-64874400D01*
X175775939Y-64874400D02*
X175633082Y-64731542D01*
X152333082Y-64731542D02*
X152190225Y-64874400D01*
X152190225Y-64874400D02*
X151761653Y-65017257D01*
X151761653Y-65017257D02*
X151475939Y-65017257D01*
X151475939Y-65017257D02*
X151047368Y-64874400D01*
X151047368Y-64874400D02*
X150761653Y-64588685D01*
X150761653Y-64588685D02*
X150618796Y-64302971D01*
X150618796Y-64302971D02*
X150475939Y-63731542D01*
X150475939Y-63731542D02*
X150475939Y-63302971D01*
X150475939Y-63302971D02*
X150618796Y-62731542D01*
X150618796Y-62731542D02*
X150761653Y-62445828D01*
X150761653Y-62445828D02*
X151047368Y-62160114D01*
X151047368Y-62160114D02*
X151475939Y-62017257D01*
X151475939Y-62017257D02*
X151761653Y-62017257D01*
X151761653Y-62017257D02*
X152190225Y-62160114D01*
X152190225Y-62160114D02*
X152333082Y-62302971D01*
X153618796Y-65017257D02*
X153618796Y-62017257D01*
X153618796Y-63445828D02*
X155333082Y-63445828D01*
X155333082Y-65017257D02*
X155333082Y-62017257D01*
X158047368Y-63017257D02*
X158047368Y-65017257D01*
X157333082Y-61874400D02*
X156618796Y-64017257D01*
X156618796Y-64017257D02*
X158475939Y-64017257D01*
X76275939Y-64731542D02*
X76133082Y-64874400D01*
X76133082Y-64874400D02*
X75704510Y-65017257D01*
X75704510Y-65017257D02*
X75418796Y-65017257D01*
X75418796Y-65017257D02*
X74990225Y-64874400D01*
X74990225Y-64874400D02*
X74704510Y-64588685D01*
X74704510Y-64588685D02*
X74561653Y-64302971D01*
X74561653Y-64302971D02*
X74418796Y-63731542D01*
X74418796Y-63731542D02*
X74418796Y-63302971D01*
X74418796Y-63302971D02*
X74561653Y-62731542D01*
X74561653Y-62731542D02*
X74704510Y-62445828D01*
X74704510Y-62445828D02*
X74990225Y-62160114D01*
X74990225Y-62160114D02*
X75418796Y-62017257D01*
X75418796Y-62017257D02*
X75704510Y-62017257D01*
X75704510Y-62017257D02*
X76133082Y-62160114D01*
X76133082Y-62160114D02*
X76275939Y-62302971D01*
X77561653Y-65017257D02*
X77561653Y-62017257D01*
X77561653Y-63445828D02*
X79275939Y-63445828D01*
X79275939Y-65017257D02*
X79275939Y-62017257D01*
X80418796Y-62017257D02*
X82275939Y-62017257D01*
X82275939Y-62017257D02*
X81275939Y-63160114D01*
X81275939Y-63160114D02*
X81704510Y-63160114D01*
X81704510Y-63160114D02*
X81990225Y-63302971D01*
X81990225Y-63302971D02*
X82133082Y-63445828D01*
X82133082Y-63445828D02*
X82275939Y-63731542D01*
X82275939Y-63731542D02*
X82275939Y-64445828D01*
X82275939Y-64445828D02*
X82133082Y-64731542D01*
X82133082Y-64731542D02*
X81990225Y-64874400D01*
X81990225Y-64874400D02*
X81704510Y-65017257D01*
X81704510Y-65017257D02*
X80847367Y-65017257D01*
X80847367Y-65017257D02*
X80561653Y-64874400D01*
X80561653Y-64874400D02*
X80418796Y-64731542D01*
X95290225Y-64731542D02*
X95147368Y-64874400D01*
X95147368Y-64874400D02*
X94718796Y-65017257D01*
X94718796Y-65017257D02*
X94433082Y-65017257D01*
X94433082Y-65017257D02*
X94004511Y-64874400D01*
X94004511Y-64874400D02*
X93718796Y-64588685D01*
X93718796Y-64588685D02*
X93575939Y-64302971D01*
X93575939Y-64302971D02*
X93433082Y-63731542D01*
X93433082Y-63731542D02*
X93433082Y-63302971D01*
X93433082Y-63302971D02*
X93575939Y-62731542D01*
X93575939Y-62731542D02*
X93718796Y-62445828D01*
X93718796Y-62445828D02*
X94004511Y-62160114D01*
X94004511Y-62160114D02*
X94433082Y-62017257D01*
X94433082Y-62017257D02*
X94718796Y-62017257D01*
X94718796Y-62017257D02*
X95147368Y-62160114D01*
X95147368Y-62160114D02*
X95290225Y-62302971D01*
X96575939Y-65017257D02*
X96575939Y-62017257D01*
X96575939Y-63445828D02*
X98290225Y-63445828D01*
X98290225Y-65017257D02*
X98290225Y-62017257D01*
X99575939Y-62302971D02*
X99718796Y-62160114D01*
X99718796Y-62160114D02*
X100004511Y-62017257D01*
X100004511Y-62017257D02*
X100718796Y-62017257D01*
X100718796Y-62017257D02*
X101004511Y-62160114D01*
X101004511Y-62160114D02*
X101147368Y-62302971D01*
X101147368Y-62302971D02*
X101290225Y-62588685D01*
X101290225Y-62588685D02*
X101290225Y-62874400D01*
X101290225Y-62874400D02*
X101147368Y-63302971D01*
X101147368Y-63302971D02*
X99433082Y-65017257D01*
X99433082Y-65017257D02*
X101290225Y-65017257D01*
X114304510Y-64731542D02*
X114161653Y-64874400D01*
X114161653Y-64874400D02*
X113733081Y-65017257D01*
X113733081Y-65017257D02*
X113447367Y-65017257D01*
X113447367Y-65017257D02*
X113018796Y-64874400D01*
X113018796Y-64874400D02*
X112733081Y-64588685D01*
X112733081Y-64588685D02*
X112590224Y-64302971D01*
X112590224Y-64302971D02*
X112447367Y-63731542D01*
X112447367Y-63731542D02*
X112447367Y-63302971D01*
X112447367Y-63302971D02*
X112590224Y-62731542D01*
X112590224Y-62731542D02*
X112733081Y-62445828D01*
X112733081Y-62445828D02*
X113018796Y-62160114D01*
X113018796Y-62160114D02*
X113447367Y-62017257D01*
X113447367Y-62017257D02*
X113733081Y-62017257D01*
X113733081Y-62017257D02*
X114161653Y-62160114D01*
X114161653Y-62160114D02*
X114304510Y-62302971D01*
X115590224Y-65017257D02*
X115590224Y-62017257D01*
X115590224Y-63445828D02*
X117304510Y-63445828D01*
X117304510Y-65017257D02*
X117304510Y-62017257D01*
X120304510Y-65017257D02*
X118590224Y-65017257D01*
X119447367Y-65017257D02*
X119447367Y-62017257D01*
X119447367Y-62017257D02*
X119161653Y-62445828D01*
X119161653Y-62445828D02*
X118875938Y-62731542D01*
X118875938Y-62731542D02*
X118590224Y-62874400D01*
X133318796Y-64731542D02*
X133175939Y-64874400D01*
X133175939Y-64874400D02*
X132747367Y-65017257D01*
X132747367Y-65017257D02*
X132461653Y-65017257D01*
X132461653Y-65017257D02*
X132033082Y-64874400D01*
X132033082Y-64874400D02*
X131747367Y-64588685D01*
X131747367Y-64588685D02*
X131604510Y-64302971D01*
X131604510Y-64302971D02*
X131461653Y-63731542D01*
X131461653Y-63731542D02*
X131461653Y-63302971D01*
X131461653Y-63302971D02*
X131604510Y-62731542D01*
X131604510Y-62731542D02*
X131747367Y-62445828D01*
X131747367Y-62445828D02*
X132033082Y-62160114D01*
X132033082Y-62160114D02*
X132461653Y-62017257D01*
X132461653Y-62017257D02*
X132747367Y-62017257D01*
X132747367Y-62017257D02*
X133175939Y-62160114D01*
X133175939Y-62160114D02*
X133318796Y-62302971D01*
X134604510Y-65017257D02*
X134604510Y-62017257D01*
X134604510Y-63445828D02*
X136318796Y-63445828D01*
X136318796Y-65017257D02*
X136318796Y-62017257D01*
X138318796Y-62017257D02*
X138604510Y-62017257D01*
X138604510Y-62017257D02*
X138890224Y-62160114D01*
X138890224Y-62160114D02*
X139033082Y-62302971D01*
X139033082Y-62302971D02*
X139175939Y-62588685D01*
X139175939Y-62588685D02*
X139318796Y-63160114D01*
X139318796Y-63160114D02*
X139318796Y-63874400D01*
X139318796Y-63874400D02*
X139175939Y-64445828D01*
X139175939Y-64445828D02*
X139033082Y-64731542D01*
X139033082Y-64731542D02*
X138890224Y-64874400D01*
X138890224Y-64874400D02*
X138604510Y-65017257D01*
X138604510Y-65017257D02*
X138318796Y-65017257D01*
X138318796Y-65017257D02*
X138033082Y-64874400D01*
X138033082Y-64874400D02*
X137890224Y-64731542D01*
X137890224Y-64731542D02*
X137747367Y-64445828D01*
X137747367Y-64445828D02*
X137604510Y-63874400D01*
X137604510Y-63874400D02*
X137604510Y-63160114D01*
X137604510Y-63160114D02*
X137747367Y-62588685D01*
X137747367Y-62588685D02*
X137890224Y-62302971D01*
X137890224Y-62302971D02*
X138033082Y-62160114D01*
X138033082Y-62160114D02*
X138318796Y-62017257D01*
D10*
X64538095Y-44654819D02*
X64538095Y-43654819D01*
X64538095Y-44131009D02*
X65109523Y-44131009D01*
X65109523Y-44654819D02*
X65109523Y-43654819D01*
X66014285Y-43988152D02*
X66014285Y-44654819D01*
X65776190Y-43607200D02*
X65538095Y-44321485D01*
X65538095Y-44321485D02*
X66157142Y-44321485D01*
X64538095Y-90654819D02*
X64538095Y-89654819D01*
X64538095Y-90131009D02*
X65109523Y-90131009D01*
X65109523Y-90654819D02*
X65109523Y-89654819D01*
X65490476Y-89654819D02*
X66109523Y-89654819D01*
X66109523Y-89654819D02*
X65776190Y-90035771D01*
X65776190Y-90035771D02*
X65919047Y-90035771D01*
X65919047Y-90035771D02*
X66014285Y-90083390D01*
X66014285Y-90083390D02*
X66061904Y-90131009D01*
X66061904Y-90131009D02*
X66109523Y-90226247D01*
X66109523Y-90226247D02*
X66109523Y-90464342D01*
X66109523Y-90464342D02*
X66061904Y-90559580D01*
X66061904Y-90559580D02*
X66014285Y-90607200D01*
X66014285Y-90607200D02*
X65919047Y-90654819D01*
X65919047Y-90654819D02*
X65633333Y-90654819D01*
X65633333Y-90654819D02*
X65538095Y-90607200D01*
X65538095Y-90607200D02*
X65490476Y-90559580D01*
X221938095Y-90654819D02*
X221938095Y-89654819D01*
X221938095Y-90131009D02*
X222509523Y-90131009D01*
X222509523Y-90654819D02*
X222509523Y-89654819D01*
X222938095Y-89750057D02*
X222985714Y-89702438D01*
X222985714Y-89702438D02*
X223080952Y-89654819D01*
X223080952Y-89654819D02*
X223319047Y-89654819D01*
X223319047Y-89654819D02*
X223414285Y-89702438D01*
X223414285Y-89702438D02*
X223461904Y-89750057D01*
X223461904Y-89750057D02*
X223509523Y-89845295D01*
X223509523Y-89845295D02*
X223509523Y-89940533D01*
X223509523Y-89940533D02*
X223461904Y-90083390D01*
X223461904Y-90083390D02*
X222890476Y-90654819D01*
X222890476Y-90654819D02*
X223509523Y-90654819D01*
X221938095Y-44654819D02*
X221938095Y-43654819D01*
X221938095Y-44131009D02*
X222509523Y-44131009D01*
X222509523Y-44654819D02*
X222509523Y-43654819D01*
X223509523Y-44654819D02*
X222938095Y-44654819D01*
X223223809Y-44654819D02*
X223223809Y-43654819D01*
X223223809Y-43654819D02*
X223128571Y-43797676D01*
X223128571Y-43797676D02*
X223033333Y-43892914D01*
X223033333Y-43892914D02*
X222938095Y-43940533D01*
D13*
X111166095Y-60185419D02*
X111166095Y-60899704D01*
X111166095Y-60899704D02*
X111118476Y-61042561D01*
X111118476Y-61042561D02*
X111023238Y-61137800D01*
X111023238Y-61137800D02*
X110880381Y-61185419D01*
X110880381Y-61185419D02*
X110785143Y-61185419D01*
X112118476Y-60185419D02*
X111642286Y-60185419D01*
X111642286Y-60185419D02*
X111594667Y-60661609D01*
X111594667Y-60661609D02*
X111642286Y-60613990D01*
X111642286Y-60613990D02*
X111737524Y-60566371D01*
X111737524Y-60566371D02*
X111975619Y-60566371D01*
X111975619Y-60566371D02*
X112070857Y-60613990D01*
X112070857Y-60613990D02*
X112118476Y-60661609D01*
X112118476Y-60661609D02*
X112166095Y-60756847D01*
X112166095Y-60756847D02*
X112166095Y-60994942D01*
X112166095Y-60994942D02*
X112118476Y-61090180D01*
X112118476Y-61090180D02*
X112070857Y-61137800D01*
X112070857Y-61137800D02*
X111975619Y-61185419D01*
X111975619Y-61185419D02*
X111737524Y-61185419D01*
X111737524Y-61185419D02*
X111642286Y-61137800D01*
X111642286Y-61137800D02*
X111594667Y-61090180D01*
X73194666Y-60185419D02*
X73194666Y-60899704D01*
X73194666Y-60899704D02*
X73147047Y-61042561D01*
X73147047Y-61042561D02*
X73051809Y-61137800D01*
X73051809Y-61137800D02*
X72908952Y-61185419D01*
X72908952Y-61185419D02*
X72813714Y-61185419D01*
X74194666Y-61185419D02*
X73623238Y-61185419D01*
X73908952Y-61185419D02*
X73908952Y-60185419D01*
X73908952Y-60185419D02*
X73813714Y-60328276D01*
X73813714Y-60328276D02*
X73718476Y-60423514D01*
X73718476Y-60423514D02*
X73623238Y-60471133D01*
X187108952Y-60185419D02*
X187108952Y-60899704D01*
X187108952Y-60899704D02*
X187061333Y-61042561D01*
X187061333Y-61042561D02*
X186966095Y-61137800D01*
X186966095Y-61137800D02*
X186823238Y-61185419D01*
X186823238Y-61185419D02*
X186728000Y-61185419D01*
X187632762Y-61185419D02*
X187823238Y-61185419D01*
X187823238Y-61185419D02*
X187918476Y-61137800D01*
X187918476Y-61137800D02*
X187966095Y-61090180D01*
X187966095Y-61090180D02*
X188061333Y-60947323D01*
X188061333Y-60947323D02*
X188108952Y-60756847D01*
X188108952Y-60756847D02*
X188108952Y-60375895D01*
X188108952Y-60375895D02*
X188061333Y-60280657D01*
X188061333Y-60280657D02*
X188013714Y-60233038D01*
X188013714Y-60233038D02*
X187918476Y-60185419D01*
X187918476Y-60185419D02*
X187728000Y-60185419D01*
X187728000Y-60185419D02*
X187632762Y-60233038D01*
X187632762Y-60233038D02*
X187585143Y-60280657D01*
X187585143Y-60280657D02*
X187537524Y-60375895D01*
X187537524Y-60375895D02*
X187537524Y-60613990D01*
X187537524Y-60613990D02*
X187585143Y-60709228D01*
X187585143Y-60709228D02*
X187632762Y-60756847D01*
X187632762Y-60756847D02*
X187728000Y-60804466D01*
X187728000Y-60804466D02*
X187918476Y-60804466D01*
X187918476Y-60804466D02*
X188013714Y-60756847D01*
X188013714Y-60756847D02*
X188061333Y-60709228D01*
X188061333Y-60709228D02*
X188108952Y-60613990D01*
X92180380Y-60185419D02*
X92180380Y-60899704D01*
X92180380Y-60899704D02*
X92132761Y-61042561D01*
X92132761Y-61042561D02*
X92037523Y-61137800D01*
X92037523Y-61137800D02*
X91894666Y-61185419D01*
X91894666Y-61185419D02*
X91799428Y-61185419D01*
X92608952Y-60280657D02*
X92656571Y-60233038D01*
X92656571Y-60233038D02*
X92751809Y-60185419D01*
X92751809Y-60185419D02*
X92989904Y-60185419D01*
X92989904Y-60185419D02*
X93085142Y-60233038D01*
X93085142Y-60233038D02*
X93132761Y-60280657D01*
X93132761Y-60280657D02*
X93180380Y-60375895D01*
X93180380Y-60375895D02*
X93180380Y-60471133D01*
X93180380Y-60471133D02*
X93132761Y-60613990D01*
X93132761Y-60613990D02*
X92561333Y-61185419D01*
X92561333Y-61185419D02*
X93180380Y-61185419D01*
X149137523Y-60185419D02*
X149137523Y-60899704D01*
X149137523Y-60899704D02*
X149089904Y-61042561D01*
X149089904Y-61042561D02*
X148994666Y-61137800D01*
X148994666Y-61137800D02*
X148851809Y-61185419D01*
X148851809Y-61185419D02*
X148756571Y-61185419D01*
X149518476Y-60185419D02*
X150185142Y-60185419D01*
X150185142Y-60185419D02*
X149756571Y-61185419D01*
X206094666Y-60185419D02*
X206094666Y-60899704D01*
X206094666Y-60899704D02*
X206047047Y-61042561D01*
X206047047Y-61042561D02*
X205951809Y-61137800D01*
X205951809Y-61137800D02*
X205808952Y-61185419D01*
X205808952Y-61185419D02*
X205713714Y-61185419D01*
X206713714Y-60613990D02*
X206618476Y-60566371D01*
X206618476Y-60566371D02*
X206570857Y-60518752D01*
X206570857Y-60518752D02*
X206523238Y-60423514D01*
X206523238Y-60423514D02*
X206523238Y-60375895D01*
X206523238Y-60375895D02*
X206570857Y-60280657D01*
X206570857Y-60280657D02*
X206618476Y-60233038D01*
X206618476Y-60233038D02*
X206713714Y-60185419D01*
X206713714Y-60185419D02*
X206904190Y-60185419D01*
X206904190Y-60185419D02*
X206999428Y-60233038D01*
X206999428Y-60233038D02*
X207047047Y-60280657D01*
X207047047Y-60280657D02*
X207094666Y-60375895D01*
X207094666Y-60375895D02*
X207094666Y-60423514D01*
X207094666Y-60423514D02*
X207047047Y-60518752D01*
X207047047Y-60518752D02*
X206999428Y-60566371D01*
X206999428Y-60566371D02*
X206904190Y-60613990D01*
X206904190Y-60613990D02*
X206713714Y-60613990D01*
X206713714Y-60613990D02*
X206618476Y-60661609D01*
X206618476Y-60661609D02*
X206570857Y-60709228D01*
X206570857Y-60709228D02*
X206523238Y-60804466D01*
X206523238Y-60804466D02*
X206523238Y-60994942D01*
X206523238Y-60994942D02*
X206570857Y-61090180D01*
X206570857Y-61090180D02*
X206618476Y-61137800D01*
X206618476Y-61137800D02*
X206713714Y-61185419D01*
X206713714Y-61185419D02*
X206904190Y-61185419D01*
X206904190Y-61185419D02*
X206999428Y-61137800D01*
X206999428Y-61137800D02*
X207047047Y-61090180D01*
X207047047Y-61090180D02*
X207094666Y-60994942D01*
X207094666Y-60994942D02*
X207094666Y-60804466D01*
X207094666Y-60804466D02*
X207047047Y-60709228D01*
X207047047Y-60709228D02*
X206999428Y-60661609D01*
X206999428Y-60661609D02*
X206904190Y-60613990D01*
X168123237Y-60185419D02*
X168123237Y-60899704D01*
X168123237Y-60899704D02*
X168075618Y-61042561D01*
X168075618Y-61042561D02*
X167980380Y-61137800D01*
X167980380Y-61137800D02*
X167837523Y-61185419D01*
X167837523Y-61185419D02*
X167742285Y-61185419D01*
X169027999Y-60185419D02*
X168837523Y-60185419D01*
X168837523Y-60185419D02*
X168742285Y-60233038D01*
X168742285Y-60233038D02*
X168694666Y-60280657D01*
X168694666Y-60280657D02*
X168599428Y-60423514D01*
X168599428Y-60423514D02*
X168551809Y-60613990D01*
X168551809Y-60613990D02*
X168551809Y-60994942D01*
X168551809Y-60994942D02*
X168599428Y-61090180D01*
X168599428Y-61090180D02*
X168647047Y-61137800D01*
X168647047Y-61137800D02*
X168742285Y-61185419D01*
X168742285Y-61185419D02*
X168932761Y-61185419D01*
X168932761Y-61185419D02*
X169027999Y-61137800D01*
X169027999Y-61137800D02*
X169075618Y-61090180D01*
X169075618Y-61090180D02*
X169123237Y-60994942D01*
X169123237Y-60994942D02*
X169123237Y-60756847D01*
X169123237Y-60756847D02*
X169075618Y-60661609D01*
X169075618Y-60661609D02*
X169027999Y-60613990D01*
X169027999Y-60613990D02*
X168932761Y-60566371D01*
X168932761Y-60566371D02*
X168742285Y-60566371D01*
X168742285Y-60566371D02*
X168647047Y-60613990D01*
X168647047Y-60613990D02*
X168599428Y-60661609D01*
X168599428Y-60661609D02*
X168551809Y-60756847D01*
X130151809Y-60185419D02*
X130151809Y-60899704D01*
X130151809Y-60899704D02*
X130104190Y-61042561D01*
X130104190Y-61042561D02*
X130008952Y-61137800D01*
X130008952Y-61137800D02*
X129866095Y-61185419D01*
X129866095Y-61185419D02*
X129770857Y-61185419D01*
X130532762Y-60185419D02*
X131151809Y-60185419D01*
X131151809Y-60185419D02*
X130818476Y-60566371D01*
X130818476Y-60566371D02*
X130961333Y-60566371D01*
X130961333Y-60566371D02*
X131056571Y-60613990D01*
X131056571Y-60613990D02*
X131104190Y-60661609D01*
X131104190Y-60661609D02*
X131151809Y-60756847D01*
X131151809Y-60756847D02*
X131151809Y-60994942D01*
X131151809Y-60994942D02*
X131104190Y-61090180D01*
X131104190Y-61090180D02*
X131056571Y-61137800D01*
X131056571Y-61137800D02*
X130961333Y-61185419D01*
X130961333Y-61185419D02*
X130675619Y-61185419D01*
X130675619Y-61185419D02*
X130580381Y-61137800D01*
X130580381Y-61137800D02*
X130532762Y-61090180D01*
D10*
X224932816Y-96539033D02*
X224932816Y-97540141D01*
X224932816Y-97540141D02*
X224866076Y-97740362D01*
X224866076Y-97740362D02*
X224732595Y-97873844D01*
X224732595Y-97873844D02*
X224532373Y-97940584D01*
X224532373Y-97940584D02*
X224398892Y-97940584D01*
X226200886Y-97006217D02*
X226200886Y-97940584D01*
X225867183Y-96472293D02*
X225533481Y-97473400D01*
X225533481Y-97473400D02*
X226401107Y-97473400D01*
D14*
%TO.C,J5*%
X108571429Y-43750000D02*
X123571429Y-43750000D01*
X108571429Y-58750000D02*
X108571429Y-43750000D01*
X116071429Y-43950000D02*
X115071429Y-44950000D01*
X116071429Y-43950000D02*
X117071429Y-44950000D01*
X123571429Y-43750000D02*
X123571429Y-58750000D01*
X123571429Y-58750000D02*
X108571429Y-58750000D01*
%TO.C,J1*%
X85600000Y-58750000D02*
X70600000Y-58750000D01*
X85600000Y-43750000D02*
X85600000Y-58750000D01*
X78100000Y-43950000D02*
X79100000Y-44950000D01*
X78100000Y-43950000D02*
X77100000Y-44950000D01*
X70600000Y-58750000D02*
X70600000Y-43750000D01*
X70600000Y-43750000D02*
X85600000Y-43750000D01*
%TO.C,J9*%
X199514286Y-58750000D02*
X184514286Y-58750000D01*
X199514286Y-43750000D02*
X199514286Y-58750000D01*
X192014286Y-43950000D02*
X193014286Y-44950000D01*
X192014286Y-43950000D02*
X191014286Y-44950000D01*
X184514286Y-58750000D02*
X184514286Y-43750000D01*
X184514286Y-43750000D02*
X199514286Y-43750000D01*
%TO.C,J2*%
X104585714Y-58750000D02*
X89585714Y-58750000D01*
X104585714Y-43750000D02*
X104585714Y-58750000D01*
X97085714Y-43950000D02*
X98085714Y-44950000D01*
X97085714Y-43950000D02*
X96085714Y-44950000D01*
X89585714Y-58750000D02*
X89585714Y-43750000D01*
X89585714Y-43750000D02*
X104585714Y-43750000D01*
%TO.C,J7*%
X161542857Y-58750000D02*
X146542857Y-58750000D01*
X161542857Y-43750000D02*
X161542857Y-58750000D01*
X154042857Y-43950000D02*
X155042857Y-44950000D01*
X154042857Y-43950000D02*
X153042857Y-44950000D01*
X146542857Y-58750000D02*
X146542857Y-43750000D01*
X146542857Y-43750000D02*
X161542857Y-43750000D01*
%TO.C,J8*%
X218500000Y-58750000D02*
X203500000Y-58750000D01*
X218500000Y-43750000D02*
X218500000Y-58750000D01*
X211000000Y-43950000D02*
X212000000Y-44950000D01*
X211000000Y-43950000D02*
X210000000Y-44950000D01*
X203500000Y-58750000D02*
X203500000Y-43750000D01*
X203500000Y-43750000D02*
X218500000Y-43750000D01*
%TO.C,J6*%
X180528571Y-58750000D02*
X165528571Y-58750000D01*
X180528571Y-43750000D02*
X180528571Y-58750000D01*
X173028571Y-43950000D02*
X174028571Y-44950000D01*
X173028571Y-43950000D02*
X172028571Y-44950000D01*
X165528571Y-58750000D02*
X165528571Y-43750000D01*
X165528571Y-43750000D02*
X180528571Y-43750000D01*
%TO.C,J3*%
X127557143Y-43750000D02*
X142557143Y-43750000D01*
X127557143Y-58750000D02*
X127557143Y-43750000D01*
X135057143Y-43950000D02*
X134057143Y-44950000D01*
X135057143Y-43950000D02*
X136057143Y-44950000D01*
X142557143Y-43750000D02*
X142557143Y-58750000D01*
X142557143Y-58750000D02*
X127557143Y-58750000D01*
D15*
%TO.C,J4*%
X227092400Y-97490000D02*
X227092400Y-44390000D01*
X239741600Y-97490000D02*
X227092400Y-97490000D01*
X239741600Y-90140000D02*
X239741600Y-97490000D01*
X245913800Y-90140000D02*
X239741600Y-90140000D01*
X239741600Y-51740000D02*
X239741600Y-90140000D01*
X239741600Y-51740000D02*
X245913800Y-51740000D01*
X245913800Y-51740000D02*
X245913800Y-90140000D01*
X227092400Y-44390000D02*
X239741600Y-44390000D01*
X239741600Y-44390000D02*
X239741600Y-51740000D01*
D16*
X226442000Y-54440000D02*
G75*
G02*
X226042000Y-54440000I-200000J0D01*
G01*
X226042000Y-54440000D02*
G75*
G02*
X226442000Y-54440000I200000J0D01*
G01*
%TD*%
%LPC*%
D17*
%TO.C,H4*%
X65300000Y-48000000D03*
%TD*%
%TO.C,H3*%
X65300000Y-94000000D03*
%TD*%
%TO.C,H2*%
X222700000Y-94000000D03*
%TD*%
%TO.C,H1*%
X222700000Y-48000000D03*
%TD*%
D18*
%TO.C,J5*%
X116071429Y-56450000D03*
D19*
X110991429Y-51370000D03*
D18*
X113531429Y-56450000D03*
D19*
X121151429Y-51370000D03*
%TD*%
%TO.C,J1*%
X83180000Y-51370000D03*
D18*
X75560000Y-56450000D03*
D19*
X73020000Y-51370000D03*
D18*
X78100000Y-56450000D03*
%TD*%
D19*
%TO.C,J9*%
X197094286Y-51370000D03*
D18*
X189474286Y-56450000D03*
D19*
X186934286Y-51370000D03*
D18*
X192014286Y-56450000D03*
%TD*%
D19*
%TO.C,J2*%
X102165714Y-51370000D03*
D18*
X94545714Y-56450000D03*
D19*
X92005714Y-51370000D03*
D18*
X97085714Y-56450000D03*
%TD*%
D19*
%TO.C,J7*%
X159122857Y-51370000D03*
D18*
X151502857Y-56450000D03*
D19*
X148962857Y-51370000D03*
D18*
X154042857Y-56450000D03*
%TD*%
D19*
%TO.C,J8*%
X216080000Y-51370000D03*
D18*
X208460000Y-56450000D03*
D19*
X205920000Y-51370000D03*
D18*
X211000000Y-56450000D03*
%TD*%
D19*
%TO.C,J6*%
X178108571Y-51370000D03*
D18*
X170488571Y-56450000D03*
D19*
X167948571Y-51370000D03*
D18*
X173028571Y-56450000D03*
%TD*%
%TO.C,J3*%
X135057143Y-56450000D03*
D19*
X129977143Y-51370000D03*
D18*
X132517143Y-56450000D03*
D19*
X140137143Y-51370000D03*
%TD*%
D20*
%TO.C,J4*%
X230242000Y-94460400D03*
X230242000Y-47419600D03*
D21*
X228819600Y-87500000D03*
D22*
X228819600Y-84740000D03*
X228819600Y-81980000D03*
X228819600Y-79220000D03*
X228819600Y-76460000D03*
X228819600Y-73700000D03*
X228819600Y-70940000D03*
X228819600Y-68180000D03*
X228819600Y-65420000D03*
X228819600Y-62660000D03*
X228819600Y-59900000D03*
X228819600Y-57140000D03*
X228819600Y-54380000D03*
X231664400Y-86120000D03*
X231664400Y-83360000D03*
X231664400Y-80600000D03*
X231664400Y-77840000D03*
X231664400Y-75080000D03*
X231664400Y-72320000D03*
X231664400Y-69560000D03*
X231664400Y-66800000D03*
X231664400Y-64040000D03*
X231664400Y-61280000D03*
X231664400Y-58520000D03*
X231664400Y-55760000D03*
%TD*%
%LPD*%
M02*
