%TF.GenerationSoftware,KiCad,Pcbnew,9.0.0*%
%TF.CreationDate,2025-06-08T21:09:37+02:00*%
%TF.ProjectId,LDC_BNC_interface,4c44435f-424e-4435-9f69-6e7465726661,rev?*%
%TF.SameCoordinates,Original*%
%TF.FileFunction,Legend,Top*%
%TF.FilePolarity,Positive*%
%FSLAX46Y46*%
G04 Gerber Fmt 4.6, Leading zero omitted, Abs format (unit mm)*
G04 Created by KiCad (PCBNEW 9.0.0) date 2025-06-08 21:09:37*
%MOMM*%
%LPD*%
G01*
G04 APERTURE LIST*
G04 Aperture macros list*
%AMRoundRect*
0 Rectangle with rounded corners*
0 $1 Rounding radius*
0 $2 $3 $4 $5 $6 $7 $8 $9 X,Y pos of 4 corners*
0 Add a 4 corners polygon primitive as box body*
4,1,4,$2,$3,$4,$5,$6,$7,$8,$9,$2,$3,0*
0 Add four circle primitives for the rounded corners*
1,1,$1+$1,$2,$3*
1,1,$1+$1,$4,$5*
1,1,$1+$1,$6,$7*
1,1,$1+$1,$8,$9*
0 Add four rect primitives between the rounded corners*
20,1,$1+$1,$2,$3,$4,$5,0*
20,1,$1+$1,$4,$5,$6,$7,0*
20,1,$1+$1,$6,$7,$8,$9,0*
20,1,$1+$1,$8,$9,$2,$3,0*%
G04 Aperture macros list end*
%ADD10C,0.400000*%
%ADD11C,0.300000*%
%ADD12C,0.150000*%
%ADD13C,0.625000*%
%ADD14C,0.100000*%
%ADD15C,0.127000*%
%ADD16C,0.120000*%
%ADD17C,4.395000*%
%ADD18RoundRect,0.102000X0.781050X-0.781050X0.781050X0.781050X-0.781050X0.781050X-0.781050X-0.781050X0*%
%ADD19C,1.766100*%
%ADD20O,1.600000X2.500000*%
%ADD21O,3.500000X7.000000*%
%ADD22C,5.600000*%
G04 APERTURE END LIST*
D10*
G36*
X103001826Y-82744522D02*
G01*
X103146405Y-82889099D01*
X103301252Y-83198793D01*
X103301252Y-83675795D01*
X103146404Y-83985490D01*
X103001828Y-84130067D01*
X102692134Y-84284914D01*
X101415537Y-84284914D01*
X101415537Y-82589676D01*
X102692134Y-82589676D01*
X103001826Y-82744522D01*
G37*
G36*
X118046615Y-87034120D02*
G01*
X100571093Y-87034120D01*
X100571093Y-82389676D01*
X101015537Y-82389676D01*
X101015537Y-86389676D01*
X101019380Y-86428694D01*
X101049243Y-86500790D01*
X101104423Y-86555970D01*
X101176519Y-86585833D01*
X101254555Y-86585833D01*
X101326651Y-86555970D01*
X101381831Y-86500790D01*
X101411694Y-86428694D01*
X101415537Y-86389676D01*
X101415537Y-84684914D01*
X102063787Y-84684914D01*
X103337406Y-86504369D01*
X103362929Y-86534130D01*
X103428739Y-86576068D01*
X103505587Y-86589629D01*
X103581776Y-86572750D01*
X103645706Y-86527999D01*
X103687644Y-86462190D01*
X103701205Y-86385341D01*
X103684326Y-86309152D01*
X103665099Y-86274984D01*
X102552049Y-84684914D01*
X102739347Y-84684914D01*
X102778365Y-84681071D01*
X102785002Y-84678321D01*
X102792172Y-84677812D01*
X102828790Y-84663799D01*
X103209741Y-84473324D01*
X103226534Y-84462752D01*
X103231413Y-84460732D01*
X103236905Y-84456224D01*
X103242922Y-84452437D01*
X103246383Y-84448445D01*
X103261720Y-84435859D01*
X103452197Y-84245382D01*
X103464783Y-84230045D01*
X103468775Y-84226584D01*
X103472562Y-84220567D01*
X103477070Y-84215075D01*
X103479091Y-84210195D01*
X103489661Y-84193404D01*
X103680137Y-83812452D01*
X103694149Y-83775835D01*
X103694658Y-83768667D01*
X103697409Y-83762027D01*
X103701252Y-83723009D01*
X103701252Y-83151580D01*
X103697409Y-83112562D01*
X103694658Y-83105921D01*
X103694149Y-83098754D01*
X103680137Y-83062137D01*
X103489661Y-82681185D01*
X103479089Y-82664391D01*
X103477069Y-82659513D01*
X103472562Y-82654021D01*
X103468775Y-82648005D01*
X103464784Y-82644544D01*
X103452197Y-82629206D01*
X103261720Y-82438730D01*
X103246382Y-82426142D01*
X103242922Y-82422153D01*
X103236906Y-82418366D01*
X103231413Y-82413858D01*
X103226534Y-82411837D01*
X103209741Y-82401266D01*
X103186561Y-82389676D01*
X105015537Y-82389676D01*
X105015537Y-86389676D01*
X105019380Y-86428694D01*
X105049243Y-86500790D01*
X105104423Y-86555970D01*
X105176519Y-86585833D01*
X105215537Y-86589676D01*
X107120299Y-86589676D01*
X107159317Y-86585833D01*
X107231413Y-86555970D01*
X107286593Y-86500790D01*
X107316456Y-86428694D01*
X107316456Y-86350658D01*
X107286593Y-86278562D01*
X107231413Y-86223382D01*
X107159317Y-86193519D01*
X107120299Y-86189676D01*
X105415537Y-86189676D01*
X105415537Y-84494438D01*
X106548871Y-84494438D01*
X106587889Y-84490595D01*
X106659985Y-84460732D01*
X106715165Y-84405552D01*
X106745028Y-84333456D01*
X106745028Y-84255420D01*
X106715165Y-84183324D01*
X106659985Y-84128144D01*
X106587889Y-84098281D01*
X106548871Y-84094438D01*
X105415537Y-84094438D01*
X105415537Y-82589676D01*
X107120299Y-82589676D01*
X107159317Y-82585833D01*
X107231413Y-82555970D01*
X107286593Y-82500790D01*
X107316456Y-82428694D01*
X107316456Y-82414691D01*
X108064728Y-82414691D01*
X108073420Y-82452922D01*
X109406753Y-86452921D01*
X109422738Y-86488722D01*
X109432099Y-86499516D01*
X109438491Y-86512299D01*
X109457436Y-86528729D01*
X109473867Y-86547675D01*
X109486649Y-86554066D01*
X109497444Y-86563428D01*
X109521231Y-86571357D01*
X109543665Y-86582574D01*
X109557920Y-86583586D01*
X109571475Y-86588105D01*
X109596490Y-86586327D01*
X109621505Y-86588105D01*
X109635059Y-86583586D01*
X109649315Y-86582574D01*
X109671749Y-86571357D01*
X109695536Y-86563428D01*
X109706330Y-86554066D01*
X109719113Y-86547675D01*
X109735543Y-86528729D01*
X109754489Y-86512299D01*
X109760880Y-86499516D01*
X109770242Y-86488722D01*
X109786227Y-86452922D01*
X110768029Y-83507518D01*
X114921869Y-83507518D01*
X114927401Y-83585358D01*
X114962300Y-83655156D01*
X115021253Y-83706285D01*
X115095284Y-83730963D01*
X115173124Y-83725431D01*
X115209742Y-83711419D01*
X115590694Y-83520943D01*
X115607487Y-83510371D01*
X115612366Y-83508351D01*
X115617859Y-83503842D01*
X115623875Y-83500056D01*
X115627335Y-83496065D01*
X115642674Y-83483478D01*
X116023625Y-83102525D01*
X116023714Y-83102416D01*
X116023773Y-83102377D01*
X116036131Y-83087286D01*
X116048498Y-83072218D01*
X116048525Y-83072152D01*
X116048614Y-83072044D01*
X116063156Y-83050231D01*
X116063156Y-86189676D01*
X115120299Y-86189676D01*
X115081281Y-86193519D01*
X115009185Y-86223382D01*
X114954005Y-86278562D01*
X114924142Y-86350658D01*
X114924142Y-86428694D01*
X114954005Y-86500790D01*
X115009185Y-86555970D01*
X115081281Y-86585833D01*
X115120299Y-86589676D01*
X117406014Y-86589676D01*
X117445032Y-86585833D01*
X117517128Y-86555970D01*
X117572308Y-86500790D01*
X117602171Y-86428694D01*
X117602171Y-86350658D01*
X117572308Y-86278562D01*
X117517128Y-86223382D01*
X117445032Y-86193519D01*
X117406014Y-86189676D01*
X116463156Y-86189676D01*
X116463156Y-82389676D01*
X116463142Y-82389536D01*
X116463156Y-82389467D01*
X116463115Y-82389264D01*
X116459313Y-82350658D01*
X116451735Y-82332364D01*
X116447852Y-82312946D01*
X116436948Y-82296664D01*
X116429450Y-82278562D01*
X116415446Y-82264558D01*
X116404429Y-82248107D01*
X116388126Y-82237238D01*
X116374270Y-82223382D01*
X116355974Y-82215803D01*
X116339499Y-82204820D01*
X116320276Y-82201017D01*
X116302174Y-82193519D01*
X116282373Y-82193519D01*
X116262947Y-82189676D01*
X116243732Y-82193519D01*
X116224138Y-82193519D01*
X116205844Y-82201096D01*
X116186426Y-82204980D01*
X116170144Y-82215883D01*
X116152042Y-82223382D01*
X116138038Y-82237385D01*
X116121587Y-82248403D01*
X116097008Y-82278415D01*
X116096862Y-82278562D01*
X116096834Y-82278627D01*
X116096746Y-82278736D01*
X115726779Y-82833685D01*
X115382779Y-83177686D01*
X115030856Y-83353647D01*
X114997676Y-83374534D01*
X114946547Y-83433487D01*
X114921869Y-83507518D01*
X110768029Y-83507518D01*
X111119561Y-82452922D01*
X111128253Y-82414691D01*
X111122722Y-82336851D01*
X111087823Y-82267053D01*
X111028870Y-82215924D01*
X110954838Y-82191247D01*
X110876999Y-82196779D01*
X110807201Y-82231678D01*
X110756072Y-82290630D01*
X110740087Y-82326431D01*
X109596490Y-85757219D01*
X108452894Y-82326430D01*
X108436909Y-82290630D01*
X108385780Y-82231677D01*
X108315982Y-82196778D01*
X108238142Y-82191247D01*
X108164111Y-82215924D01*
X108105158Y-82267053D01*
X108070259Y-82336851D01*
X108064728Y-82414691D01*
X107316456Y-82414691D01*
X107316456Y-82350658D01*
X107286593Y-82278562D01*
X107231413Y-82223382D01*
X107159317Y-82193519D01*
X107120299Y-82189676D01*
X105215537Y-82189676D01*
X105176519Y-82193519D01*
X105104423Y-82223382D01*
X105049243Y-82278562D01*
X105019380Y-82350658D01*
X105015537Y-82389676D01*
X103186561Y-82389676D01*
X102828790Y-82210791D01*
X102792172Y-82196778D01*
X102785002Y-82196268D01*
X102778365Y-82193519D01*
X102739347Y-82189676D01*
X101215537Y-82189676D01*
X101176519Y-82193519D01*
X101104423Y-82223382D01*
X101049243Y-82278562D01*
X101019380Y-82350658D01*
X101015537Y-82389676D01*
X100571093Y-82389676D01*
X100571093Y-81745232D01*
X118046615Y-81745232D01*
X118046615Y-87034120D01*
G37*
D11*
X188597368Y-64731542D02*
X188454511Y-64874400D01*
X188454511Y-64874400D02*
X188025939Y-65017257D01*
X188025939Y-65017257D02*
X187740225Y-65017257D01*
X187740225Y-65017257D02*
X187311654Y-64874400D01*
X187311654Y-64874400D02*
X187025939Y-64588685D01*
X187025939Y-64588685D02*
X186883082Y-64302971D01*
X186883082Y-64302971D02*
X186740225Y-63731542D01*
X186740225Y-63731542D02*
X186740225Y-63302971D01*
X186740225Y-63302971D02*
X186883082Y-62731542D01*
X186883082Y-62731542D02*
X187025939Y-62445828D01*
X187025939Y-62445828D02*
X187311654Y-62160114D01*
X187311654Y-62160114D02*
X187740225Y-62017257D01*
X187740225Y-62017257D02*
X188025939Y-62017257D01*
X188025939Y-62017257D02*
X188454511Y-62160114D01*
X188454511Y-62160114D02*
X188597368Y-62302971D01*
X189883082Y-65017257D02*
X189883082Y-62017257D01*
X189883082Y-63445828D02*
X191597368Y-63445828D01*
X191597368Y-65017257D02*
X191597368Y-62017257D01*
X194311654Y-62017257D02*
X193740225Y-62017257D01*
X193740225Y-62017257D02*
X193454511Y-62160114D01*
X193454511Y-62160114D02*
X193311654Y-62302971D01*
X193311654Y-62302971D02*
X193025939Y-62731542D01*
X193025939Y-62731542D02*
X192883082Y-63302971D01*
X192883082Y-63302971D02*
X192883082Y-64445828D01*
X192883082Y-64445828D02*
X193025939Y-64731542D01*
X193025939Y-64731542D02*
X193168796Y-64874400D01*
X193168796Y-64874400D02*
X193454511Y-65017257D01*
X193454511Y-65017257D02*
X194025939Y-65017257D01*
X194025939Y-65017257D02*
X194311654Y-64874400D01*
X194311654Y-64874400D02*
X194454511Y-64731542D01*
X194454511Y-64731542D02*
X194597368Y-64445828D01*
X194597368Y-64445828D02*
X194597368Y-63731542D01*
X194597368Y-63731542D02*
X194454511Y-63445828D01*
X194454511Y-63445828D02*
X194311654Y-63302971D01*
X194311654Y-63302971D02*
X194025939Y-63160114D01*
X194025939Y-63160114D02*
X193454511Y-63160114D01*
X193454511Y-63160114D02*
X193168796Y-63302971D01*
X193168796Y-63302971D02*
X193025939Y-63445828D01*
X193025939Y-63445828D02*
X192883082Y-63731542D01*
X126261653Y-64731542D02*
X126118796Y-64874400D01*
X126118796Y-64874400D02*
X125690224Y-65017257D01*
X125690224Y-65017257D02*
X125404510Y-65017257D01*
X125404510Y-65017257D02*
X124975939Y-64874400D01*
X124975939Y-64874400D02*
X124690224Y-64588685D01*
X124690224Y-64588685D02*
X124547367Y-64302971D01*
X124547367Y-64302971D02*
X124404510Y-63731542D01*
X124404510Y-63731542D02*
X124404510Y-63302971D01*
X124404510Y-63302971D02*
X124547367Y-62731542D01*
X124547367Y-62731542D02*
X124690224Y-62445828D01*
X124690224Y-62445828D02*
X124975939Y-62160114D01*
X124975939Y-62160114D02*
X125404510Y-62017257D01*
X125404510Y-62017257D02*
X125690224Y-62017257D01*
X125690224Y-62017257D02*
X126118796Y-62160114D01*
X126118796Y-62160114D02*
X126261653Y-62302971D01*
X127547367Y-65017257D02*
X127547367Y-62017257D01*
X127547367Y-63445828D02*
X129261653Y-63445828D01*
X129261653Y-65017257D02*
X129261653Y-62017257D01*
X131261653Y-62017257D02*
X131547367Y-62017257D01*
X131547367Y-62017257D02*
X131833081Y-62160114D01*
X131833081Y-62160114D02*
X131975939Y-62302971D01*
X131975939Y-62302971D02*
X132118796Y-62588685D01*
X132118796Y-62588685D02*
X132261653Y-63160114D01*
X132261653Y-63160114D02*
X132261653Y-63874400D01*
X132261653Y-63874400D02*
X132118796Y-64445828D01*
X132118796Y-64445828D02*
X131975939Y-64731542D01*
X131975939Y-64731542D02*
X131833081Y-64874400D01*
X131833081Y-64874400D02*
X131547367Y-65017257D01*
X131547367Y-65017257D02*
X131261653Y-65017257D01*
X131261653Y-65017257D02*
X130975939Y-64874400D01*
X130975939Y-64874400D02*
X130833081Y-64731542D01*
X130833081Y-64731542D02*
X130690224Y-64445828D01*
X130690224Y-64445828D02*
X130547367Y-63874400D01*
X130547367Y-63874400D02*
X130547367Y-63160114D01*
X130547367Y-63160114D02*
X130690224Y-62588685D01*
X130690224Y-62588685D02*
X130833081Y-62302971D01*
X130833081Y-62302971D02*
X130975939Y-62160114D01*
X130975939Y-62160114D02*
X131261653Y-62017257D01*
X105483082Y-64731542D02*
X105340225Y-64874400D01*
X105340225Y-64874400D02*
X104911653Y-65017257D01*
X104911653Y-65017257D02*
X104625939Y-65017257D01*
X104625939Y-65017257D02*
X104197368Y-64874400D01*
X104197368Y-64874400D02*
X103911653Y-64588685D01*
X103911653Y-64588685D02*
X103768796Y-64302971D01*
X103768796Y-64302971D02*
X103625939Y-63731542D01*
X103625939Y-63731542D02*
X103625939Y-63302971D01*
X103625939Y-63302971D02*
X103768796Y-62731542D01*
X103768796Y-62731542D02*
X103911653Y-62445828D01*
X103911653Y-62445828D02*
X104197368Y-62160114D01*
X104197368Y-62160114D02*
X104625939Y-62017257D01*
X104625939Y-62017257D02*
X104911653Y-62017257D01*
X104911653Y-62017257D02*
X105340225Y-62160114D01*
X105340225Y-62160114D02*
X105483082Y-62302971D01*
X106768796Y-65017257D02*
X106768796Y-62017257D01*
X106768796Y-63445828D02*
X108483082Y-63445828D01*
X108483082Y-65017257D02*
X108483082Y-62017257D01*
X111483082Y-65017257D02*
X109768796Y-65017257D01*
X110625939Y-65017257D02*
X110625939Y-62017257D01*
X110625939Y-62017257D02*
X110340225Y-62445828D01*
X110340225Y-62445828D02*
X110054510Y-62731542D01*
X110054510Y-62731542D02*
X109768796Y-62874400D01*
D12*
X236130180Y-67622493D02*
X235415895Y-67622493D01*
X235415895Y-67622493D02*
X235273038Y-67574874D01*
X235273038Y-67574874D02*
X235177800Y-67479636D01*
X235177800Y-67479636D02*
X235130180Y-67336779D01*
X235130180Y-67336779D02*
X235130180Y-67241541D01*
X235130180Y-68574874D02*
X235130180Y-68098684D01*
X235130180Y-68098684D02*
X236130180Y-68098684D01*
X235225419Y-69479636D02*
X235177800Y-69432017D01*
X235177800Y-69432017D02*
X235130180Y-69289160D01*
X235130180Y-69289160D02*
X235130180Y-69193922D01*
X235130180Y-69193922D02*
X235177800Y-69051065D01*
X235177800Y-69051065D02*
X235273038Y-68955827D01*
X235273038Y-68955827D02*
X235368276Y-68908208D01*
X235368276Y-68908208D02*
X235558752Y-68860589D01*
X235558752Y-68860589D02*
X235701609Y-68860589D01*
X235701609Y-68860589D02*
X235892085Y-68908208D01*
X235892085Y-68908208D02*
X235987323Y-68955827D01*
X235987323Y-68955827D02*
X236082561Y-69051065D01*
X236082561Y-69051065D02*
X236130180Y-69193922D01*
X236130180Y-69193922D02*
X236130180Y-69289160D01*
X236130180Y-69289160D02*
X236082561Y-69432017D01*
X236082561Y-69432017D02*
X236034942Y-69479636D01*
X236130180Y-70193922D02*
X235415895Y-70193922D01*
X235415895Y-70193922D02*
X235273038Y-70146303D01*
X235273038Y-70146303D02*
X235177800Y-70051065D01*
X235177800Y-70051065D02*
X235130180Y-69908208D01*
X235130180Y-69908208D02*
X235130180Y-69812970D01*
X235130180Y-71146303D02*
X235130180Y-70670113D01*
X235130180Y-70670113D02*
X236130180Y-70670113D01*
X235225419Y-72051065D02*
X235177800Y-72003446D01*
X235177800Y-72003446D02*
X235130180Y-71860589D01*
X235130180Y-71860589D02*
X235130180Y-71765351D01*
X235130180Y-71765351D02*
X235177800Y-71622494D01*
X235177800Y-71622494D02*
X235273038Y-71527256D01*
X235273038Y-71527256D02*
X235368276Y-71479637D01*
X235368276Y-71479637D02*
X235558752Y-71432018D01*
X235558752Y-71432018D02*
X235701609Y-71432018D01*
X235701609Y-71432018D02*
X235892085Y-71479637D01*
X235892085Y-71479637D02*
X235987323Y-71527256D01*
X235987323Y-71527256D02*
X236082561Y-71622494D01*
X236082561Y-71622494D02*
X236130180Y-71765351D01*
X236130180Y-71765351D02*
X236130180Y-71860589D01*
X236130180Y-71860589D02*
X236082561Y-72003446D01*
X236082561Y-72003446D02*
X236034942Y-72051065D01*
X236130180Y-72765351D02*
X235415895Y-72765351D01*
X235415895Y-72765351D02*
X235273038Y-72717732D01*
X235273038Y-72717732D02*
X235177800Y-72622494D01*
X235177800Y-72622494D02*
X235130180Y-72479637D01*
X235130180Y-72479637D02*
X235130180Y-72384399D01*
X235130180Y-73717732D02*
X235130180Y-73241542D01*
X235130180Y-73241542D02*
X236130180Y-73241542D01*
X235225419Y-74622494D02*
X235177800Y-74574875D01*
X235177800Y-74574875D02*
X235130180Y-74432018D01*
X235130180Y-74432018D02*
X235130180Y-74336780D01*
X235130180Y-74336780D02*
X235177800Y-74193923D01*
X235177800Y-74193923D02*
X235273038Y-74098685D01*
X235273038Y-74098685D02*
X235368276Y-74051066D01*
X235368276Y-74051066D02*
X235558752Y-74003447D01*
X235558752Y-74003447D02*
X235701609Y-74003447D01*
X235701609Y-74003447D02*
X235892085Y-74051066D01*
X235892085Y-74051066D02*
X235987323Y-74098685D01*
X235987323Y-74098685D02*
X236082561Y-74193923D01*
X236082561Y-74193923D02*
X236130180Y-74336780D01*
X236130180Y-74336780D02*
X236130180Y-74432018D01*
X236130180Y-74432018D02*
X236082561Y-74574875D01*
X236082561Y-74574875D02*
X236034942Y-74622494D01*
X236130180Y-75336780D02*
X235415895Y-75336780D01*
X235415895Y-75336780D02*
X235273038Y-75289161D01*
X235273038Y-75289161D02*
X235177800Y-75193923D01*
X235177800Y-75193923D02*
X235130180Y-75051066D01*
X235130180Y-75051066D02*
X235130180Y-74955828D01*
X235130180Y-76289161D02*
X235130180Y-75812971D01*
X235130180Y-75812971D02*
X236130180Y-75812971D01*
X235225419Y-77193923D02*
X235177800Y-77146304D01*
X235177800Y-77146304D02*
X235130180Y-77003447D01*
X235130180Y-77003447D02*
X235130180Y-76908209D01*
X235130180Y-76908209D02*
X235177800Y-76765352D01*
X235177800Y-76765352D02*
X235273038Y-76670114D01*
X235273038Y-76670114D02*
X235368276Y-76622495D01*
X235368276Y-76622495D02*
X235558752Y-76574876D01*
X235558752Y-76574876D02*
X235701609Y-76574876D01*
X235701609Y-76574876D02*
X235892085Y-76622495D01*
X235892085Y-76622495D02*
X235987323Y-76670114D01*
X235987323Y-76670114D02*
X236082561Y-76765352D01*
X236082561Y-76765352D02*
X236130180Y-76908209D01*
X236130180Y-76908209D02*
X236130180Y-77003447D01*
X236130180Y-77003447D02*
X236082561Y-77146304D01*
X236082561Y-77146304D02*
X236034942Y-77193923D01*
D11*
X63925939Y-64731542D02*
X63783082Y-64874400D01*
X63783082Y-64874400D02*
X63354510Y-65017257D01*
X63354510Y-65017257D02*
X63068796Y-65017257D01*
X63068796Y-65017257D02*
X62640225Y-64874400D01*
X62640225Y-64874400D02*
X62354510Y-64588685D01*
X62354510Y-64588685D02*
X62211653Y-64302971D01*
X62211653Y-64302971D02*
X62068796Y-63731542D01*
X62068796Y-63731542D02*
X62068796Y-63302971D01*
X62068796Y-63302971D02*
X62211653Y-62731542D01*
X62211653Y-62731542D02*
X62354510Y-62445828D01*
X62354510Y-62445828D02*
X62640225Y-62160114D01*
X62640225Y-62160114D02*
X63068796Y-62017257D01*
X63068796Y-62017257D02*
X63354510Y-62017257D01*
X63354510Y-62017257D02*
X63783082Y-62160114D01*
X63783082Y-62160114D02*
X63925939Y-62302971D01*
X65211653Y-65017257D02*
X65211653Y-62017257D01*
X65211653Y-63445828D02*
X66925939Y-63445828D01*
X66925939Y-65017257D02*
X66925939Y-62017257D01*
X68068796Y-62017257D02*
X69925939Y-62017257D01*
X69925939Y-62017257D02*
X68925939Y-63160114D01*
X68925939Y-63160114D02*
X69354510Y-63160114D01*
X69354510Y-63160114D02*
X69640225Y-63302971D01*
X69640225Y-63302971D02*
X69783082Y-63445828D01*
X69783082Y-63445828D02*
X69925939Y-63731542D01*
X69925939Y-63731542D02*
X69925939Y-64445828D01*
X69925939Y-64445828D02*
X69783082Y-64731542D01*
X69783082Y-64731542D02*
X69640225Y-64874400D01*
X69640225Y-64874400D02*
X69354510Y-65017257D01*
X69354510Y-65017257D02*
X68497367Y-65017257D01*
X68497367Y-65017257D02*
X68211653Y-64874400D01*
X68211653Y-64874400D02*
X68068796Y-64731542D01*
X84704510Y-64731542D02*
X84561653Y-64874400D01*
X84561653Y-64874400D02*
X84133081Y-65017257D01*
X84133081Y-65017257D02*
X83847367Y-65017257D01*
X83847367Y-65017257D02*
X83418796Y-64874400D01*
X83418796Y-64874400D02*
X83133081Y-64588685D01*
X83133081Y-64588685D02*
X82990224Y-64302971D01*
X82990224Y-64302971D02*
X82847367Y-63731542D01*
X82847367Y-63731542D02*
X82847367Y-63302971D01*
X82847367Y-63302971D02*
X82990224Y-62731542D01*
X82990224Y-62731542D02*
X83133081Y-62445828D01*
X83133081Y-62445828D02*
X83418796Y-62160114D01*
X83418796Y-62160114D02*
X83847367Y-62017257D01*
X83847367Y-62017257D02*
X84133081Y-62017257D01*
X84133081Y-62017257D02*
X84561653Y-62160114D01*
X84561653Y-62160114D02*
X84704510Y-62302971D01*
X85990224Y-65017257D02*
X85990224Y-62017257D01*
X85990224Y-63445828D02*
X87704510Y-63445828D01*
X87704510Y-65017257D02*
X87704510Y-62017257D01*
X88990224Y-62302971D02*
X89133081Y-62160114D01*
X89133081Y-62160114D02*
X89418796Y-62017257D01*
X89418796Y-62017257D02*
X90133081Y-62017257D01*
X90133081Y-62017257D02*
X90418796Y-62160114D01*
X90418796Y-62160114D02*
X90561653Y-62302971D01*
X90561653Y-62302971D02*
X90704510Y-62588685D01*
X90704510Y-62588685D02*
X90704510Y-62874400D01*
X90704510Y-62874400D02*
X90561653Y-63302971D01*
X90561653Y-63302971D02*
X88847367Y-65017257D01*
X88847367Y-65017257D02*
X90704510Y-65017257D01*
X209375939Y-64731542D02*
X209233082Y-64874400D01*
X209233082Y-64874400D02*
X208804510Y-65017257D01*
X208804510Y-65017257D02*
X208518796Y-65017257D01*
X208518796Y-65017257D02*
X208090225Y-64874400D01*
X208090225Y-64874400D02*
X207804510Y-64588685D01*
X207804510Y-64588685D02*
X207661653Y-64302971D01*
X207661653Y-64302971D02*
X207518796Y-63731542D01*
X207518796Y-63731542D02*
X207518796Y-63302971D01*
X207518796Y-63302971D02*
X207661653Y-62731542D01*
X207661653Y-62731542D02*
X207804510Y-62445828D01*
X207804510Y-62445828D02*
X208090225Y-62160114D01*
X208090225Y-62160114D02*
X208518796Y-62017257D01*
X208518796Y-62017257D02*
X208804510Y-62017257D01*
X208804510Y-62017257D02*
X209233082Y-62160114D01*
X209233082Y-62160114D02*
X209375939Y-62302971D01*
X210661653Y-65017257D02*
X210661653Y-62017257D01*
X210661653Y-63445828D02*
X212375939Y-63445828D01*
X212375939Y-65017257D02*
X212375939Y-62017257D01*
X213518796Y-62017257D02*
X215518796Y-62017257D01*
X215518796Y-62017257D02*
X214233082Y-65017257D01*
D13*
X101157216Y-79221995D02*
X101157216Y-74221995D01*
X104014359Y-79221995D02*
X101871501Y-76364852D01*
X104014359Y-74221995D02*
X101157216Y-77079138D01*
X105919120Y-77793423D02*
X108300073Y-77793423D01*
X105442930Y-79221995D02*
X107109597Y-74221995D01*
X107109597Y-74221995D02*
X108776263Y-79221995D01*
X110204834Y-78983900D02*
X110919120Y-79221995D01*
X110919120Y-79221995D02*
X112109596Y-79221995D01*
X112109596Y-79221995D02*
X112585787Y-78983900D01*
X112585787Y-78983900D02*
X112823882Y-78745804D01*
X112823882Y-78745804D02*
X113061977Y-78269614D01*
X113061977Y-78269614D02*
X113061977Y-77793423D01*
X113061977Y-77793423D02*
X112823882Y-77317233D01*
X112823882Y-77317233D02*
X112585787Y-77079138D01*
X112585787Y-77079138D02*
X112109596Y-76841042D01*
X112109596Y-76841042D02*
X111157215Y-76602947D01*
X111157215Y-76602947D02*
X110681025Y-76364852D01*
X110681025Y-76364852D02*
X110442930Y-76126757D01*
X110442930Y-76126757D02*
X110204834Y-75650566D01*
X110204834Y-75650566D02*
X110204834Y-75174376D01*
X110204834Y-75174376D02*
X110442930Y-74698185D01*
X110442930Y-74698185D02*
X110681025Y-74460090D01*
X110681025Y-74460090D02*
X111157215Y-74221995D01*
X111157215Y-74221995D02*
X112347692Y-74221995D01*
X112347692Y-74221995D02*
X113061977Y-74460090D01*
X115204835Y-79221995D02*
X115204835Y-74221995D01*
X115204835Y-74221995D02*
X116871501Y-77793423D01*
X116871501Y-77793423D02*
X118538168Y-74221995D01*
X118538168Y-74221995D02*
X118538168Y-79221995D01*
X127109597Y-79221995D02*
X124728645Y-79221995D01*
X124728645Y-79221995D02*
X124728645Y-74221995D01*
X128776264Y-79221995D02*
X128776264Y-74221995D01*
X128776264Y-74221995D02*
X129966740Y-74221995D01*
X129966740Y-74221995D02*
X130681026Y-74460090D01*
X130681026Y-74460090D02*
X131157216Y-74936280D01*
X131157216Y-74936280D02*
X131395311Y-75412471D01*
X131395311Y-75412471D02*
X131633407Y-76364852D01*
X131633407Y-76364852D02*
X131633407Y-77079138D01*
X131633407Y-77079138D02*
X131395311Y-78031519D01*
X131395311Y-78031519D02*
X131157216Y-78507709D01*
X131157216Y-78507709D02*
X130681026Y-78983900D01*
X130681026Y-78983900D02*
X129966740Y-79221995D01*
X129966740Y-79221995D02*
X128776264Y-79221995D01*
X136633407Y-78745804D02*
X136395311Y-78983900D01*
X136395311Y-78983900D02*
X135681026Y-79221995D01*
X135681026Y-79221995D02*
X135204835Y-79221995D01*
X135204835Y-79221995D02*
X134490549Y-78983900D01*
X134490549Y-78983900D02*
X134014359Y-78507709D01*
X134014359Y-78507709D02*
X133776264Y-78031519D01*
X133776264Y-78031519D02*
X133538168Y-77079138D01*
X133538168Y-77079138D02*
X133538168Y-76364852D01*
X133538168Y-76364852D02*
X133776264Y-75412471D01*
X133776264Y-75412471D02*
X134014359Y-74936280D01*
X134014359Y-74936280D02*
X134490549Y-74460090D01*
X134490549Y-74460090D02*
X135204835Y-74221995D01*
X135204835Y-74221995D02*
X135681026Y-74221995D01*
X135681026Y-74221995D02*
X136395311Y-74460090D01*
X136395311Y-74460090D02*
X136633407Y-74698185D01*
X144252454Y-76602947D02*
X144966740Y-76841042D01*
X144966740Y-76841042D02*
X145204835Y-77079138D01*
X145204835Y-77079138D02*
X145442931Y-77555328D01*
X145442931Y-77555328D02*
X145442931Y-78269614D01*
X145442931Y-78269614D02*
X145204835Y-78745804D01*
X145204835Y-78745804D02*
X144966740Y-78983900D01*
X144966740Y-78983900D02*
X144490550Y-79221995D01*
X144490550Y-79221995D02*
X142585788Y-79221995D01*
X142585788Y-79221995D02*
X142585788Y-74221995D01*
X142585788Y-74221995D02*
X144252454Y-74221995D01*
X144252454Y-74221995D02*
X144728645Y-74460090D01*
X144728645Y-74460090D02*
X144966740Y-74698185D01*
X144966740Y-74698185D02*
X145204835Y-75174376D01*
X145204835Y-75174376D02*
X145204835Y-75650566D01*
X145204835Y-75650566D02*
X144966740Y-76126757D01*
X144966740Y-76126757D02*
X144728645Y-76364852D01*
X144728645Y-76364852D02*
X144252454Y-76602947D01*
X144252454Y-76602947D02*
X142585788Y-76602947D01*
X147585788Y-79221995D02*
X147585788Y-75888661D01*
X147585788Y-76841042D02*
X147823883Y-76364852D01*
X147823883Y-76364852D02*
X148061978Y-76126757D01*
X148061978Y-76126757D02*
X148538169Y-75888661D01*
X148538169Y-75888661D02*
X149014359Y-75888661D01*
X152585788Y-78983900D02*
X152109597Y-79221995D01*
X152109597Y-79221995D02*
X151157216Y-79221995D01*
X151157216Y-79221995D02*
X150681026Y-78983900D01*
X150681026Y-78983900D02*
X150442930Y-78507709D01*
X150442930Y-78507709D02*
X150442930Y-76602947D01*
X150442930Y-76602947D02*
X150681026Y-76126757D01*
X150681026Y-76126757D02*
X151157216Y-75888661D01*
X151157216Y-75888661D02*
X152109597Y-75888661D01*
X152109597Y-75888661D02*
X152585788Y-76126757D01*
X152585788Y-76126757D02*
X152823883Y-76602947D01*
X152823883Y-76602947D02*
X152823883Y-77079138D01*
X152823883Y-77079138D02*
X150442930Y-77555328D01*
X157109597Y-79221995D02*
X157109597Y-76602947D01*
X157109597Y-76602947D02*
X156871502Y-76126757D01*
X156871502Y-76126757D02*
X156395311Y-75888661D01*
X156395311Y-75888661D02*
X155442930Y-75888661D01*
X155442930Y-75888661D02*
X154966740Y-76126757D01*
X157109597Y-78983900D02*
X156633406Y-79221995D01*
X156633406Y-79221995D02*
X155442930Y-79221995D01*
X155442930Y-79221995D02*
X154966740Y-78983900D01*
X154966740Y-78983900D02*
X154728644Y-78507709D01*
X154728644Y-78507709D02*
X154728644Y-78031519D01*
X154728644Y-78031519D02*
X154966740Y-77555328D01*
X154966740Y-77555328D02*
X155442930Y-77317233D01*
X155442930Y-77317233D02*
X156633406Y-77317233D01*
X156633406Y-77317233D02*
X157109597Y-77079138D01*
X159490550Y-79221995D02*
X159490550Y-74221995D01*
X159966740Y-77317233D02*
X161395312Y-79221995D01*
X161395312Y-75888661D02*
X159490550Y-77793423D01*
X164252454Y-79221995D02*
X163776264Y-78983900D01*
X163776264Y-78983900D02*
X163538169Y-78745804D01*
X163538169Y-78745804D02*
X163300073Y-78269614D01*
X163300073Y-78269614D02*
X163300073Y-76841042D01*
X163300073Y-76841042D02*
X163538169Y-76364852D01*
X163538169Y-76364852D02*
X163776264Y-76126757D01*
X163776264Y-76126757D02*
X164252454Y-75888661D01*
X164252454Y-75888661D02*
X164966740Y-75888661D01*
X164966740Y-75888661D02*
X165442931Y-76126757D01*
X165442931Y-76126757D02*
X165681026Y-76364852D01*
X165681026Y-76364852D02*
X165919121Y-76841042D01*
X165919121Y-76841042D02*
X165919121Y-78269614D01*
X165919121Y-78269614D02*
X165681026Y-78745804D01*
X165681026Y-78745804D02*
X165442931Y-78983900D01*
X165442931Y-78983900D02*
X164966740Y-79221995D01*
X164966740Y-79221995D02*
X164252454Y-79221995D01*
X170204836Y-75888661D02*
X170204836Y-79221995D01*
X168061979Y-75888661D02*
X168061979Y-78507709D01*
X168061979Y-78507709D02*
X168300074Y-78983900D01*
X168300074Y-78983900D02*
X168776264Y-79221995D01*
X168776264Y-79221995D02*
X169490550Y-79221995D01*
X169490550Y-79221995D02*
X169966741Y-78983900D01*
X169966741Y-78983900D02*
X170204836Y-78745804D01*
X171871503Y-75888661D02*
X173776265Y-75888661D01*
X172585789Y-74221995D02*
X172585789Y-78507709D01*
X172585789Y-78507709D02*
X172823884Y-78983900D01*
X172823884Y-78983900D02*
X173300074Y-79221995D01*
X173300074Y-79221995D02*
X173776265Y-79221995D01*
D11*
X167818796Y-64731542D02*
X167675939Y-64874400D01*
X167675939Y-64874400D02*
X167247367Y-65017257D01*
X167247367Y-65017257D02*
X166961653Y-65017257D01*
X166961653Y-65017257D02*
X166533082Y-64874400D01*
X166533082Y-64874400D02*
X166247367Y-64588685D01*
X166247367Y-64588685D02*
X166104510Y-64302971D01*
X166104510Y-64302971D02*
X165961653Y-63731542D01*
X165961653Y-63731542D02*
X165961653Y-63302971D01*
X165961653Y-63302971D02*
X166104510Y-62731542D01*
X166104510Y-62731542D02*
X166247367Y-62445828D01*
X166247367Y-62445828D02*
X166533082Y-62160114D01*
X166533082Y-62160114D02*
X166961653Y-62017257D01*
X166961653Y-62017257D02*
X167247367Y-62017257D01*
X167247367Y-62017257D02*
X167675939Y-62160114D01*
X167675939Y-62160114D02*
X167818796Y-62302971D01*
X169104510Y-65017257D02*
X169104510Y-62017257D01*
X169104510Y-63445828D02*
X170818796Y-63445828D01*
X170818796Y-65017257D02*
X170818796Y-62017257D01*
X173675939Y-62017257D02*
X172247367Y-62017257D01*
X172247367Y-62017257D02*
X172104510Y-63445828D01*
X172104510Y-63445828D02*
X172247367Y-63302971D01*
X172247367Y-63302971D02*
X172533082Y-63160114D01*
X172533082Y-63160114D02*
X173247367Y-63160114D01*
X173247367Y-63160114D02*
X173533082Y-63302971D01*
X173533082Y-63302971D02*
X173675939Y-63445828D01*
X173675939Y-63445828D02*
X173818796Y-63731542D01*
X173818796Y-63731542D02*
X173818796Y-64445828D01*
X173818796Y-64445828D02*
X173675939Y-64731542D01*
X173675939Y-64731542D02*
X173533082Y-64874400D01*
X173533082Y-64874400D02*
X173247367Y-65017257D01*
X173247367Y-65017257D02*
X172533082Y-65017257D01*
X172533082Y-65017257D02*
X172247367Y-64874400D01*
X172247367Y-64874400D02*
X172104510Y-64731542D01*
X147040225Y-64731542D02*
X146897368Y-64874400D01*
X146897368Y-64874400D02*
X146468796Y-65017257D01*
X146468796Y-65017257D02*
X146183082Y-65017257D01*
X146183082Y-65017257D02*
X145754511Y-64874400D01*
X145754511Y-64874400D02*
X145468796Y-64588685D01*
X145468796Y-64588685D02*
X145325939Y-64302971D01*
X145325939Y-64302971D02*
X145183082Y-63731542D01*
X145183082Y-63731542D02*
X145183082Y-63302971D01*
X145183082Y-63302971D02*
X145325939Y-62731542D01*
X145325939Y-62731542D02*
X145468796Y-62445828D01*
X145468796Y-62445828D02*
X145754511Y-62160114D01*
X145754511Y-62160114D02*
X146183082Y-62017257D01*
X146183082Y-62017257D02*
X146468796Y-62017257D01*
X146468796Y-62017257D02*
X146897368Y-62160114D01*
X146897368Y-62160114D02*
X147040225Y-62302971D01*
X148325939Y-65017257D02*
X148325939Y-62017257D01*
X148325939Y-63445828D02*
X150040225Y-63445828D01*
X150040225Y-65017257D02*
X150040225Y-62017257D01*
X152754511Y-63017257D02*
X152754511Y-65017257D01*
X152040225Y-61874400D02*
X151325939Y-64017257D01*
X151325939Y-64017257D02*
X153183082Y-64017257D01*
D12*
X224932816Y-96539033D02*
X224932816Y-97540141D01*
X224932816Y-97540141D02*
X224866076Y-97740362D01*
X224866076Y-97740362D02*
X224732595Y-97873844D01*
X224732595Y-97873844D02*
X224532373Y-97940584D01*
X224532373Y-97940584D02*
X224398892Y-97940584D01*
X226200886Y-97006217D02*
X226200886Y-97940584D01*
X225867183Y-96472293D02*
X225533481Y-97473400D01*
X225533481Y-97473400D02*
X226401107Y-97473400D01*
D14*
X102534666Y-60185419D02*
X102534666Y-60899704D01*
X102534666Y-60899704D02*
X102487047Y-61042561D01*
X102487047Y-61042561D02*
X102391809Y-61137800D01*
X102391809Y-61137800D02*
X102248952Y-61185419D01*
X102248952Y-61185419D02*
X102153714Y-61185419D01*
X103487047Y-60185419D02*
X103010857Y-60185419D01*
X103010857Y-60185419D02*
X102963238Y-60661609D01*
X102963238Y-60661609D02*
X103010857Y-60613990D01*
X103010857Y-60613990D02*
X103106095Y-60566371D01*
X103106095Y-60566371D02*
X103344190Y-60566371D01*
X103344190Y-60566371D02*
X103439428Y-60613990D01*
X103439428Y-60613990D02*
X103487047Y-60661609D01*
X103487047Y-60661609D02*
X103534666Y-60756847D01*
X103534666Y-60756847D02*
X103534666Y-60994942D01*
X103534666Y-60994942D02*
X103487047Y-61090180D01*
X103487047Y-61090180D02*
X103439428Y-61137800D01*
X103439428Y-61137800D02*
X103344190Y-61185419D01*
X103344190Y-61185419D02*
X103106095Y-61185419D01*
X103106095Y-61185419D02*
X103010857Y-61137800D01*
X103010857Y-61137800D02*
X102963238Y-61090180D01*
X185382666Y-60185419D02*
X185382666Y-60899704D01*
X185382666Y-60899704D02*
X185335047Y-61042561D01*
X185335047Y-61042561D02*
X185239809Y-61137800D01*
X185239809Y-61137800D02*
X185096952Y-61185419D01*
X185096952Y-61185419D02*
X185001714Y-61185419D01*
X185906476Y-61185419D02*
X186096952Y-61185419D01*
X186096952Y-61185419D02*
X186192190Y-61137800D01*
X186192190Y-61137800D02*
X186239809Y-61090180D01*
X186239809Y-61090180D02*
X186335047Y-60947323D01*
X186335047Y-60947323D02*
X186382666Y-60756847D01*
X186382666Y-60756847D02*
X186382666Y-60375895D01*
X186382666Y-60375895D02*
X186335047Y-60280657D01*
X186335047Y-60280657D02*
X186287428Y-60233038D01*
X186287428Y-60233038D02*
X186192190Y-60185419D01*
X186192190Y-60185419D02*
X186001714Y-60185419D01*
X186001714Y-60185419D02*
X185906476Y-60233038D01*
X185906476Y-60233038D02*
X185858857Y-60280657D01*
X185858857Y-60280657D02*
X185811238Y-60375895D01*
X185811238Y-60375895D02*
X185811238Y-60613990D01*
X185811238Y-60613990D02*
X185858857Y-60709228D01*
X185858857Y-60709228D02*
X185906476Y-60756847D01*
X185906476Y-60756847D02*
X186001714Y-60804466D01*
X186001714Y-60804466D02*
X186192190Y-60804466D01*
X186192190Y-60804466D02*
X186287428Y-60756847D01*
X186287428Y-60756847D02*
X186335047Y-60709228D01*
X186335047Y-60709228D02*
X186382666Y-60613990D01*
X61110666Y-60185419D02*
X61110666Y-60899704D01*
X61110666Y-60899704D02*
X61063047Y-61042561D01*
X61063047Y-61042561D02*
X60967809Y-61137800D01*
X60967809Y-61137800D02*
X60824952Y-61185419D01*
X60824952Y-61185419D02*
X60729714Y-61185419D01*
X62110666Y-61185419D02*
X61539238Y-61185419D01*
X61824952Y-61185419D02*
X61824952Y-60185419D01*
X61824952Y-60185419D02*
X61729714Y-60328276D01*
X61729714Y-60328276D02*
X61634476Y-60423514D01*
X61634476Y-60423514D02*
X61539238Y-60471133D01*
X81822666Y-60185419D02*
X81822666Y-60899704D01*
X81822666Y-60899704D02*
X81775047Y-61042561D01*
X81775047Y-61042561D02*
X81679809Y-61137800D01*
X81679809Y-61137800D02*
X81536952Y-61185419D01*
X81536952Y-61185419D02*
X81441714Y-61185419D01*
X82251238Y-60280657D02*
X82298857Y-60233038D01*
X82298857Y-60233038D02*
X82394095Y-60185419D01*
X82394095Y-60185419D02*
X82632190Y-60185419D01*
X82632190Y-60185419D02*
X82727428Y-60233038D01*
X82727428Y-60233038D02*
X82775047Y-60280657D01*
X82775047Y-60280657D02*
X82822666Y-60375895D01*
X82822666Y-60375895D02*
X82822666Y-60471133D01*
X82822666Y-60471133D02*
X82775047Y-60613990D01*
X82775047Y-60613990D02*
X82203619Y-61185419D01*
X82203619Y-61185419D02*
X82822666Y-61185419D01*
X143958666Y-60185419D02*
X143958666Y-60899704D01*
X143958666Y-60899704D02*
X143911047Y-61042561D01*
X143911047Y-61042561D02*
X143815809Y-61137800D01*
X143815809Y-61137800D02*
X143672952Y-61185419D01*
X143672952Y-61185419D02*
X143577714Y-61185419D01*
X144339619Y-60185419D02*
X145006285Y-60185419D01*
X145006285Y-60185419D02*
X144577714Y-61185419D01*
X206094666Y-60185419D02*
X206094666Y-60899704D01*
X206094666Y-60899704D02*
X206047047Y-61042561D01*
X206047047Y-61042561D02*
X205951809Y-61137800D01*
X205951809Y-61137800D02*
X205808952Y-61185419D01*
X205808952Y-61185419D02*
X205713714Y-61185419D01*
X206713714Y-60613990D02*
X206618476Y-60566371D01*
X206618476Y-60566371D02*
X206570857Y-60518752D01*
X206570857Y-60518752D02*
X206523238Y-60423514D01*
X206523238Y-60423514D02*
X206523238Y-60375895D01*
X206523238Y-60375895D02*
X206570857Y-60280657D01*
X206570857Y-60280657D02*
X206618476Y-60233038D01*
X206618476Y-60233038D02*
X206713714Y-60185419D01*
X206713714Y-60185419D02*
X206904190Y-60185419D01*
X206904190Y-60185419D02*
X206999428Y-60233038D01*
X206999428Y-60233038D02*
X207047047Y-60280657D01*
X207047047Y-60280657D02*
X207094666Y-60375895D01*
X207094666Y-60375895D02*
X207094666Y-60423514D01*
X207094666Y-60423514D02*
X207047047Y-60518752D01*
X207047047Y-60518752D02*
X206999428Y-60566371D01*
X206999428Y-60566371D02*
X206904190Y-60613990D01*
X206904190Y-60613990D02*
X206713714Y-60613990D01*
X206713714Y-60613990D02*
X206618476Y-60661609D01*
X206618476Y-60661609D02*
X206570857Y-60709228D01*
X206570857Y-60709228D02*
X206523238Y-60804466D01*
X206523238Y-60804466D02*
X206523238Y-60994942D01*
X206523238Y-60994942D02*
X206570857Y-61090180D01*
X206570857Y-61090180D02*
X206618476Y-61137800D01*
X206618476Y-61137800D02*
X206713714Y-61185419D01*
X206713714Y-61185419D02*
X206904190Y-61185419D01*
X206904190Y-61185419D02*
X206999428Y-61137800D01*
X206999428Y-61137800D02*
X207047047Y-61090180D01*
X207047047Y-61090180D02*
X207094666Y-60994942D01*
X207094666Y-60994942D02*
X207094666Y-60804466D01*
X207094666Y-60804466D02*
X207047047Y-60709228D01*
X207047047Y-60709228D02*
X206999428Y-60661609D01*
X206999428Y-60661609D02*
X206904190Y-60613990D01*
X123246666Y-60185419D02*
X123246666Y-60899704D01*
X123246666Y-60899704D02*
X123199047Y-61042561D01*
X123199047Y-61042561D02*
X123103809Y-61137800D01*
X123103809Y-61137800D02*
X122960952Y-61185419D01*
X122960952Y-61185419D02*
X122865714Y-61185419D01*
X123627619Y-60185419D02*
X124246666Y-60185419D01*
X124246666Y-60185419D02*
X123913333Y-60566371D01*
X123913333Y-60566371D02*
X124056190Y-60566371D01*
X124056190Y-60566371D02*
X124151428Y-60613990D01*
X124151428Y-60613990D02*
X124199047Y-60661609D01*
X124199047Y-60661609D02*
X124246666Y-60756847D01*
X124246666Y-60756847D02*
X124246666Y-60994942D01*
X124246666Y-60994942D02*
X124199047Y-61090180D01*
X124199047Y-61090180D02*
X124151428Y-61137800D01*
X124151428Y-61137800D02*
X124056190Y-61185419D01*
X124056190Y-61185419D02*
X123770476Y-61185419D01*
X123770476Y-61185419D02*
X123675238Y-61137800D01*
X123675238Y-61137800D02*
X123627619Y-61090180D01*
X164670666Y-60185419D02*
X164670666Y-60899704D01*
X164670666Y-60899704D02*
X164623047Y-61042561D01*
X164623047Y-61042561D02*
X164527809Y-61137800D01*
X164527809Y-61137800D02*
X164384952Y-61185419D01*
X164384952Y-61185419D02*
X164289714Y-61185419D01*
X165575428Y-60185419D02*
X165384952Y-60185419D01*
X165384952Y-60185419D02*
X165289714Y-60233038D01*
X165289714Y-60233038D02*
X165242095Y-60280657D01*
X165242095Y-60280657D02*
X165146857Y-60423514D01*
X165146857Y-60423514D02*
X165099238Y-60613990D01*
X165099238Y-60613990D02*
X165099238Y-60994942D01*
X165099238Y-60994942D02*
X165146857Y-61090180D01*
X165146857Y-61090180D02*
X165194476Y-61137800D01*
X165194476Y-61137800D02*
X165289714Y-61185419D01*
X165289714Y-61185419D02*
X165480190Y-61185419D01*
X165480190Y-61185419D02*
X165575428Y-61137800D01*
X165575428Y-61137800D02*
X165623047Y-61090180D01*
X165623047Y-61090180D02*
X165670666Y-60994942D01*
X165670666Y-60994942D02*
X165670666Y-60756847D01*
X165670666Y-60756847D02*
X165623047Y-60661609D01*
X165623047Y-60661609D02*
X165575428Y-60613990D01*
X165575428Y-60613990D02*
X165480190Y-60566371D01*
X165480190Y-60566371D02*
X165289714Y-60566371D01*
X165289714Y-60566371D02*
X165194476Y-60613990D01*
X165194476Y-60613990D02*
X165146857Y-60661609D01*
X165146857Y-60661609D02*
X165099238Y-60756847D01*
D15*
%TO.C,J4*%
X227092400Y-97490000D02*
X227092400Y-44390000D01*
X239741600Y-97490000D02*
X227092400Y-97490000D01*
X239741600Y-90140000D02*
X239741600Y-97490000D01*
X245913800Y-90140000D02*
X239741600Y-90140000D01*
X239741600Y-51740000D02*
X239741600Y-90140000D01*
X239741600Y-51740000D02*
X245913800Y-51740000D01*
X245913800Y-51740000D02*
X245913800Y-90140000D01*
X227092400Y-44390000D02*
X239741600Y-44390000D01*
X239741600Y-44390000D02*
X239741600Y-51740000D01*
D10*
X226442000Y-54440000D02*
G75*
G02*
X226042000Y-54440000I-200000J0D01*
G01*
X226042000Y-54440000D02*
G75*
G02*
X226442000Y-54440000I200000J0D01*
G01*
D16*
%TO.C,J5*%
X99940000Y-43750000D02*
X114940000Y-43750000D01*
X99940000Y-58750000D02*
X99940000Y-43750000D01*
X107440000Y-43950000D02*
X106440000Y-44950000D01*
X107440000Y-43950000D02*
X108440000Y-44950000D01*
X114940000Y-43750000D02*
X114940000Y-58750000D01*
X114940000Y-58750000D02*
X99940000Y-58750000D01*
%TO.C,J9*%
X182788000Y-43750000D02*
X197788000Y-43750000D01*
X182788000Y-58750000D02*
X182788000Y-43750000D01*
X190288000Y-43950000D02*
X189288000Y-44950000D01*
X190288000Y-43950000D02*
X191288000Y-44950000D01*
X197788000Y-43750000D02*
X197788000Y-58750000D01*
X197788000Y-58750000D02*
X182788000Y-58750000D01*
%TO.C,J1*%
X58516000Y-43750000D02*
X73516000Y-43750000D01*
X58516000Y-58750000D02*
X58516000Y-43750000D01*
X66016000Y-43950000D02*
X65016000Y-44950000D01*
X66016000Y-43950000D02*
X67016000Y-44950000D01*
X73516000Y-43750000D02*
X73516000Y-58750000D01*
X73516000Y-58750000D02*
X58516000Y-58750000D01*
%TO.C,J2*%
X79228000Y-43750000D02*
X94228000Y-43750000D01*
X79228000Y-58750000D02*
X79228000Y-43750000D01*
X86728000Y-43950000D02*
X85728000Y-44950000D01*
X86728000Y-43950000D02*
X87728000Y-44950000D01*
X94228000Y-43750000D02*
X94228000Y-58750000D01*
X94228000Y-58750000D02*
X79228000Y-58750000D01*
%TO.C,J7*%
X141364000Y-43750000D02*
X156364000Y-43750000D01*
X141364000Y-58750000D02*
X141364000Y-43750000D01*
X148864000Y-43950000D02*
X147864000Y-44950000D01*
X148864000Y-43950000D02*
X149864000Y-44950000D01*
X156364000Y-43750000D02*
X156364000Y-58750000D01*
X156364000Y-58750000D02*
X141364000Y-58750000D01*
%TO.C,J8*%
X203500000Y-43750000D02*
X218500000Y-43750000D01*
X203500000Y-58750000D02*
X203500000Y-43750000D01*
X211000000Y-43950000D02*
X210000000Y-44950000D01*
X211000000Y-43950000D02*
X212000000Y-44950000D01*
X218500000Y-43750000D02*
X218500000Y-58750000D01*
X218500000Y-58750000D02*
X203500000Y-58750000D01*
%TO.C,J3*%
X120652000Y-43750000D02*
X135652000Y-43750000D01*
X120652000Y-58750000D02*
X120652000Y-43750000D01*
X128152000Y-43950000D02*
X127152000Y-44950000D01*
X128152000Y-43950000D02*
X129152000Y-44950000D01*
X135652000Y-43750000D02*
X135652000Y-58750000D01*
X135652000Y-58750000D02*
X120652000Y-58750000D01*
%TO.C,J6*%
X162076000Y-43750000D02*
X177076000Y-43750000D01*
X162076000Y-58750000D02*
X162076000Y-43750000D01*
X169576000Y-43950000D02*
X168576000Y-44950000D01*
X169576000Y-43950000D02*
X170576000Y-44950000D01*
X177076000Y-43750000D02*
X177076000Y-58750000D01*
X177076000Y-58750000D02*
X162076000Y-58750000D01*
%TD*%
%LPC*%
D17*
%TO.C,J4*%
X230242000Y-94460400D03*
X230242000Y-47419600D03*
D18*
X228819600Y-87500000D03*
D19*
X228819600Y-84740000D03*
X228819600Y-81980000D03*
X228819600Y-79220000D03*
X228819600Y-76460000D03*
X228819600Y-73700000D03*
X228819600Y-70940000D03*
X228819600Y-68180000D03*
X228819600Y-65420000D03*
X228819600Y-62660000D03*
X228819600Y-59900000D03*
X228819600Y-57140000D03*
X228819600Y-54380000D03*
X231664400Y-86120000D03*
X231664400Y-83360000D03*
X231664400Y-80600000D03*
X231664400Y-77840000D03*
X231664400Y-75080000D03*
X231664400Y-72320000D03*
X231664400Y-69560000D03*
X231664400Y-66800000D03*
X231664400Y-64040000D03*
X231664400Y-61280000D03*
X231664400Y-58520000D03*
X231664400Y-55760000D03*
%TD*%
D20*
%TO.C,J5*%
X107440000Y-56450000D03*
D21*
X102360000Y-51370000D03*
D20*
X104900000Y-56450000D03*
D21*
X112520000Y-51370000D03*
%TD*%
D20*
%TO.C,J9*%
X190288000Y-56450000D03*
D21*
X185208000Y-51370000D03*
D20*
X187748000Y-56450000D03*
D21*
X195368000Y-51370000D03*
%TD*%
D22*
%TO.C,H2*%
X222700000Y-94000000D03*
%TD*%
%TO.C,H4*%
X53000000Y-48000000D03*
%TD*%
D20*
%TO.C,J1*%
X66016000Y-56450000D03*
D21*
X60936000Y-51370000D03*
D20*
X63476000Y-56450000D03*
D21*
X71096000Y-51370000D03*
%TD*%
D20*
%TO.C,J2*%
X86728000Y-56450000D03*
D21*
X81648000Y-51370000D03*
D20*
X84188000Y-56450000D03*
D21*
X91808000Y-51370000D03*
%TD*%
D20*
%TO.C,J7*%
X148864000Y-56450000D03*
D21*
X143784000Y-51370000D03*
D20*
X146324000Y-56450000D03*
D21*
X153944000Y-51370000D03*
%TD*%
D22*
%TO.C,H1*%
X222700000Y-48000000D03*
%TD*%
D20*
%TO.C,J8*%
X211000000Y-56450000D03*
D21*
X205920000Y-51370000D03*
D20*
X208460000Y-56450000D03*
D21*
X216080000Y-51370000D03*
%TD*%
D20*
%TO.C,J3*%
X128152000Y-56450000D03*
D21*
X123072000Y-51370000D03*
D20*
X125612000Y-56450000D03*
D21*
X133232000Y-51370000D03*
%TD*%
D22*
%TO.C,H3*%
X53000000Y-94000000D03*
%TD*%
D20*
%TO.C,J6*%
X169576000Y-56450000D03*
D21*
X164496000Y-51370000D03*
D20*
X167036000Y-56450000D03*
D21*
X174656000Y-51370000D03*
%TD*%
%LPD*%
M02*
